<?xml version="1.0" encoding="UTF-8"?>
<svg width="64" height="64" version="1.1" viewBox="0 0 16.933 16.933" xmlns="http://www.w3.org/2000/svg" xmlns:cc="http://creativecommons.org/ns#" xmlns:dc="http://purl.org/dc/elements/1.1/" xmlns:rdf="http://www.w3.org/1999/02/22-rdf-syntax-ns#" xmlns:xlink="http://www.w3.org/1999/xlink">
 <metadata>
  <rdf:RDF>
   <cc:Work rdf:about="">
    <dc:format>image/svg+xml</dc:format>
    <dc:type rdf:resource="http://purl.org/dc/dcmitype/StillImage"/>
    <dc:title/>
   </cc:Work>
  </rdf:RDF>
 </metadata>
 <defs>
  <linearGradient id="linearGradient15515" x1="10.798" x2="10.798" y1="282.88" y2="283.29" gradientTransform="matrix(1.0543 0 0 .55499 4.1087 128.14)" gradientUnits="userSpaceOnUse" xlink:href="#linearGradient991"/>
  <linearGradient id="linearGradient991">
   <stop stop-color="#969696" offset="0"/>
   <stop stop-color="#e6e6e6" stop-opacity=".90196" offset="1"/>
  </linearGradient>
  <linearGradient id="linearGradient15517" x1="8.8166" x2="8.8166" y1="293.7" y2="294.12" gradientTransform="matrix(.94579 0 0 .555 7.7176 133.01)" gradientUnits="userSpaceOnUse" xlink:href="#linearGradient991"/>
  <linearGradient id="linearGradient15519" x1="7.998" x2="7.998" y1="284.98" y2="285.41" gradientTransform="matrix(.94579 0 0 .555 7.9256 129.13)" gradientUnits="userSpaceOnUse" xlink:href="#linearGradient991"/>
  <linearGradient id="linearGradient15521" x1="8.7643" x2="8.7643" y1="287.18" y2="287.64" gradientTransform="matrix(.94579 0 0 .555 7.919 130.1)" gradientUnits="userSpaceOnUse" xlink:href="#linearGradient991"/>
  <linearGradient id="linearGradient15523" x1="8.3178" x2="8.3178" y1="289.36" y2="289.81" gradientTransform="matrix(.94579 0 0 .555 7.901 131.07)" gradientUnits="userSpaceOnUse" xlink:href="#linearGradient991"/>
  <linearGradient id="linearGradient15525" x1="8.2553" x2="8.2553" y1="291.55" y2="291.96" gradientTransform="matrix(.94579 0 0 .55502 8.0111 132.03)" gradientUnits="userSpaceOnUse" xlink:href="#linearGradient991"/>
  <linearGradient id="linearGradient677332-3" x1="16.721" x2="16.721" y1="279.38" y2="297.64" gradientTransform="matrix(.98129 0 0 .99999 -7.7434 -280.08)" gradientUnits="userSpaceOnUse">
   <stop stop-color="#14d278" offset="0"/>
   <stop stop-color="#147864" offset="1"/>
  </linearGradient>
  <linearGradient id="linearGradient677346-6" x1="19.27" x2="19.27" y1="281.99" y2="297.35" gradientTransform="matrix(.99999 0 0 .99999 -10.843 -280.09)" gradientUnits="userSpaceOnUse">
   <stop stop-color="#14c878" offset="0"/>
   <stop stop-color="#147864" offset="1"/>
  </linearGradient>
  <linearGradient id="linearGradient677348-3" x1="-6.1738" x2="-6.1738" y1="-126.08" y2="-126.7" gradientTransform="matrix(.54036 0 0 .54036 11.597 73.263)" gradientUnits="userSpaceOnUse">
   <stop stop-color="#14dc78" offset="0"/>
   <stop stop-color="#147864" offset="1"/>
  </linearGradient>
 </defs>
 <circle cx="8.4964" cy="8.7331" r="7.9375" opacity=".2" stroke-width=".14032"/>
 <ellipse cx="8.4965" cy="8.4732" rx="7.7989" ry="7.9477" fill="url(#linearGradient677332-3)" stroke-width="1.1902" style="paint-order:stroke markers fill"/>
 <g transform="matrix(.85831 0 0 .85831 -5.1732 -241.4)">
  <circle cx="15.926" cy="290.69" r="7.9375" fill="#fafafa" style="paint-order:normal"/>
  <path d="m10.551 285.17c-0.04221 0.0443-0.07897 0.0835-0.13658 0.14895l11.024 9.8e-4c-0.05944-0.0607-0.08604-0.0922-0.14076-0.15z" fill="url(#linearGradient15515)" opacity=".6" style="paint-order:normal"/>
  <path d="m10.431 296.06c0.04857 0.052 0.08052 0.0907 0.1349 0.15h10.72c0.05003-0.0561 0.07465-0.0855 0.13441-0.15z" fill="url(#linearGradient15517)" opacity=".6" style="paint-order:normal"/>
  <path d="m9.1386 287.33c-0.022302 0.0517-0.037132 0.0892-0.065978 0.15h13.708c-0.02381-0.0504-0.04631-0.10145-0.06843-0.15z" fill="url(#linearGradient15519)" opacity=".6" style="paint-order:normal"/>
  <path d="m8.5204 289.52c-0.00964 0.0489-0.015643 0.0999-0.024922 0.15h14.862c-0.0088-0.0501-0.01516-0.10114-0.0259-0.15z" fill="url(#linearGradient15521)" opacity=".6" style="paint-order:normal"/>
  <path d="m8.4942 291.7c0.00899 0.0501 0.01744 0.10011 0.027371 0.15h14.811c0.0093-0.0539 0.01711-0.0968 0.02541-0.15z" fill="url(#linearGradient15523)" opacity=".6" style="paint-order:normal"/>
  <path d="m9.0766 293.88c0.021867 0.0535 0.040442 0.0932 0.064512 0.15h13.57c0.02313-0.0512 0.03674-0.0804 0.06941-0.15z" fill="url(#linearGradient15525)" opacity=".6" style="paint-order:normal"/>
 </g>
 <path d="m8.4965 3.2933c-0.32459 8e-4 -0.42374 0.31784-0.58798 0.60999l-0.34223 0.60819-6.1697 5.3e-4a7.9377 8.2267 0 0 0-0.83719 3.6564 7.9377 8.2267 0 0 0 7.9377 8.2267 7.9377 8.2267 0 0 0 7.9377-8.2267 7.9377 8.2267 0 0 0-1.5556-4.875h-6.3816z" fill="url(#linearGradient677346-6)" stroke-width="1.1312" style="paint-order:stroke markers fill"/>
 <path d="m1.3066 4.8332c-0.0461 0.091-0.0916 0.18277-0.13426 0.27538h14.652c-0.0408-0.0926-0.0896-0.18439-0.13374-0.27538z" fill="url(#linearGradient677348-3)" stroke-width=".14297"/>
 <g fill="#5e4aa6">
  <circle cx="-330.36" cy="-328.39" r="0" stroke-width=".26459"/>
  <circle cx="-306.18" cy="-320.62" r="0" stroke-width=".26458"/>
  <g stroke-width=".26458">
   <circle cx="-304.76" cy="-318.47" r="0"/>
   <circle cx="-282.26" cy="-321.69" r="0"/>
   <g transform="translate(58.708 23.059)">
    <circle cx="-330.35" cy="-328.38" r="0"/>
    <circle cx="-39.434" cy="6.44" r="0" fill-rule="evenodd"/>
    <circle cx="-312.01" cy="-322.07" r="0"/>
    <circle cx="-21.094" cy="12.749" r="0" fill-rule="evenodd"/>
   </g>
  </g>
  <circle cx="-246.2" cy="-301.8" r="0" stroke-width=".26459"/>
  <g transform="translate(24.652 8.622)">
   <circle cx="-330.36" cy="-328.39" r="0" stroke-width=".26459"/>
   <circle cx="-306.18" cy="-320.62" r="0" stroke-width=".26458"/>
   <circle cx="-306.97" cy="-327.86" r="0" stroke-width=".26458"/>
  </g>
 </g>
 <path d="m8.4971 7.7556a1.0502 0.80004 0 0 0-1.0488 0.77856h-0.0022v0.69306a0.12829 0.17073 0 0 0-0.0029 0 0.12829 0.17073 0 0 0-0.12825 0.17064 0.12829 0.17073 0 0 0 0.12825 0.17064 0.12829 0.17073 0 0 0 0.0029 0h0.10579c0.01075 0.11152 0.04114 0.23416 0.10651 0.36374l0.38475 0.54126-1.8778 1.1738c-0.64514 0.56833-0.14612 1.0525 0.16629 1.0525h4.3627c0.30664 0 0.74282-0.47593 0.16629-1.0525l-1.8919-1.1829 0.37823-0.53221c0.05793-0.13035 0.08562-0.25273 0.09564-0.36374h0.10543v-3.71e-4a0.12829 0.17073 0 0 1 3.71e-4 0 0.12829 0.17073 0 0 0 0.11919-0.17028 0.12829 0.17073 0 0 0-0.11956-0.17028v-0.69342h-0.0018a1.0502 0.80004 0 0 0-1.0492-0.77856z" fill="#fafafa" style="paint-order:markers fill stroke"/>
 <circle cx="8.5827" cy="15.581" r="0" fill="#5e4aa6" fill-rule="evenodd" stroke-width=".26458"/>
</svg>
