<?xml version="1.0" encoding="UTF-8" standalone="no"?>
<svg
   xmlns:dc="http://purl.org/dc/elements/1.1/"
   xmlns:cc="http://creativecommons.org/ns#"
   xmlns:rdf="http://www.w3.org/1999/02/22-rdf-syntax-ns#"
   xmlns:svg="http://www.w3.org/2000/svg"
   xmlns="http://www.w3.org/2000/svg"
   xmlns:sodipodi="http://sodipodi.sourceforge.net/DTD/sodipodi-0.dtd"
   xmlns:inkscape="http://www.inkscape.org/namespaces/inkscape"
   height="64"
   width="64"
   version="1.1"
   id="svg13"
   sodipodi:docname="amazonmp3.svg"
   inkscape:version="1.0.1 (3bc2e813f5, 2020-09-07)">
  <metadata
     id="metadata19">
    <rdf:RDF>
      <cc:Work
         rdf:about="">
        <dc:format>image/svg+xml</dc:format>
        <dc:type
           rdf:resource="http://purl.org/dc/dcmitype/StillImage" />
        <dc:title></dc:title>
      </cc:Work>
    </rdf:RDF>
  </metadata>
  <defs
     id="defs17">
    <linearGradient
       id="a-3"
       x1="-6.1472001"
       x2="-6.1472001"
       y1="-137.82001"
       y2="-100.78"
       gradientTransform="matrix(2.0044,0,0,2.0044,-38.552094,251.97471)"
       gradientUnits="userSpaceOnUse">
      <stop
         stop-color="#14dc78"
         offset="0"
         id="stop846" />
      <stop
         stop-color="#14a03c"
         offset="1"
         id="stop848" />
    </linearGradient>
    <style
       type="text/css"
       id="style851" />
  </defs>
  <sodipodi:namedview
     pagecolor="#ffffff"
     bordercolor="#666666"
     borderopacity="1"
     objecttolerance="10"
     gridtolerance="10"
     guidetolerance="10"
     inkscape:pageopacity="0"
     inkscape:pageshadow="2"
     inkscape:window-width="1920"
     inkscape:window-height="932"
     id="namedview15"
     showgrid="false"
     inkscape:zoom="5.6347572"
     inkscape:cx="-15.33603"
     inkscape:cy="20.128588"
     inkscape:window-x="0"
     inkscape:window-y="36"
     inkscape:window-maximized="1"
     inkscape:current-layer="svg13" />
  <linearGradient
     id="a"
     gradientUnits="userSpaceOnUse"
     x1="364.67871"
     x2="362.14316"
     y1="702.88434"
     y2="537.21295"
     gradientTransform="matrix(0.33891419,0,0,0.33891419,-93.851417,-203.99937)">
    <stop
       offset="0"
       stop-color="#00a199"
       id="stop2" />
    <stop
       offset="1"
       stop-color="#00f89a"
       stop-opacity=".988235"
       id="stop4" />
  </linearGradient>
  <g
     id="g889"
     transform="translate(82.051094,19.635294)">
    <circle
       cx="-50.051094"
       cy="12.874705"
       r="30.000999"
       opacity="0.2"
       stroke-width="0.53035"
       id="circle857" />
    <circle
       cx="-50.051094"
       cy="11.854707"
       r="30.000999"
       fill="url(#a-3)"
       stroke-width="0.53035"
       id="circle859"
       style="fill:url(#a-3)" />
  </g>
  <path
     d="m 46.605932,42.388119 c -0.453748,-0.596251 -3.007497,-0.283752 -4.149997,-0.141249 -0.351251,0.04375 -0.405003,-0.268752 -0.0875,-0.49375 2.031248,-1.465001 5.371251,-1.045002 5.756251,-0.551251 0.391249,0.49375 -0.0975,3.921251 -2.011253,5.556251 -0.292499,0.253748 -0.57125,0.117498 -0.439998,-0.215001 0.424998,-1.098749 1.391249,-3.560002 0.932498,-4.155 m -1.479997,1.735 c -3.560002,2.685001 -8.716253,4.121251 -13.15875,4.121251 -6.225003,0 -11.831251,-2.358751 -16.073751,-6.287502 -0.332502,-0.3075 -0.03376,-0.7275 0.366251,-0.488748 4.574999,2.729998 10.23875,4.37 16.083749,4.37 3.939999,0 8.281249,-0.835003 12.26625,-2.573752 0.604999,-0.25875 1.108751,0.404999 0.517498,0.855 m -10.80125,-14.40625 c 0,1.708752 0.04375,3.130002 -0.781249,4.643752 -0.663749,1.229997 -1.718752,1.987498 -2.895001,1.987498 -1.60625,0 -2.538749,-1.278751 -2.538749,-3.16875 0,-3.730001 3.193748,-4.408751 6.216249,-4.408751 v 0.947502 m 4.21875,10.663749 c -0.273748,0.25875 -0.673748,0.27875 -0.986251,0.1075 -1.386247,-1.20625 -1.636247,-1.767499 -2.402498,-2.92 -2.295002,2.451251 -3.916252,3.18375 -6.894999,3.18375 -3.52,0 -6.262501,-2.27 -6.262501,-6.816249 0,-3.550001 1.84125,-5.971252 4.457498,-7.15375 2.266252,-1.045002 5.44,-1.230001 7.866253,-1.518749 v -0.566251 c 0,-1.039999 0.07875,-2.27 -0.502502,-3.16875 -0.512499,-0.80625 -1.488751,-1.137501 -2.348749,-1.137501 -1.596249,0 -3.017499,0.854999 -3.363751,2.6275 -0.07375,0.395001 -0.346248,0.781252 -0.7275,0.801251 l -4.057501,-0.453752 c -0.341249,-0.0825 -0.717498,-0.37125 -0.624998,-0.917498 0.937498,-5.136252 5.381249,-6.69 9.355001,-6.69 2.036247,0 4.6975,0.566247 6.299998,2.1775 2.036251,1.987498 1.841249,4.638749 1.841249,7.525 v 6.816248 c 0,2.051252 0.810002,2.948751 1.5775,4.057502 0.268752,0.391249 0.327503,0.868748 -0.01,1.162499 -0.854999,0.752501 -2.372501,2.12875 -3.2075,2.904999 l -0.01501,-0.01501"
     fill="#ffffff"
     fill-opacity="0.85"
     fill-rule="evenodd"
     id="path9"
     style="stroke-width:0.338914;fill:#ffffff;fill-opacity:1" />
  <circle
     cx="-1330.7511"
     cy="-1261.2352"
     r="0"
     fill="#5e4aa6"
     id="circle855" />
</svg>
