<?xml version="1.0" encoding="UTF-8" standalone="no"?>
<svg
   xmlns:dc="http://purl.org/dc/elements/1.1/"
   xmlns:cc="http://creativecommons.org/ns#"
   xmlns:rdf="http://www.w3.org/1999/02/22-rdf-syntax-ns#"
   xmlns:svg="http://www.w3.org/2000/svg"
   xmlns="http://www.w3.org/2000/svg"
   xmlns:sodipodi="http://sodipodi.sourceforge.net/DTD/sodipodi-0.dtd"
   xmlns:inkscape="http://www.inkscape.org/namespaces/inkscape"
   width="64"
   height="64"
   version="1.1"
   id="svg27"
   sodipodi:docname="apparmor_view_profile.svg"
   inkscape:version="1.0.1 (3bc2e813f5, 2020-09-07)">
  <sodipodi:namedview
     pagecolor="#ffffff"
     bordercolor="#666666"
     borderopacity="1"
     objecttolerance="10"
     gridtolerance="10"
     guidetolerance="10"
     inkscape:pageopacity="0"
     inkscape:pageshadow="2"
     inkscape:window-width="1920"
     inkscape:window-height="932"
     id="namedview29"
     showgrid="false"
     inkscape:zoom="4.2260679"
     inkscape:cx="17.205567"
     inkscape:cy="24.979953"
     inkscape:window-x="0"
     inkscape:window-y="36"
     inkscape:window-maximized="1"
     inkscape:current-layer="svg27" />
  <metadata
     id="metadata2">
    <rdf:RDF>
      <cc:Work
         rdf:about="">
        <dc:format>image/svg+xml</dc:format>
        <dc:type
           rdf:resource="http://purl.org/dc/dcmitype/StillImage" />
        <dc:title></dc:title>
      </cc:Work>
    </rdf:RDF>
  </metadata>
  <defs
     id="defs17">
    <filter
       id="g"
       x="-.036"
       y="-.036"
       width="1.072"
       height="1.072"
       color-interpolation-filters="sRGB">
      <feGaussianBlur
         stdDeviation="14.16"
         id="feGaussianBlur4" />
    </filter>
    <linearGradient
       id="b-3"
       x1="520"
       x2="520.03"
       y1="44"
       y2="985.85"
       gradientTransform="matrix(0.06356,0,0,0.06356,2.0165126,-13.310648)"
       gradientUnits="userSpaceOnUse">
      <stop
         stop-color="#15c4fc"
         offset="0"
         id="stop7" />
      <stop
         stop-color="#1863ee"
         offset="1"
         id="stop9" />
    </linearGradient>
    <linearGradient
       id="linearGradient907"
       x1="34.902"
       x2="946.35"
       y1="490.63"
       y2="490.63"
       gradientTransform="matrix(1.076 0 0 1.076 23.392 20.702)"
       gradientUnits="userSpaceOnUse">
      <stop
         stop-color="#197cf1"
         offset="0"
         id="stop12" />
      <stop
         stop-color="#20bcfa"
         offset="1"
         id="stop14" />
    </linearGradient>
    <linearGradient
       id="linearGradient11422"
       x1="-6.1472"
       x2="-6.1472"
       y1="-137.82"
       y2="-100.78"
       gradientTransform="matrix(2.0044,0,0,2.0044,-33.692677,244.57916)"
       gradientUnits="userSpaceOnUse">
      <stop
         stop-color="#32b4ff"
         offset="0"
         id="stop856" />
      <stop
         stop-color="#3287ff"
         offset="1"
         id="stop858" />
    </linearGradient>
    <style
       type="text/css"
       id="style861" />
  </defs>
  <g
     id="g949"
     transform="translate(77.195679,27.030842)">
    <circle
       cx="-45.196678"
       cy="5.4771576"
       r="30.000999"
       opacity="0.2"
       stroke-width="0.53035"
       id="circle867" />
    <circle
       cx="-45.194679"
       cy="4.4611588"
       r="30.000999"
       fill="url(#linearGradient11422)"
       stroke-width="3.7796"
       style="fill:url(#linearGradient11422);paint-order:normal"
       id="circle869" />
  </g>
  <circle
     cx="32"
     cy="32"
     r="22.5"
     fill="#fff"
     opacity=".6"
     stroke-linecap="round"
     stroke-width="2.6311"
     id="circle23" />
  <path
     d="m32 37.918a2.1521 2.1521 0 0 0 2.1521-2.1521c0-1.1944-0.96844-2.1521-2.1521-2.1521a2.1521 2.1521 0 0 0-2.1521 2.1521 2.1521 2.1521 0 0 0 2.1521 2.1521m6.4563-9.6844a2.1521 2.1521 0 0 1 2.1521 2.1521v10.76a2.1521 2.1521 0 0 1-2.1521 2.1521h-12.913a2.1521 2.1521 0 0 1-2.1521-2.1521v-10.76c0-1.1944 0.96844-2.1521 2.1521-2.1521h1.076v-2.1521a5.3802 5.3802 0 0 1 5.3802-5.3802 5.3802 5.3802 0 0 1 5.3802 5.3802v2.1521zm-6.4563-5.3802a3.2281 3.2281 0 0 0-3.2281 3.2281v2.1521h6.4563v-2.1521a3.2281 3.2281 0 0 0-3.2281-3.2281z"
     fill="url(#linearGradient907)"
     stroke-width="9.6373"
     id="path25" />
  <circle
     cx="-1201.9957"
     cy="-1306.3309"
     r="0"
     fill="#5e4aa6"
     id="circle865" />
  <g
     transform="matrix(3.7796,0,0,3.7796,46.634323,-65.214842)"
     fill="#5e4aa6"
     stroke-width="0.26458"
     id="g879">
    <circle
       cx="-299.01999"
       cy="-338.76999"
       r="0"
       id="circle871" />
    <circle
       cx="-8.1062002"
       cy="-3.9487"
       r="0"
       fill-rule="evenodd"
       id="circle873" />
    <circle
       cx="-278.25"
       cy="-357.69"
       r="0"
       id="circle875" />
    <circle
       cx="12.663"
       cy="-22.858999"
       r="0"
       fill-rule="evenodd"
       id="circle877" />
  </g>
</svg>
