<?xml version="1.0" encoding="UTF-8"?>
<svg width="64" height="64" version="1.1" viewBox="0 0 16.933 16.933" xmlns="http://www.w3.org/2000/svg" xmlns:cc="http://creativecommons.org/ns#" xmlns:dc="http://purl.org/dc/elements/1.1/" xmlns:rdf="http://www.w3.org/1999/02/22-rdf-syntax-ns#">
 <metadata>
  <rdf:RDF>
   <cc:Work rdf:about="">
    <dc:format>image/svg+xml</dc:format>
    <dc:type rdf:resource="http://purl.org/dc/dcmitype/StillImage"/>
    <dc:title/>
   </cc:Work>
  </rdf:RDF>
 </metadata>
 <defs>
  <linearGradient id="a-3" x1="-6.1472" x2="-6.1472" y1="-137.82" y2="-100.78" gradientTransform="matrix(.53032 0 0 .53032 11.509 71.862)" gradientUnits="userSpaceOnUse">
   <stop stop-color="#14dc78" offset="0"/>
   <stop stop-color="#14a03c" offset="1"/>
  </linearGradient>
  <style type="text/css"/>
 </defs>
 <circle cx="-330.38" cy="-328.5" r="0" fill="#5e4aa6" stroke-width=".26458"/>
 <circle cx="8.4665" cy="8.6014" r="7.9376" opacity=".2" stroke-width=".14032"/>
 <circle cx="8.4665" cy="8.3316" r="7.9376" fill="url(#a-3)" stroke-width=".14032"/>
 <path d="m12.951 5.4404a0.61991 0.61991 0 1 0-0.93715 0.67825 2.5866 2.5866 0 0 1-0.56764 1.4951c-1.1304-1.2884-1.6081-1.816-1.8293-2.0287 0.1179-0.075361 0.21879-0.12155 0.28321-0.14708a0.61991 0.61991 0 1 0-0.21758-0.56521c-0.46675 0.19813-2.0627 1.0818-1.8257 3.8349-1.7479 0.049836-2.6668 0.51294-3.0849 0.81439a0.62234 0.62234 0 1 0 0.43515 0.60775l1.8281 1.9205c-0.042543 0.02431-0.085085 0.04984-0.12641 0.07171a0.62112 0.62112 0 1 0 0.25161 0.55913c0.85571-0.42542 1.5631-1.4671 1.3784-3.3694a5.9912 5.9912 0 0 0 1.5084-0.18354c0.67946-0.17868 1.2435-0.48499 1.6713-0.91163 0.53968-0.53968 0.84842-1.2471 0.89947-2.0591a0.62112 0.62112 0 0 0 0.33305-0.71715zm-5.6727 6.4227-1.9071-2.0019c0.12277-0.065637 0.2747-0.13735 0.46189-0.20542l1.7856 1.7795c-0.1021 0.17625-0.21879 0.31603-0.34034 0.42786zm0.48012-0.71715-1.5996-1.5947a6.0167 6.0167 0 0 1 0.87759-0.1726l0.91527 0.87395c-0.026741 0.35614-0.09724 0.65029-0.19326 0.89339zm-0.32332-1.8087c0.15558-0.012155 0.31968-0.020664 0.49349-0.02431 0.020663 0.1884 0.031603 0.36465 0.034034 0.52874zm1.0332-0.63206a5.1537 5.1537 0 0 1 0.00486-1.1061l0.8934 1.0478c-0.28078 0.040112-0.58101 0.060775-0.89947 0.058344zm1.2447-0.12155-1.173-1.3735c0.063206-0.27227 0.15072-0.50565 0.25282-0.70499 0.38045 0.41327 1.0879 1.2106 1.6482 1.8476-0.22244 0.09724-0.46554 0.17503-0.72809 0.23095zm1.0089-0.37073c-0.99306-1.1328-1.4987-1.6968-1.7698-1.9788 0.13614-0.19813 0.282-0.3525 0.42178-0.4704 0.23824 0.23702 1.1669 1.2811 1.8634 2.0736-0.15072 0.14221-0.32454 0.26741-0.51537 0.37559z" opacity=".25" stroke-width="1.2155"/>
 <path d="m12.951 5.1141a0.61991 0.61991 0 1 0-0.93715 0.67825 2.5866 2.5866 0 0 1-0.56764 1.4951c-1.1304-1.2884-1.6081-1.816-1.8293-2.0287 0.1179-0.075361 0.21879-0.12155 0.28321-0.14708a0.61991 0.61991 0 1 0-0.21758-0.56521c-0.46675 0.19813-2.0627 1.0818-1.8257 3.8349-1.7479 0.049836-2.6668 0.51294-3.0849 0.81439a0.62234 0.62234 0 1 0 0.43515 0.60775l1.8281 1.9205c-0.042543 0.02431-0.085085 0.04984-0.12641 0.07171a0.62112 0.62112 0 1 0 0.25161 0.55913c0.85571-0.42542 1.5631-1.4671 1.3784-3.3694a5.9912 5.9912 0 0 0 1.5084-0.18354c0.67946-0.17868 1.2435-0.48499 1.6713-0.91163 0.53968-0.53968 0.84842-1.2471 0.89947-2.0591a0.62112 0.62112 0 0 0 0.33305-0.71715zm-5.6727 6.4227-1.9071-2.0019c0.12277-0.065637 0.2747-0.13735 0.46189-0.20542l1.7856 1.7795c-0.1021 0.17625-0.21879 0.31603-0.34034 0.42786zm0.48012-0.71715-1.5996-1.5947a6.0167 6.0167 0 0 1 0.87759-0.1726l0.91527 0.87395c-0.026741 0.35614-0.09724 0.65029-0.19326 0.89339zm-0.32332-1.8087c0.15558-0.012155 0.31968-0.020664 0.49349-0.02431 0.020663 0.1884 0.031603 0.36465 0.034034 0.52874zm1.0332-0.63206a5.1537 5.1537 0 0 1 0.00486-1.1061l0.8934 1.0478c-0.28078 0.040112-0.58101 0.060775-0.89947 0.058344zm1.2447-0.12155-1.173-1.3735c0.063206-0.27227 0.15072-0.50565 0.25282-0.70499 0.38045 0.41327 1.0879 1.2106 1.6482 1.8476-0.22244 0.09724-0.46554 0.17503-0.72809 0.23095zm1.0089-0.37073c-0.99306-1.1328-1.4987-1.6968-1.7698-1.9788 0.13614-0.19813 0.282-0.3525 0.42178-0.4704 0.23824 0.23702 1.1669 1.2811 1.8634 2.0736-0.15072 0.14221-0.32454 0.26741-0.51537 0.37559z" fill="#fff" stroke-width="1.2155"/>
</svg>
