<?xml version="1.0" encoding="UTF-8"?>
<svg width="64" height="64" version="1.1" viewBox="0 0 16.933 16.933" xmlns="http://www.w3.org/2000/svg" xmlns:cc="http://creativecommons.org/ns#" xmlns:dc="http://purl.org/dc/elements/1.1/" xmlns:rdf="http://www.w3.org/1999/02/22-rdf-syntax-ns#" xmlns:xlink="http://www.w3.org/1999/xlink">
 <metadata>
  <rdf:RDF>
   <cc:Work rdf:about="">
    <dc:format>image/svg+xml</dc:format>
    <dc:type rdf:resource="http://purl.org/dc/dcmitype/StillImage"/>
    <dc:title/>
   </cc:Work>
  </rdf:RDF>
 </metadata>
 <defs>
  <linearGradient id="f" x1="10.798" x2="10.798" y1="282.88" y2="283.29" gradientTransform="matrix(1.0543 0 0 .55499 20.614 -155.36)" gradientUnits="userSpaceOnUse" xlink:href="#a"/>
  <linearGradient id="a">
   <stop stop-color="#969696" offset="0"/>
   <stop stop-color="#e6e6e6" stop-opacity=".90196" offset="1"/>
  </linearGradient>
  <linearGradient id="g" x1="8.8166" x2="8.8166" y1="293.7" y2="294.12" gradientTransform="matrix(.94579 0 0 .555 24.223 -150.49)" gradientUnits="userSpaceOnUse" xlink:href="#a"/>
  <linearGradient id="e" x1="7.998" x2="7.998" y1="284.98" y2="285.41" gradientTransform="matrix(.94579 0 0 .555 24.431 -154.37)" gradientUnits="userSpaceOnUse" xlink:href="#a"/>
  <linearGradient id="d" x1="8.7643" x2="8.7643" y1="287.18" y2="287.64" gradientTransform="matrix(.94579 0 0 .555 24.424 -153.4)" gradientUnits="userSpaceOnUse" xlink:href="#a"/>
  <linearGradient id="c" x1="8.3178" x2="8.3178" y1="289.36" y2="289.81" gradientTransform="matrix(.94579 0 0 .555 24.406 -152.43)" gradientUnits="userSpaceOnUse" xlink:href="#a"/>
  <linearGradient id="b" x1="8.2553" x2="8.2553" y1="291.55" y2="291.96" gradientTransform="matrix(.94579 0 0 .55502 24.516 -151.47)" gradientUnits="userSpaceOnUse" xlink:href="#a"/>
  <linearGradient id="a-5" x1="31.559" x2="32.034" y1="5.4237" y2="59" gradientTransform="matrix(.26458 0 0 .26458 1.6e-7 -.1323)" gradientUnits="userSpaceOnUse">
   <stop stop-color="#774ac6" offset="0"/>
   <stop stop-color="#673ab7" offset="1"/>
  </linearGradient>
 </defs>
 <circle cx="-306.41" cy="-329.66" r="0" fill="#5e4aa6" stroke-width=".26458"/>
 <path d="m8.4665 0.66146c-4.3838-3.9e-5 -7.9373 3.5535-7.9373 7.9373-3.887e-5 4.3838 3.5535 7.9373 7.9373 7.9373 4.3838 3.9e-5 7.9373-3.5535 7.9373-7.9373 3.9e-5 -4.3838-3.5535-7.9373-7.9373-7.9373z" opacity=".15" stroke-width=".26457" style="paint-order:fill markers stroke"/>
 <path d="m8.4665 0.39685c-4.3838-3.9e-5 -7.9373 3.5535-7.9373 7.9373-3.887e-5 4.3838 3.5535 7.9373 7.9373 7.9373 4.3838 4e-5 7.9373-3.5535 7.9373-7.9373 3.9e-5 -4.3838-3.5535-7.9373-7.9373-7.9373z" fill="url(#a-5)" stroke-width=".26457" style="paint-order:fill markers stroke"/>
 <g transform="matrix(.74999 0 0 .74999 -15.856 3.079)">
  <circle cx="32.431" cy="7.1835" r="7.9375" fill="#fafafa" style="paint-order:normal"/>
  <path d="m27.056 1.6735c-0.04221 0.0443-0.07897 0.0835-0.13658 0.14895l11.024 9.8e-4c-0.05944-0.0607-0.08604-0.0922-0.14076-0.15z" fill="url(#f)" opacity=".6" style="paint-order:normal"/>
  <path d="m26.936 12.564c0.04857 0.052 0.08052 0.0907 0.1349 0.15h10.72c0.05003-0.0561 0.07465-0.0855 0.13441-0.15z" fill="url(#g)" opacity=".6" style="paint-order:normal"/>
  <path d="m25.644 3.8335c-0.0223 0.0517-0.03713 0.0892-0.06598 0.15h13.708c-0.02381-0.0504-0.04631-0.10145-0.06843-0.15z" fill="url(#e)" opacity=".6" style="paint-order:normal"/>
  <path d="m25.026 6.0135c-0.0096 0.0489-0.01564 0.0999-0.02492 0.15h14.862c-0.0088-0.0501-0.01516-0.10114-0.0259-0.15z" fill="url(#d)" opacity=".6" style="paint-order:normal"/>
  <path d="m24.999 8.2035c9e-3 0.0501 0.01744 0.10011 0.02737 0.15h14.811c0.0093-0.0539 0.01711-0.0968 0.02541-0.15z" fill="url(#c)" opacity=".6" style="paint-order:normal"/>
  <path d="m25.582 10.384c0.02187 0.0535 0.04044 0.0932 0.06451 0.15h13.57c0.02313-0.0512 0.03674-0.0804 0.06941-0.15z" fill="url(#b)" opacity=".6" style="paint-order:normal"/>
 </g>
</svg>
