<?xml version="1.0" encoding="UTF-8"?>
<svg width="64" height="64" version="1.1" viewBox="0 0 16.933 16.933" xmlns="http://www.w3.org/2000/svg" xmlns:cc="http://creativecommons.org/ns#" xmlns:dc="http://purl.org/dc/elements/1.1/" xmlns:rdf="http://www.w3.org/1999/02/22-rdf-syntax-ns#">
 <metadata>
  <rdf:RDF>
   <cc:Work rdf:about="">
    <dc:format>image/svg+xml</dc:format>
    <dc:type rdf:resource="http://purl.org/dc/dcmitype/StillImage"/>
    <dc:title/>
   </cc:Work>
  </rdf:RDF>
 </metadata>
 <defs>
  <linearGradient id="c" x1="-6.1472" x2="-6.1472" y1="-137.82" y2="-100.78" gradientTransform="matrix(.53033 0 0 .53033 11.536 71.99)" gradientUnits="userSpaceOnUse">
   <stop stop-color="#ff8214" offset="0"/>
   <stop stop-color="#ff6464" offset="1"/>
  </linearGradient>
 </defs>
 <circle cx="-330.35" cy="-328.38" r="0" fill="#5e4aa6" stroke-width=".26458"/>
 <circle cx="-39.434" cy="6.44" r="0" fill="#5e4aa6" fill-rule="evenodd" stroke-width=".26458"/>
 <circle cx="8.4935" cy="8.73" r="7.9375" opacity=".2" stroke-width=".14032"/>
 <circle cx="8.4935" cy="8.46" r="7.9375" fill="url(#c)" stroke-width=".14032"/>
 <g transform="translate(0 .21345)" opacity=".25">
  <path d="m8.4933 4.1981c-2.273 0-4.1156 1.8426-4.1156 4.1156v2.6458c0 1.0495 0.74728 1.3349 1.1759 1.4131v-4.0589c0-1.6286 1.3111-2.9397 2.9397-2.9397 1.6286 0 2.9397 1.3111 2.9397 2.9397v4.0604c0.42861-0.07878 1.1759-0.36511 1.1759-1.4146v-2.6458c0-2.273-1.8426-4.1156-4.1156-4.1156z" stroke-width=".26458"/>
  <rect x="5.5536" y="8.9016" width="1.4699" height="4.1156" ry=".287" opacity=".75"/>
  <rect x="9.9627" y="8.9016" width="1.4699" height="4.1156" ry=".287" opacity=".75"/>
 </g>
 <path d="m8.4933 4.1981c-2.273 0-4.1156 1.8426-4.1156 4.1156v2.6458c0 1.0495 0.74728 1.3349 1.1759 1.4131v-4.0589c0-1.6286 1.3111-2.9397 2.9397-2.9397 1.6286 0 2.9397 1.3111 2.9397 2.9397v4.0604c0.42861-0.07878 1.1759-0.36511 1.1759-1.4146v-2.6458c0-2.273-1.8426-4.1156-4.1156-4.1156z" fill="#fff" stroke-width=".26458"/>
 <rect x="5.5536" y="8.9016" width="1.4699" height="4.1156" ry=".287" fill="#fafafa" opacity=".75"/>
 <rect x="9.9627" y="8.9016" width="1.4699" height="4.1156" ry=".287" fill="#fafafa" opacity=".75"/>
</svg>
