<?xml version="1.0" encoding="UTF-8"?>
<svg width="64" height="64" version="1.1" viewBox="0 0 16.933 16.933" xmlns="http://www.w3.org/2000/svg" xmlns:cc="http://creativecommons.org/ns#" xmlns:dc="http://purl.org/dc/elements/1.1/" xmlns:rdf="http://www.w3.org/1999/02/22-rdf-syntax-ns#" xmlns:xlink="http://www.w3.org/1999/xlink">
 <metadata>
  <rdf:RDF>
   <cc:Work rdf:about="">
    <dc:format>image/svg+xml</dc:format>
    <dc:type rdf:resource="http://purl.org/dc/dcmitype/StillImage"/>
    <dc:title/>
   </cc:Work>
  </rdf:RDF>
 </metadata>
 <defs>
  <linearGradient id="b" x1="399.57" x2="399.57" y1="545.8" y2="517.8" gradientTransform="matrix(2.1429 0 0 2.1429 -826.36 -1107.5)" gradientUnits="userSpaceOnUse">
   <stop stop-color="#3889e9" offset="0"/>
   <stop stop-color="#5ea5fb" offset="1"/>
  </linearGradient>
  <linearGradient id="linearGradient1969" x1="399.57" x2="399.57" y1="545.8" y2="517.8" gradientTransform="matrix(.56696 0 0 .56696 -183.7 -310.54)" gradientUnits="userSpaceOnUse" xlink:href="#b"/>
  <linearGradient id="linearGradient969" x1="399.57" x2="399.57" y1="545.8" y2="517.8" gradientTransform="matrix(.56696 0 0 .56696 -202.32 -310.09)" gradientUnits="userSpaceOnUse" xlink:href="#b"/>
  <linearGradient id="linearGradient1006" x1="3.1335" x2="13.854" y1="8.46" y2="8.46" gradientTransform="translate(-17.072 -.27904)" gradientUnits="userSpaceOnUse">
   <stop stop-color="#c8c8c8" offset="0"/>
   <stop stop-color="#fafafa" offset="1"/>
  </linearGradient>
 </defs>
 <circle cx="8.4935" cy="8.73" r="7.9375" opacity=".2" stroke-width=".14032"/>
 <circle cx="8.4935" cy="8.46" r="7.9375" fill="#fafafa" fill-opacity=".98039" stroke-width=".14032"/>
 <g fill="#5e4aa6" stroke-width=".26458">
  <circle cx="-330.35" cy="-328.38" r="0"/>
  <circle cx="-39.434" cy="6.44" r="0" fill-rule="evenodd"/>
  <circle cx="-306.9" cy="-332.28" r="0"/>
 </g>
 <path d="m13.276 6.5558h-8.0548v4.924h0.32357v0.57317h3.6902v-0.57317h0.35016v0.57317h3.6902v-0.57317h5.98e-4c0.3192 0 0.57791-0.25889 0.57791-0.57805v-3.7681c0-0.31915-0.25871-0.57786-0.57791-0.57786zm-7.2661 5.3093h-0.184v-0.41401h0.184zm0.36801 0h-0.184v-0.41401h0.184zm0.36801 0h-0.184v-0.41401h0.184zm0.36801 0h-0.184v-0.41401h0.184zm0.36801 0h-0.184v-0.41401h0.184zm0.36801 0h-0.184v-0.41401h0.184zm0.36801 0h-0.184v-0.41401h0.184zm0.36801 0h-0.184v-0.41401h0.184zm0.36801 0h-0.184v-0.41401h0.184zm1.0964 0h-0.184v-0.41401h0.184zm0.36801 0h-0.184v-0.41401h0.184zm0.36801 0h-0.184v-0.41401h0.184zm0.36801 0h-0.184v-0.41401h0.184zm0.36801 0h-0.184v-0.41401h0.184zm-1.5197-1.3002h-4.1589v-3.1281h4.1589c0.86362 0 1.564 0.7005 1.564 1.564 0 0.86348-0.70036 1.564-1.564 1.564zm1.8877 1.3002h-0.184v-0.41401h0.184zm0.36801 0h-0.184v-0.41401h0.184zm0.36801 0h-0.184v-0.41401h0.184zm0.36801 0h-0.184v-0.41401h0.184zm-8.9213-2.6489v-1.2426h-0.29523v-1.7091h0.29523v-0.67502h-0.93916v-0.72244h1.6616v6.6569h-0.72244v-0.59856h-0.29523v-1.7092h0.29523zm6.5661-0.14049c-0.02374 0.011914-0.04715 0.023415-0.07024 0.034869h5.52e-4c0.03432 0.00681 0.069 0.013662 0.10277 0.020148 0.03376 0.00575 0.06721 0.011086 0.09936 0.01633 0.03225 0.0052 0.06325 0.01081 0.09246 0.01426 0.02921 0.00377 0.05667 0.00759 0.08202 0.011086 0.02507 0.00258 0.04789 0.00483 0.06817 0.00722 0.0046 9.2e-5 0.0092 7.36e-4 0.0138 0.00129-0.04522 0.25903-0.18603 0.48503-0.38489 0.64052-0.0022-9.66e-4 -0.0044-0.00225-0.0066-0.0034-0.02981-0.015732-0.06003-0.033581-0.09113-0.051889-0.03123-0.018262-0.06348-0.036709-0.09619-0.055845-0.03206-0.020148-0.06431-0.040113-0.09683-0.060261-0.03243-0.020379-0.06504-0.039745-0.09614-0.060537-0.02226-0.014674-0.04384-0.028889-0.06541-0.043287 9.2e-5 0 1.84e-4 9.2e-5 1.84e-4 2.3e-4 0.01132 0.033351 0.02291 0.066839 0.03404 0.099408 0.01196 0.031787 0.02401 0.063619 0.03556 0.094302 0.01141 0.030361 0.02236 0.059663 0.03395 0.08708 0.01104 0.027233 0.02171 0.052625 0.03137 0.076316 0.01026 0.023092 0.01941 0.043931 0.02778 0.062607 0.0022 0.0046 0.0039 0.00888 0.0058 0.01334-0.11132 0.040251-0.23143 0.06247-0.35688 0.06247-0.13828 0-0.26984-0.02687-0.39046-0.07581 0-0.00253-4.6e-5 -0.00483-9.2e-5 -0.00764-0.00133-0.033581-0.00115-0.068725-9.2e-4 -0.10493 1.84e-4 -0.035927 2.76e-4 -0.073417 4.6e-4 -0.11151 0.00115-0.037169 0.00235-0.075672 0.00359-0.11358 0.00147-0.038411 0.00207-0.076223 0.00451-0.11362 0.00161-0.026819 0.00308-0.052717 0.00469-0.078662 0 9.2e-5 -9.2e-5 3.22e-4 -9.2e-5 4.14e-4 -0.023184 0.02691-0.046185 0.053315-0.068909 0.079076-0.02185 0.026911-0.043241 0.052717-0.063895 0.078248-0.020746 0.025254-0.040803 0.049451-0.058421 0.072819-0.017986 0.023093-0.034961 0.045127-0.050693 0.065689-0.014628 0.020194-0.028383 0.038733-0.040343 0.054971-0.00271 0.00386-0.00547 0.00791-0.0081 0.011592-0.19295-0.16169-0.32621-0.3923-0.36251-0.65349 0.00225-0.00166 0.00432-0.00267 0.00672-0.00419 0.028383-0.017756 0.058835-0.035099 0.090208-0.053315 0.031373-0.01794 0.063803-0.036387 0.096602-0.055063 0.033259-0.01794 0.066839-0.035835 0.10047-0.053913 0.033857-0.017664 0.067207-0.036111 0.10065-0.053039 0.023737-0.011868 0.047243-0.023414 0.070335-0.034777h-5.521e-4c-0.034501-0.00681-0.069001-0.013662-0.10304-0.020194-0.033765-0.00566-0.067207-0.010948-0.099454-0.016192-0.032063-0.0052-0.062975-0.010856-0.092186-0.014398-0.029119-0.00368-0.056673-0.00754-0.08202-0.010948-0.024978-0.00258-0.047887-0.00492-0.068081-0.00736-0.00478-4.6e-5 -0.00952-6.9e-4 -0.01403-0.0012 0.045357-0.25899 0.18607-0.48513 0.38489-0.64056 0.00235 0.00101 0.00432 0.0023 0.00672 0.00336 0.029671 0.015824 0.060031 0.033535 0.091082 0.051889 0.031373 0.018308 0.063527 0.036755 0.096142 0.055937 0.031879 0.020102 0.064493 0.040067 0.097016 0.060169 0.032339 0.020378 0.064769 0.039745 0.09605 0.060629 0.022035 0.014536 0.043747 0.028797 0.065183 0.043057-0.011316-0.033443-0.022816-0.066839-0.034041-0.099454-0.012236-0.031787-0.024059-0.063435-0.035467-0.09421-0.0115-0.030453-0.02254-0.059709-0.033949-0.087218-0.011224-0.027233-0.02185-0.052579-0.031419-0.076316-0.010304-0.023046-0.019734-0.043885-0.027785-0.062607-0.00207-0.0046-0.00414-0.00883-0.00584-0.01334 0.11141-0.040159 0.23143-0.062469 0.35697-0.062469 0.138 0 0.26961 0.02691 0.39027 0.075855 9.2e-5 0.00262 1.84e-4 0.00478 1.84e-4 0.00764 0.0012 0.033535 0.0011 0.068817 9.66e-4 0.10497-1.84e-4 0.036019-3.68e-4 0.073371-5.52e-4 0.11155-0.0012 0.037215-0.0024 0.075672-0.0038 0.11358-0.0014 0.038319-0.0019 0.076132-0.0042 0.11362-0.0017 0.026726-0.0033 0.052717-0.0049 0.078616 1.84e-4 -1.38e-4 2.76e-4 -2.76e-4 3.68e-4 -2.76e-4 0.02309-0.027049 0.04618-0.053361 0.06882-0.079168 0.02185-0.026956 0.0432-0.052763 0.0639-0.078248 0.02084-0.025346 0.04085-0.049543 0.05842-0.072819 0.01799-0.023138 0.03496-0.045219 0.05078-0.065781 0.01454-0.020148 0.02801-0.038641 0.04016-0.054971 0.0029-0.00377 0.0057-0.00787 0.0083-0.011546 0.19288 0.16165 0.32619 0.39234 0.36244 0.65344-0.0023 0.00166-0.0043 0.00271-0.0067 0.00428-0.02838 0.017848-0.05884 0.035007-0.09048 0.053315-0.03119 0.017894-0.06362 0.036387-0.09642 0.054971-0.03335 0.017986-0.06702 0.035881-0.1007 0.054005-0.03363 0.01748-0.06688 0.036065-0.10033 0.052855zm-3.8032-0.35126 0.80124-0.55762v1.702l-0.80124-0.55762v0.14628h-0.63123v-0.87931h0.63123zm1.0696 0.71232-0.065643-0.15719c0.10612-0.044161 0.17453-0.14693 0.17453-0.26175s-0.068403-0.21763-0.17453-0.26175l0.065643-0.15719c0.16951 0.070749 0.27918 0.23525 0.27918 0.41893 4.6e-5 0.18368-0.10962 0.34818-0.27918 0.41893zm0.6695-0.41893c0 0.33295-0.19859 0.63086-0.50596 0.75929l-0.065597-0.15686c0.24376-0.10198 0.4014-0.33838 0.4014-0.60243s-0.15765-0.50044-0.4014-0.60243l0.065597-0.15686c0.30738 0.12843 0.50596 0.42634 0.50596 0.75929z" fill="#323232" stroke="url(#linearGradient1006)" stroke-width=".13229"/>
 <g stroke-width=".41578">
  <circle cx="24.785" cy="-8.593" r="7.9376" fill-opacity="0"/>
  <circle cx="24.785" cy="-8.593" r="0" fill="url(#linearGradient969)"/>
  <circle cx="43.408" cy="-9.0359" r="0" fill="url(#linearGradient1969)"/>
 </g>
</svg>
