<?xml version="1.0" encoding="UTF-8"?>
<svg width="64" height="64" version="1.1" xmlns="http://www.w3.org/2000/svg" xmlns:cc="http://creativecommons.org/ns#" xmlns:dc="http://purl.org/dc/elements/1.1/" xmlns:rdf="http://www.w3.org/1999/02/22-rdf-syntax-ns#">
 <metadata>
  <rdf:RDF>
   <cc:Work rdf:about="">
    <dc:format>image/svg+xml</dc:format>
    <dc:type rdf:resource="http://purl.org/dc/dcmitype/StillImage"/>
    <dc:title/>
   </cc:Work>
  </rdf:RDF>
 </metadata>
 <circle cx="-1248.7" cy="-1241.6" r="0" fill="#5e4aa6"/>
 <circle cx="-149.15" cy="23.855" r="0" fill="#5e4aa6" fill-rule="evenodd"/>
 <circle cx="32" cy="32.51" r="30.001" opacity=".2" stroke-width=".53035"/>
 <circle cx="32" cy="31.49" r="30.001" fill="#fafafa" stroke-width=".53035"/>
 <g transform="matrix(1.5625 0 0 1.5625 93.8 29.855)">
  <g>
   <path d="m-23.552 1.4949c0 8.715-7.163 15.878-16 15.878s-16-7.163-16-15.878c0-8.958 7.163-16.122 16-16.122s16 7.164 16 16.122" fill="#191919" fill-rule="evenodd"/>
   <circle cx="-39.552" cy="1.3729" r="12" fill="#ff8200" style="paint-order:markers stroke fill"/>
   <path d="m-48.037-7.1121a12 12 0 0 0 0 16.97 12 12 0 0 0 16.97 0z" fill="#32c864" style="paint-order:markers stroke fill"/>
   <path d="m-39.552-10.627a12 12 0 0 0-12 12 12 12 0 0 0 12 12z" fill="#3278ff" style="paint-order:markers stroke fill"/>
  </g>
  <circle cx="-39.552" cy="1.3729" r="2" fill="#fff" style="paint-order:markers stroke fill"/>
 </g>
</svg>
