<?xml version="1.0" encoding="UTF-8"?>
<svg width="64" height="64" version="1.1" viewBox="0 0 64 64" xmlns="http://www.w3.org/2000/svg" xmlns:cc="http://creativecommons.org/ns#" xmlns:dc="http://purl.org/dc/elements/1.1/" xmlns:rdf="http://www.w3.org/1999/02/22-rdf-syntax-ns#">
 <metadata>
  <rdf:RDF>
   <cc:Work rdf:about="">
    <dc:format>image/svg+xml</dc:format>
    <dc:type rdf:resource="http://purl.org/dc/dcmitype/StillImage"/>
    <dc:title/>
   </cc:Work>
  </rdf:RDF>
 </metadata>
 <defs>
  <linearGradient id="linearGradient11422" x1="-6.1472" x2="-6.1472" y1="-137.82" y2="-100.78" gradientTransform="matrix(.53033 0 0 .53033 11.509 71.997)" gradientUnits="userSpaceOnUse">
   <stop stop-color="#32b4ff" offset="0"/>
   <stop stop-color="#3287ff" offset="1"/>
  </linearGradient>
 </defs>
 <g transform="matrix(3.7796 0 0 3.7796 -.00037908 -.43215)">
  <circle cx="8.4666" cy="8.6952" r="7.9375" opacity=".2" stroke-width=".14032"/>
  <circle cx="8.4666" cy="8.4665" r="7.9375" fill="url(#linearGradient11422)" style="paint-order:normal"/>
  <g fill="#fff" stroke-width=".26786">
   <path d="m8.4666 0.52899a7.9375 7.9375 0 0 0-3.1605 0.66662l0.75078 0.75078v0.88879l0.99218 1.0956h0.56695v-0.56695l0.85043-0.85043v-0.56695l0.56695-0.56695v-0.82206a7.9375 7.9375 0 0 0-0.56695-0.028377zm-4.608 1.4868a7.9375 7.9375 0 0 0-3.3292 6.4506h0.85043l1.4174 1.4174v-1.7009l0.85043-0.85043h0.56695l0.85043-0.85043h0.85043l-0.42523-0.42523 0.85043-0.99218-0.85043-0.85043h-1.2757v1.1339h-0.56695l-0.56695-0.56695v-0.56695l0.85043-0.85043h0.7087v-0.56695zm8.2932 0.4976-0.85043 0.85043v0.7087h0.85043v-0.42523h0.56695v0.56695l-0.28348 0.28348-1.1339 0.01924-0.42523 0.40597h-0.56695v0.56695l-0.42523 0.42523v0.85043h0.85043l0.56695-0.56695h0.56695v0.28348l0.56695 0.56695h0.28348v-0.28348l-0.56695-0.56695h0.56695l0.56695 0.56695h0.7087l-0.42523-0.42523 0.42523-0.42523h0.42523l0.42523 0.42523h-0.42523l-0.42523 0.42523 0.41746 0.41746 0.0078 0.43297h-0.56695l1.7009 1.7009h0.28348l0.28343-0.28348 0.26853-0.26853a7.9375 7.9375 0 0 0 0.01495-0.29842 7.9375 7.9375 0 0 0-0.01038-0.29387l-0.27311-0.27311h0.26286a7.9375 7.9375 0 0 0-2.6769-5.3861zm1.7009 5.1027h-1.7009l-0.28348-0.28348h-1.7009l-0.99218 0.99218v1.4174l0.7087 0.7087h0.99218l0.42523 0.42523v0.42523l0.28348 0.28348v1.7009l1.0765 1.1378 1.7774-1.7776-0.0191-1.6281 1.4174-1.4174h-0.56695l-1.4174-1.4174zm-5.5278-3.9686v0.42523h0.85043l-0.42523-0.42523zm2.5513 0.14174-0.42523 0.42523v0.42523h0.42523zm-4.394 1.5591-0.42523 0.42523h0.42523l0.14174 0.14174h0.14174l0.14174-0.14174zm-2.4096 2.9765-0.42523 0.42523h0.85043v-0.42523zm-0.42523 1.2757-0.56695 0.56695v1.4174l1.1378 0.99703-0.00388 1.2708-0.42523 0.42523v0.59103a7.9375 7.9375 0 0 0 0.86704 0.56031l1.4008-1.2931v-0.56695l0.85043-0.85043v-0.42523l0.42523-0.42523v-1.1339l-0.56695-0.56695h-1.1339l-0.56695-0.56695zm11.764 1.9844-0.56695 0.52862v0.88879h0.13177a7.9375 7.9375 0 0 0 0.43519-0.69694z" color="#000000" opacity=".24"/>
   <path d="m8.4666 0.52899a7.9375 7.9375 0 0 0-7.9375 7.9375 7.9375 7.9375 0 0 0 0.002906 0.082913 7.9375 7.9375 0 0 1 7.9345-7.8786 7.9375 7.9375 0 0 1 7.9345 7.8545 7.9375 7.9375 0 0 0 0.0029-0.058827 7.9375 7.9375 0 0 0-7.9375-7.9375z" enable-background="new" opacity=".3"/>
  </g>
  <path d="m8.4666 16.404a7.9375 7.9375 0 0 1-7.9375-7.9375 7.9375 7.9375 0 0 1 0.002906-0.082913 7.9375 7.9375 0 0 0 7.9345 7.8786 7.9375 7.9375 0 0 0 7.9345-7.8545 7.9375 7.9375 0 0 1 0.0029 0.058827 7.9375 7.9375 0 0 1-7.9375 7.9375z" enable-background="new" opacity=".2" stroke-width=".26786"/>
  <g fill="#5e4aa6" stroke-width=".26458">
   <circle cx="-305.05" cy="-343.65" r="0"/>
   <circle cx="-14.133" cy="-8.8272" r="0" fill-rule="evenodd"/>
   <g transform="translate(25.301,-15.267)">
    <circle cx="-306.7" cy="-329.95" r="0"/>
    <circle cx="-15.783" cy="4.8765" r="0" fill-rule="evenodd"/>
    <circle cx="-285.93" cy="-348.86" r="0"/>
    <circle cx="4.9855" cy="-14.033" r="0" fill-rule="evenodd"/>
   </g>
  </g>
 </g>
 <g transform="matrix(1.1707 0 0 1.1708 -4.9731 -7.3769)" fill="#fff" stroke-linejoin="bevel" stroke-width=".99978">
  <g transform="translate(19.554,6.6175)">
   <path d="m11.03 9.02c-1.105 0-2 0.895-2 2 1e-3 0.652 0.32 1.263 0.855 1.637-1.466 4.427-4.145 11.653-6.855 14.363 0 0 3.977 6.02 3.977 10.02h10c0-4 4.02-10.02 4.02-10.02-2.71-2.71-5.387-9.934-6.854-14.361 0.535-0.374 0.853-0.986 0.854-1.639 0-1.105-0.895-2-2-2v18.27c0.618 0.357 0.999 1.017 1 1.73 0 1.105-0.895 2-2 2s-2-0.895-2-2c1e-3 -0.713 0.382-1.372 1-1.729v-14.271z" stroke-width="1.9996"/>
   <rect x="7" y="39.96" width="10.02" height="5.05" rx="0" opacity=".5" stroke-linecap="round" stroke-width="6.1986"/>
  </g>
  <path d="m26.584 43.638h10c0.831 0 1.5 0.675 1.5 1.514s-0.669 1.514-1.5 1.514h-10c-0.831 0-1.5-0.675-1.5-1.514s0.669-1.514 1.5-1.514" opacity=".75" stroke-width="6.1986"/>
 </g>
</svg>
