<?xml version="1.0" encoding="UTF-8" standalone="no"?>
<svg
   xmlns:dc="http://purl.org/dc/elements/1.1/"
   xmlns:cc="http://creativecommons.org/ns#"
   xmlns:rdf="http://www.w3.org/1999/02/22-rdf-syntax-ns#"
   xmlns:svg="http://www.w3.org/2000/svg"
   xmlns="http://www.w3.org/2000/svg"
   xmlns:sodipodi="http://sodipodi.sourceforge.net/DTD/sodipodi-0.dtd"
   xmlns:inkscape="http://www.inkscape.org/namespaces/inkscape"
   width="64"
   height="64"
   version="1.1"
   viewBox="0 0 16.933 16.933"
   id="svg18"
   sodipodi:docname="cherrytree.svg"
   inkscape:version="0.92.5 (6c0c36ef5a, 2020-05-15, custom)">
  <metadata
     id="metadata24">
    <rdf:RDF>
      <cc:Work
         rdf:about="">
        <dc:format>image/svg+xml</dc:format>
        <dc:type
           rdf:resource="http://purl.org/dc/dcmitype/StillImage" />
        <dc:title></dc:title>
      </cc:Work>
    </rdf:RDF>
  </metadata>
  <defs
     id="defs22">
    <linearGradient
       gradientUnits="userSpaceOnUse"
       gradientTransform="matrix(0.086563,0,0,0.086563,-19.285,288.52)"
       y2="44"
       y1="268"
       x2="200"
       x1="200"
       id="c">
      <stop
         id="stop834"
         offset="0"
         stop-color="#e6e6e6" />
      <stop
         id="stop836"
         offset="1"
         stop-color="#d3d3d3" />
    </linearGradient>
    <linearGradient
       gradientUnits="userSpaceOnUse"
       gradientTransform="translate(-64,-68)"
       y2="212"
       y1="100"
       x2="152"
       x1="152"
       id="d">
      <stop
         id="stop839"
         offset="0"
         stop-opacity="0" />
      <stop
         id="stop841"
         offset=".5" />
      <stop
         id="stop843"
         offset="1"
         stop-opacity="0" />
    </linearGradient>
    <filter
       color-interpolation-filters="sRGB"
       height="1.048"
       width="1.048"
       y="-.024"
       x="-.024"
       id="a">
      <feGaussianBlur
         id="feGaussianBlur846"
         stdDeviation="1.5000091" />
    </filter>
    <linearGradient
       gradientUnits="userSpaceOnUse"
       y2="236"
       y1="124"
       x2="152"
       x1="152"
       id="b">
      <stop
         id="stop849"
         offset="0" />
      <stop
         id="stop851"
         offset="1"
         stop-opacity="0" />
    </linearGradient>
    <clipPath
       id="f">
      <path
         id="path854"
         fill="#5d5d5d"
         color="#000000"
         d="m152 68c-48.601 0-88 39.399-88 88s39.399 88 88 88 88-39.399 88-88-39.399-88-88-88z" />
    </clipPath>
    <filter
       color-interpolation-filters="sRGB"
       height="1.12"
       width="1.12"
       y="-.06"
       x="-.06"
       id="e">
      <feGaussianBlur
         id="feGaussianBlur857"
         stdDeviation="4.4" />
    </filter>
  </defs>
  <sodipodi:namedview
     pagecolor="#ffffff"
     bordercolor="#666666"
     borderopacity="1"
     objecttolerance="10"
     gridtolerance="10"
     guidetolerance="10"
     inkscape:pageopacity="0"
     inkscape:pageshadow="2"
     inkscape:window-width="1920"
     inkscape:window-height="1000"
     id="namedview20"
     showgrid="false"
     inkscape:zoom="3.6875"
     inkscape:cx="32"
     inkscape:cy="32"
     inkscape:window-x="0"
     inkscape:window-y="0"
     inkscape:window-maximized="1"
     inkscape:current-layer="svg18" />
  <g
     transform="translate(-0.02699976,-280.19849)"
     id="g870">
    <circle
       style="fill:#5e4aa6;stroke-width:0.26458001"
       cx="-330.35001"
       cy="-48.312"
       r="0"
       id="circle862" />
    <circle
       style="opacity:0.2;stroke-width:0.14032"
       cx="8.4934998"
       cy="288.79999"
       r="7.9375"
       id="circle864" />
    <circle
       style="fill:#fafafa;stroke-width:0.14032"
       cx="8.4934998"
       cy="288.53"
       r="7.9375"
       id="circle866" />
    <circle
       style="fill:#5e4aa6;fill-rule:evenodd;stroke-width:0.26458001"
       cx="-39.433998"
       cy="286.51001"
       r="0"
       id="circle868" />
  </g>
  <g
     transform="matrix(0.33674,0,0,0.33674,-17.921457,0.8746967)"
     id="g16"
     style="stroke-width:0.78570998">
    <g
       id="g14"
       style="stroke-width:0.78570998">
      <g
         id="g12"
         style="stroke-width:0.78570998">
        <g
           id="g10"
           style="stroke-width:0.78570998">
          <path
             d="m 76.025,10.148 c -4.097,-0.021 -7.346,6.984 -5.662,11.203 4.653,-4.534 9.09,-3.73 8.184,-9.443 0.491,0.591 1.173,1.605 1.318,2.982 0.227,2.155 -0.843,5.189 -6.754,8.637 l 0.504,0.865 c 6.091,-3.553 7.519,-7.02 7.246,-9.613 -0.191,-1.808 -0.939,-2.289 -1.516,-2.928 1.555,0.236 2.959,0.589 3.619,1.447 0.839,1.091 1.142,2.597 1.143,4.158 0,3.122 -1.211,6.326 -1.211,6.326 l 0.934,0.359 c 0,0 1.282,-3.307 1.281,-6.686 0,-1.689 -0.322,-3.421 -1.357,-4.768 -1.851,-1.9 -3.914,-2.137 -6.27,-2.229 -0.493,-0.208 -0.982,-0.31 -1.459,-0.313 z"
             style="color:#000000;white-space:normal;isolation:auto;mix-blend-mode:normal;solid-color:#000000;fill:#50b721;color-rendering:auto;image-rendering:auto;shape-rendering:auto"
             isolation="auto"
             mix-blend-mode="normal"
             id="path4"
             inkscape:connector-curvature="0" />
          <path
             d="m 73.363,22.945 c -3.313,0 -6,2.688 -6,6 0,3.313 2.688,6 6,6 1.715,0 3.25,-0.723 4.344,-1.875 -0.852,-1.16 -1.344,-2.578 -1.344,-4.125 0,-1.547 0.492,-2.965 1.344,-4.125 -1.094,-1.152 -2.629,-1.875 -4.344,-1.875"
             id="path6"
             inkscape:connector-curvature="0"
             style="fill:#e94040" />
          <path
             d="m 89.363,28.945 c 0,3.313 -2.688,6 -6,6 -3.313,0 -6,-2.688 -6,-6 0,-3.313 2.688,-6 6,-6 3.313,0 6,2.688 6,6"
             id="path8"
             inkscape:connector-curvature="0"
             style="fill:#e94040" />
        </g>
      </g>
    </g>
  </g>
</svg>
