<?xml version="1.0" encoding="UTF-8" standalone="no"?>
<svg
   xmlns:dc="http://purl.org/dc/elements/1.1/"
   xmlns:cc="http://creativecommons.org/ns#"
   xmlns:rdf="http://www.w3.org/1999/02/22-rdf-syntax-ns#"
   xmlns:svg="http://www.w3.org/2000/svg"
   xmlns="http://www.w3.org/2000/svg"
   xmlns:sodipodi="http://sodipodi.sourceforge.net/DTD/sodipodi-0.dtd"
   xmlns:inkscape="http://www.inkscape.org/namespaces/inkscape"
   width="64"
   height="64"
   version="1.1"
   viewBox="0 0 16.933 16.933"
   id="svg12"
   sodipodi:docname="clion.svg"
   inkscape:version="0.92.5 (6c0c36ef5a, 2020-05-15, custom)">
  <metadata
     id="metadata18">
    <rdf:RDF>
      <cc:Work
         rdf:about="">
        <dc:format>image/svg+xml</dc:format>
        <dc:type
           rdf:resource="http://purl.org/dc/dcmitype/StillImage" />
        <dc:title></dc:title>
      </cc:Work>
    </rdf:RDF>
  </metadata>
  <defs
     id="defs16">
    <linearGradient
       gradientUnits="userSpaceOnUse"
       gradientTransform="matrix(0.53033,0,0,0.53033,11.5088,71.861)"
       y2="-100.78"
       y1="-137.82"
       x2="-6.1472"
       x1="-6.1472"
       id="linearGradient11422">
      <stop
         id="stop830"
         offset="0"
         stop-color="#32b4ff" />
      <stop
         id="stop832"
         offset="1"
         stop-color="#3287ff" />
    </linearGradient>
  </defs>
  <sodipodi:namedview
     pagecolor="#ffffff"
     bordercolor="#666666"
     borderopacity="1"
     objecttolerance="10"
     gridtolerance="10"
     guidetolerance="10"
     inkscape:pageopacity="0"
     inkscape:pageshadow="2"
     inkscape:window-width="1920"
     inkscape:window-height="1000"
     id="namedview14"
     showgrid="false"
     inkscape:zoom="1.84375"
     inkscape:cx="-84.404962"
     inkscape:cy="25.952658"
     inkscape:window-x="0"
     inkscape:window-y="0"
     inkscape:window-maximized="1"
     inkscape:current-layer="svg12" />
  <circle
     style="fill:#5e4aa6;stroke-width:0.26458001"
     cx="-330.3772"
     cy="-328.508"
     r="0"
     id="circle837" />
  <circle
     style="fill:#5e4aa6;fill-rule:evenodd;stroke-width:0.26458001"
     cx="-39.461197"
     cy="6.3120003"
     r="0"
     id="circle839" />
  <circle
     style="opacity:0.2;stroke-width:0.14032"
     cx="8.4663"
     cy="8.6020002"
     r="7.9375"
     id="circle841" />
  <circle
     cx="8.4667006"
     cy="8.3310003"
     r="7.9375"
     style="fill:url(#linearGradient11422);paint-order:normal"
     id="circle843" />
  <g
     style="fill:#5e4aa6;stroke-width:0.26458001"
     id="g855"
     transform="translate(-0.02720003,-0.12799959)">
    <circle
       cx="-306.70001"
       cy="-329.95001"
       r="0"
       id="circle847" />
    <circle
       style="fill-rule:evenodd"
       cx="-15.783"
       cy="4.8765001"
       r="0"
       id="circle849" />
    <circle
       cx="-285.92999"
       cy="-348.85999"
       r="0"
       id="circle851" />
    <circle
       style="fill-rule:evenodd"
       cx="4.9854999"
       cy="-14.033"
       r="0"
       id="circle853" />
  </g>
  <g
     id="g893"
     transform="translate(-20.3052,5e-5)">
    <path
       d="m 24.80305,4.4978 h 7.9373 v 7.9373 h -7.9373 z"
       id="path4"
       inkscape:connector-curvature="0"
       style="fill:#303030;stroke-width:0.26458001" />
    <path
       d="m 27.21875,5.36 c -1.0281,0 -1.553,0.73671 -1.553,1.6901 0,0.95334 0.56223,1.7451 1.553,1.7265 0.63556,0 1.0212,-0.24975 1.3576,-0.62361 L 28.1505,7.71925 c -0.2617,0.24301 -0.55791,0.43616 -0.93178,0.43616 -0.57621,0 -0.92722,-0.53856 -0.93117,-1.1144 0.0039,-0.57541 0.37338,-1.0598 0.93117,-1.0598 0.33647,0 0.62154,0.12521 0.88325,0.36822 L 28.5078,5.86292 C 28.19002,5.54514 27.85429,5.36003 27.2187,5.36003 Z m 1.8636,6.212e-4 v 3.4165 h 2.1741 v -0.62118 h -1.553 v -2.7953 z"
       id="path6"
       inkscape:connector-curvature="0"
       style="fill:#f9f9f9;stroke-width:0.26458001" />
    <path
       d="m 25.35525,10.9517 h 3.1059 v 0.62118 h -3.1059 z"
       id="path8"
       inkscape:connector-curvature="0"
       style="fill:#f9f9f9;stroke-width:0.26458001" />
  </g>
</svg>
