<?xml version="1.0" encoding="UTF-8"?>
<svg width="64" height="64" version="1.1" viewBox="0 0 16.933 16.933" xmlns="http://www.w3.org/2000/svg" xmlns:cc="http://creativecommons.org/ns#" xmlns:dc="http://purl.org/dc/elements/1.1/" xmlns:rdf="http://www.w3.org/1999/02/22-rdf-syntax-ns#">
 <metadata>
  <rdf:RDF>
   <cc:Work rdf:about="">
    <dc:format>image/svg+xml</dc:format>
    <dc:type rdf:resource="http://purl.org/dc/dcmitype/StillImage"/>
    <dc:title/>
   </cc:Work>
  </rdf:RDF>
 </metadata>
 <defs>
  <linearGradient id="a" x1="-6.1472" x2="-6.1472" y1="-137.82" y2="-100.78" gradientTransform="matrix(.53033 0 0 .53033 11.509 71.862)" gradientUnits="userSpaceOnUse">
   <stop stop-color="#32b4ff" offset="0"/>
   <stop stop-color="#3287ff" offset="1"/>
  </linearGradient>
 </defs>
 <circle cx="-330.38" cy="-328.51" r="0" fill="#5e4aa6" stroke-width=".26458"/>
 <circle cx="8.4663" cy="8.6015" r="7.9375" opacity=".2" stroke-width=".14032"/>
 <circle cx="8.4667" cy="8.3315" r="7.9375" fill="url(#a)" style="paint-order:normal"/>
 <circle cx="-39.461" cy="6.3115" r="0" fill="#5e4aa6" fill-rule="evenodd" stroke-width=".26458"/>
 <path d="m8.467 2.9105a5.82 5.82 0 0 0-5.821 5.82 5.82 5.82 0 0 0 2.131 4.498h0.915a5.292 5.292 0 0 0 2.775 0.794 5.292 5.292 0 0 0 2.78-0.794h0.908a5.82 5.82 0 0 0 2.132-4.498 5.82 5.82 0 0 0-5.82-5.82z" opacity=".15" style="paint-order:stroke markers fill"/>
 <path d="m8.4663 5.0382a1.498 1.1411 0 0 0-1.496 1.1105h-0.0031v0.98855a0.18299 0.24351 0 0 0-0.00414 0 0.18299 0.24351 0 0 0-0.18293 0.24339 0.18299 0.24351 0 0 0 0.18293 0.24339 0.18299 0.24351 0 0 0 0.00414 0h0.15089c0.01534 0.15907 0.058684 0.33401 0.15193 0.51881l0.54879 0.77204-2.6783 1.6743c-0.92021 0.81065-0.20842 1.5012 0.23719 1.5012h6.2229c0.43738 0 1.0595-0.67883 0.23719-1.5012l-2.6985-1.6872 0.5395-0.75911c0.082634-0.18592 0.12212-0.36046 0.13642-0.51881h0.15038v-5.292e-4a0.18299 0.24351 0 0 1 5.291e-4 0 0.18299 0.24351 0 0 0 0.17001-0.24288 0.18299 0.24351 0 0 0-0.17053-0.24288v-0.98905h-0.00259a1.498 1.1411 0 0 0-1.4965-1.1105z" opacity=".15" style="paint-order:markers fill stroke"/>
 <path d="m8.4663 4.7416a1.498 1.1411 0 0 0-1.496 1.1105h-0.0031v0.98855a0.18299 0.24351 0 0 0-0.00414 0 0.18299 0.24351 0 0 0-0.18293 0.24339 0.18299 0.24351 0 0 0 0.18293 0.24339 0.18299 0.24351 0 0 0 0.00414 0h0.15089c0.01534 0.15907 0.058684 0.33401 0.15193 0.51881l0.54879 0.77204-2.6783 1.6743c-0.92021 0.81065-0.20842 1.5012 0.23719 1.5012h6.2229c0.43738 0 1.0595-0.67883 0.23719-1.5012l-2.6985-1.6872 0.5395-0.75911c0.082634-0.18592 0.12212-0.36046 0.13642-0.51881h0.15038v-5.292e-4a0.18299 0.24351 0 0 1 5.291e-4 0 0.18299 0.24351 0 0 0 0.17001-0.24288 0.18299 0.24351 0 0 0-0.17053-0.24288v-0.98905h-0.00259a1.498 1.1411 0 0 0-1.4965-1.1105z" fill="#fff" style="paint-order:markers fill stroke"/>
</svg>
