<?xml version="1.0" encoding="UTF-8" standalone="no"?>
<svg
   xmlns:dc="http://purl.org/dc/elements/1.1/"
   xmlns:cc="http://creativecommons.org/ns#"
   xmlns:rdf="http://www.w3.org/1999/02/22-rdf-syntax-ns#"
   xmlns:svg="http://www.w3.org/2000/svg"
   xmlns="http://www.w3.org/2000/svg"
   xmlns:sodipodi="http://sodipodi.sourceforge.net/DTD/sodipodi-0.dtd"
   xmlns:inkscape="http://www.inkscape.org/namespaces/inkscape"
   width="64"
   height="64"
   version="1.1"
   viewBox="0 0 16.933 16.933"
   id="svg14"
   sodipodi:docname="datagrip.svg"
   inkscape:version="0.92.5 (6c0c36ef5a, 2020-05-15, custom)">
  <metadata
     id="metadata20">
    <rdf:RDF>
      <cc:Work
         rdf:about="">
        <dc:format>image/svg+xml</dc:format>
        <dc:type
           rdf:resource="http://purl.org/dc/dcmitype/StillImage" />
        <dc:title></dc:title>
      </cc:Work>
    </rdf:RDF>
  </metadata>
  <defs
     id="defs18">
    <linearGradient
       gradientUnits="userSpaceOnUse"
       gradientTransform="matrix(0.53033,0,0,0.53033,11.536,352.06)"
       y2="-100.78"
       y1="-137.82"
       x2="-6.1472"
       x1="-6.1472"
       id="a">
      <stop
         id="stop827"
         offset="0"
         stop-color="#32b4ff" />
      <stop
         id="stop829"
         offset="1"
         stop-color="#3287ff" />
    </linearGradient>
    <linearGradient
       gradientUnits="userSpaceOnUse"
       gradientTransform="matrix(0.53032038,0,0,0.53032038,11.508884,71.864974)"
       y2="-100.78"
       y1="-137.82"
       x2="-6.1472"
       x1="-6.1472"
       id="a-3">
      <stop
         id="stop909"
         offset="0"
         stop-color="#14dc78" />
      <stop
         id="stop911"
         offset="1"
         stop-color="#14a03c" />
    </linearGradient>
  </defs>
  <sodipodi:namedview
     pagecolor="#ffffff"
     bordercolor="#666666"
     borderopacity="1"
     objecttolerance="10"
     gridtolerance="10"
     guidetolerance="10"
     inkscape:pageopacity="0"
     inkscape:pageshadow="2"
     inkscape:window-width="1920"
     inkscape:window-height="1000"
     id="namedview16"
     showgrid="false"
     inkscape:zoom="3.6875"
     inkscape:cx="32"
     inkscape:cy="32"
     inkscape:window-x="0"
     inkscape:window-y="0"
     inkscape:window-maximized="1"
     inkscape:current-layer="svg14" />
  <circle
     cx="8.4662352"
     cy="8.5990534"
     r="7.9373436"
     overflow="visible"
     style="color:#000000;overflow:visible;opacity:0.15;isolation:auto;mix-blend-mode:normal;stroke-width:0.26457813"
     id="circle916" />
  <circle
     cx="8.4665003"
     cy="8.3342113"
     r="7.9376082"
     id="circle918"
     style="fill:url(#a-3);stroke-width:0.14031902" />
  <circle
     style="fill:#5e4aa6;stroke-width:0.26457813"
     cx="-306.19653"
     cy="-337.68082"
     r="0"
     id="circle924" />
  <circle
     style="fill:#5e4aa6;fill-rule:evenodd;stroke-width:0.26457813"
     cx="-15.282561"
     cy="-2.8608832"
     r="0"
     id="circle926" />
  <g
     id="g958"
     transform="translate(-20.879197,1.988e-4)">
    <path
       d="m 25.377094,4.4976974 h 7.937207 v 7.9372076 h -7.937207 z"
       id="path4"
       inkscape:connector-curvature="0"
       style="fill:#303030;stroke-width:0.26457357" />
    <path
       d="m 26.239793,5.3603965 h 1.343411 c 0.803488,0 1.451645,0.6264517 1.451645,1.7005115 v 0.015529 c 0,1.0845428 -0.7792,1.6875987 -1.380624,1.6947595 l -0.482966,0.00563 H 26.2395 Z m 1.242338,2.7952906 c 0.373852,0 0.93176,-0.3053548 0.93176,-1.0792953 v -0.01553 c 0,-0.7634224 -0.557814,-1.0792954 -0.93176,-1.0792954 H 26.86095 v 2.1740628 z"
       id="path6"
       inkscape:connector-curvature="0"
       style="fill:#f9f9f9;stroke-width:0.26457357" />
    <path
       d="m 31.053957,5.3603965 c -0.492932,0 -0.931642,0.162456 -1.238699,0.469513 -0.307175,0.3068575 -0.469607,0.74572 -0.469607,1.2385819 0,0.4929324 0.162456,0.9316423 0.469513,1.2386993 0.306857,0.3071744 0.74572,0.4696069 1.238582,0.4696069 0.451071,0 0.789295,-0.1411497 1.008204,-0.2887559 0.21892,-0.1475944 0.337883,-0.3221064 0.337883,-0.3221064 l 0.05156,-0.077653 V 6.9133253 H 30.898441 V 7.5345062 H 31.8302 v 0.3354654 c -0.01928,0.023807 -0.02509,0.042331 -0.115256,0.1031271 -0.130443,0.087902 -0.335747,0.1826237 -0.661246,0.1826237 -0.361209,0 -0.621181,-0.1093253 -0.799449,-0.2876055 -0.17828,-0.1782802 -0.287606,-0.4382404 -0.287606,-0.7994612 0,-0.361209 0.109328,-0.6211809 0.287606,-0.7994493 0.17828,-0.1782802 0.43824,-0.2876055 0.799449,-0.2876055 0.361186,0 0.621334,0.1093088 0.79952,0.287535 L 32.292419,5.829933 C 31.985562,5.5227586 31.546699,5.360326 31.053837,5.360326 Z"
       id="path8"
       inkscape:connector-curvature="0"
       style="fill:#f9f9f9;stroke-width:0.26457357" />
    <path
       d="m 25.929179,10.95133 h 3.105905 v 0.621181 h -3.105905 z"
       id="path10"
       inkscape:connector-curvature="0"
       style="fill:#f9f9f9;stroke-width:0.26457357" />
  </g>
</svg>
