<?xml version="1.0" encoding="UTF-8"?>
<svg width="64" height="64" version="1.1" xmlns="http://www.w3.org/2000/svg" xmlns:cc="http://creativecommons.org/ns#" xmlns:dc="http://purl.org/dc/elements/1.1/" xmlns:rdf="http://www.w3.org/1999/02/22-rdf-syntax-ns#" xmlns:xlink="http://www.w3.org/1999/xlink">
 <metadata>
  <rdf:RDF>
   <cc:Work rdf:about="">
    <dc:format>image/svg+xml</dc:format>
    <dc:type rdf:resource="http://purl.org/dc/dcmitype/StillImage"/>
    <dc:title/>
   </cc:Work>
  </rdf:RDF>
 </metadata>
 <defs>
  <linearGradient id="b" x1="399.57" x2="399.57" y1="545.8" y2="517.8" gradientTransform="matrix(2.1429 0 0 2.1429 -826.36 -1107.5)" gradientUnits="userSpaceOnUse">
   <stop stop-color="#3889e9" offset="0"/>
   <stop stop-color="#5ea5fb" offset="1"/>
  </linearGradient>
  <linearGradient id="linearGradient868" x1="55.695" x2="11.004" y1="53.475" y2="8.7838" gradientTransform="translate(81.114)" gradientUnits="userSpaceOnUse">
   <stop stop-color="#fa7d37" offset="0"/>
   <stop stop-color="#9b32af" offset="1"/>
  </linearGradient>
 </defs>
 <path d="m50.249 9.1937q-3.8597-2.9725-8.444-4.5557-4.7372-1.6373-9.8021-1.6373c-16.57 0-30.003 13.432-30.003 30.001 0 15.158 11.245 27.684 25.845 29.709 0.71216 0.09855 1.4339 0.17485 2.1587 0.21936 0.66128 0.04133 1.3258 0.06994 1.9998 0.06994 16.567 0 29.997-13.432 29.997-29.999 0-1.3098-0.08266-2.6037-0.24481-3.8658-0.18758-1.4751-0.49279-2.909-0.88387-4.3046q-1.3289-4.6892-4.0822-8.7265-2.7215-3.9771-6.5401-6.9112z" opacity=".15" stroke-width=".99724"/>
 <g transform="translate(-81.114 .0018159)">
  <path d="m131.36 8.1932q-3.8597-2.9725-8.444-4.5557-4.7372-1.6373-9.8021-1.6373c-16.57 0-30.003 13.432-30.003 30.001 0 15.158 11.245 27.684 25.845 29.709 0.71216 0.09855 1.4339 0.17485 2.1587 0.21936 0.66128 0.04133 1.3258 0.06994 1.9998 0.06994 16.567 0 29.997-13.432 29.997-29.999 0-1.3098-0.0827-2.6037-0.24481-3.8658-0.18758-1.4751-0.49279-2.909-0.88387-4.3046q-1.3289-4.6892-4.0822-8.7265-2.7215-3.9771-6.5401-6.9112z" fill="url(#linearGradient868)" stroke-width=".99724"/>
  <g transform="matrix(1.0296 0 0 1.0296 -54.834 -36.304)">
   <circle cx="163.13" cy="66.343" r="20.151" fill="#fff" opacity=".5" stroke-width=".35623"/>
   <circle cx="163.13" cy="66.343" r="14.09" fill="#191923" stroke-width=".24908"/>
   <circle cx="163.13" cy="66.343" r="9.0011" fill="#3b444c" stroke-width=".15912"/>
   <circle cx="163.13" cy="66.343" r="4.4475" fill="#0d0d0c" stroke-width=".07862"/>
   <g transform="matrix(2.0044 0 0 2.0044 805.95 223.69)" fill="#fefefe">
    <circle cx="-320.71" cy="-79.13" r=".61512" stroke-width=".010874"/>
    <circle cx="-320.71" cy="-77.543" r=".29774" stroke-width=".0052634"/>
   </g>
  </g>
  <path transform="rotate(90)" d="m57.357-113.12a25.356 25.356 0 0 1-25.189 25.355 25.356 25.356 0 0 1-25.52-25.023 25.356 25.356 0 0 1 24.855-25.683" fill="none" opacity=".2" stroke="#000" stroke-dashoffset="3" stroke-linecap="round" stroke-width="9.2945" style="paint-order:stroke fill markers"/>
 </g>
 <circle cx="32.02" cy="32.044" r="30.001" fill-opacity="0" stroke-width="1.5715"/>
 <circle cx="32.02" cy="32.044" r="0" fill="url(#b)" stroke-width="1.5715"/>
 <circle cx="-1019.3" cy="-1202" r="0" fill="#5e4aa6"/>
</svg>
