<?xml version="1.0" encoding="UTF-8" standalone="no"?>
<svg
   xmlns:dc="http://purl.org/dc/elements/1.1/"
   xmlns:cc="http://creativecommons.org/ns#"
   xmlns:rdf="http://www.w3.org/1999/02/22-rdf-syntax-ns#"
   xmlns:svg="http://www.w3.org/2000/svg"
   xmlns="http://www.w3.org/2000/svg"
   xmlns:xlink="http://www.w3.org/1999/xlink"
   xmlns:sodipodi="http://sodipodi.sourceforge.net/DTD/sodipodi-0.dtd"
   xmlns:inkscape="http://www.inkscape.org/namespaces/inkscape"
   width="64"
   height="64"
   version="1.1"
   id="svg55"
   sodipodi:docname="hwinfo.svg"
   inkscape:version="1.0 (4035a4fb49, 2020-05-01)">
  <metadata
     id="metadata59">
    <rdf:RDF>
      <cc:Work
         rdf:about="">
        <dc:format>image/svg+xml</dc:format>
        <dc:type
           rdf:resource="http://purl.org/dc/dcmitype/StillImage" />
        <dc:title></dc:title>
      </cc:Work>
    </rdf:RDF>
  </metadata>
  <sodipodi:namedview
     inkscape:document-rotation="0"
     pagecolor="#ffffff"
     bordercolor="#666666"
     borderopacity="1"
     objecttolerance="10"
     gridtolerance="10"
     guidetolerance="10"
     inkscape:pageopacity="0"
     inkscape:pageshadow="2"
     inkscape:window-width="1920"
     inkscape:window-height="985"
     id="namedview57"
     showgrid="false"
     inkscape:zoom="4.5078058"
     inkscape:cx="36.180671"
     inkscape:cy="49.880469"
     inkscape:window-x="0"
     inkscape:window-y="0"
     inkscape:window-maximized="1"
     inkscape:current-layer="svg55" />
  <defs
     id="defs25">
    <linearGradient
       id="linearGradient1028"
       inkscape:collect="always">
      <stop
         id="stop1024"
         offset="0"
         style="stop-color:#21d85c;stop-opacity:1" />
      <stop
         id="stop1026"
         offset="1"
         style="stop-color:#28963c;stop-opacity:1" />
    </linearGradient>
    <linearGradient
       id="c"
       x1="32"
       x2="32"
       y1="11"
       y2="53"
       gradientTransform="translate(-1.0175e-5,-0.033043)"
       gradientUnits="userSpaceOnUse">
      <stop
         stop-color="#dcdede"
         offset="0"
         id="stop2" />
      <stop
         stop-color="#939493"
         offset="1"
         id="stop4" />
    </linearGradient>
    <filter
       id="f"
       x="-.06"
       y="-.06"
       width="1.12"
       height="1.12"
       color-interpolation-filters="sRGB">
      <feGaussianBlur
         stdDeviation="0.18520833"
         id="feGaussianBlur7" />
    </filter>
    <linearGradient
       id="b"
       x1="8.4666"
       x2="8.4666"
       y1="284.83"
       y2="292.24"
       gradientUnits="userSpaceOnUse">
      <stop
         stop-color="#4c5557"
         offset="0"
         id="stop10" />
      <stop
         stop-color="#282929"
         offset="1"
         id="stop12" />
    </linearGradient>
    <linearGradient
       id="linearGradient862-3"
       x1="7.9373"
       x2="7.9373"
       y1="15.081"
       y2="1.852"
       gradientTransform="matrix(3.7796,0,0,3.7796,84.833553,0)"
       gradientUnits="userSpaceOnUse">
      <stop
         stop-color="#298f38"
         offset="0"
         id="stop15" />
      <stop
         stop-color="#20df5f"
         offset="1"
         id="stop17" />
    </linearGradient>
    <linearGradient
       id="linearGradient964"
       x1="30"
       x2="30"
       y1="10"
       y2="70"
       gradientUnits="userSpaceOnUse"
       gradientTransform="translate(84.833553)">
      <stop
         offset="0"
         id="stop20" />
      <stop
         stop-opacity=".35"
         offset="1"
         id="stop22" />
    </linearGradient>
    <linearGradient
       gradientUnits="userSpaceOnUse"
       gradientTransform="matrix(3.7796,0,0,3.7796,185.86395,25.813514)"
       y2="9.574"
       y1="-6.3007"
       x2="-32.772"
       x1="-48.646"
       id="linearGradient873">
      <stop
         id="stop886"
         offset="0"
         stop-color="#28afea" />
      <stop
         id="stop888"
         offset="1"
         stop-color="#838be4" />
    </linearGradient>
    <linearGradient
       inkscape:collect="always"
       xlink:href="#linearGradient964"
       id="linearGradient977"
       gradientUnits="userSpaceOnUse"
       gradientTransform="matrix(1.2025775,0,0,1.2025775,-6.449762,-6.479467)"
       x1="30"
       y1="10"
       x2="30"
       y2="70" />
    <linearGradient
       id="a-3"
       x1="-6.1472"
       x2="-6.1472"
       y1="-137.82"
       y2="-100.78"
       gradientTransform="matrix(2.0044,0,0,2.0044,-78.291658,271.61015)"
       gradientUnits="userSpaceOnUse">
      <stop
         stop-color="#378c3c"
         offset="0"
         id="stop872" />
      <stop
         stop-color="#3c8250"
         offset="1"
         id="stop874" />
    </linearGradient>
    <style
       type="text/css"
       id="style877" />
    <style
       type="text/css"
       id="style879" />
    <linearGradient
       gradientTransform="translate(73.193741)"
       gradientUnits="userSpaceOnUse"
       y2="61.389309"
       x2="-39.566673"
       y1="1.0619125"
       x1="-39.566673"
       id="linearGradient1030"
       xlink:href="#linearGradient1028"
       inkscape:collect="always" />
  </defs>
  <g
     transform="matrix(3.7796,0,0,3.7796,-151.13031,-27.198706)"
     fill="#5e4aa6"
     stroke-width="0.26458"
     id="g904">
    <circle
       cx="-330.35001"
       cy="-328.38"
       r="0"
       id="circle896" />
    <circle
       cx="-312.10999"
       cy="-326.25"
       r="0"
       id="circle898" />
    <circle
       cx="-306.01999"
       cy="-333.07001"
       r="0"
       id="circle900" />
    <circle
       cx="-308.84"
       cy="-326.01001"
       r="0"
       id="circle902" />
  </g>
  <circle
     id="circle883"
     fill="#5e4aa6"
     r="0"
     cy="-1241.5999"
     cx="-1248.7" />
  <circle
     id="circle885"
     stroke-width="0.53035"
     opacity="0.2"
     r="30.000999"
     cy="32.510151"
     cx="32" />
  <circle
     r="30"
     cy="31.489151"
     cx="32"
     id="path1022"
     style="fill:url(#linearGradient1030);fill-opacity:1;stroke-width:2.69026;stroke-linecap:round" />
  <path
     d="M 27.220703 2 L 27.220703 15.373047 L 31.035156 11.558594 L 30.832031 11.558594 L 30.832031 2 L 27.220703 2 z M 33.234375 2 L 33.234375 9.3613281 L 36.84375 5.7539062 L 36.84375 2 L 33.234375 2 z M 24.816406 2.3632812 A 30 30 0 0 0 21.210938 3.4960938 L 21.210938 12.96875 L 25.419922 17.177734 L 26.226562 16.369141 L 24.816406 16.369141 L 24.816406 2.3632812 z M 39.25 2.3789062 L 39.25 6.7480469 L 27.119141 18.878906 L 28.425781 20.183594 L 42.857422 5.7539062 L 42.857422 3.5234375 A 30 30 0 0 0 39.25 2.3789062 z M 18.804688 4.546875 A 30 30 0 0 0 15.005859 6.7675781 L 18.804688 10.5625 L 18.804688 4.546875 z M 45.259766 4.5800781 L 45.259766 6.7480469 L 29.101562 22.90625 L 28.425781 22.228516 L 27.744141 22.90625 L 25.419922 20.580078 L 23.089844 22.90625 L 22.410156 22.228516 L 21.732422 22.90625 L 9.9609375 11.134766 A 30 30 0 0 0 7.8847656 13.644531 L 17.175781 22.9375 L 51.457031 22.9375 L 57.623047 15.888672 A 30 30 0 0 0 55.037109 12.273438 L 50.164062 17.757812 L 46.277344 17.757812 L 53.060547 10.125 A 30 30 0 0 0 50.300781 7.71875 L 35.115234 22.90625 L 33.414062 21.205078 L 48.308594 6.3125 A 30 30 0 0 0 45.259766 4.5800781 z M 13.060547 8.2226562 A 30 30 0 0 0 11.662109 9.4355469 L 22.410156 20.183594 L 23.71875 18.878906 L 21.210938 16.369141 L 18.804688 16.369141 L 18.804688 13.964844 L 13.060547 8.2226562 z M 6.5097656 15.671875 A 30 30 0 0 0 3.2460938 22.9375 L 13.773438 22.9375 L 6.5097656 15.671875 z M 11.310547 38.476562 L 11.310547 38.478516 L 4.6464844 43.808594 A 30 30 0 0 0 11.310547 53.212891 L 11.310547 51.429688 L 19.080078 44.953125 L 22.964844 44.953125 L 15.195312 51.429688 L 15.195312 56.339844 A 30 30 0 0 0 20.369141 59.142578 L 36.164062 43.349609 L 36.84375 44.027344 L 37.521484 43.349609 L 39.847656 45.675781 L 42.175781 43.349609 L 42.857422 44.027344 L 43.533203 43.349609 L 53.048828 52.863281 A 30 30 0 0 0 54.326172 51.529297 L 47.845703 45.048828 L 49.546875 43.349609 L 55.865234 49.667969 A 30 30 0 0 0 59.146484 44.259766 L 56.638672 41.068359 L 54.050781 41.068359 L 51.457031 38.476562 L 35.878906 38.476562 L 36.164062 38.761719 L 21.175781 53.748047 A 1.8038663 1.8038663 0 0 1 21.207031 54.09375 A 1.8038663 1.8038663 0 0 1 19.404297 55.898438 A 1.8038663 1.8038663 0 0 1 17.599609 54.09375 A 1.8038663 1.8038663 0 0 1 19.222656 52.298828 L 33.044922 38.476562 L 11.310547 38.476562 z M 36.84375 46.072266 L 22.851562 60.060547 A 30 30 0 0 0 26.019531 60.886719 L 26.019531 59.507812 L 33.234375 52.291016 L 33.234375 49.886719 L 35.638672 49.886719 L 38.146484 47.376953 L 36.84375 46.072266 z M 42.853516 46.072266 L 41.550781 47.376953 L 49.804688 55.632812 A 30 30 0 0 0 51.267578 54.484375 L 42.853516 46.072266 z M 39.847656 49.078125 L 35.638672 53.287109 L 35.638672 61.265625 A 30 30 0 0 0 39.246094 60.599609 L 39.246094 49.884766 L 40.658203 49.884766 L 39.847656 49.078125 z M 41.652344 50.882812 L 41.652344 59.892578 A 30 30 0 0 0 45.259766 58.398438 L 45.259766 54.695312 L 45.46875 54.695312 L 41.652344 50.882812 z M 33.234375 55.693359 L 28.425781 60.501953 L 28.425781 61.275391 A 30 30 0 0 0 32 61.488281 A 30 30 0 0 0 33.234375 61.462891 L 33.234375 55.693359 z M 47.664062 56.894531 L 47.664062 57.074219 A 30 30 0 0 0 47.775391 57.005859 L 47.664062 56.894531 z "
     style="opacity:0.2;fill:url(#linearGradient977)"
     id="path975" />
  <g
     id="g973"
     transform="matrix(0.92104658,0,0,0.92104658,-75.609338,2.5660565)">
    <g
       id="g51"
       transform="matrix(3.7796,0,0,3.7796,84.833543,-1058.6)">
      <g
         id="g39"
         transform="translate(0,-0.0088674)">
        <path
           style="fill:url(#c)"
           id="path33"
           fill="url(#c)"
           d="m 20,13 -0.5,2 H 19 v 3.9668 H 15 V 19.5 l -2,0.5 2,0.5 v 0.4668 h 4 v 2 H 15 V 23.5 l -2,0.5 2,0.5 v 0.4668 h 4 v 2 H 15 V 27.5 l -2,0.5 2,0.5 v 0.4668 h 4 v 2 H 15 V 31.5 l -2,0.5 2,0.5 v 0.4668 h 4 v 2 H 15 V 35.5 l -2,0.5 2,0.5 v 0.4668 h 4 v 2 H 15 V 39.5 l -2,0.5 2,0.5 v 0.4668 h 4 v 2 H 15 V 43.5 l -2,0.5 2,0.5 v 0.4668 h 4 V 49 h 0.5 l 0.5,2 0.5,-2 H 21 v -4.0332 h 2 V 49 h 0.5 l 0.5,2 0.5,-2 H 25 v -4.0332 h 2 V 49 h 0.5 l 0.5,2 0.5,-2 H 29 v -4.0332 h 2 V 49 h 0.5 l 0.5,2 0.5,-2 H 33 v -4.0332 h 2 V 49 h 0.5 l 0.5,2 0.5,-2 H 37 v -4.0332 h 2 V 49 h 0.5 l 0.5,2 0.5,-2 H 41 v -4.0332 h 2 V 49 h 0.5 l 0.5,2 0.5,-2 H 45 v -4.0332 h 4 V 44.5 L 51,44 49,43.5 v -0.5332 h -4 v -2 h 4 V 40.5 L 51,40 49,39.5 v -0.5332 h -4 v -2 h 4 V 36.5 L 51,36 49,35.5 v -0.5332 h -4 v -2 h 4 V 32.5 L 51,32 49,31.5 v -0.5332 h -4 v -2 h 4 V 28.5 L 51,28 49,27.5 v -0.5332 h -4 v -2 h 4 V 24.5 L 51,24 49,23.5 v -0.5332 h -4 v -2 h 4 V 20.5 L 51,20 49,19.5 V 18.9668 H 45 V 15 H 44.5 L 44,13 43.5,15 H 43 v 3.9668 H 41 V 15 H 40.5 L 40,13 39.5,15 H 39 v 3.9668 H 37 V 15 H 36.5 L 36,13 35.5,15 H 35 v 3.9668 H 33 V 15 H 32.5 L 32,13 31.5,15 H 31 v 3.9668 H 29 V 15 H 28.5 L 28,13 27.5,15 H 27 v 3.9668 H 25 V 15 H 24.5 L 24,13 23.5,15 H 23 v 3.9668 H 21 V 15 h -0.5 z m 1,7.9668 h 2 v 2 h -2 z m 4,0 h 2 v 2 h -2 z m 4,0 h 2 v 2 h -2 z m 4,0 h 2 v 2 h -2 z m 4,0 h 2 v 2 h -2 z m 4,0 h 2 v 2 h -2 z m -20,4 h 2 v 2 h -2 z m 4,0 h 2 v 2 h -2 z m 4,0 h 2 v 2 h -2 z m 4,0 h 2 v 2 h -2 z m 4,0 h 2 v 2 h -2 z m 4,0 h 2 v 2 h -2 z m -20,4 h 2 v 2 h -2 z m 4,0 h 2 v 2 h -2 z m 4,0 h 2 v 2 h -2 z m 4,0 h 2 v 2 h -2 z m 4,0 h 2 v 2 h -2 z m 4,0 h 2 v 2 h -2 z m -20,4 h 2 v 2 h -2 z m 4,0 h 2 v 2 h -2 z m 4,0 h 2 v 2 h -2 z m 4,0 h 2 v 2 h -2 z m 4,0 h 2 v 2 h -2 z m 4,0 h 2 v 2 h -2 z m -20,4 h 2 v 2 h -2 z m 4,0 h 2 v 2 h -2 z m 4,0 h 2 v 2 h -2 z m 4,0 h 2 v 2 h -2 z m 4,0 h 2 v 2 h -2 z m 4,0 h 2 v 2 h -2 z m -20,4 h 2 v 2 h -2 z m 4,0 h 2 v 2 h -2 z m 4,0 h 2 v 2 h -2 z m 4,0 h 2 v 2 h -2 z m 4,0 h 2 v 2 h -2 z m 4,0 h 2 v 2 h -2 z"
           transform="matrix(0.26458,0,0,0.26458,2.692e-6,280.08)" />
        <path
           id="path35"
           opacity="0.5"
           filter="url(#f)"
           fill-rule="evenodd"
           d="m 5.2917,284.83 h 6.35 c 0.29316,0 0.52917,0.236 0.52917,0.52915 v 6.35 c 0,0.29315 -0.23601,0.52915 -0.52917,0.52915 h -6.35 c -0.29316,0 -0.52917,-0.236 -0.52917,-0.52915 v -6.35 c 0,-0.29315 0.23601,-0.52915 0.52917,-0.52915 z" />
        <path
           style="fill:url(#b)"
           id="path37"
           fill-rule="evenodd"
           fill="url(#b)"
           d="m 5.2917,284.83 h 6.35 c 0.29316,0 0.52917,0.236 0.52917,0.52915 v 6.35 c 0,0.29315 -0.23601,0.52915 -0.52917,0.52915 h -6.35 c -0.29316,0 -0.52917,-0.236 -0.52917,-0.52915 v -6.35 c 0,-0.29315 0.23601,-0.52915 0.52917,-0.52915 z" />
      </g>
      <g
         id="g49"
         fill-rule="evenodd">
        <path
           id="path41"
           style="paint-order:stroke fill markers"
           opacity="0.35"
           d="M 5.5563,285.49 A 0.13229,0.13229 0 0 1 5.42401,285.62229 0.13229,0.13229 0 0 1 5.29172,285.49 0.13229,0.13229 0 0 1 5.42401,285.35771 0.13229,0.13229 0 0 1 5.5563,285.49" />
        <path
           id="path43"
           style="paint-order:stroke fill markers"
           opacity="0.35"
           d="M 11.641,285.49 A 0.13229,0.13229 0 0 1 11.50871,285.62229 0.13229,0.13229 0 0 1 11.37642,285.49 0.13229,0.13229 0 0 1 11.50871,285.35771 0.13229,0.13229 0 0 1 11.641,285.49" />
        <path
           id="path45"
           style="paint-order:stroke fill markers"
           opacity="0.35"
           d="M 5.5563,291.58 A 0.13229,0.13229 0 0 1 5.42401,291.71229 0.13229,0.13229 0 0 1 5.29172,291.58 0.13229,0.13229 0 0 1 5.42401,291.44771 0.13229,0.13229 0 0 1 5.5563,291.58" />
        <path
           id="path47"
           style="paint-order:stroke fill markers"
           opacity="0.35"
           d="M 11.641,291.58 A 0.13229,0.13229 0 0 1 11.50871,291.71229 0.13229,0.13229 0 0 1 11.37642,291.58 0.13229,0.13229 0 0 1 11.50871,291.44771 0.13229,0.13229 0 0 1 11.641,291.58" />
      </g>
    </g>
    <path
       id="path53"
       opacity="0.5"
       fill="#ffffff"
       d="m 119.53255,25.756 c -2.7223,0.03489 -5.7618,0.79114 -8.211,2.2305 v 0.36523 c 5.5911,-2.7764 13.524,-2.7587 14.246,1.2188 0.20672,1.1197 -0.3197,2.2736 -1.3242,3.0801 v -4.1992 h -1.1094 v 4.666 c 0,0.39152 0.15271,0.73907 0.53711,0.93751 v 0.02344 c 0.007,-0.0023 0.0129,-0.0074 0.0195,-0.0098 0.14972,0.07304 0.327,0.12791 0.55273,0.14844 v -0.39844 c 1.4432,-0.77326 2.7142,-2.4819 2.2812,-4.5293 -0.51797,-2.4287 -3.492,-3.5781 -6.9922,-3.5332 z m -9.6231,2.8359 v 0.99415 h 1.1094 V 28.5919 Z m 6.4824,0.44336 v 4.0469 c 0,0.58222 0.37915,1.1738 1.2793,1.1738 h 0.65039 v -0.8672 h -0.44726 c -0.26231,0 -0.38477,-0.13101 -0.38477,-0.36914 v -2.0234 h 0.83204 v -0.83985 h -0.83204 v -1.1211 h -1.0977 z m -7.1993,0.28906 c -1.6206,1.3723 -2.5005,3.1087 -1.9922,5.1582 0.64822,2.63 4.1025,4.1187 9.3771,3.623 2.0884,-0.19395 4.8222,-0.84457 6.7188,-1.8516 v -1.4297 c -1.7237,0.99304 -4.5754,1.8139 -6.9512,2.0254 -3.8634,0.34393 -7.8896,-0.19726 -8.4532,-3.1133 -0.27993,-1.4357 0.40174,-2.9605 1.3008,-3.9062 v -0.50586 z m 11.447,0.76173 c -1.1586,0 -2.0391,0.76356 -2.0391,2.1152 0,1.5806 1.0089,2.123 2.0625,2.123 0.80739,0 1.2632,-0.24593 1.6992,-0.6504 l -0.67774,-0.61328 c -0.28259,0.26256 -0.5251,0.39062 -1.0137,0.39062 -0.62172,0 -0.97657,-0.39059 -0.97657,-0.92189 h 2.793 v -0.375 c 0,-1.1741 -0.6729,-2.0684 -1.8477,-2.0684 z m -10.73,0.07031 v 3.0469 c 0,0.54823 0.27778,1.026 1.1094,1.1016 v -4.1484 h -1.1094 z m 2.0898,0 v 4.1035 h 1.0996 v -3.2656 l 0.91212,0.002 c 0.32288,0 0.45508,0.14871 0.45508,0.39258 v 2.8711 h 1.1035 v -2.875 c 0,-0.58421 -0.33206,-1.2285 -1.2969,-1.2285 h -2.2734 z m 8.5919,0.78906 c 0.56522,0 0.77849,0.4288 0.80275,0.87696 h -1.6992 c 0.012,-0.18348 0.0367,-0.29797 0.10938,-0.44727 0.12116,-0.2477 0.41176,-0.42969 0.78712,-0.42969 z" />
  </g>
</svg>
