<?xml version="1.0" encoding="UTF-8"?>
<svg width="64" height="64" version="1.1" viewBox="0 0 16.933 16.933" xmlns="http://www.w3.org/2000/svg" xmlns:cc="http://creativecommons.org/ns#" xmlns:dc="http://purl.org/dc/elements/1.1/" xmlns:rdf="http://www.w3.org/1999/02/22-rdf-syntax-ns#">
 <metadata>
  <rdf:RDF>
   <cc:Work rdf:about="">
    <dc:format>image/svg+xml</dc:format>
    <dc:type rdf:resource="http://purl.org/dc/dcmitype/StillImage"/>
    <dc:title/>
   </cc:Work>
  </rdf:RDF>
 </metadata>
 <g transform="translate(0,-280.07)" fill="#fafafa">
  <circle cx="-330.35" cy="-48.312" r="0" stroke-width=".26458"/>
  <circle cx="-39.434" cy="286.51" r="0" fill-rule="evenodd" stroke-width=".26458"/>
  <circle cx="8.4935" cy="288.8" r="7.9375" opacity=".2" stroke-width=".14032"/>
  <circle cx="8.4939" cy="288.53" r="7.9375" style="paint-order:normal"/>
 </g>
 <path d="m8.4253 0.52191c-0.059837 0-0.1111 0-0.17091 0.00854v1.3844c0 0.40165 0.33329 0.73494 0.73494 0.73494h3.0936c0.21365 0 0.3931 0.17948 0.3931 0.3931 0 0.21363-0.17948 0.3931-0.3931 0.3931h-7.076c-0.46148 0-0.83749 0.37601-0.83749 0.83749s0.37601 0.83749 0.83749 0.83749h2.7603c0.27346 0 0.49566 0.2222 0.49566 0.49566v0.6153h0.34184v-0.6153c0-0.46148-0.37601-0.83749-0.83749-0.83749h-2.7603c-0.27346 0-0.49566-0.2222-0.49566-0.49566s0.2222-0.49566 0.49566-0.49566h7.076c0.40165 0 0.73494-0.33329 0.73494-0.73494s-0.33329-0.73494-0.73494-0.73494h-3.0936c-0.21365 0-0.3931-0.17948-0.3931-0.3931v-1.3844c-0.059837-0.00854-0.11112-0.00854-0.17093-0.00854z" fill="#b4b4b4" stroke-width=".025204"/>
 <g stroke-width=".031977">
  <path d="m8.4253 5.4256c-1.5939 0-2.8949 1.2903-2.8949 2.8949v3.513c0 1.5939 1.2903 2.8949 2.8949 2.8949 1.5939 0 2.8949-1.2903 2.8949-2.8949v-3.513c0-1.6047-1.3011-2.8949-2.8949-2.8949z" opacity=".25"/>
  <path d="m8.4253 5.1472c-1.5939 0-2.8949 1.2903-2.8949 2.8949v3.513c0 1.5939 1.2903 2.8949 2.8949 2.8949 1.5939 0 2.8949-1.2903 2.8949-2.8949v-3.513c0-1.6047-1.3011-2.8949-2.8949-2.8949z" fill="#fffffc"/>
  <path d="m8.4253 6.7844c-0.18431 0-0.33611 0.15179-0.33611 0.33611v1.171c0 0.18431 0.15179 0.33611 0.33611 0.33611s0.33611-0.15179 0.33611-0.33611v-1.171c0-0.18428-0.15179-0.33611-0.33611-0.33611z" fill="#bdbdbe"/>
 </g>
</svg>
