<?xml version="1.0" encoding="UTF-8"?>
<svg width="64" height="64" version="1.1" viewBox="0 0 16.933 16.933" xmlns="http://www.w3.org/2000/svg" xmlns:cc="http://creativecommons.org/ns#" xmlns:dc="http://purl.org/dc/elements/1.1/" xmlns:osb="http://www.openswatchbook.org/uri/2009/osb" xmlns:rdf="http://www.w3.org/1999/02/22-rdf-syntax-ns#">
 <defs>
  <linearGradient id="a-3" x1="-6.1472" x2="-6.1472" y1="-137.82" y2="-100.78" gradientTransform="matrix(.53034 0 0 .53034 -8.6275 335.51)" gradientUnits="userSpaceOnUse">
   <stop stop-color="#969696" offset="0"/>
   <stop stop-color="#555" offset="1"/>
  </linearGradient>
 </defs>
 <metadata>
  <rdf:RDF>
   <cc:Work rdf:about="">
    <dc:format>image/svg+xml</dc:format>
    <dc:type rdf:resource="http://purl.org/dc/dcmitype/StillImage"/>
    <dc:title/>
   </cc:Work>
  </rdf:RDF>
 </metadata>
 <g transform="translate(0 -263.13)">
  <g transform="translate(20.137 -.51027)" stroke-width=".14032">
   <circle cx="-11.67" cy="272.25" r="7.9377" opacity=".2"/>
   <circle cx="-11.67" cy="271.98" r="7.9377" fill="url(#a-3)"/>
  </g>
  <circle cx="-330.39" cy="-65.373" r="0" fill="#5e4aa6" stroke-width=".26458"/>
  <circle cx="-39.463" cy="269.44" r="0" fill="#5e4aa6" fill-rule="evenodd" stroke-width=".26458"/>
  <circle cx="8.4667" cy="271.47" r="6.6146" fill="#262626" stroke-width="1.0914"/>
  <g transform="matrix(.43905 0 0 .43905 -8.7944 152.59)" fill="#ffd016">
   <g transform="translate(-14.143 -8.3853)">
    <path d="m46.985 282.15-1.9456 3.4402v2.5205h-0.95512v-2.4939l-1.8483-3.4668h1.0878l0.74288 1.5653q0.33606 0.71635 0.53947 1.2116h0.01769q0.18572-0.48641 0.53062-1.2116l0.75172-1.5653z"/>
    <path d="m53.283 282.98-2.4143 5.1294h-0.99934l2.4055-4.9525h-2.7062v-0.79593h3.7144z"/>
    <path d="m55.357 284.53q0 0.283-0.16803 0.45987-0.16803 0.17688-0.44219 0.17688-0.26531 0-0.43334-0.17688-0.15919-0.18572-0.15919-0.45987 0-0.26532 0.16803-0.45103 0.16803-0.18572 0.43334-0.18572 0.27416 0 0.43334 0.18572 0.16803 0.17687 0.16803 0.45103zm-0.0088 3.0422q0 0.283-0.16803 0.45987-0.16803 0.17688-0.44219 0.17688-0.26531 0-0.43334-0.17688-0.15919-0.18572-0.15919-0.45987 0-0.26532 0.16803-0.45103 0.16803-0.18572 0.43334-0.18572 0.27416 0 0.43334 0.18572 0.16803 0.17687 0.16803 0.45103z"/>
    <path d="m59.696 286.47q0 0.74288-0.55716 1.2204-0.59253 0.51294-1.5919 0.51294-0.94628 0-1.53-0.38913l0.22109-0.72519q0.58369 0.34491 1.2735 0.34491 0.60138 0 0.9286-0.32722 0.27415-0.26531 0.26531-0.67212 0-0.51294-0.4245-0.79594-0.36259-0.25647-0.93744-0.25647h-0.45103v-0.69866h0.44219q0.45103 0 0.78709-0.2034 0.39797-0.24763 0.39797-0.67213 0-0.3449-0.23878-0.55715-0.23878-0.2211-0.69866-0.2211-0.61022 0-1.1408 0.3626l-0.2211-0.69866q0.61022-0.43334 1.5565-0.43334 0.82246 0 1.2912 0.4245 0.4245 0.38028 0.4245 0.96397 0 0.96396-1.0436 1.3531v0.0177q0.53947 0.0973 0.89322 0.4864 0.35375 0.38913 0.35375 0.96397z"/>
    <path d="m64.487 286.16q0 0.84016-0.53063 1.4238-0.54831 0.61907-1.4238 0.61907-0.96397 0-1.5211-0.68097-0.55715-0.68097-0.55715-1.7776 0-1.6272 0.98166-2.5912 0.73403-0.71634 1.9279-0.849 0.33607-0.0354 0.54832-0.0354v0.76941q-0.25647-9e-3 -0.55716 0.0354-0.84016 0.11497-1.3531 0.65444-0.45104 0.46872-0.566 1.1674h0.0265q0.47756-0.59253 1.3089-0.59253 0.75172 0 1.2293 0.51294 0.48641 0.50409 0.48641 1.3442zm-0.97281 0.0531q0-0.54831-0.283-0.87553t-0.76057-0.32722q-0.68096 0-0.9905 0.62791-0.0796 0.15919-0.0708 0.34491 9e-3 0.63675 0.27416 1.0436 0.30069 0.45103 0.85784 0.45103 0.45988 0 0.72519-0.38028 0.24763-0.34491 0.24763-0.88438z"/>
    <path transform="matrix(.26458 0 0 .26458 0 263.13)" d="m150.14 71.863v8.7754l0.48438-1.5234c0.49023-1.8718 0.84747-3.2859 1.0703-4.2441h0.0664c0.5571 2.2284 0.93618 3.6425 1.1367 4.2441l1.9043 5.8828h-4.6621v2.7754h5.2969l2.1055 6.6172h3.8457l-7.2871-22.527z"/>
   </g>
   <g transform="translate(-14.143 -8.3853)">
    <path d="m47.076 272.02-1.6096 5.9607h-1.0082l-0.65444-2.9008q-0.25647-1.1232-0.35375-1.9102h-0.01769q-0.12381 0.76941-0.41566 1.9102l-0.74288 2.9008h-1.017l-1.4504-5.9607h1.017l0.61022 2.8212q0.21225 0.9905 0.39797 2.0694h0.01769q0.11497-0.71635 0.45103-2.0783l0.68981-2.8123h0.9905l0.62791 2.8388q0.26531 1.1585 0.38028 2.0341h0.01769q0.15034-0.90206 0.38912-1.9191l0.03538-0.15035 0.67213-2.8035z"/>
    <path d="m51.914 277.98h-1.017l-0.55716-1.7511h-1.9368l-0.53063 1.7511h-0.9905l1.9191-5.9607h1.1851zm-1.7422-2.4851-0.50409-1.5565q-0.07959-0.23879-0.30069-1.1232h-0.01769q-0.08844 0.38028-0.283 1.1232l-0.49525 1.5565z"/>
    <path d="m56.789 277.98h-0.9905q-0.1415-0.26531-0.38912-1.415-0.12381-0.60137-0.38028-0.84016-0.24762-0.24762-0.72519-0.24762h-0.59253v2.5028h-0.94628v-5.8811q0.65444-0.12382 1.5477-0.12382 1.2116 0 1.7688 0.47757 0.49525 0.4245 0.49525 1.1762 0 0.54832-0.32722 0.96397-0.29184 0.37144-0.76056 0.53947v0.0177q0.61022 0.22994 0.84016 1.1851 0.17687 0.74288 0.25647 1.0259 0.12381 0.46872 0.2034 0.61906zm-1.1674-4.2538q0-1.017-1.2204-1.0259-0.45988 0-0.68981 0.0619v2.0075h0.67212q0.566 0 0.90206-0.283 0.33606-0.29185 0.33606-0.76056z"/>
    <path d="m62.155 277.98h-0.98165l-1.6449-2.7681q-0.66328-1.1232-1.0612-2.0341l-0.0265 9e-3q0.0619 0.99934 0.0619 2.5293v2.264h-0.88437v-5.9607h1.0612l1.6449 2.7327q0.57484 0.95513 1.017 1.9722l0.0177-9e-3q-0.0973-1.0082-0.0973-2.4762v-2.2198h0.89322z"/>
    <path d="m64.377 277.98h-0.95512v-5.9607h0.95512z"/>
    <path transform="matrix(.26458 0 0 .26458 0 263.13)" d="m248.13 33.574v22.529h3.3438v-8.5566c0-3.855-0.0784-7.0425-0.23437-9.5605l0.0996-0.0332c1.0028 2.2952 2.3405 4.8575 4.0117 7.6875l2.2715 3.8223v-6.7832l-5.4805-9.1055z"/>
   </g>
  </g>
  <circle cx="8.4667" cy="271.47" r="6.7646" fill="none" stroke="#000" stroke-width=".6"/>
  <circle cx="-350.52" cy="-64.873" r="0" fill="#5e4aa6" stroke-width=".26458"/>
  <circle cx="-59.598" cy="269.96" r="0" fill="#5e4aa6" fill-rule="evenodd" stroke-width=".26458"/>
 </g>
</svg>
