<svg width="64" height="64" version="1.1" viewBox="0 0 16.933 16.933" xmlns="http://www.w3.org/2000/svg" xmlns:xlink="http://www.w3.org/1999/xlink">
 <defs>
  <linearGradient id="a" x1="-6.1738" x2="-6.1738" y1="-126.08" y2="-126.7" gradientTransform="matrix(.58348 0 0 .39244 11.842 338.13)" gradientUnits="userSpaceOnUse">
   <stop stop-color="#fafafa" offset="0"/>
   <stop stop-color="#c8c8c8" offset="1"/>
  </linearGradient>
 </defs>
 <g transform="translate(0 -280.07)">
  <g>
   <circle cx="-330.35" cy="-48.312" r="0" fill="#5e4aa6" stroke-width=".26458"/>
   <ellipse cx="-39.434" cy="286.51" r=".90502" fill="#5e4aa6" fill-rule="evenodd" stroke-width=".26458"/>
   <circle cx="8.4935" cy="288.8" r="7.9375" opacity=".2" stroke-width=".14032"/>
   <circle cx="8.4935" cy="288.53" r="7.9375" fill="#fafafa" stroke-width=".14032"/>
   <path d="m0.55653 288.43c-2.0882e-4 0.0775 3.0845e-4 0.12355 0.003846 0.2h15.866c0.0046-0.0718 0.0056-0.12627 0.0034-0.2z" fill="url(#a)" stroke-width=".12661"/>
   <g fill="#333" stroke-width=".22919" style="font-feature-settings:normal;font-variant-caps:normal;font-variant-ligatures:normal;font-variant-numeric:normal" aria-label="26">
    <path d="m7.9854 291.81h-4.3271v-0.66924l1.7143-1.7327q0.49505-0.49505 0.83425-0.88009t0.51339-0.75175q0.17419-0.37587 0.17419-0.81592 0-0.54089-0.32087-0.81592-0.32087-0.28419-0.83425-0.28419-0.47672 0-0.84342 0.16501-0.35754 0.16502-0.73341 0.45839l-0.43088-0.54089q0.38504-0.32087 0.88009-0.5409 0.50422-0.22919 1.1276-0.22919 0.91676 0 1.4485 0.46755 0.53172 0.45839 0.53172 1.2743 0 0.51339-0.21086 0.96261-0.21086 0.44921-0.58673 0.88926-0.37587 0.43088-0.88009 0.92593l-1.366 1.3476v0.0367h3.3095z" style="font-feature-settings:normal;font-variant-caps:normal;font-variant-ligatures:normal;font-variant-numeric:normal"/>
    <path d="m8.9663 289.01q0-0.7059 0.11918-1.3843 0.12835-0.68757 0.44921-1.2376 0.33003-0.55923 0.91676-0.88926 0.58673-0.33004 1.5127-0.33004 0.19252 0 0.42171 0.0183 0.23836 0.0183 0.38504 0.0642v0.68758q-0.16502-0.055-0.37587-0.0825-0.20169-0.0275-0.41254-0.0275-0.63257 0-1.0543 0.21086-0.42171 0.21085-0.66924 0.57756-0.23836 0.36671-0.34837 0.84342-0.11001 0.47672-0.13751 1.0176h0.055006q0.21086-0.32087 0.58673-0.54089 0.37587-0.22919 0.9626-0.22919 0.85259 0 1.3751 0.52255 0.52256 0.51339 0.52256 1.4668 0 1.0268-0.56839 1.6135-0.55923 0.58673-1.5127 0.58673-0.6234 0-1.1276-0.3117-0.50422-0.3117-0.80675-0.95344-0.29336-0.64173-0.29336-1.6227zm2.2186 2.2094q0.57756 0 0.9351-0.3667 0.35754-0.37587 0.35754-1.1551 0-0.6234-0.32087-0.99011-0.3117-0.3667-0.94427-0.3667-0.43088 0-0.75175 0.18335-0.32087 0.17418-0.50422 0.44921-0.17419 0.27503-0.17419 0.5684 0 0.3942 0.15585 0.78841 0.15585 0.38504 0.46755 0.64174 0.3117 0.24752 0.77925 0.24752z" style="font-feature-settings:normal;font-variant-caps:normal;font-variant-ligatures:normal;font-variant-numeric:normal"/>
   </g>
  </g>
  <path d="m0.55604 288.53v-2e-3c0-4.3838 3.5537-7.9365 7.9375-7.9365 4.3838 0 7.9375 3.5537 7.9375 7.9375z" fill="#b4b4b4" fill-opacity=".19608" stroke-width=".14032"/>
 </g>
</svg>
