<?xml version="1.0" encoding="UTF-8"?>
<svg width="64" height="64" version="1.1" viewBox="0 0 16.933 16.933" xmlns="http://www.w3.org/2000/svg" xmlns:cc="http://creativecommons.org/ns#" xmlns:dc="http://purl.org/dc/elements/1.1/" xmlns:osb="http://www.openswatchbook.org/uri/2009/osb" xmlns:rdf="http://www.w3.org/1999/02/22-rdf-syntax-ns#" xmlns:xlink="http://www.w3.org/1999/xlink">
 <metadata>
  <rdf:RDF>
   <cc:Work rdf:about="">
    <dc:format>image/svg+xml</dc:format>
    <dc:type rdf:resource="http://purl.org/dc/dcmitype/StillImage"/>
    <dc:title/>
   </cc:Work>
  </rdf:RDF>
 </metadata>
 <defs>
  <clipPath>
   <rect width="384" height="384"/>
  </clipPath>
  <clipPath>
   <rect width="384" height="384"/>
  </clipPath>
  <clipPath>
   <rect width="384" height="384"/>
  </clipPath>
  <clipPath>
   <rect width="384" height="384"/>
  </clipPath>
  <clipPath>
   <rect width="384" height="384"/>
  </clipPath>
  <linearGradient id="linearGradient11422" x1="-6.1472" x2="-6.1472" y1="-137.82" y2="-100.78" gradientTransform="matrix(.53033 0 0 .53033 11.51 71.863)" gradientUnits="userSpaceOnUse">
   <stop stop-color="#32b4ff" offset="0"/>
   <stop stop-color="#3287ff" offset="1"/>
  </linearGradient>
  <style type="text/css"/>
 </defs>
 <circle cx="-297.6" cy="-338.48" r="0" fill="#5e4aa6" stroke-width=".26458"/>
 <circle cx="8.4664" cy="8.6011" r="7.9378" opacity=".2" stroke-width=".14032"/>
 <circle cx="8.4669" cy="8.3323" r="7.9378" fill="url(#linearGradient11422)" style="paint-order:normal"/>
 <g transform="matrix(1 0 0 1 32.763 -10.103)" fill="#5e4aa6" stroke-width=".26458">
  <circle cx="-299.02" cy="-338.77" r="0"/>
  <circle cx="-8.1062" cy="-3.9487" r="0" fill-rule="evenodd"/>
  <circle cx="-278.25" cy="-357.69" r="0"/>
  <circle cx="12.663" cy="-22.859" r="0" fill-rule="evenodd"/>
 </g>
 <path d="m9.2759 3.9583c-2.2719 0-4.1555 1.6968-4.4438 3.8941l0.77998-0.045136c0.23981-1.8283 1.766-3.0959 3.6638-3.0959 2.0641 0 3.7294 1.6643 3.7294 3.7285 0 2.0641-1.6652 3.7296-3.7294 3.7296-0.45668 0-0.89246-0.08152-1.2958-0.23102l-0.42001 0.66525c0.48546 0.17992 1.1691 0.31862 1.7158 0.31862 2.4711 0 4.4824-2.0114 4.4824-4.4824 0-2.4711-2.0114-4.4816-4.4824-4.4816zm0 1.6084a0.56184 0.56184 0 0 0-0.56164 0.56186 0.56184 0.56184 0 0 0 0.56164 0.56186 0.56184 0.56184 0 0 0 0.56186-0.56186 0.56184 0.56184 0 0 0-0.56186-0.56186zm-2.0587 1.2009c-0.11544 0.00275-0.21681 0.086279-0.23813 0.20433-0.024288 0.13465 0.064885 0.26359 0.19944 0.28838 0.48648 0.088237 0.86909 0.14718 1.3434 0.17787 0.31262 0.11382 0.22383 0.53464 0.11851 1.5946l-0.47559 1.9898c-0.030131 0.12715 0.048504 0.25466 0.17565 0.28482 0.12688 0.03018 0.25426-0.04798 0.28482-0.17476l0.49627-1.8632c0.070171-0.26188 0.27406-0.25832 0.3513 0l0.49538 1.8632c0.030536 0.12724 0.15852 0.20551 0.28571 0.17476 0.12683-0.03055 0.20498-0.15792 0.17476-0.28482l-0.47404-1.9842-0.0044446-0.018234c-0.10519-1.0543-0.19279-1.4732 0.12407-1.584 0.46495-0.031319 0.81839-0.089787 1.2983-0.17587 0.13492-0.024366 0.22458-0.15344 0.20033-0.28838-0.02132-0.11814-0.12284-0.20166-0.23835-0.20433-0.0165-3.825e-4 -0.03337 9.465e-4 -0.05025 4e-3 -1.4559 0.26117-2.5778 0.26102-4.0169 0-0.016866-0.00301-0.033758-0.0044-0.050249-4e-3zm-1.803 1.7285a2.2394 2.2394 0 0 0-2.2392 2.2394 2.2394 2.2394 0 0 0 2.2392 2.2394 2.2394 2.2394 0 0 0 2.2394-2.2394 2.2394 2.2394 0 0 0-2.2394-2.2394z" fill="#fff"/>
 <path d="m5.364 9.7223c-0.028242-9.036e-4 -0.055718 0.00929-0.076486 0.028458l-0.60166 0.55097h-0.406c-0.10015 0-0.18077 0.08061-0.18077 0.18077v0.55942c0 0.10016 0.080611 0.18076 0.18077 0.18076h0.37598l0.61567 0.55164c0.068869 0.06251 0.17925 0.01407 0.17988-0.07893l0.015786-1.8639c9.035e-4 -0.058349-0.04486-0.10679-0.10317-0.10917zm1.0237 0.16476c-0.017851 0.00327-0.035157 0.00996-0.050694 0.020011-0.065216 0.042071-0.083654 0.12918-0.041133 0.19411 0.116 0.17801 0.18321 0.38967 0.18321 0.61856 0 0.26239-0.088136 0.50208-0.23702 0.69416-0.047731 0.06099-0.036719 0.14906 0.024456 0.19655 0.061207 0.04754 0.14932 0.03632 0.19655-0.02512 0.18539-0.23918 0.29594-0.54009 0.29594-0.86558-9.036e-4 -0.02376-0.00125-0.04212-0.00336-0.07004-0.013231-0.25608-0.093294-0.4988-0.22523-0.70127-0.020231-0.031069-0.052001-0.053026-0.08827-0.0607-0.018097-0.00387-0.036624-0.00396-0.054474-6.884e-4zm-0.37954 0.32529a0.13983 0.13983 0 0 0-0.1065 0.01156 0.13983 0.13983 0 0 0-0.055363 0.18988c0.053745 0.09871 0.084046 0.21108 0.084046 0.33196 0 0.13238-0.0364 0.25469-0.10005 0.35975a0.13983 0.13983 0 0 0 0.047137 0.19233 0.13983 0.13983 0 0 0 0.19166-0.04691c0.089238-0.14729 0.14119-0.32095 0.14119-0.50516 0-0.1682-0.04311-0.32777-0.11851-0.46626a0.13983 0.13983 0 0 0-0.083602-0.06715z" color="#000000" fill="#3298ff" stroke-dashoffset="1" stroke-linejoin="round" stroke-width=".21513"/>
 <style><![CDATA[.B{clip-path:url(#C)}.C{fill:#3e2723}.D{fill-opacity:.15}.E{fill-opacity:.2}]]></style>
 <style><![CDATA[.B{clip-path:url(#C)}.C{fill:#3e2723}.D{fill-opacity:.15}.E{fill-opacity:.2}]]></style>
 <style><![CDATA[.B{clip-path:url(#C)}.C{fill:#3e2723}.D{fill-opacity:.15}.E{fill-opacity:.2}]]></style>
 <style><![CDATA[.B{clip-path:url(#C)}.C{fill:#3e2723}.D{fill-opacity:.15}.E{fill-opacity:.2}]]></style>
</svg>
