<?xml version="1.0" encoding="UTF-8"?>
<svg width="64" height="64" version="1.1" xmlns="http://www.w3.org/2000/svg" xmlns:cc="http://creativecommons.org/ns#" xmlns:dc="http://purl.org/dc/elements/1.1/" xmlns:rdf="http://www.w3.org/1999/02/22-rdf-syntax-ns#">
 <metadata>
  <rdf:RDF>
   <cc:Work rdf:about="">
    <dc:format>image/svg+xml</dc:format>
    <dc:type rdf:resource="http://purl.org/dc/dcmitype/StillImage"/>
    <dc:title/>
   </cc:Work>
  </rdf:RDF>
 </metadata>
 <defs>
  <linearGradient id="b" x1="399.57" x2="399.57" y1="545.8" y2="517.8" gradientTransform="matrix(2.1429 0 0 2.1429 -826.36 -1107.5)" gradientUnits="userSpaceOnUse">
   <stop stop-color="#3889e9" offset="0"/>
   <stop stop-color="#5ea5fb" offset="1"/>
  </linearGradient>
 </defs>
 <path d="m50.249 9.1937q-3.8597-2.9725-8.444-4.5557-4.7372-1.6373-9.8021-1.6373c-16.57 0-30.003 13.432-30.003 30.001 0 15.158 11.245 27.684 25.845 29.709 0.71216 0.09855 1.4339 0.17485 2.1587 0.21936 0.66128 0.04133 1.3258 0.06994 1.9998 0.06994 16.567 0 29.997-13.432 29.997-29.999 0-1.3098-0.08266-2.6037-0.24481-3.8658-0.18758-1.4751-0.49279-2.909-0.88387-4.3046q-1.3289-4.6892-4.0822-8.7265-2.7215-3.9771-6.5401-6.9112z" opacity=".2" stroke-width=".99724"/>
 <path d="m50.249 8.1932q-3.8597-2.9725-8.444-4.5557-4.7372-1.6373-9.8021-1.6373c-16.57 0-30.003 13.432-30.003 30.001 0 15.158 11.245 27.684 25.845 29.709 0.71216 0.09855 1.4339 0.17485 2.1587 0.21936 0.66128 0.04133 1.3258 0.06994 1.9998 0.06994 16.567 0 29.997-13.432 29.997-29.999 0-1.3098-0.08266-2.6037-0.24481-3.8658-0.18758-1.4751-0.49279-2.909-0.88387-4.3046q-1.3289-4.6892-4.0822-8.7265-2.7215-3.9771-6.5401-6.9112z" fill="#fafafa" stroke-width=".99724"/>
 <circle cx="32.02" cy="32.044" r="30.001" fill-opacity="0" stroke-width="1.5715"/>
 <circle cx="32.02" cy="32.044" r="0" fill="url(#b)" stroke-width="1.5715"/>
 <path d="m51.118 45.791h-38.236c-1.026 0-1.8578-0.83173-1.8578-1.8578v-14.566c0-1.0261 0.83183-1.8578 1.8578-1.8578h38.236c1.0261 0 1.8578 0.83183 1.8578 1.8578v14.566c0 1.0261-0.83183 1.8578-1.8578 1.8578z" fill="#ebebeb" stroke-width=".096221"/>
 <g transform="matrix(.096221 0 0 .096221 11.024 9.1717)" fill="#4d4d4d">
  <path d="m400.55 267.74h-21.548c-2.457 0-4.448 1.991-4.448 4.448v26.77c0 2.457 1.991 4.448 4.448 4.448h21.548c2.457 0 4.448-1.992 4.448-4.448v-26.77c0-2.456-1.991-4.448-4.448-4.448z"/>
  <path d="m405 256.29v-30.27c0-2.457-1.992-4.448-4.448-4.448h-21.548c-2.457 0-4.448 1.992-4.448 4.448v30.27c0 2.457 1.991 4.448 4.448 4.448h21.548c2.457 0 4.448-1.991 4.448-4.448z"/>
  <path d="m342.51 303.41h20.602c2.457 0 4.448-1.992 4.448-4.448v-26.77c0-2.457-1.992-4.448-4.448-4.448h-20.602c-2.457 0-4.448 1.991-4.448 4.448v26.77c0 2.456 1.991 4.448 4.448 4.448z"/>
  <path d="m342.51 349.57h20.602c2.457 0 4.448-1.992 4.448-4.448v-30.27c0-2.457-1.992-4.448-4.448-4.448h-20.602c-2.457 0-4.448 1.991-4.448 4.448v30.27c0 2.457 1.991 4.448 4.448 4.448z"/>
  <path d="m342.51 260.74h20.602c2.457 0 4.448-1.992 4.448-4.448v-30.27c0-2.457-1.992-4.448-4.448-4.448h-20.602c-2.457 0-4.448 1.992-4.448 4.448v30.27c0 2.457 1.991 4.448 4.448 4.448z"/>
  <path d="m374.56 314.86v30.27c0 2.457 1.991 4.448 4.448 4.448h21.548c2.457 0 4.448-1.992 4.448-4.448v-30.27c0-2.457-1.992-4.448-4.448-4.448h-21.548c-2.457 0-4.448 1.991-4.448 4.448z"/>
 </g>
 <g transform="matrix(.096221 0 0 .096221 11.024 9.1717)" fill="#4d4d4d">
  <path d="m118.57 345.3v-30.62c0-2.36-1.913-4.273-4.273-4.273h-30.951c-2.36 0-4.273 1.913-4.273 4.273v30.62c0 2.36 1.913 4.273 4.273 4.273h30.951c2.36 0 4.273-1.913 4.273-4.273z"/>
  <path d="m139.79 267.74h-30.951c-2.36 0-4.273 1.913-4.273 4.273v27.12c0 2.36 1.913 4.273 4.273 4.273h30.951c2.36 0 4.273-1.913 4.273-4.273v-27.12c1e-3 -2.36-1.913-4.273-4.273-4.273z"/>
  <path d="m207.29 310.41h-77.448c-2.36 0-4.273 1.913-4.273 4.273v30.62c0 2.36 1.913 4.273 4.273 4.273h77.448c2.36 0 4.273-1.913 4.273-4.273v-30.62c1e-3 -2.36-1.913-4.273-4.273-4.273z"/>
  <path d="m61.071 272.01v27.12c0 2.36 1.913 4.273 4.273 4.273h27.951c2.36 0 4.273-1.913 4.273-4.273v-27.12c0-2.36-1.913-4.273-4.273-4.273h-27.95c-2.36-1e-3 -4.274 1.912-4.274 4.273z"/>
  <path d="m151.07 272.01v27.12c0 2.36 1.913 4.273 4.273 4.273h30.95c2.36 0 4.273-1.913 4.273-4.273v-27.12c0-2.36-1.913-4.273-4.273-4.273h-30.95c-2.36-1e-3 -4.273 1.912-4.273 4.273z"/>
  <path d="m302.5 256.47v-30.62c0-2.36-1.913-4.273-4.273-4.273h-28.886c-2.36 0-4.273 1.913-4.273 4.273v30.62c0 2.36 1.913 4.273 4.273 4.273h28.886c2.36 0 4.273-1.913 4.273-4.273z"/>
  <path d="m222.84 349.57h30.951c2.36 0 4.273-1.913 4.273-4.273v-30.62c0-2.36-1.913-4.273-4.273-4.273h-30.951c-2.36 0-4.273 1.913-4.273 4.273v30.62c0 2.36 1.913 4.273 4.273 4.273z"/>
  <path d="m118.57 256.47v-30.62c0-2.36-1.913-4.273-4.273-4.273h-30.951c-2.36 0-4.273 1.913-4.273 4.273v30.62c0 2.36 1.913 4.273 4.273 4.273h30.951c2.36 0 4.273-1.913 4.273-4.273z"/>
  <path d="m35.274 303.41h14.524c2.36 0 4.273-1.913 4.273-4.273v-27.12c0-2.36-1.913-4.273-4.273-4.273h-14.524c-2.36 0-4.273 1.913-4.273 4.273v27.12c-1e-3 2.359 1.912 4.273 4.273 4.273z"/>
  <path d="m35.274 349.57h32.523c2.36 0 4.273-1.913 4.273-4.273v-30.62c0-2.36-1.913-4.273-4.273-4.273h-32.523c-2.36 0-4.273 1.913-4.273 4.273v30.62c-1e-3 2.36 1.912 4.273 4.273 4.273z"/>
  <path d="m35.274 260.74h32.523c2.36 0 4.273-1.913 4.273-4.273v-30.62c0-2.36-1.913-4.273-4.273-4.273h-32.523c-2.36 0-4.273 1.913-4.273 4.273v30.62c-1e-3 2.36 1.912 4.273 4.273 4.273z"/>
  <path d="m165.07 256.47v-30.62c0-2.36-1.913-4.273-4.273-4.273h-30.951c-2.36 0-4.273 1.913-4.273 4.273v30.62c0 2.36 1.913 4.273 4.273 4.273h30.951c2.359 0 4.273-1.913 4.273-4.273z"/>
  <path d="m265.06 314.68v30.62c0 2.36 1.913 4.273 4.273 4.273h28.886c2.36 0 4.273-1.913 4.273-4.273v-30.62c0-2.36-1.913-4.273-4.273-4.273h-28.886c-2.36 0-4.273 1.913-4.273 4.273z"/>
  <path d="m232.79 267.74h-30.951c-2.36 0-4.273 1.913-4.273 4.273v27.12c0 2.36 1.913 4.273 4.273 4.273h30.951c2.36 0 4.273-1.913 4.273-4.273v-27.12c1e-3 -2.36-1.913-4.273-4.273-4.273z"/>
  <path d="m211.56 256.47v-30.62c0-2.36-1.913-4.273-4.273-4.273h-30.95c-2.36 0-4.273 1.913-4.273 4.273v30.62c0 2.36 1.913 4.273 4.273 4.273h30.95c2.359 0 4.273-1.913 4.273-4.273z"/>
  <path d="m298.22 267.74h-49.885c-2.36 0-4.273 1.913-4.273 4.273v27.12c0 2.36 1.913 4.273 4.273 4.273h49.885c2.36 0 4.273-1.913 4.273-4.273v-27.12c0-2.36-1.913-4.273-4.273-4.273z"/>
  <path d="m258.06 256.47v-30.62c0-2.36-1.913-4.273-4.273-4.273h-30.951c-2.36 0-4.273 1.913-4.273 4.273v30.62c0 2.36 1.913 4.273 4.273 4.273h30.951c2.359 0 4.273-1.913 4.273-4.273z"/>
 </g>
 <path d="m17.381 27.509h-1.9244v-2.3239c0-1.7243 1.4028-3.1271 3.1271-3.1271h26.123c0.66316 0 1.2027-0.53951 1.2027-1.2027s-0.53951-1.2027-1.2027-1.2027h-26.556c-1.7243 0-3.127-1.4028-3.127-3.1271v-2.0204h1.9244v2.0205c0 0.66316 0.53942 1.2027 1.2026 1.2027h26.556c1.7243 0 3.1271 1.4028 3.1271 3.1271s-1.4028 3.1271-3.1271 3.1271h-26.123c-0.66316 0-1.2027 0.53951-1.2027 1.2027z" fill="#dcdcdc" stroke-width=".096221"/>
 <path d="m16.949 6.0547c-0.6578 0.38243-1.3009 0.78507-1.9258 1.2148v7.6426h1.9258v-8.8574z" fill="#dcdcdc"/>
</svg>
