<?xml version="1.0" encoding="UTF-8"?>
<svg width="64" height="64" version="1.1" viewBox="0 0 16.933 16.933" xmlns="http://www.w3.org/2000/svg" xmlns:cc="http://creativecommons.org/ns#" xmlns:dc="http://purl.org/dc/elements/1.1/" xmlns:rdf="http://www.w3.org/1999/02/22-rdf-syntax-ns#" xmlns:xlink="http://www.w3.org/1999/xlink">
 <metadata>
  <rdf:RDF>
   <cc:Work rdf:about="">
    <dc:format>image/svg+xml</dc:format>
    <dc:type rdf:resource="http://purl.org/dc/dcmitype/StillImage"/>
    <dc:title/>
   </cc:Work>
  </rdf:RDF>
 </metadata>
 <defs>
  <linearGradient id="linearGradient1026" x1="8.0584" x2="7.9418" y1="4.1436" y2="9.1841" gradientTransform="matrix(1.8931 0 0 1.8931 -7.5343 -7.8087)" gradientUnits="userSpaceOnUse">
   <stop stop-color="#2b9cff" offset="0"/>
   <stop stop-color="#26f2ff" offset="1"/>
  </linearGradient>
  <linearGradient id="linearGradient1099" x1="44.597" x2="44.685" y1="26.234" y2="38.811" gradientTransform="matrix(.71899 0 0 .71899 -16.031 -12.182)" gradientUnits="userSpaceOnUse">
   <stop stop-color="#3c4e6e" offset="0"/>
   <stop stop-color="#35425a" offset="1"/>
  </linearGradient>
  <linearGradient id="linearGradient1101" x1="24.24" x2="24.298" y1="31.369" y2="40.2" gradientTransform="matrix(.71899 0 0 .71899 -16.031 -12.182)" gradientUnits="userSpaceOnUse">
   <stop stop-color="#556887" offset="0"/>
   <stop stop-color="#4f5c81" offset="1"/>
  </linearGradient>
  <linearGradient id="linearGradient11422" x1="-6.1472" x2="-6.1472" y1="-137.82" y2="-100.78" gradientTransform="matrix(.53032 0 0 .53032 11.535 71.987)" gradientUnits="userSpaceOnUse">
   <stop stop-color="#32b4ff" offset="0"/>
   <stop stop-color="#3287ff" offset="1"/>
  </linearGradient>
 </defs>
 <circle cx="8.4935" cy="8.73" r="7.9375" opacity=".2" stroke-width=".14032"/>
 <circle cx="8.4935" cy="8.461" r="7.9375" fill="#fafafa" stroke-width=".14032"/>
 <circle cx="-330.35" cy="-328.38" r="0" fill="#5e4aa6" stroke-width=".26458"/>
 <circle cx="8.4933" cy="8.461" r="7.9375" fill="#fafafa" stroke-width=".14032"/>
 <circle cx="8.4931" cy="8.4608" r="7.9373" fill="url(#linearGradient11422)" style="paint-order:normal"/>
 <path d="m8.4936 0.5235a7.9375 7.9375 0 0 0-7.9379 7.9373 7.9375 7.9375 0 0 0 0.95755 3.7651h13.966a7.9375 7.9375 0 0 0 0.95186-3.7651 7.9375 7.9375 0 0 0-7.9373-7.9373z" fill="url(#linearGradient1026)" stroke-width="1.8931"/>
 <path d="m5.3556 3.3936c-0.31127 0-0.6073 0.11797-0.8128 0.32251-0.22714 0.024674-0.42751 0.14205-0.54022 0.31636-0.030891-0.0038-0.062023-6e-3 -0.093215-6e-3 -0.39937 0-0.72312 0.28324-0.72312 0.63265 3.085e-4 0.027524 0.0025 0.054949 0.00718 0.082192-0.22738 0.1119-0.36823 0.32227-0.36861 0.55051 0 0.34946 0.32375 0.6327 0.72312 0.6327h3.254c0.59905 0 1.0847-0.42486 1.0847-0.94901 0-0.52415-0.48562-0.94901-1.0847-0.94901-0.031586 2.583e-4 -0.063187 0.00317-0.09463 0.00444-0.11288-0.17369-0.31289-0.29052-0.5395-0.31513-0.20545-0.20418-0.50117-0.32138-0.81208-0.32189z" fill="#fff" stroke-width="2.3914"/>
 <g fill-rule="evenodd">
  <path d="m15.279 4.3578-12.204 9.8907a7.9375 7.9375 0 0 0 5.4182 2.1502 7.9375 7.9375 0 0 0 7.9379-7.9379 7.9375 7.9375 0 0 0-1.1518-4.103z" fill="url(#linearGradient1099)" stroke-width=".71899"/>
  <path d="m1.3981 9.283-5.29e-4 5.292e-4 -0.73172 0.48213a7.9375 7.9375 0 0 0 7.8273 6.6331 7.9375 7.9375 0 0 0 2.8825-0.54208z" fill="url(#linearGradient1101)" stroke-width=".71899"/>
  <path d="m1.3971 9.2778-0.73224 0.48213a7.9375 7.9375 0 0 0 0.17415 0.7958l0.55809-0.18396 0.55396 0.72966 0.55344-0.36483h1.1074z" fill="#f1f2f4" stroke-width="2.7175"/>
  <path d="m15.28 4.3583-3.1357 2.5414 1.6283-0.58652 1.8092 1.1002 0.45268-0.73327 0.2253 0.18241a7.9375 7.9375 0 0 0-0.97977-2.5042z" fill="#f1f2f4" stroke-width="2.7175"/>
 </g>
</svg>
