<?xml version="1.0" encoding="UTF-8"?>
<svg width="64" height="64" version="1.1" xmlns="http://www.w3.org/2000/svg" xmlns:cc="http://creativecommons.org/ns#" xmlns:dc="http://purl.org/dc/elements/1.1/" xmlns:rdf="http://www.w3.org/1999/02/22-rdf-syntax-ns#" xmlns:xlink="http://www.w3.org/1999/xlink">
 <metadata>
  <rdf:RDF>
   <cc:Work rdf:about="">
    <dc:format>image/svg+xml</dc:format>
    <dc:type rdf:resource="http://purl.org/dc/dcmitype/StillImage"/>
    <dc:title/>
   </cc:Work>
  </rdf:RDF>
 </metadata>
 <defs>
  <linearGradient id="b" x1="399.57" x2="399.57" y1="545.8" y2="517.8" gradientTransform="matrix(2.1429 0 0 2.1429 -826.36 -1107.5)" gradientUnits="userSpaceOnUse">
   <stop stop-color="#3889e9" offset="0"/>
   <stop stop-color="#5ea5fb" offset="1"/>
  </linearGradient>
  <linearGradient id="d" x1="32.045" x2="30" y1="1.7894" y2="61.55" gradientTransform="matrix(.86339 0 0 .8182 -320.77 -397.49)" gradientUnits="userSpaceOnUse">
   <stop stop-color="#f9f9f9" offset="0"/>
   <stop stop-color="#e6e6e6" offset="1"/>
  </linearGradient>
  <linearGradient id="a" x1="152" x2="152" y1="100" y2="212" gradientTransform="matrix(.066145 0 0 .066145 -1.3976 -1.5875)" gradientUnits="userSpaceOnUse">
   <stop stop-color="#f2f2f2" offset="0"/>
   <stop stop-color="#f7f7f7" offset="1"/>
  </linearGradient>
  <filter id="e" x="-.019" y="-.032571" width="1.038" height="1.0651" color-interpolation-filters="sRGB">
   <feGaussianBlur stdDeviation="1.52"/>
  </filter>
  <filter id="f" x="-.0095" y="-.016286" width="1.019" height="1.0326" color-interpolation-filters="sRGB">
   <feGaussianBlur stdDeviation="0.76"/>
  </filter>
  <linearGradient id="b-3" x1="152" x2="152" y1="76" y2="228" gradientUnits="userSpaceOnUse">
   <stop stop-color="#fff" offset="0"/>
   <stop stop-color="#fff" stop-opacity=".098039" offset=".125"/>
   <stop stop-opacity=".098039" offset=".925"/>
   <stop stop-opacity=".49804" offset="1"/>
  </linearGradient>
  <clipPath id="h">
   <path d="m272 211c0 25-9.7826 24.708-35 25h-170c-25.217-0.29153-35 0-35-25v-110c0-25 9.7826-24.708 35-25h170c25.217 0.29154 35 0 35 25z" color="#000000" fill="#808080"/>
  </clipPath>
  <linearGradient id="d-6" x1="152" x2="152" y1="84" y2="228" gradientTransform="matrix(.066145 0 0 .066145 -1.3976 -1.5875)" gradientUnits="userSpaceOnUse">
   <stop stop-color="#cdcdcd" offset="0"/>
   <stop stop-color="#d9d9d9" offset="1"/>
  </linearGradient>
  <linearGradient id="c" x1="156" x2="156" y1="80" y2="232" gradientUnits="userSpaceOnUse">
   <stop stop-color="#fff" offset="0"/>
   <stop stop-color="#fff" stop-opacity=".098039" offset=".125"/>
   <stop stop-color="#fff" stop-opacity=".098039" offset=".925"/>
   <stop stop-color="#fff" stop-opacity=".49804" offset="1"/>
  </linearGradient>
  <clipPath id="i">
   <path d="m266 205c0 25-9.7826 24.708-35 25h-158c-25.217-0.29153-35 0-35-25v-98.001c0-25 9.7826-24.708 35-25h158c25.217 0.29154 35 0 35 25z" color="#000000" fill="#808080"/>
  </clipPath>
  <filter id="g" x="-.0098948" y="-.015243" width="1.0198" height="1.0305" color-interpolation-filters="sRGB">
   <feGaussianBlur stdDeviation="0.9400002"/>
  </filter>
 </defs>
 <path d="m50.249 9.1937q-3.8597-2.9725-8.444-4.5557-4.7372-1.6373-9.8021-1.6373c-16.57 0-30.003 13.432-30.003 30.001 0 15.158 11.245 27.684 25.845 29.709 0.71216 0.09855 1.4339 0.17485 2.1587 0.21936 0.66128 0.04133 1.3258 0.06994 1.9998 0.06994 16.567 0 29.997-13.432 29.997-29.999 0-1.3098-0.08266-2.6037-0.24481-3.8658-0.18758-1.4751-0.49279-2.909-0.88387-4.3046q-1.3289-4.6892-4.0822-8.7265-2.7215-3.9771-6.5401-6.9112z" opacity=".2" stroke-width=".99724"/>
 <path d="m50.249 8.1932q-3.8597-2.9725-8.444-4.5557-4.7372-1.6373-9.8021-1.6373c-16.57 0-30.003 13.432-30.003 30.001 0 15.158 11.245 27.684 25.845 29.709 0.71216 0.09855 1.4339 0.17485 2.1587 0.21936 0.66128 0.04133 1.3258 0.06994 1.9998 0.06994 16.567 0 29.997-13.432 29.997-29.999 0-1.3098-0.08266-2.6037-0.24481-3.8658-0.18758-1.4751-0.49279-2.909-0.88387-4.3046q-1.3289-4.6892-4.0822-8.7265-2.7215-3.9771-6.5401-6.9112z" fill="url(#d)" stroke-width=".99724"/>
 <circle cx="32.02" cy="32.044" r="30.001" fill-opacity="0" stroke-width="1.5715"/>
 <circle cx="32.02" cy="32.044" r="0" fill="url(#b)" stroke-width="1.5715"/>
 <g transform="matrix(2.5197 0 0 2.5197 10.189 10.001)">
  <path transform="matrix(.066145 0 0 .066145 -1.3976 -1.5875)" d="m272 211c0 25-9.7826 24.708-35 25h-170c-25.217-0.29153-35 0-35-25v-110c0-25 9.7826-24.708 35-25h170c25.217 0.29154 35 0 35 25z" clip-path="url(#i)" color="#000000" filter="url(#g)" opacity=".5" stroke="url(#c)" stroke-width="4"/>
  <path d="m16.594 12.369c0 1.6536-0.64707 1.6343-2.3151 1.6536h-11.245c-1.668-0.01928-2.3151 0-2.3151-1.6536v-7.276c0-1.6536 0.64707-1.6343 2.3151-1.6536h11.245c1.668 0.01928 2.3151 0 2.3151 1.6536z" color="#000000" fill="url(#d-6)"/>
  <path transform="matrix(.066145 0 0 .066145 -1.3976 -1.5875)" d="m272 211c0 25-9.7826 24.708-35 25h-170c-25.217-0.29153-35 0-35-25v-110c0-25 9.7826-24.708 35-25h170c25.217 0.29154 35 0 35 25z" clip-path="url(#h)" color="#000000" fill="none" opacity=".3" stroke="url(#b-3)" stroke-width="4"/>
  <g shape-rendering="auto">
   <path transform="matrix(.066145 0 0 .066145 .71901 3.4395)" d="m33.129 24c-2.8759 0.0331-4.9805-0.0705-6.7012 0.87891-0.86036 0.4747-1.5377 1.2787-1.9141 2.2812-0.37634 1.0026-0.51367 2.1942-0.51367 3.6973v18.285c0 1.5031 0.13742 2.6947 0.51367 3.6973 0.37637 1.0026 1.0537 1.8007 1.9141 2.2754 1.7207 0.94937 3.8253 0.85154 6.7012 0.88477h13.743c2.8759-0.0331 4.9805 0.0646 6.7012-0.88477 0.86037-0.4747 1.5377-1.2728 1.9141-2.2754 0.37472-1.0026 0.5136-2.1942 0.5136-3.6973v-18.285c0-1.5031-0.13742-2.6947-0.51367-3.6973-0.37634-1.0026-1.0537-1.8066-1.9141-2.2812-1.7207-0.94937-3.8253-0.84568-6.7012-0.87891h-13.733zm40 0c-2.8759 0.0331-4.9805-0.0705-6.7012 0.87891-0.86036 0.4747-1.5377 1.2787-1.9141 2.2812-0.37634 1.0026-0.51367 2.1942-0.51367 3.6973v18.285c0 1.5031 0.13742 2.6947 0.51367 3.6973 0.37637 1.0026 1.0537 1.8007 1.9141 2.2754 1.7207 0.94937 3.8253 0.85154 6.7012 0.88477h13.743c2.8759-0.0331 4.9805 0.0646 6.7012-0.88477 0.86037-0.4747 1.5377-1.2728 1.9141-2.2754 0.37498-1.0026 0.51367-2.1942 0.51367-3.6973v-18.285c0-1.5031-0.13742-2.6947-0.51367-3.6973-0.37635-1.0026-1.0537-1.8066-1.9141-2.2812-1.7207-0.94937-3.8253-0.84568-6.7012-0.87891h-13.733zm40 0c-2.8759 0.0331-4.9805-0.0705-6.7012 0.87891-0.86036 0.4747-1.5377 1.2787-1.9141 2.2812-0.37634 1.0026-0.51367 2.1942-0.51367 3.6973v18.285c0 1.5031 0.13742 2.6947 0.51367 3.6973 0.37637 1.0026 1.0537 1.8007 1.9141 2.2754 1.7207 0.94937 3.8253 0.85154 6.7012 0.88477h13.743c2.8759-0.0331 4.9805 0.0646 6.7012-0.88477 0.86037-0.4747 1.5377-1.2728 1.9141-2.2754 0.37498-1.0026 0.51367-2.1942 0.51367-3.6973v-18.285c0-1.5031-0.13742-2.6947-0.51367-3.6973-0.37635-1.0026-1.0537-1.8066-1.9141-2.2812-1.7207-0.94937-3.8253-0.84568-6.7012-0.87891h-13.733zm40 0c-2.8759 0.0331-4.9805-0.0705-6.7012 0.87891-0.86036 0.4747-1.5377 1.2787-1.9141 2.2812-0.37634 1.0026-0.51367 2.1942-0.51367 3.6973v18.285c0 1.5031 0.13742 2.6947 0.51367 3.6973 0.37637 1.0026 1.0537 1.8007 1.9141 2.2754 1.7207 0.94937 3.8253 0.85154 6.7012 0.88477h13.743c2.8759-0.0331 4.9805 0.0646 6.7012-0.88477 0.86037-0.4747 1.5377-1.2728 1.9141-2.2754 0.37498-1.0026 0.51367-2.1942 0.51367-3.6973v-18.285c0-1.5031-0.13742-2.6947-0.51367-3.6973-0.37635-1.0026-1.0537-1.8066-1.9141-2.2812-1.7207-0.94937-3.8253-0.84568-6.7012-0.87891h-13.733zm40 0c-2.8759 0.0331-4.9805-0.0705-6.7012 0.87891-0.86036 0.4747-1.5377 1.2787-1.9141 2.2812-0.37634 1.0026-0.51367 2.1942-0.51367 3.6973v18.285c0 1.5031 0.13742 2.6947 0.51367 3.6973 0.37637 1.0026 1.0537 1.8007 1.9141 2.2754 1.7207 0.94937 3.8253 0.85154 6.7012 0.88477h13.743c2.8759-0.0331 4.9805 0.0646 6.7012-0.88477 0.86037-0.4747 1.5377-1.2728 1.9141-2.2754 0.37498-1.0026 0.51367-2.1942 0.51367-3.6973v-18.285c0-1.5031-0.13742-2.6947-0.51367-3.6973-0.37635-1.0026-1.0537-1.8066-1.9141-2.2812-1.7207-0.94937-3.8253-0.84568-6.7012-0.87891h-13.733zm-144 40c-2.8759 0.0331-4.9805-0.0705-6.7012 0.87891-0.86036 0.4747-1.5377 1.2787-1.9141 2.2812-0.37634 1.0026-0.51367 2.1942-0.51367 3.6973v18.285c0 1.5031 0.13742 2.6947 0.51367 3.6973 0.37637 1.0026 1.0537 1.8007 1.9141 2.2754 1.7207 0.94937 3.8253 0.85154 6.7012 0.88477h13.743c2.8759-0.0331 4.9805 0.0646 6.7012-0.88477 0.86037-0.4747 1.5377-1.2728 1.9141-2.2754 0.37498-1.0026 0.51367-2.1942 0.51367-3.6973v-18.285c0-1.5031-0.13742-2.6947-0.51367-3.6973-0.37635-1.0026-1.0537-1.8066-1.9141-2.2812-1.7208-0.94937-3.8254-0.84568-6.7012-0.87891h-13.733zm40 0c-2.8759 0.0331-4.9805-0.0705-6.7012 0.87891-0.86036 0.4747-1.5377 1.2787-1.9141 2.2812-0.37634 1.0026-0.51367 2.1942-0.51367 3.6973v18.285c0 1.5031 0.13742 2.6947 0.51367 3.6973 0.37637 1.0026 1.0537 1.8007 1.9141 2.2754 1.7207 0.94937 3.8253 0.85154 6.7012 0.88477h13.743c2.8759-0.0331 4.9805 0.0646 6.7012-0.88477 0.86037-0.4747 1.5377-1.2728 1.9141-2.2754 0.37498-1.0026 0.51367-2.1942 0.51367-3.6973v-18.285c0-1.5031-0.13742-2.6947-0.51367-3.6973-0.37635-1.0026-1.0537-1.8066-1.9141-2.2812-1.7207-0.94937-3.8253-0.84568-6.7012-0.87891h-13.733zm40 0c-2.8759 0.0331-4.9805-0.0705-6.7012 0.87891-0.86036 0.4747-1.5377 1.2787-1.9141 2.2812-0.37634 1.0026-0.51367 2.1942-0.51367 3.6973v18.285c0 1.5031 0.13742 2.6947 0.51367 3.6973 0.37637 1.0026 1.0537 1.8007 1.9141 2.2754 1.7207 0.94937 3.8253 0.85154 6.7012 0.88477h13.743c2.8759-0.0331 4.9805 0.0646 6.7012-0.88477 0.86037-0.4747 1.5377-1.2728 1.9141-2.2754 0.37498-1.0026 0.51367-2.1942 0.51367-3.6973v-18.285c0-1.5031-0.13742-2.6947-0.51367-3.6973-0.37635-1.0026-1.0537-1.8066-1.9141-2.2812-1.7207-0.94937-3.8253-0.84568-6.7012-0.87891h-13.733zm40 0c-2.8759 0.0331-4.9805-0.0705-6.7012 0.87891-0.86036 0.4747-1.5377 1.2787-1.9141 2.2812-0.37634 1.0026-0.51367 2.1942-0.51367 3.6973v18.285c0 1.5031 0.13742 2.6947 0.51367 3.6973 0.37637 1.0026 1.0537 1.8007 1.9141 2.2754 1.7207 0.94937 3.8253 0.85154 6.7012 0.88477h13.743c2.8759-0.0331 4.9805 0.0646 6.7012-0.88477 0.86037-0.4747 1.5377-1.2728 1.9141-2.2754 0.37498-1.0026 0.51367-2.1942 0.51367-3.6973v-18.285c0-1.5031-0.13742-2.6947-0.51367-3.6973-0.37635-1.0026-1.0537-1.8066-1.9141-2.2812-1.7207-0.94937-3.8253-0.84568-6.7012-0.87891h-13.733zm-136 40c-2.8759 0.0331-4.9805-0.0705-6.7012 0.87891-0.86036 0.4747-1.5377 1.2787-1.9141 2.2812-0.37634 1.0026-0.51367 2.1942-0.51367 3.6973v18.285c0 1.5031 0.13742 2.6947 0.51367 3.6973 0.37637 1.0026 1.0537 1.8007 1.9141 2.2754 1.7207 0.94937 3.8253 0.85154 6.7012 0.88477h13.743c2.8759-0.0331 4.9805 0.0646 6.7012-0.88477 0.86037-0.4747 1.5377-1.2728 1.9141-2.2754 0.37491-1.0026 0.5136-2.1942 0.5136-3.6973v-18.285c0-1.5031-0.13742-2.6947-0.51367-3.6973-0.37635-1.0026-1.0537-1.8066-1.9141-2.2812-1.7207-0.94937-3.8253-0.84568-6.7012-0.87891h-13.733zm40 0c-2.8759 0.0331-4.9805-0.0705-6.7012 0.87891-0.86036 0.4747-1.5377 1.2787-1.9141 2.2812-0.37634 1.0026-0.51367 2.1942-0.51367 3.6973v18.285c0 1.5031 0.13742 2.6947 0.51367 3.6973 0.37637 1.0026 1.0537 1.8007 1.9141 2.2754 1.7207 0.94937 3.8253 0.85154 6.7012 0.88477h93.743c2.8759-0.0331 4.9805 0.0646 6.7012-0.88477 0.86037-0.4747 1.5377-1.2728 1.9141-2.2754 0.37498-1.0026 0.51367-2.1942 0.51367-3.6973v-18.285c0-1.5031-0.13742-2.6947-0.51367-3.6973-0.37635-1.0026-1.0537-1.8066-1.9141-2.2812-1.7207-0.94937-3.8253-0.84568-6.7012-0.87891h-93.733zm120 0c-2.8759 0.0331-4.9805-0.0705-6.7012 0.87891-0.86036 0.4747-1.5377 1.2787-1.9141 2.2812-0.37634 1.0026-0.51367 2.1942-0.51367 3.6973v18.285c0 1.5031 0.13742 2.6947 0.51367 3.6973 0.37637 1.0026 1.0537 1.8007 1.9141 2.2754 1.7207 0.94937 3.8253 0.85154 6.7012 0.88477h13.743c2.8759-0.0331 4.9805 0.0646 6.7012-0.88477 0.86037-0.4747 1.5377-1.2728 1.9141-2.2754 0.37498-1.0026 0.51367-2.1942 0.51367-3.6973v-18.285c0-1.5031-0.13742-2.6947-0.51367-3.6973-0.37635-1.0026-1.0537-1.8066-1.9141-2.2812-1.7207-0.94937-3.8253-0.84568-6.7012-0.87891h-13.733z" color="#000000" color-rendering="auto" filter="url(#f)" image-rendering="auto" opacity=".1" solid-color="#000000" style="font-feature-settings:normal;font-variant-alternates:normal;font-variant-caps:normal;font-variant-ligatures:normal;font-variant-numeric:normal;font-variant-position:normal;isolation:auto;mix-blend-mode:normal;shape-padding:0;text-decoration-color:#000000;text-decoration-line:none;text-decoration-style:solid;text-indent:0;text-orientation:mixed;text-transform:none;white-space:normal"/>
   <path transform="matrix(.066145 0 0 .066145 .71901 3.4395)" d="m33.129 26c-2.8759 0.0331-4.9805-0.0705-6.7012 0.87891-0.86036 0.4747-1.5377 1.2787-1.9141 2.2812-0.37634 1.0026-0.51367 2.1942-0.51367 3.6973v18.285c0 1.5031 0.13742 2.6947 0.51367 3.6973 0.37637 1.0026 1.0537 1.8007 1.9141 2.2754 1.7207 0.94937 3.8253 0.85154 6.7012 0.88477h13.743c2.8759-0.0331 4.9805 0.0646 6.7012-0.88477 0.86037-0.4747 1.5377-1.2728 1.9141-2.2754 0.37472-1.0026 0.5136-2.1942 0.5136-3.6973v-18.285c0-1.5031-0.13742-2.6947-0.51367-3.6973-0.37634-1.0026-1.0537-1.8066-1.9141-2.2812-1.7207-0.94937-3.8253-0.84568-6.7012-0.87891h-13.733zm40 0c-2.8759 0.0331-4.9805-0.0705-6.7012 0.87891-0.86036 0.4747-1.5377 1.2787-1.9141 2.2812-0.37634 1.0026-0.51367 2.1942-0.51367 3.6973v18.285c0 1.5031 0.13742 2.6947 0.51367 3.6973 0.37637 1.0026 1.0537 1.8007 1.9141 2.2754 1.7207 0.94937 3.8253 0.85154 6.7012 0.88477h13.743c2.8759-0.0331 4.9805 0.0646 6.7012-0.88477 0.86037-0.4747 1.5377-1.2728 1.9141-2.2754 0.37498-1.0026 0.51367-2.1942 0.51367-3.6973v-18.285c0-1.5031-0.13742-2.6947-0.51367-3.6973-0.37635-1.0026-1.0537-1.8066-1.9141-2.2812-1.7207-0.94937-3.8253-0.84568-6.7012-0.87891h-13.733zm40 0c-2.8759 0.0331-4.9805-0.0705-6.7012 0.87891-0.86036 0.4747-1.5377 1.2787-1.9141 2.2812-0.37634 1.0026-0.51367 2.1942-0.51367 3.6973v18.285c0 1.5031 0.13742 2.6947 0.51367 3.6973 0.37637 1.0026 1.0537 1.8007 1.9141 2.2754 1.7207 0.94937 3.8253 0.85154 6.7012 0.88477h13.743c2.8759-0.0331 4.9805 0.0646 6.7012-0.88477 0.86037-0.4747 1.5377-1.2728 1.9141-2.2754 0.37498-1.0026 0.51367-2.1942 0.51367-3.6973v-18.285c0-1.5031-0.13742-2.6947-0.51367-3.6973-0.37635-1.0026-1.0537-1.8066-1.9141-2.2812-1.7207-0.94937-3.8253-0.84568-6.7012-0.87891h-13.733zm40 0c-2.8759 0.0331-4.9805-0.0705-6.7012 0.87891-0.86036 0.4747-1.5377 1.2787-1.9141 2.2812-0.37634 1.0026-0.51367 2.1942-0.51367 3.6973v18.285c0 1.5031 0.13742 2.6947 0.51367 3.6973 0.37637 1.0026 1.0537 1.8007 1.9141 2.2754 1.7207 0.94937 3.8253 0.85154 6.7012 0.88477h13.743c2.8759-0.0331 4.9805 0.0646 6.7012-0.88477 0.86037-0.4747 1.5377-1.2728 1.9141-2.2754 0.37498-1.0026 0.51367-2.1942 0.51367-3.6973v-18.285c0-1.5031-0.13742-2.6947-0.51367-3.6973-0.37635-1.0026-1.0537-1.8066-1.9141-2.2812-1.7207-0.94937-3.8253-0.84568-6.7012-0.87891h-13.733zm40 0c-2.8759 0.0331-4.9805-0.0705-6.7012 0.87891-0.86036 0.4747-1.5377 1.2787-1.9141 2.2812-0.37634 1.0026-0.51367 2.1942-0.51367 3.6973v18.285c0 1.5031 0.13742 2.6947 0.51367 3.6973 0.37637 1.0026 1.0537 1.8007 1.9141 2.2754 1.7207 0.94937 3.8253 0.85154 6.7012 0.88477h13.743c2.8759-0.0331 4.9805 0.0646 6.7012-0.88477 0.86037-0.4747 1.5377-1.2728 1.9141-2.2754 0.37498-1.0026 0.51367-2.1942 0.51367-3.6973v-18.285c0-1.5031-0.13742-2.6947-0.51367-3.6973-0.37635-1.0026-1.0537-1.8066-1.9141-2.2812-1.7207-0.94937-3.8253-0.84568-6.7012-0.87891h-13.733zm-144 40c-2.8759 0.0331-4.9805-0.0705-6.7012 0.87891-0.86036 0.4747-1.5377 1.2787-1.9141 2.2812-0.37634 1.0026-0.51367 2.1942-0.51367 3.6973v18.285c0 1.5031 0.13742 2.6947 0.51367 3.6973 0.37637 1.0026 1.0537 1.8007 1.9141 2.2754 1.7207 0.94937 3.8253 0.85154 6.7012 0.88477h13.743c2.8759-0.0331 4.9805 0.0646 6.7012-0.88477 0.86037-0.4747 1.5377-1.2728 1.9141-2.2754 0.37498-1.0026 0.51367-2.1942 0.51367-3.6973v-18.285c0-1.5031-0.13742-2.6947-0.51367-3.6973-0.37635-1.0026-1.0537-1.8066-1.9141-2.2812-1.7208-0.94937-3.8254-0.84568-6.7012-0.87891h-13.733zm40 0c-2.8759 0.0331-4.9805-0.0705-6.7012 0.87891-0.86036 0.4747-1.5377 1.2787-1.9141 2.2812-0.37634 1.0026-0.51367 2.1942-0.51367 3.6973v18.285c0 1.5031 0.13742 2.6947 0.51367 3.6973 0.37637 1.0026 1.0537 1.8007 1.9141 2.2754 1.7207 0.94937 3.8253 0.85154 6.7012 0.88477h13.743c2.8759-0.0331 4.9805 0.0646 6.7012-0.88477 0.86037-0.4747 1.5377-1.2728 1.9141-2.2754 0.37498-1.0026 0.51367-2.1942 0.51367-3.6973v-18.285c0-1.5031-0.13742-2.6947-0.51367-3.6973-0.37635-1.0026-1.0537-1.8066-1.9141-2.2812-1.7207-0.94937-3.8253-0.84568-6.7012-0.87891h-13.733zm40 0c-2.8759 0.0331-4.9805-0.0705-6.7012 0.87891-0.86036 0.4747-1.5377 1.2787-1.9141 2.2812-0.37634 1.0026-0.51367 2.1942-0.51367 3.6973v18.285c0 1.5031 0.13742 2.6947 0.51367 3.6973 0.37637 1.0026 1.0537 1.8007 1.9141 2.2754 1.7207 0.94937 3.8253 0.85154 6.7012 0.88477h13.743c2.8759-0.0331 4.9805 0.0646 6.7012-0.88477 0.86037-0.4747 1.5377-1.2728 1.9141-2.2754 0.37498-1.0026 0.51367-2.1942 0.51367-3.6973v-18.285c0-1.5031-0.13742-2.6947-0.51367-3.6973-0.37635-1.0026-1.0537-1.8066-1.9141-2.2812-1.7207-0.94937-3.8253-0.84568-6.7012-0.87891h-13.733zm40 0c-2.8759 0.0331-4.9805-0.0705-6.7012 0.87891-0.86036 0.4747-1.5377 1.2787-1.9141 2.2812-0.37634 1.0026-0.51367 2.1942-0.51367 3.6973v18.285c0 1.5031 0.13742 2.6947 0.51367 3.6973 0.37637 1.0026 1.0537 1.8007 1.9141 2.2754 1.7207 0.94937 3.8253 0.85154 6.7012 0.88477h13.743c2.8759-0.0331 4.9805 0.0646 6.7012-0.88477 0.86037-0.4747 1.5377-1.2728 1.9141-2.2754 0.37498-1.0026 0.51367-2.1942 0.51367-3.6973v-18.285c0-1.5031-0.13742-2.6947-0.51367-3.6973-0.37635-1.0026-1.0537-1.8066-1.9141-2.2812-1.7207-0.94937-3.8253-0.84568-6.7012-0.87891h-13.733zm-136 40c-2.8759 0.0331-4.9805-0.0705-6.7012 0.87891-0.86036 0.4747-1.5377 1.2787-1.9141 2.2812-0.37634 1.0026-0.51367 2.1942-0.51367 3.6973v18.285c0 1.5031 0.13742 2.6947 0.51367 3.6973 0.37637 1.0026 1.0537 1.8007 1.9141 2.2754 1.7207 0.94937 3.8253 0.85154 6.7012 0.88477h13.743c2.8759-0.0331 4.9805 0.0646 6.7012-0.88477 0.86037-0.4747 1.5377-1.2728 1.9141-2.2754 0.37491-1.0026 0.5136-2.1942 0.5136-3.6973v-18.285c0-1.5031-0.13742-2.6947-0.51367-3.6973-0.37635-1.0026-1.0537-1.8066-1.9141-2.2812-1.7207-0.94937-3.8253-0.84568-6.7012-0.87891h-13.733zm40 0c-2.8759 0.0331-4.9805-0.0705-6.7012 0.87891-0.86036 0.4747-1.5377 1.2787-1.9141 2.2812-0.37634 1.0026-0.51367 2.1942-0.51367 3.6973v18.285c0 1.5031 0.13742 2.6947 0.51367 3.6973 0.37637 1.0026 1.0537 1.8007 1.9141 2.2754 1.7207 0.94937 3.8253 0.85154 6.7012 0.88477h93.743c2.8759-0.0331 4.9805 0.0646 6.7012-0.88477 0.86037-0.4747 1.5377-1.2728 1.9141-2.2754 0.37498-1.0026 0.51367-2.1942 0.51367-3.6973v-18.285c0-1.5031-0.13742-2.6947-0.51367-3.6973-0.37635-1.0026-1.0537-1.8066-1.9141-2.2812-1.7207-0.94937-3.8253-0.84568-6.7012-0.87891h-93.733zm120 0c-2.8759 0.0331-4.9805-0.0705-6.7012 0.87891-0.86036 0.4747-1.5377 1.2787-1.9141 2.2812-0.37634 1.0026-0.51367 2.1942-0.51367 3.6973v18.285c0 1.5031 0.13742 2.6947 0.51367 3.6973 0.37637 1.0026 1.0537 1.8007 1.9141 2.2754 1.7207 0.94937 3.8253 0.85154 6.7012 0.88477h13.743c2.8759-0.0331 4.9805 0.0646 6.7012-0.88477 0.86037-0.4747 1.5377-1.2728 1.9141-2.2754 0.37498-1.0026 0.51367-2.1942 0.51367-3.6973v-18.285c0-1.5031-0.13742-2.6947-0.51367-3.6973-0.37635-1.0026-1.0537-1.8066-1.9141-2.2812-1.7207-0.94937-3.8253-0.84568-6.7012-0.87891h-13.733z" color="#000000" color-rendering="auto" filter="url(#e)" image-rendering="auto" opacity=".1" solid-color="#000000" style="font-feature-settings:normal;font-variant-alternates:normal;font-variant-caps:normal;font-variant-ligatures:normal;font-variant-numeric:normal;font-variant-position:normal;isolation:auto;mix-blend-mode:normal;shape-padding:0;text-decoration-color:#000000;text-decoration-line:none;text-decoration-style:solid;text-indent:0;text-orientation:mixed;text-transform:none;white-space:normal"/>
   <path d="m2.9103 5.027c-0.19022 0.0022-0.32943-0.0047-0.44325 0.05814-0.05691 0.0314-0.10171 0.08458-0.1266 0.15089s-0.03398 0.14514-0.03398 0.24455v1.2095c0 0.09942 0.0091 0.17824 0.03398 0.24455 0.0249 0.06631 0.0697 0.11911 0.1266 0.15051 0.11382 0.0628 0.25302 0.05633 0.44325 0.05852h0.90898c0.19022-0.0022 0.32943 0.0043 0.44325-0.05852 0.05691-0.0314 0.10171-0.08419 0.1266-0.15051 0.02479-0.06631 0.03397-0.14514 0.03397-0.24455v-1.2095c0-0.09942-0.0091-0.17824-0.03398-0.24455-0.02489-0.06631-0.0697-0.11949-0.12661-0.15089-0.11382-0.0628-0.25302-0.05594-0.44325-0.05814h-0.90833zm2.6458 0c-0.19022 0.0022-0.32943-0.0047-0.44325 0.05814-0.05691 0.0314-0.10171 0.08458-0.1266 0.15089s-0.03398 0.14514-0.03398 0.24455v1.2095c0 0.09942 0.0091 0.17824 0.03398 0.24455 0.0249 0.06631 0.0697 0.11911 0.1266 0.15051 0.11382 0.0628 0.25302 0.05633 0.44325 0.05852h0.90898c0.19022-0.0022 0.32943 0.0043 0.44325-0.05852 0.05691-0.0314 0.10171-0.08419 0.1266-0.15051 0.0248-0.06631 0.03398-0.14514 0.03398-0.24455v-1.2095c0-0.09942-0.0091-0.17824-0.03398-0.24455-0.02487-0.06631-0.06967-0.11949-0.12658-0.15089-0.11382-0.0628-0.25302-0.05594-0.44325-0.05814h-0.90833zm2.6458 0c-0.19022 0.0022-0.32943-0.0047-0.44325 0.05814-0.05691 0.0314-0.10171 0.08458-0.1266 0.15089s-0.03398 0.14514-0.03398 0.24455v1.2095c0 0.09942 0.0091 0.17824 0.03398 0.24455 0.0249 0.06631 0.0697 0.11911 0.1266 0.15051 0.11382 0.0628 0.25302 0.05633 0.44325 0.05852h0.90898c0.19022-0.0022 0.32943 0.0043 0.44325-0.05852 0.056909-0.0314 0.10171-0.08419 0.1266-0.15051 0.024803-0.06631 0.033977-0.14514 0.033977-0.24455v-1.2095c0-0.09942-0.00909-0.17824-0.033977-0.24455-0.02487-0.06631-0.069674-0.11949-0.12658-0.15089-0.11382-0.0628-0.25302-0.05594-0.44325-0.05814h-0.90833zm2.6458 0c-0.19022 0.0022-0.32943-0.0047-0.44325 0.05814-0.05691 0.0314-0.10171 0.08458-0.1266 0.15089s-0.03398 0.14514-0.03398 0.24455v1.2095c0 0.09942 0.0091 0.17824 0.03398 0.24455 0.0249 0.06631 0.0697 0.11911 0.1266 0.15051 0.11382 0.0628 0.25302 0.05633 0.44325 0.05852h0.90898c0.19022-0.0022 0.32943 0.0043 0.44325-0.05852 0.05691-0.0314 0.10171-0.08419 0.1266-0.15051 0.0248-0.06631 0.03398-0.14514 0.03398-0.24455v-1.2095c0-0.09942-0.0091-0.17824-0.03398-0.24455-0.02487-0.06631-0.06967-0.11949-0.12658-0.15089-0.11382-0.0628-0.25302-0.05594-0.44325-0.05814h-0.90833zm2.6458 0c-0.19022 0.0022-0.32943-0.0047-0.44325 0.05814-0.05691 0.0314-0.10171 0.08458-0.1266 0.15089s-0.03398 0.14514-0.03398 0.24455v1.2095c0 0.09942 0.0091 0.17824 0.03398 0.24455 0.0249 0.06631 0.0697 0.11911 0.1266 0.15051 0.11382 0.0628 0.25302 0.05633 0.44325 0.05852h0.90898c0.19022-0.0022 0.32943 0.0043 0.44325-0.05852 0.05691-0.0314 0.10171-0.08419 0.1266-0.15051 0.0248-0.06631 0.03398-0.14514 0.03398-0.24455v-1.2095c0-0.09942-0.0091-0.17824-0.03398-0.24455-0.02487-0.06631-0.06967-0.11949-0.12658-0.15089-0.11382-0.0628-0.25302-0.05594-0.44325-0.05814h-0.90833zm-9.5249 2.6458c-0.19022 0.0022-0.32943-0.0047-0.44325 0.05814-0.05691 0.0314-0.10171 0.08458-0.1266 0.15089s-0.03398 0.14514-0.03398 0.24456v1.2095c0 0.09942 0.0091 0.17824 0.03398 0.24455 0.0249 0.06631 0.0697 0.11911 0.1266 0.15051 0.11382 0.0628 0.25302 0.05632 0.44325 0.05852h0.90898c0.19022-0.0022 0.32943 0.0043 0.44325-0.05852 0.05691-0.0314 0.10171-0.08419 0.1266-0.15051 0.0248-0.06631 0.03398-0.14514 0.03398-0.24455v-1.2095c0-0.09942-0.0091-0.17824-0.03398-0.24456-0.02489-0.06631-0.0697-0.11949-0.1266-0.15089-0.11382-0.0628-0.25303-0.05594-0.44325-0.05814h-0.90833zm2.6458 0c-0.19022 0.0022-0.32943-0.0047-0.44325 0.05814-0.05691 0.0314-0.10171 0.08458-0.1266 0.15089s-0.03398 0.14514-0.03398 0.24456v1.2095c0 0.09942 0.0091 0.17824 0.03398 0.24455 0.0249 0.06631 0.0697 0.11911 0.1266 0.15051 0.11382 0.0628 0.25302 0.05632 0.44325 0.05852h0.90898c0.19022-0.0022 0.32943 0.0043 0.44325-0.05852 0.056909-0.0314 0.10171-0.08419 0.1266-0.15051 0.024803-0.06631 0.033977-0.14514 0.033977-0.24455v-1.2095c0-0.09942-0.00909-0.17824-0.033977-0.24456-0.02487-0.06631-0.069674-0.11949-0.12658-0.15089-0.11382-0.0628-0.25302-0.05594-0.44325-0.05814h-0.90833zm2.6458 0c-0.19022 0.0022-0.32943-0.0047-0.44325 0.05814-0.056908 0.0314-0.10171 0.08458-0.1266 0.15089-0.024893 0.06631-0.033977 0.14514-0.033977 0.24456v1.2095c0 0.09942 0.00909 0.17824 0.033977 0.24455 0.024895 0.06631 0.069697 0.11911 0.1266 0.15051 0.11382 0.0628 0.25302 0.05632 0.44325 0.05852h0.90898c0.19022-0.0022 0.32943 0.0043 0.44325-0.05852 0.05691-0.0314 0.10171-0.08419 0.1266-0.15051 0.0248-0.06631 0.03398-0.14514 0.03398-0.24455v-1.2095c0-0.09942-0.0091-0.17824-0.03398-0.24456-0.02489-0.06631-0.0697-0.11949-0.1266-0.15089-0.11382-0.0628-0.25302-0.05594-0.44325-0.05814h-0.90833zm2.6458 0c-0.19022 0.0022-0.32943-0.0047-0.44325 0.05814-0.05691 0.0314-0.10171 0.08458-0.1266 0.15089s-0.03398 0.14514-0.03398 0.24456v1.2095c0 0.09942 0.0091 0.17824 0.03398 0.24455 0.0249 0.06631 0.0697 0.11911 0.1266 0.15051 0.11382 0.0628 0.25302 0.05632 0.44325 0.05852h0.90898c0.19022-0.0022 0.32943 0.0043 0.44325-0.05852 0.05691-0.0314 0.10171-0.08419 0.1266-0.15051 0.0248-0.06631 0.03398-0.14514 0.03398-0.24455v-1.2095c0-0.09942-0.0091-0.17824-0.03398-0.24456-0.02487-0.06631-0.06967-0.11949-0.12658-0.15089-0.11382-0.0628-0.25302-0.05594-0.44325-0.05814h-0.90833zm-8.9957 2.6458c-0.19022 0.0022-0.32943-0.0047-0.44325 0.05814-0.05691 0.0314-0.10171 0.08458-0.1266 0.15089s-0.03398 0.14514-0.03398 0.24456v1.2095c0 0.09942 0.0091 0.17824 0.03398 0.24455 0.0249 0.06631 0.0697 0.11911 0.1266 0.15051 0.11382 0.0628 0.25302 0.05633 0.44325 0.05852h0.90898c0.19022-0.0022 0.32943 0.0043 0.44325-0.05852 0.05691-0.0314 0.10171-0.08419 0.1266-0.15051 0.0248-0.06631 0.03397-0.14514 0.03397-0.24455v-1.2095c0-0.09942-0.0091-0.17824-0.03398-0.24456-0.02489-0.06631-0.0697-0.11949-0.1266-0.15089-0.11382-0.0628-0.25302-0.05594-0.44325-0.05814h-0.90833zm2.6458 0c-0.19022 0.0022-0.32943-0.0047-0.44325 0.05814-0.05691 0.0314-0.10171 0.08458-0.1266 0.15089s-0.03398 0.14514-0.03398 0.24456v1.2095c0 0.09942 0.0091 0.17824 0.03398 0.24455 0.0249 0.06631 0.0697 0.11911 0.1266 0.15051 0.11382 0.0628 0.25302 0.05633 0.44325 0.05852h6.2006c0.19022-0.0022 0.32943 0.0043 0.44325-0.05852 0.05691-0.0314 0.10171-0.08419 0.1266-0.15051 0.0248-0.06631 0.03398-0.14514 0.03398-0.24455v-1.2095c0-0.09942-0.0091-0.17824-0.03398-0.24456-0.02487-0.06631-0.06967-0.11949-0.12658-0.15089-0.11382-0.0628-0.25302-0.05594-0.44325-0.05814h-6.2zm7.9374 0c-0.19022 0.0022-0.32943-0.0047-0.44325 0.05814-0.05691 0.0314-0.10171 0.08458-0.1266 0.15089s-0.03398 0.14514-0.03398 0.24456v1.2095c0 0.09942 0.0091 0.17824 0.03398 0.24455 0.0249 0.06631 0.0697 0.11911 0.1266 0.15051 0.11382 0.0628 0.25302 0.05633 0.44325 0.05852h0.90898c0.19022-0.0022 0.32943 0.0043 0.44325-0.05852 0.05691-0.0314 0.10171-0.08419 0.1266-0.15051 0.0248-0.06631 0.03398-0.14514 0.03398-0.24455v-1.2095c0-0.09942-0.0091-0.17824-0.03398-0.24456-0.02489-0.06631-0.0697-0.11949-0.1266-0.15089-0.11382-0.0628-0.25302-0.05594-0.44325-0.05814h-0.90833z" color="#000000" color-rendering="auto" fill="url(#a)" image-rendering="auto" solid-color="#000000" style="font-feature-settings:normal;font-variant-alternates:normal;font-variant-caps:normal;font-variant-ligatures:normal;font-variant-numeric:normal;font-variant-position:normal;isolation:auto;mix-blend-mode:normal;shape-padding:0;text-decoration-color:#000000;text-decoration-line:none;text-decoration-style:solid;text-indent:0;text-orientation:mixed;text-transform:none;white-space:normal"/>
   <path d="m2.9103 5.027c-0.19022 0.0022-0.32943-0.0047-0.44325 0.05814-0.05691 0.0314-0.10171 0.08458-0.1266 0.15089s-0.03398 0.14514-0.03398 0.24455v0.13229c0-0.09942 0.0091-0.17824 0.03398-0.24455 0.0249-0.06631 0.0697-0.11949 0.1266-0.15089 0.11382-0.0628 0.25302-0.05595 0.44325-0.05814h0.90898c0.19022 0.0022 0.32943-0.0047 0.44325 0.05814 0.05691 0.0314 0.10171 0.08458 0.1266 0.15089 0.02488 0.06631 0.03397 0.14513 0.03397 0.24455v-0.13229c0-0.09942-0.0091-0.17824-0.03398-0.24455-0.02489-0.06631-0.0697-0.11949-0.12661-0.15089-0.11382-0.0628-0.25302-0.05594-0.44325-0.05814h-0.90833zm2.6458 0c-0.19022 0.0022-0.32943-0.0047-0.44325 0.05814-0.05691 0.0314-0.10171 0.08458-0.1266 0.15089s-0.03398 0.14514-0.03398 0.24455v0.13229c0-0.09942 0.0091-0.17824 0.03398-0.24455 0.0249-0.06631 0.0697-0.11949 0.1266-0.15089 0.11382-0.0628 0.25302-0.05595 0.44325-0.05814h0.90898c0.19022 0.0022 0.32943-0.0047 0.44325 0.05814 0.05691 0.0314 0.10171 0.08458 0.1266 0.15089s0.03398 0.14513 0.03398 0.24455v-0.13229c0-0.09942-0.0091-0.17824-0.03398-0.24455-0.02487-0.06631-0.06967-0.11949-0.12658-0.15089-0.11382-0.0628-0.25302-0.05594-0.44325-0.05814h-0.90833zm2.6458 0c-0.19022 0.0022-0.32943-0.0047-0.44325 0.05814-0.05691 0.0314-0.10171 0.08458-0.1266 0.15089s-0.03398 0.14514-0.03398 0.24455v0.13229c0-0.09942 0.0091-0.17824 0.03398-0.24455 0.0249-0.06631 0.0697-0.11949 0.1266-0.15089 0.11382-0.0628 0.25302-0.05595 0.44325-0.05814h0.90898c0.19022 0.0022 0.32943-0.0047 0.44325 0.05814 0.056908 0.0314 0.10171 0.08458 0.1266 0.15089 0.024888 0.06631 0.033977 0.14513 0.033977 0.24455v-0.13229c0-0.09942-0.00909-0.17824-0.033977-0.24455-0.02487-0.06631-0.069674-0.11949-0.12658-0.15089-0.11382-0.0628-0.25302-0.05594-0.44325-0.05814h-0.90833zm2.6458 0c-0.19022 0.0022-0.32943-0.0047-0.44325 0.05814-0.05691 0.0314-0.10171 0.08458-0.1266 0.15089s-0.03398 0.14514-0.03398 0.24455v0.13229c0-0.09942 0.0091-0.17824 0.03398-0.24455 0.0249-0.06631 0.0697-0.11949 0.1266-0.15089 0.11382-0.0628 0.25302-0.05595 0.44325-0.05814h0.90898c0.19022 0.0022 0.32943-0.0047 0.44325 0.05814 0.05691 0.0314 0.10171 0.08458 0.1266 0.15089s0.03398 0.14513 0.03398 0.24455v-0.13229c0-0.09942-0.0091-0.17824-0.03398-0.24455-0.02487-0.06631-0.06967-0.11949-0.12658-0.15089-0.11382-0.0628-0.25302-0.05594-0.44325-0.05814h-0.90833zm2.6458 0c-0.19022 0.0022-0.32943-0.0047-0.44325 0.05814-0.05691 0.0314-0.10171 0.08458-0.1266 0.15089s-0.03398 0.14514-0.03398 0.24455v0.13229c0-0.09942 0.0091-0.17824 0.03398-0.24455 0.0249-0.06631 0.0697-0.11949 0.1266-0.15089 0.11382-0.0628 0.25302-0.05595 0.44325-0.05814h0.90898c0.19022 0.0022 0.32943-0.0047 0.44325 0.05814 0.05691 0.0314 0.10171 0.08458 0.1266 0.15089s0.03398 0.14513 0.03398 0.24455v-0.13229c0-0.09942-0.0091-0.17824-0.03398-0.24455-0.02487-0.06631-0.06967-0.11949-0.12658-0.15089-0.11382-0.0628-0.25302-0.05594-0.44325-0.05814h-0.90833zm-9.5249 2.6458c-0.19022 0.0022-0.32943-0.0047-0.44325 0.05814-0.05691 0.0314-0.10171 0.08458-0.1266 0.15089s-0.03398 0.14514-0.03398 0.24456v0.13229c0-0.09942 0.0091-0.17824 0.03398-0.24455 0.0249-0.06631 0.0697-0.11949 0.1266-0.15089 0.11382-0.0628 0.25302-0.05595 0.44325-0.05814h0.90898c0.19022 0.0022 0.32943-0.0047 0.44325 0.05814 0.05691 0.0314 0.10171 0.08458 0.1266 0.15089s0.03398 0.14513 0.03398 0.24455v-0.13229c0-0.09942-0.0091-0.17824-0.03398-0.24456-0.02489-0.06631-0.0697-0.11949-0.1266-0.15089-0.11382-0.0628-0.25303-0.05594-0.44325-0.05814h-0.90833zm2.6458 0c-0.19022 0.0022-0.32943-0.0047-0.44325 0.05814-0.05691 0.0314-0.10171 0.08458-0.1266 0.15089s-0.03398 0.14514-0.03398 0.24456v0.13229c0-0.09942 0.0091-0.17824 0.03398-0.24455 0.0249-0.06631 0.0697-0.11949 0.1266-0.15089 0.11382-0.0628 0.25302-0.05595 0.44325-0.05814h0.90898c0.19022 0.0022 0.32943-0.0047 0.44325 0.05814 0.056908 0.0314 0.10171 0.08458 0.1266 0.15089 0.024888 0.06631 0.033977 0.14513 0.033977 0.24455v-0.13229c0-0.09942-0.00909-0.17824-0.033977-0.24456-0.02487-0.06631-0.069674-0.11949-0.12658-0.15089-0.11382-0.0628-0.25302-0.05594-0.44325-0.05814h-0.90833zm2.6458 0c-0.19022 0.0022-0.32943-0.0047-0.44325 0.05814-0.056908 0.0314-0.10171 0.08458-0.1266 0.15089-0.024893 0.06631-0.033977 0.14514-0.033977 0.24456v0.13229c0-0.09942 0.00909-0.17824 0.033977-0.24455 0.024895-0.06631 0.069697-0.11949 0.1266-0.15089 0.11382-0.0628 0.25302-0.05595 0.44325-0.05814h0.90898c0.19022 0.0022 0.32943-0.0047 0.44325 0.05814 0.05691 0.0314 0.10171 0.08458 0.1266 0.15089s0.03398 0.14513 0.03398 0.24455v-0.13229c0-0.09942-0.0091-0.17824-0.03398-0.24456-0.02489-0.06631-0.0697-0.11949-0.1266-0.15089-0.11382-0.0628-0.25302-0.05594-0.44325-0.05814h-0.90833zm2.6458 0c-0.19022 0.0022-0.32943-0.0047-0.44325 0.05814-0.05691 0.0314-0.10171 0.08458-0.1266 0.15089s-0.03398 0.14514-0.03398 0.24456v0.13229c0-0.09942 0.0091-0.17824 0.03398-0.24455 0.0249-0.06631 0.0697-0.11949 0.1266-0.15089 0.11382-0.0628 0.25302-0.05595 0.44325-0.05814h0.90898c0.19022 0.0022 0.32943-0.0047 0.44325 0.05814 0.05691 0.0314 0.10171 0.08458 0.1266 0.15089s0.03398 0.14513 0.03398 0.24455v-0.13229c0-0.09942-0.0091-0.17824-0.03398-0.24456-0.02487-0.06631-0.06967-0.11949-0.12658-0.15089-0.11382-0.0628-0.25302-0.05594-0.44325-0.05814h-0.90833zm-8.9957 2.6458c-0.19022 0.0022-0.32943-0.0047-0.44325 0.05814-0.05691 0.0314-0.10171 0.08458-0.1266 0.15089s-0.03398 0.14514-0.03398 0.24456v0.13229c0-0.09942 0.0091-0.17824 0.03398-0.24455 0.0249-0.06631 0.0697-0.11949 0.1266-0.15089 0.11382-0.0628 0.25302-0.05595 0.44325-0.05814h0.90898c0.19022 0.0022 0.32943-0.0047 0.44325 0.05814 0.05691 0.0314 0.10171 0.08458 0.1266 0.15089 0.02488 0.06631 0.03397 0.14513 0.03397 0.24455v-0.13229c0-0.09942-0.0091-0.17824-0.03398-0.24456-0.02489-0.06631-0.0697-0.11949-0.1266-0.15089-0.11382-0.0628-0.25302-0.05594-0.44325-0.05814h-0.90833zm2.6458 0c-0.19022 0.0022-0.32943-0.0047-0.44325 0.05814-0.05691 0.0314-0.10171 0.08458-0.1266 0.15089s-0.03398 0.14514-0.03398 0.24456v0.13229c0-0.09942 0.0091-0.17824 0.03398-0.24455 0.0249-0.06631 0.0697-0.11949 0.1266-0.15089 0.11382-0.0628 0.25302-0.05595 0.44325-0.05814h6.2006c0.19022 0.0022 0.32943-0.0047 0.44325 0.05814 0.05691 0.0314 0.10171 0.08458 0.1266 0.15089s0.03398 0.14513 0.03398 0.24455v-0.13229c0-0.09942-0.0091-0.17824-0.03398-0.24456-0.02487-0.06631-0.06967-0.11949-0.12658-0.15089-0.11382-0.0628-0.25302-0.05594-0.44325-0.05814h-6.2zm7.9374 0c-0.19022 0.0022-0.32943-0.0047-0.44325 0.05814-0.05691 0.0314-0.10171 0.08458-0.1266 0.15089s-0.03398 0.14514-0.03398 0.24456v0.13229c0-0.09942 0.0091-0.17824 0.03398-0.24455 0.0249-0.06631 0.0697-0.11949 0.1266-0.15089 0.11382-0.0628 0.25302-0.05595 0.44325-0.05814h0.90898c0.19022 0.0022 0.32943-0.0047 0.44325 0.05814 0.05691 0.0314 0.10171 0.08458 0.1266 0.15089s0.03398 0.14513 0.03398 0.24455v-0.13229c0-0.09942-0.0091-0.17824-0.03398-0.24456-0.02489-0.06631-0.0697-0.11949-0.1266-0.15089-0.11382-0.0628-0.25302-0.05594-0.44325-0.05814h-0.90833z" color="#000000" color-rendering="auto" fill="#fff" image-rendering="auto" opacity=".4" solid-color="#000000" style="font-feature-settings:normal;font-variant-alternates:normal;font-variant-caps:normal;font-variant-ligatures:normal;font-variant-numeric:normal;font-variant-position:normal;isolation:auto;mix-blend-mode:normal;shape-padding:0;text-decoration-color:#000000;text-decoration-line:none;text-decoration-style:solid;text-indent:0;text-orientation:mixed;text-transform:none;white-space:normal"/>
  </g>
  <g transform="matrix(.066145 0 0 .066145 -1.3976 -1.5875)" enable-background="new" font-family="sans-serif" font-size="40px" letter-spacing="0px" opacity=".2" stroke-width="1px" text-anchor="middle" word-spacing="0px">
   <text x="71.295998" y="120.85742" text-align="center" style="line-height:1000%" xml:space="preserve"><tspan x="71.295998" y="120.85742" font-family="Ubuntu" font-size="16px" text-align="center" text-anchor="middle">Q</tspan></text>
   <text x="111.296" y="120.85742" text-align="center" style="line-height:1000%" xml:space="preserve"><tspan x="111.296" y="120.85742" font-family="Ubuntu" font-size="16px" text-align="center" text-anchor="middle">W</tspan></text>
   <text x="151.29599" y="120.85742" text-align="center" style="line-height:1000%" xml:space="preserve"><tspan x="151.29599" y="120.85742" font-family="Ubuntu" font-size="16px" text-align="center" text-anchor="middle">E</tspan></text>
   <text x="191.29599" y="120.85742" text-align="center" style="line-height:1000%" xml:space="preserve"><tspan x="191.29599" y="120.85742" font-family="Ubuntu" font-size="16px" text-align="center" text-anchor="middle">R</tspan></text>
   <text x="231.29599" y="120.85742" text-align="center" style="line-height:1000%" xml:space="preserve"><tspan x="231.29599" y="120.85742" font-family="Ubuntu" font-size="16px" text-align="center" text-anchor="middle">T</tspan></text>
   <text x="87.295998" y="160.85742" text-align="center" style="line-height:1000%" xml:space="preserve"><tspan x="87.295998" y="160.85742" font-family="Ubuntu" font-size="16px" text-align="center" text-anchor="middle">A</tspan></text>
   <text x="127.29599" y="160.85742" text-align="center" style="line-height:1000%" xml:space="preserve"><tspan x="127.29599" y="160.85742" font-family="Ubuntu" font-size="16px" text-align="center" text-anchor="middle">S</tspan></text>
   <text x="167.29599" y="160.85742" text-align="center" style="line-height:1000%" xml:space="preserve"><tspan x="167.29599" y="160.85742" font-family="Ubuntu" font-size="16px" text-align="center" text-anchor="middle">D</tspan></text>
   <text x="207.29599" y="160.85742" text-align="center" style="line-height:1000%" xml:space="preserve"><tspan x="207.29599" y="160.85742" font-family="Ubuntu" font-size="16px" text-align="center" text-anchor="middle">F</tspan></text>
   <text x="71.295998" y="200.85742" text-align="center" style="line-height:1000%" xml:space="preserve"><tspan x="71.295998" y="200.85742" font-family="Ubuntu" font-size="16px" text-align="center" text-anchor="middle">.</tspan></text>
   <text x="231.29599" y="200.85742" text-align="center" style="line-height:1000%" xml:space="preserve"><tspan x="231.29599" y="200.85742" font-family="Ubuntu" font-size="16px" text-align="center" text-anchor="middle">/</tspan></text>
  </g>
 </g>
</svg>
