<svg width="64" height="64" version="1.1" viewBox="0 0 16.933 16.933" xmlns="http://www.w3.org/2000/svg">
 <defs>
  <linearGradient id="a" x1="-6.1472" x2="-6.1472" y1="-137.82" y2="-100.78" gradientTransform="matrix(.53033 0 0 .53033 11.536 71.99)" gradientUnits="userSpaceOnUse">
   <stop stop-color="#7e69e3" offset="0"/>
   <stop stop-color="#5b5beb" offset="1"/>
  </linearGradient>
 </defs>
 <circle cx="-330.35" cy="-328.38" r="0" fill="#5e4aa6" stroke-width=".26458"/>
 <circle cx="8.4935" cy="8.73" r="7.9375" opacity=".2" stroke-width=".14032"/>
 <circle cx="8.4939" cy="8.46" r="7.9375" fill="url(#a)" style="paint-order:normal"/>
 <path d="m8.4663 5.1667a1.498 1.1411 0 0 0-1.496 1.1105h-0.0031v0.98855a0.18299 0.24351 0 0 0-0.00414 0 0.18299 0.24351 0 0 0-0.18293 0.24339 0.18299 0.24351 0 0 0 0.18293 0.24339 0.18299 0.24351 0 0 0 0.00414 0h0.15089c0.01534 0.15907 0.058684 0.33401 0.15193 0.51881l0.54879 0.77204-2.6783 1.6743c-0.92021 0.81065-0.20842 1.5012 0.23719 1.5012h6.2229c0.43738 0 1.0595-0.67883 0.23719-1.5012l-2.6985-1.6872 0.5395-0.75911c0.082634-0.18592 0.12212-0.36046 0.13642-0.51881h0.15038v-5.292e-4a0.18299 0.24351 0 0 1 5.291e-4 0 0.18299 0.24351 0 0 0 0.17001-0.24288 0.18299 0.24351 0 0 0-0.17053-0.24288v-0.98905h-0.00259a1.498 1.1411 0 0 0-1.4965-1.1105z" opacity=".15" style="paint-order:markers fill stroke"/>
 <path d="m8.4663 4.8701a1.498 1.1411 0 0 0-1.496 1.1105h-0.0031v0.98855a0.18299 0.24351 0 0 0-0.00414 0 0.18299 0.24351 0 0 0-0.18293 0.24339 0.18299 0.24351 0 0 0 0.18293 0.24339 0.18299 0.24351 0 0 0 0.00414 0h0.15089c0.01534 0.15907 0.058684 0.33401 0.15193 0.51881l0.54879 0.77204-2.6783 1.6743c-0.92021 0.81065-0.20842 1.5012 0.23719 1.5012h6.2229c0.43738 0 1.0595-0.67883 0.23719-1.5012l-2.6985-1.6872 0.5395-0.75911c0.082634-0.18592 0.12212-0.36046 0.13642-0.51881h0.15038v-5.292e-4a0.18299 0.24351 0 0 1 5.291e-4 0 0.18299 0.24351 0 0 0 0.17001-0.24288 0.18299 0.24351 0 0 0-0.17053-0.24288v-0.98905h-0.00259a1.498 1.1411 0 0 0-1.4965-1.1105z" fill="#fff" style="paint-order:markers fill stroke"/>
 <circle cx="-39.434" cy="6.44" r="0" fill="#5e4aa6" fill-rule="evenodd" stroke-width=".26458"/>
</svg>
