<?xml version="1.0" encoding="UTF-8"?>
<svg width="64" height="64" version="1.1" xmlns="http://www.w3.org/2000/svg" xmlns:cc="http://creativecommons.org/ns#" xmlns:dc="http://purl.org/dc/elements/1.1/" xmlns:rdf="http://www.w3.org/1999/02/22-rdf-syntax-ns#">
 <metadata>
  <rdf:RDF>
   <cc:Work rdf:about="">
    <dc:format>image/svg+xml</dc:format>
    <dc:type rdf:resource="http://purl.org/dc/dcmitype/StillImage"/>
    <dc:title/>
   </cc:Work>
  </rdf:RDF>
 </metadata>
 <defs>
  <linearGradient id="b" x1="399.57" x2="399.57" y1="545.8" y2="517.8" gradientTransform="matrix(2.1429 0 0 2.1429 -826.36 -1107.5)" gradientUnits="userSpaceOnUse">
   <stop stop-color="#3889e9" offset="0"/>
   <stop stop-color="#5ea5fb" offset="1"/>
  </linearGradient>
 </defs>
 <path d="m50.249 9.1937q-3.8597-2.9725-8.444-4.5557-4.7372-1.6373-9.8021-1.6373c-16.57 0-30.003 13.432-30.003 30.001 0 15.158 11.245 27.684 25.845 29.709 0.71216 0.09855 1.4339 0.17485 2.1587 0.21936 0.66128 0.04133 1.3258 0.06994 1.9998 0.06994 16.567 0 29.997-13.432 29.997-29.999 0-1.3098-0.08266-2.6037-0.24481-3.8658-0.18758-1.4751-0.49279-2.909-0.88387-4.3046q-1.3289-4.6892-4.0822-8.7265-2.7215-3.9771-6.5401-6.9112z" opacity=".2" stroke-width=".99724"/>
 <path d="m50.249 8.1932q-3.8597-2.9725-8.444-4.5557-4.7372-1.6373-9.8021-1.6373c-16.57 0-30.003 13.432-30.003 30.001 0 15.158 11.245 27.684 25.845 29.709 0.71216 0.09855 1.4339 0.17485 2.1587 0.21936 0.66128 0.04133 1.3258 0.06994 1.9998 0.06994 16.567 0 29.997-13.432 29.997-29.999 0-1.3098-0.08266-2.6037-0.24481-3.8658-0.18758-1.4751-0.49279-2.909-0.88387-4.3046q-1.3289-4.6892-4.0822-8.7265-2.7215-3.9771-6.5401-6.9112z" fill="#fafafa" stroke-width=".99724"/>
 <circle cx="32.02" cy="32.044" r="30.001" fill-opacity="0" stroke-width="1.5715"/>
 <circle cx="32.02" cy="32.044" r="0" fill="url(#b)" stroke-width="1.5715"/>
 <g transform="matrix(.079346 0 0 .079346 12 12)">
  <path d="m23.631 196.92h456.86c12.997 0 23.631 10.634 23.631 23.631v240.25c0 12.997-10.634 23.631-23.631 23.631h-456.86c-12.997 0-23.631-10.634-23.631-23.631v-240.25c0-12.997 10.634-23.631 23.631-23.631z" fill="#e6e6e6"/>
  <path d="m0 460.8c0 12.997 10.634 23.631 23.631 23.631h456.86c12.997 0 23.631-10.634 23.631-23.631v-165.42h-504.12z" fill="#dcdcdc"/>
  <path d="m66.954 177.23h370.22c12.997 0 23.631 10.634 23.631 23.631v31.508c0 12.997-10.634 23.631-23.631 23.631h-370.22c-12.997 0-23.631-10.634-23.631-23.631v-31.508c0-12.997 10.634-23.631 23.631-23.631z" fill="#324d5b"/>
  <path d="m82.708 204.8h338.71c6.695 0 11.815 5.12 11.815 11.815s-5.12 11.815-11.815 11.815h-338.71c-6.695 0-11.815-5.12-11.815-11.815-1e-3 -6.301 5.119-11.815 11.815-11.815z" fill="#283e49"/>
  <path d="m61.046 334.77c9.846 0 17.723 7.877 17.723 17.723s-7.877 17.723-17.723 17.723-17.723-7.877-17.723-17.723 7.877-17.723 17.723-17.723z" fill="#3db39e"/>
  <path d="m120.12 334.77c9.846 0 17.723 7.877 17.723 17.723s-7.877 17.723-17.723 17.723-17.723-7.877-17.723-17.723 7.877-17.723 17.723-17.723z" fill="#324d5b"/>
  <path d="m409.6 19.693h27.569c12.997 0 23.631 10.634 23.631 23.631v23.631c0 12.997-10.634 23.631-23.631 23.631h-27.569c-12.997 0-23.631-10.634-23.631-23.631v-23.631c0-12.997 10.634-23.631 23.631-23.631z" fill="#ccd0d2"/>
  <path d="m86.646 51.595v165.42h330.83v-196.92h-307.2c-12.997 0-23.631 10.634-23.631 23.631v7.877zm354.46-31.902h-23.631v23.631c0-12.997 10.634-23.631 23.631-23.631z" fill="#fff"/>
  <path d="m141.78 90.586h220.55c4.332 0 7.877-3.545 7.877-7.877s-3.545-7.877-7.877-7.877h-220.55c-4.332 0-7.877 3.545-7.877 7.877s3.544 7.877 7.877 7.877zm220.55 19.692h-220.55c-4.332 0-7.877 3.545-7.877 7.877s3.545 7.877 7.877 7.877h220.55c4.332 0 7.877-3.545 7.877-7.877-1e-3 -4.332-3.545-7.877-7.878-7.877zm0 35.446h-220.55c-4.332 0-7.877 3.545-7.877 7.877s3.545 7.877 7.877 7.877h220.55c4.332 0 7.877-3.545 7.877-7.877-1e-3 -4.332-3.545-7.877-7.878-7.877z" fill="#d8dadc"/>
 </g>
</svg>
