<?xml version="1.0" encoding="UTF-8"?>
<svg width="64" height="64" version="1.1" xmlns="http://www.w3.org/2000/svg" xmlns:cc="http://creativecommons.org/ns#" xmlns:dc="http://purl.org/dc/elements/1.1/" xmlns:rdf="http://www.w3.org/1999/02/22-rdf-syntax-ns#" xmlns:xlink="http://www.w3.org/1999/xlink">
 <metadata>
  <rdf:RDF>
   <cc:Work rdf:about="">
    <dc:format>image/svg+xml</dc:format>
    <dc:type rdf:resource="http://purl.org/dc/dcmitype/StillImage"/>
    <dc:title/>
   </cc:Work>
  </rdf:RDF>
 </metadata>
 <defs>
  <linearGradient id="b" x1="399.57" x2="399.57" y1="545.8" y2="517.8" gradientTransform="matrix(2.1429 0 0 2.1429 -826.36 -1107.5)" gradientUnits="userSpaceOnUse">
   <stop stop-color="#3889e9" offset="0"/>
   <stop stop-color="#5ea5fb" offset="1"/>
  </linearGradient>
  <linearGradient id="c-36" x1="40" x2="40" y1="168" y2="136" gradientTransform="matrix(.20683 0 0 .26316 -64.511 -125.65)" gradientUnits="userSpaceOnUse" xlink:href="#a-0"/>
  <linearGradient id="a-0">
   <stop stop-color="#f00" offset="0"/>
   <stop stop-color="#f00" stop-opacity="0" offset="1"/>
  </linearGradient>
  <linearGradient id="d-62" x1="40" x2="40" y1="168" y2="136" gradientTransform="matrix(.20683 0 0 .26316 -64.511 36.179)" gradientUnits="userSpaceOnUse" xlink:href="#a-0"/>
 </defs>
 <path d="m50.249 9.1937q-3.8597-2.9725-8.444-4.5557-4.7372-1.6373-9.8021-1.6373c-16.57 0-30.003 13.432-30.003 30.001 0 15.158 11.245 27.684 25.845 29.709 0.71216 0.09855 1.4339 0.17485 2.1587 0.21936 0.66128 0.04133 1.3258 0.06994 1.9998 0.06994 16.567 0 29.997-13.432 29.997-29.999 0-1.3098-0.08266-2.6037-0.24481-3.8658-0.18758-1.4751-0.49279-2.909-0.88387-4.3046q-1.3289-4.6892-4.0822-8.7265-2.7215-3.9771-6.5401-6.9112z" opacity=".2" stroke-width=".99724"/>
 <path d="m50.249 8.1932q-3.8597-2.9725-8.444-4.5557-4.7372-1.6373-9.8021-1.6373c-16.57 0-30.003 13.432-30.003 30.001 0 15.158 11.245 27.684 25.845 29.709 0.71216 0.09855 1.4339 0.17485 2.1587 0.21936 0.66128 0.04133 1.3258 0.06994 1.9998 0.06994 16.567 0 29.997-13.432 29.997-29.999 0-1.3098-0.08266-2.6037-0.24481-3.8658-0.18758-1.4751-0.49279-2.909-0.88387-4.3046q-1.3289-4.6892-4.0822-8.7265-2.7215-3.9771-6.5401-6.9112z" fill="#fafafa" stroke-width=".99724"/>
 <circle cx="32.02" cy="32.044" r="30.001" fill-opacity="0" stroke-width="1.5715"/>
 <circle cx="32.02" cy="32.044" r="0" fill="url(#b)" stroke-width="1.5715"/>
 <g transform="translate(.41809)">
  <g transform="matrix(.068359 0 0 .068359 14.082 14.5)" fill="#dcdcdc">
   <rect x="15.2" y="25.6" width="20.8" height="296"/>
   <rect x="109.6" y="25.6" width="10.4" height="296"/>
   <rect x="63.2" y="25.6" width="2.4" height="296"/>
   <rect x="272.8" y="25.6" width="2.4" height="296"/>
   <rect x="248" y="25.6" width="10.4" height="296"/>
   <rect x="151.2" y="25.6" width="20.8" height="296"/>
   <rect x="300" y="25.6" width="52" height="296"/>
   <rect x="424" y="25.6" width="72.8" height="296"/>
   <rect x="205.6" y="25.6" width="20.8" height="296"/>
   <rect x="378.4" y="25.6" width="20.8" height="296"/>
   <rect x="15.2" y="400.8" width="20.8" height="85.6"/>
   <rect x="109.6" y="400.8" width="10.4" height="85.6"/>
   <rect x="63.2" y="400.8" width="2.4" height="85.6"/>
   <rect x="272.8" y="400.8" width="2.4" height="85.6"/>
   <rect x="248" y="400.8" width="10.4" height="85.6"/>
   <rect x="151.2" y="400.8" width="20.8" height="85.6"/>
   <rect x="300" y="400.8" width="52" height="85.6"/>
   <rect x="424" y="400.8" width="72.8" height="85.6"/>
   <rect x="205.6" y="400.8" width="20.8" height="85.6"/>
   <rect x="378.4" y="400.8" width="20.8" height="85.6"/>
  </g>
  <g transform="matrix(.71259 0 0 .71259 55.15 -18.931)" stroke-width=".99464">
   <rect x="-56.238" y="80.389" width="46.329" height="1.0526" enable-background="new" fill="#f00"/>
   <rect x="-56.238" y="71.968" width="46.329" height="8.4211" enable-background="new" fill="url(#d-62)" opacity=".4"/>
   <rect transform="scale(1,-1)" x="-56.238" y="-89.863" width="46.329" height="8.4211" enable-background="new" fill="url(#c-36)" opacity=".4"/>
  </g>
 </g>
</svg>
