<?xml version="1.0" encoding="UTF-8" standalone="no"?>
<svg
   xmlns:dc="http://purl.org/dc/elements/1.1/"
   xmlns:cc="http://creativecommons.org/ns#"
   xmlns:rdf="http://www.w3.org/1999/02/22-rdf-syntax-ns#"
   xmlns:svg="http://www.w3.org/2000/svg"
   xmlns="http://www.w3.org/2000/svg"
   xmlns:sodipodi="http://sodipodi.sourceforge.net/DTD/sodipodi-0.dtd"
   xmlns:inkscape="http://www.inkscape.org/namespaces/inkscape"
   inkscape:version="1.0 (4035a4fb49, 2020-05-01)"
   sodipodi:docname="softwarecenter.svg"
   id="svg19"
   viewBox="0 0 16.933 16.933"
   version="1.1"
   height="64"
   width="64">
  <metadata
     id="metadata23">
    <rdf:RDF>
      <cc:Work
         rdf:about="">
        <dc:format>image/svg+xml</dc:format>
        <dc:type
           rdf:resource="http://purl.org/dc/dcmitype/StillImage" />
        <dc:title></dc:title>
      </cc:Work>
    </rdf:RDF>
  </metadata>
  <sodipodi:namedview
     inkscape:current-layer="svg19"
     inkscape:window-maximized="1"
     inkscape:window-y="36"
     inkscape:window-x="0"
     inkscape:cy="42.493467"
     inkscape:cx="-1.422942"
     inkscape:zoom="4.2150193"
     showgrid="false"
     id="namedview21"
     inkscape:window-height="932"
     inkscape:window-width="1920"
     inkscape:pageshadow="2"
     inkscape:pageopacity="0"
     guidetolerance="10"
     gridtolerance="10"
     objecttolerance="10"
     borderopacity="1"
     bordercolor="#666666"
     pagecolor="#ffffff" />
  <defs
     id="defs7">
    <linearGradient
       gradientUnits="userSpaceOnUse"
       y2="15.436"
       y1="1.483"
       x2="8.6487"
       x1="8.6487"
       id="linearGradient1029">
      <stop
         id="stop2"
         offset="0"
         stop-color="#17b7f1" />
      <stop
         id="stop4"
         offset="1"
         stop-color="#1763e1" />
    </linearGradient>
    <linearGradient
       id="b"
       x1="-6.1472"
       x2="-6.1472"
       y1="-137.82"
       y2="-100.78"
       gradientTransform="matrix(0.53033,0,0,0.53033,11.536,352.06)"
       gradientUnits="userSpaceOnUse">
      <stop
         stop-color="#14dc78"
         offset="0"
         id="stop848" />
      <stop
         stop-color="#14a03c"
         offset="1"
         id="stop850" />
    </linearGradient>
    <linearGradient
       id="a"
       x1="-6.1738"
       x2="-6.1738"
       y1="-126.08"
       y2="-126.7"
       gradientTransform="matrix(0.53033,0,0,0.53033,11.537,352.06)"
       gradientUnits="userSpaceOnUse">
      <stop
         stop-color="#14e650"
         offset="0"
         id="stop853" />
      <stop
         stop-color="#148232"
         offset="1"
         id="stop855" />
    </linearGradient>
  </defs>
  <g
     transform="translate(-0.02699976,-280.19849)"
     id="g896">
    <g
       id="g872">
      <circle
         cx="-330.35001"
         cy="-48.312"
         r="0"
         fill="#5e4aa6"
         stroke-width="0.26458"
         id="circle860" />
      <circle
         cx="8.4934998"
         cy="288.79999"
         r="7.9375"
         opacity="0.2"
         stroke-width="0.14032"
         id="circle862" />
      <circle
         style="fill:url(#b)"
         cx="8.4934998"
         cy="288.53"
         r="7.9375"
         fill="url(#b)"
         stroke-width="0.14032"
         id="circle864" />
      <path
         style="fill:url(#a)"
         d="m 1.4351,284.9 c -0.04528,0.0893 -0.0899,0.17936 -0.13178,0.27027 h 14.38 C 15.64333,285.07937 15.59543,284.9893 15.55206,284.9 Z"
         fill="url(#a)"
         stroke-width="0.14032"
         id="path866" />
      <circle
         cx="5.3171"
         cy="283.16"
         r="0.66137999"
         fill="#146432"
         fill-rule="evenodd"
         opacity="0.5"
         stroke-width="0.31275"
         id="circle868" />
      <circle
         cx="11.932"
         cy="283.16"
         r="0.66137999"
         fill="#146432"
         fill-rule="evenodd"
         opacity="0.5"
         stroke-width="0.31275"
         id="circle870" />
    </g>
    <path
       d="m 5.3793,283.69 c 0,0 0.00178,4.2022 3.3892,4.2022 3.1469,0.0161 3.1469,-4.2022 3.1469,-4.2022"
       fill="none"
       opacity="0.5"
       stroke="#146432"
       stroke-width="0.25999px"
       id="path874" />
    <path
       d="m 5.3276,283.18 c 0,0 0.0018,4.2995 3.4305,4.2995 3.1853,0.0165 3.1853,-4.2995 3.1853,-4.2995"
       fill="none"
       stroke="#ffffff"
       stroke-width="0.26458px"
       id="path876" />
    <g
       id="g894">
      <circle
         cx="-39.433998"
         cy="286.51001"
         r="0"
         fill="#5e4aa6"
         fill-rule="evenodd"
         stroke-width="0.26458"
         id="ellipse878" />
      <g
         stroke-width="0.14788"
         id="g888">
        <path
           d="m 6.4877,291.55 c -0.090957,-0.005 -0.17771,0.0914 -0.16545,0.1547 0.15676,0.94127 0.16499,1.8202 0,2.7901 -0.011497,0.0638 0.074499,0.15796 0.16545,0.15472 h 4.0099 c 0.09281,0.004 0.17818,-0.0909 0.16731,-0.15472 -0.16498,-0.96929 -0.16731,-1.8598 0,-2.7901 0.01215,-0.0638 -0.07449,-0.15964 -0.16731,-0.1547 -1.3562,0.0666 -2.6882,0.0556 -4.0099,0"
           fill="#149646"
           id="path880" />
        <path
           d="m 7.4065,292.18 c 0,0.1167 -0.1043,0.21136 -0.23281,0.21136 -0.12851,0 -0.23281,-0.0946 -0.23281,-0.21136 0,-0.11669 0.1043,-0.21136 0.23281,-0.21136 0.12851,0 0.23281,0.0947 0.23281,0.21136"
           fill="#14aa50"
           id="path882" />
        <path
           d="m 10.045,292.18 c 0,0.1167 -0.1043,0.21136 -0.23281,0.21136 -0.12851,0 -0.23281,-0.0946 -0.23281,-0.21136 0,-0.11669 0.1043,-0.21136 0.23281,-0.21136 0.12851,0 0.23281,0.0947 0.23281,0.21136"
           fill="#14aa50"
           id="path884" />
        <path
           d="m 7.1737,292.25 c -0.0776,0 -0.0776,-0.0814 -0.0776,-0.1409 0,-0.56504 0.46562,-1.2682 1.3969,-1.2682 0.93062,0 1.3969,0.70284 1.3969,1.2682 0,0.0595 0,0.1409 -0.0776,0.1409 -0.0776,0 -0.0776,-0.0814 -0.0776,-0.1409 0,-0.4464 -0.46562,-1.1272 -1.2417,-1.1272 -0.77603,0 -1.2417,0.68085 -1.2417,1.1272 0,0.0595 0,0.1409 -0.07698,0.1409"
           fill="#14d264"
           id="path886" />
      </g>
      <circle
         cx="5.3171"
         cy="283.10999"
         r="0.66137999"
         fill="#ffffff"
         fill-rule="evenodd"
         stroke-width="0.31275"
         id="circle890" />
      <circle
         cx="11.932"
         cy="283.10999"
         r="0.66137999"
         fill="#ffffff"
         fill-rule="evenodd"
         stroke-width="0.31275"
         id="circle892" />
    </g>
  </g>
</svg>
