<?xml version="1.0" encoding="UTF-8" standalone="no"?>
<svg
   xmlns:dc="http://purl.org/dc/elements/1.1/"
   xmlns:cc="http://creativecommons.org/ns#"
   xmlns:rdf="http://www.w3.org/1999/02/22-rdf-syntax-ns#"
   xmlns:svg="http://www.w3.org/2000/svg"
   xmlns="http://www.w3.org/2000/svg"
   xmlns:xlink="http://www.w3.org/1999/xlink"
   xmlns:sodipodi="http://sodipodi.sourceforge.net/DTD/sodipodi-0.dtd"
   xmlns:inkscape="http://www.inkscape.org/namespaces/inkscape"
   width="64"
   height="64"
   version="1.1"
   viewBox="0 0 16.933 16.933"
   id="svg31"
   sodipodi:docname="softwarecenter-debian.svg"
   inkscape:version="1.0 (4035a4fb49, 2020-05-01)">
  <metadata
     id="metadata35">
    <rdf:RDF>
      <cc:Work
         rdf:about="">
        <dc:format>image/svg+xml</dc:format>
        <dc:type
           rdf:resource="http://purl.org/dc/dcmitype/StillImage" />
        <dc:title></dc:title>
      </cc:Work>
    </rdf:RDF>
  </metadata>
  <sodipodi:namedview
     inkscape:document-rotation="0"
     pagecolor="#ffffff"
     bordercolor="#666666"
     borderopacity="1"
     objecttolerance="10"
     gridtolerance="10"
     guidetolerance="10"
     inkscape:pageopacity="0"
     inkscape:pageshadow="2"
     inkscape:window-width="1920"
     inkscape:window-height="932"
     id="namedview33"
     showgrid="false"
     inkscape:zoom="2.9804688"
     inkscape:cx="63.959991"
     inkscape:cy="18.611653"
     inkscape:window-x="0"
     inkscape:window-y="36"
     inkscape:window-maximized="1"
     inkscape:current-layer="svg31" />
  <defs
     id="defs12">
    <linearGradient
       id="linearGradient916"
       inkscape:collect="always">
      <stop
         id="stop912"
         offset="0"
         style="stop-color:#ff3c69;stop-opacity:1" />
      <stop
         id="stop914"
         offset="1"
         style="stop-color:#ff462d;stop-opacity:1" />
    </linearGradient>
    <linearGradient
       id="linearGradient1029"
       x1="8.6487"
       x2="8.6487"
       y1="1.483"
       y2="15.436"
       gradientUnits="userSpaceOnUse"
       gradientTransform="translate(-25.358626)">
      <stop
         stop-color="#17b7f1"
         offset="0"
         id="stop2" />
      <stop
         stop-color="#1763e1"
         offset="1"
         id="stop4" />
    </linearGradient>
    <linearGradient
       id="h"
       x1="499.95"
       x2="499.95"
       y1="2.0078"
       y2="1026"
       gradientTransform="matrix(0.99609,0,0,0.99609,2,2)"
       gradientUnits="userSpaceOnUse">
      <stop
         stop-color="#fc5fb5"
         offset="0"
         id="stop7" />
      <stop
         stop-color="#ff1d52"
         offset="1"
         id="stop9" />
    </linearGradient>
    <linearGradient
       id="linearGradient1029-3"
       x1="8.6487"
       x2="8.6487"
       y1="1.483"
       y2="15.436"
       gradientUnits="userSpaceOnUse"
       gradientTransform="translate(22.934197)">
      <stop
         stop-color="#17b7f1"
         offset="0"
         id="stop2-6" />
      <stop
         stop-color="#1763e1"
         offset="1"
         id="stop4-7" />
    </linearGradient>
    <linearGradient
       id="h-5"
       x1="499.95"
       x2="499.95"
       y1="2.0078"
       y2="1026"
       gradientTransform="matrix(0.99609,0,0,0.99609,2,2)"
       gradientUnits="userSpaceOnUse">
      <stop
         stop-color="#fff"
         offset="0"
         id="stop7-3" />
      <stop
         stop-color="#d7d7d7"
         offset="1"
         id="stop9-5" />
    </linearGradient>
    <radialGradient
       id="i"
       cx="512.01"
       cy="512.01"
       r="470.16"
       gradientTransform="matrix(0.97625,0,0,0.97625,12.152,12.141)"
       gradientUnits="userSpaceOnUse">
      <stop
         stop-opacity="0"
         offset="0"
         id="stop12" />
      <stop
         stop-opacity=".52593"
         offset="1"
         id="stop14" />
    </radialGradient>
    <filter
       id="g"
       x="-.048"
       y="-.048"
       width="1.096"
       height="1.096"
       color-interpolation-filters="sRGB">
      <feGaussianBlur
         stdDeviation="6.174"
         id="feGaussianBlur17" />
    </filter>
    <linearGradient
       id="f"
       x1="2331.3"
       x2="2331.3"
       y1="435.51"
       y2="45.726"
       gradientTransform="matrix(2.6682,0,0,2.6682,-5700.6,-128.41)"
       gradientUnits="userSpaceOnUse">
      <stop
         stop-color="#807c76"
         offset=".057692"
         id="stop20" />
      <stop
         stop-color="#d4d7d0"
         offset=".38462"
         id="stop22" />
      <stop
         stop-color="#bdbfba"
         offset=".55769"
         id="stop24" />
      <stop
         stop-color="#acb3ac"
         offset=".63462"
         id="stop26" />
      <stop
         stop-color="#dadfda"
         offset=".75"
         id="stop28" />
      <stop
         stop-color="#c2c7c1"
         offset=".86274"
         id="stop30" />
      <stop
         stop-color="#7f7a75"
         offset=".94118"
         id="stop32" />
    </linearGradient>
    <linearGradient
       gradientUnits="userSpaceOnUse"
       gradientTransform="matrix(0.53033,0,0,0.53033,11.536,352.06)"
       y2="-100.78"
       y1="-137.82"
       x2="-6.1472"
       x1="-6.1472"
       id="b">
      <stop
         id="stop888"
         offset="0"
         stop-color="#14dc78" />
      <stop
         id="stop890"
         offset="1"
         stop-color="#14a03c" />
    </linearGradient>
    <linearGradient
       gradientUnits="userSpaceOnUse"
       gradientTransform="matrix(0.53033,0,0,0.53033,11.537,352.06)"
       y2="-126.7"
       y1="-126.08"
       x2="-6.1738"
       x1="-6.1738"
       id="a">
      <stop
         id="stop893"
         offset="0"
         stop-color="#14e650" />
      <stop
         id="stop895"
         offset="1"
         stop-color="#148232" />
    </linearGradient>
    <linearGradient
       gradientUnits="userSpaceOnUse"
       gradientTransform="matrix(0.086563,0,0,0.086563,-19.285,288.52)"
       y2="44"
       y1="268"
       x2="200"
       x1="200"
       id="c">
      <stop
         id="stop969"
         offset="0"
         stop-color="#e6e6e6" />
      <stop
         id="stop971"
         offset="1"
         stop-color="#d3d3d3" />
    </linearGradient>
    <linearGradient
       gradientUnits="userSpaceOnUse"
       gradientTransform="translate(-64,-68)"
       y2="212"
       y1="100"
       x2="152"
       x1="152"
       id="d">
      <stop
         id="stop974"
         offset="0"
         stop-opacity="0" />
      <stop
         id="stop976"
         offset=".5" />
      <stop
         id="stop978"
         offset="1"
         stop-opacity="0" />
    </linearGradient>
    <filter
       color-interpolation-filters="sRGB"
       height="1.048"
       width="1.048"
       y="-.024"
       x="-.024"
       id="a-3">
      <feGaussianBlur
         id="feGaussianBlur981"
         stdDeviation="1.5000091" />
    </filter>
    <linearGradient
       gradientUnits="userSpaceOnUse"
       y2="236"
       y1="124"
       x2="152"
       x1="152"
       id="b-6">
      <stop
         id="stop984"
         offset="0" />
      <stop
         id="stop986"
         offset="1"
         stop-opacity="0" />
    </linearGradient>
    <clipPath
       id="f-7">
      <path
         id="path989"
         fill="#5d5d5d"
         color="#000000"
         d="m152 68c-48.601 0-88 39.399-88 88s39.399 88 88 88 88-39.399 88-88-39.399-88-88-88z" />
    </clipPath>
    <filter
       color-interpolation-filters="sRGB"
       height="1.12"
       width="1.12"
       y="-.06"
       x="-.06"
       id="e">
      <feGaussianBlur
         id="feGaussianBlur992"
         stdDeviation="4.4" />
    </filter>
    <radialGradient
       gradientUnits="userSpaceOnUse"
       gradientTransform="matrix(0.97625,0,0,0.97625,12.152,12.141)"
       r="470.16"
       cy="512.01"
       cx="512.01"
       id="i-3">
      <stop
         id="stop1087"
         offset="0"
         stop-opacity="0" />
      <stop
         id="stop1089"
         offset="1"
         stop-opacity=".52593" />
    </radialGradient>
    <filter
       color-interpolation-filters="sRGB"
       height="1.096"
       width="1.096"
       y="-.048"
       x="-.048"
       id="g-5">
      <feGaussianBlur
         id="feGaussianBlur1092"
         stdDeviation="6.174" />
    </filter>
    <linearGradient
       gradientUnits="userSpaceOnUse"
       gradientTransform="matrix(0.53033,0,0,0.53033,31.787279,71.77817)"
       y2="-98.292"
       y1="-140.25"
       x2="-6.1472"
       x1="-6.1472"
       id="a-6">
      <stop
         id="stop1076"
         offset="0"
         stop-color="#ff3c69" />
      <stop
         id="stop1078"
         offset="1"
         stop-color="#ff462b" />
    </linearGradient>
    <linearGradient
       gradientTransform="translate(13.161313,-2.3107891)"
       gradientUnits="userSpaceOnUse"
       y2="20.590034"
       x2="-1.1258641"
       y1="8.6920261"
       x1="-1.1258641"
       id="linearGradient918"
       xlink:href="#linearGradient916"
       inkscape:collect="always" />
  </defs>
  <g
     transform="translate(-0.02699976,-280.19849)"
     id="g936">
    <g
       id="g912">
      <circle
         cx="-330.35001"
         cy="-48.312"
         r="0"
         fill="#5e4aa6"
         stroke-width="0.26458"
         id="circle900" />
      <circle
         cx="8.4934998"
         cy="288.79999"
         r="7.9375"
         opacity="0.2"
         stroke-width="0.14032"
         id="circle902" />
      <circle
         style="fill:url(#b)"
         cx="8.4934998"
         cy="288.53"
         r="7.9375"
         fill="url(#b)"
         stroke-width="0.14032"
         id="circle904" />
      <path
         style="fill:url(#a)"
         d="m 1.4351,284.9 c -0.04528,0.0893 -0.0899,0.17936 -0.13178,0.27027 h 14.38 C 15.64333,285.07937 15.59543,284.9893 15.55206,284.9 Z"
         fill="url(#a)"
         stroke-width="0.14032"
         id="path906" />
      <circle
         cx="5.3171"
         cy="283.16"
         r="0.66137999"
         fill="#146432"
         fill-rule="evenodd"
         opacity="0.5"
         stroke-width="0.31275"
         id="circle908" />
      <circle
         cx="11.932"
         cy="283.16"
         r="0.66137999"
         fill="#146432"
         fill-rule="evenodd"
         opacity="0.5"
         stroke-width="0.31275"
         id="circle910" />
    </g>
    <path
       d="m 5.3793,283.69 c 0,0 0.00178,4.2022 3.3892,4.2022 3.1469,0.0161 3.1469,-4.2022 3.1469,-4.2022"
       fill="none"
       opacity="0.5"
       stroke="#146432"
       stroke-width="0.25999px"
       id="path914" />
    <path
       d="m 5.3276,283.18 c 0,0 0.0018,4.2995 3.4305,4.2995 3.1853,0.0165 3.1853,-4.2995 3.1853,-4.2995"
       fill="none"
       stroke="#ffffff"
       stroke-width="0.26458px"
       id="path916" />
    <g
       id="g934">
      <circle
         cx="-39.433998"
         cy="286.51001"
         r="0"
         fill="#5e4aa6"
         fill-rule="evenodd"
         stroke-width="0.26458"
         id="ellipse918" />
      <g
         stroke-width="0.14788"
         id="g928">
        <path
           d="m 6.4877,291.55 c -0.090957,-0.005 -0.17771,0.0914 -0.16545,0.1547 0.15676,0.94127 0.16499,1.8202 0,2.7901 -0.011497,0.0638 0.074499,0.15796 0.16545,0.15472 h 4.0099 c 0.09281,0.004 0.17818,-0.0909 0.16731,-0.15472 -0.16498,-0.96929 -0.16731,-1.8598 0,-2.7901 0.01215,-0.0638 -0.07449,-0.15964 -0.16731,-0.1547 -1.3562,0.0666 -2.6882,0.0556 -4.0099,0"
           fill="#149646"
           id="path920" />
        <path
           d="m 7.4065,292.18 c 0,0.1167 -0.1043,0.21136 -0.23281,0.21136 -0.12851,0 -0.23281,-0.0946 -0.23281,-0.21136 0,-0.11669 0.1043,-0.21136 0.23281,-0.21136 0.12851,0 0.23281,0.0947 0.23281,0.21136"
           fill="#14aa50"
           id="path922" />
        <path
           d="m 10.045,292.18 c 0,0.1167 -0.1043,0.21136 -0.23281,0.21136 -0.12851,0 -0.23281,-0.0946 -0.23281,-0.21136 0,-0.11669 0.1043,-0.21136 0.23281,-0.21136 0.12851,0 0.23281,0.0947 0.23281,0.21136"
           fill="#14aa50"
           id="path924" />
        <path
           d="m 7.1737,292.25 c -0.0776,0 -0.0776,-0.0814 -0.0776,-0.1409 0,-0.56504 0.46562,-1.2682 1.3969,-1.2682 0.93062,0 1.3969,0.70284 1.3969,1.2682 0,0.0595 0,0.1409 -0.0776,0.1409 -0.0776,0 -0.0776,-0.0814 -0.0776,-0.1409 0,-0.4464 -0.46562,-1.1272 -1.2417,-1.1272 -0.77603,0 -1.2417,0.68085 -1.2417,1.1272 0,0.0595 0,0.1409 -0.07698,0.1409"
           fill="#14d264"
           id="path926" />
      </g>
      <circle
         cx="5.3171"
         cy="283.10999"
         r="0.66137999"
         fill="#ffffff"
         fill-rule="evenodd"
         stroke-width="0.31275"
         id="circle930" />
      <circle
         cx="11.932"
         cy="283.10999"
         r="0.66137999"
         fill="#ffffff"
         fill-rule="evenodd"
         stroke-width="0.31275"
         id="circle932" />
    </g>
  </g>
  <circle
     cx="-307.87344"
     cy="-327.46948"
     r="0"
     fill="#5e4aa6"
     stroke-width="0.26458"
     id="circle997" />
  <circle
     cx="-16.957432"
     cy="7.35253"
     r="0"
     fill="#5e4aa6"
     fill-rule="evenodd"
     stroke-width="0.26458"
     id="circle1003" />
  <circle
     cx="12.17075"
     cy="12.305748"
     r="4.2332501"
     opacity="0.2"
     stroke-width="0.0748359"
     id="circle999" />
  <circle
     r="4.2332501"
     cy="12.035759"
     cx="12.17075"
     id="path910"
     style="fill:url(#linearGradient918);fill-opacity:1;stroke-width:0.343901;stroke-linecap:round" />
  <path
     d="m 12.121161,9.2275159 c -0.36675,0.013184 -0.7016,0.18794 -1.0057,0.3851 -0.18277,0.09483 -0.33076,0.24652 -0.49415,0.4109101 -0.1721,0.22092 -0.25922,0.49727 -0.43977,0.70854 -0.11222,0.2887 -0.2038,0.58741 -0.17145,0.90216 -0.01166,0.47799 -0.0038,0.96814 0.17773,1.4171 0.30091,0.80262 0.94648,1.5012 1.7619,1.7398 0.13301,0.04063 0.5211,0.07125 0.49973,0.04016 -0.26561,-0.01 -0.59788,-0.17013 -0.71996,-0.33562 0.04922,0.07947 -0.285,-0.06149 -0.26206,-0.18072 -0.19321,-0.13635 -0.36569,-0.2858 -0.49066,-0.48765 -0.15325,-0.17778 -0.18389,-0.3217 -0.24045,-0.48479 -0.11054,-0.13434 -0.0983,-0.23702 -0.01743,-0.20798 -0.11528,-0.21463 -0.38227,-0.31282 -0.37078,-0.58231 -0.01613,-0.25466 -0.11521,-0.49147 -0.06273,-0.75444 0.03164,-0.22425 0.01553,-0.46382 0.13312,-0.66334 0.0828,-0.2762 0.21642,-0.51956 0.44186,-0.70282 0.07785,-0.12669 0.34537,-0.16608 0.37636,-0.25315 -0.11426,3.66e-4 0.1736,-0.17297 0.26972,-0.16781 0.08492,-0.02888 0.21321,-0.05519 0.07806,-0.05092 0.10747,-0.07665 0.47216,-0.25574 0.48368,-0.17068 -0.16964,0.05558 0.20721,-0.06697 0.29412,-0.04447 0.42457,-0.01346 0.8549,0.1628 1.1249,0.5070401 0.34372,0.39145 0.44219,0.96058 0.3436,1.4673 0.11033,-0.08549 -0.06371,0.31864 -0.13731,0.38796 -0.04763,0.14592 -0.33442,0.44128 -0.38822,0.35786 0.0433,-0.02767 -0.20023,0.17166 -0.30109,0.17498 -0.45571,0.163 -0.96998,-0.13448 -1.1326,-0.58664 -0.05829,-0.24126 -0.12623,-0.40581 -0.03904,-0.64972 0.15653,-0.50843 0.84257,-0.72151 1.2413,-0.3772 -0.27259,-0.37148 -0.88075,-0.37364 -1.1507,0.0022 -0.17688,0.22092 -0.31555,0.49499 -0.28157,0.79171 0.0061,0.39145 0.30268,0.6871 0.58892,0.90359 -0.08722,0.15325 -0.4744,-0.39549 -0.24324,-0.07673 0.12966,0.19896 -0.40786,-0.4336 -0.16936,-0.11044 0.26657,0.29403 0.67858,0.51108 1.074,0.41451 -0.20589,-0.01971 -0.46456,0.01318 -0.62725,-0.1671 0.15763,-0.01221 0.51475,0.1289 0.74783,0.03586 0.29981,-0.05779 0.56983,-0.23162 0.76876,-0.46687 0.08461,-0.03358 -0.01745,0.15972 0.04809,-0.0208 -0.0053,-0.13775 0.10787,-0.19496 0.138,-0.15705 0.03556,-0.13051 0.16612,-0.49848 0.17494,-0.4604 -1.57e-4,0.11935 -0.031,0.21011 0.0069,0.04374 -0.0273,-0.10143 0.01692,-0.24482 0.03623,-0.08318 0.07214,-0.25412 0.04138,-0.4867 -0.04112,-0.7236 0.14843,0.13778 0.0075,-0.2563 -0.07458,-0.30192 0.03589,-0.22045 0.1853,-0.0017 0.2279,0.15132 -0.02397,-0.129 -0.0036,-0.24651 -0.02927,-0.34495 -0.15574,-0.37739 -0.44616,-0.6916901 -0.79245,-0.8914001 0.15272,0.21035 -0.16375,-0.1747 -0.26833,-0.06741 -0.26165,-0.04716 -0.49745,-0.24111 -0.76528,-0.18 -0.07686,0.046546 -0.34706,0.01521 -0.12197,-0.021511 -0.09123,-0.018472 -0.47105,0.042439 -0.19933,-0.068127 z m 2.1766,1.5734001 c 0.0015,0.008 0.0031,0.01617 0.0049,0.02438 -0.0017,-0.0082 -0.0024,-0.01564 -0.0049,-0.02438 z m 0.0049,0.02438 c 0.0039,0.01957 0.01395,0.0436 0.01249,0.05809 0.0262,0.1375 0.09495,0.29732 0.03415,0.07028 -0.02324,-0.04397 -0.03704,-0.0865 -0.04669,-0.12837 z m -2.0456,-1.5648001 c 0.04793,0.00874 0.10469,0.015321 0.09617,0.027964 0.05424,-0.012629 0.06528,-0.022774 -0.09617,-0.027964 z m -2.1445,1.1374001 c -0.07632,0.17006 0.05605,0.13088 0.03554,0.01506 -0.01096,0.008 -0.03822,0.0049 -0.03554,-0.01506 z m -0.09827,0.42956 c -0.09731,0.21192 -0.01445,0.21198 0,0 z m 3.243,0.62608 c -0.09727,0.14138 0.09254,0.17796 0,0 z m -0.05854,0.34853 c -0.0058,0.03686 -0.01972,0.0716 -0.03346,0.10614 0.0235,-0.03102 0.04057,-0.06731 0.03346,-0.10614 z m -0.03346,0.10614 c -0.06116,0.08076 -0.17165,0.11245 -0.05367,-0.03801 -0.12022,0.02991 -0.03003,0.29246 0.04252,0.07315 0.0053,-0.0111 0.0067,-0.02369 0.0111,-0.03514 z m -0.33733,0.25387 c -0.1146,0.0074 -0.36436,0.01971 -0.11291,0.07888 0.05129,0.0051 0.07395,-0.05704 0.11291,-0.07888 z m -1.15,0.01291 c 0.03406,0.14478 0.14508,0.23981 0.0237,0.04805 z m -0.0711,0.12909 c -0.06677,0.1219 0.26105,0.39655 0.09269,0.16781 -0.03307,-0.05454 -0.06416,-0.11062 -0.09269,-0.16781 z"
     fill="#ffffff"
     stroke-width="0.31989"
     id="path29" />
  <circle
     cx="-310.09872"
     cy="-328.59482"
     r="0"
     fill="#5e4aa6"
     stroke-width="0.26458"
     id="circle1103" />
</svg>
