<?xml version="1.0" encoding="UTF-8"?>
<svg width="64" height="64" version="1.1" viewBox="0 0 16.933 16.933" xmlns="http://www.w3.org/2000/svg" xmlns:cc="http://creativecommons.org/ns#" xmlns:dc="http://purl.org/dc/elements/1.1/" xmlns:rdf="http://www.w3.org/1999/02/22-rdf-syntax-ns#" xmlns:xlink="http://www.w3.org/1999/xlink">
 <metadata>
  <rdf:RDF>
   <cc:Work rdf:about="">
    <dc:format>image/svg+xml</dc:format>
    <dc:type rdf:resource="http://purl.org/dc/dcmitype/StillImage"/>
    <dc:title/>
   </cc:Work>
  </rdf:RDF>
 </metadata>
 <defs>
  <linearGradient id="linearGradient949" x1="8.6182" x2="8.4939" y1="14.023" y2="5.2777" gradientUnits="userSpaceOnUse">
   <stop stop-color="#ff0a1e" offset="0"/>
   <stop stop-color="#ff4628" offset="1"/>
  </linearGradient>
  <linearGradient id="linearGradient860-3" x1="8.4607" x2="8.4607" y1=".40921" y2="4.9929" gradientTransform="translate(26.251 6.8459)" gradientUnits="userSpaceOnUse" xlink:href="#linearGradient949"/>
  <linearGradient id="linearGradient849" x1="8.6182" x2="8.4939" y1="14.023" y2="5.2777" gradientTransform="matrix(1.2097 0 0 1.2097 24.444 5.6972)" gradientUnits="userSpaceOnUse" xlink:href="#linearGradient949"/>
 </defs>
 <g transform="translate(-26.251 -6.8459)">
  <circle cx="34.745" cy="15.576" r="7.9375" opacity=".2" stroke-width=".14032"/>
  <circle cx="34.709" cy="15.277" r="7.9375" fill="#fafafa" stroke-width=".14032"/>
  <g transform="matrix(1.0179 0 0 .82285 26.067 -238.83)" opacity=".2" stroke-width=".53033">
   <path transform="matrix(.26458 0 0 .26458 0 280.07)" d="m13.529 83.404a30 30 0 0 0-5.3477 5.5098l20.162 11.467 3.7598-6.4141z" opacity="1"/>
   <path transform="matrix(.26458 0 0 .26458 0 280.07)" d="m50.648 83.42-18.549 10.547 3.7598 6.4141 20.17-11.471a30 30 0 0 0-5.3809-5.4902z" opacity="1"/>
   <path transform="matrix(.26458 0 0 .26458 0 280.07)" d="m32.102 76.959a30 30 0 0 0-18.578 6.4492l18.58 10.557 18.551-10.539a30 30 0 0 0-18.553-6.4668z" opacity="1"/>
  </g>
  <path d="m34.718 12.247-0.99892 0.87558 0.39694 1.313-0.99767 6.9305 1.7503 1.459 1.7702-1.459-1.3315-6.9305 0.39757-1.313z" fill="#ff0a1e" opacity=".5" stroke-width="1.2097"/>
  <path d="m34.718 12.082-0.99892 0.87558 0.39694 1.313-0.99767 6.9305 1.7503 1.459 1.7702-1.459-1.3315-6.9305 0.39757-1.313z" fill="url(#linearGradient849)" stroke-width="1.2097"/>
  <g stroke-width=".14031">
   <path d="m29.799 9.0439a7.9374 7.9374 0 0 0-1.4149 1.4578l5.3345 3.0339 0.99477-1.697z" fill="#fff"/>
   <path d="m39.619 9.0482-4.9077 2.7905 0.99477 1.697 5.3366-3.035a7.9374 7.9374 0 0 0-1.4237-1.4526z" fill="#fff"/>
   <path d="m34.713 7.3391a7.9374 7.9374 0 0 0-4.9154 1.7063l4.9159 2.7932 4.9082-2.7884a7.9374 7.9374 0 0 0-4.9088-1.711z" fill="url(#linearGradient860-3)"/>
  </g>
 </g>
 <circle cx="-330.35" cy="-328.38" r="0" fill="#5e4aa6" stroke-width=".26458"/>
</svg>
