<?xml version="1.0" encoding="UTF-8"?>
<svg width="64" height="64" version="1.1" viewBox="0 0 16.933 16.933" xmlns="http://www.w3.org/2000/svg" xmlns:cc="http://creativecommons.org/ns#" xmlns:dc="http://purl.org/dc/elements/1.1/" xmlns:rdf="http://www.w3.org/1999/02/22-rdf-syntax-ns#" xmlns:xlink="http://www.w3.org/1999/xlink">
 <metadata>
  <rdf:RDF>
   <cc:Work rdf:about="">
    <dc:format>image/svg+xml</dc:format>
    <dc:type rdf:resource="http://purl.org/dc/dcmitype/StillImage"/>
    <dc:title/>
   </cc:Work>
  </rdf:RDF>
 </metadata>
 <defs>
  <linearGradient id="linearGradient949" x1="8.6182" x2="8.4939" y1="14.023" y2="5.2777" gradientUnits="userSpaceOnUse">
   <stop stop-color="#ff0a1e" offset="0"/>
   <stop stop-color="#ff4628" offset="1"/>
  </linearGradient>
  <linearGradient id="linearGradient860" x1="8.4607" x2="8.4607" y1=".40921" y2="4.9929" gradientUnits="userSpaceOnUse" xlink:href="#linearGradient949"/>
 </defs>
 <circle cx="-330.35" cy="-328.38" r="0" fill="#5e4aa6" stroke-width=".26458"/>
 <circle cx="8.4935" cy="8.73" r="7.9375" opacity=".2" stroke-width=".14032"/>
 <circle cx="8.4584" cy="8.4308" r="7.9375" fill="#fafafa" stroke-width=".14032"/>
 <g transform="translate(-.031595 -.036942)">
  <g transform="matrix(1.0179 0 0 .82285 -.15225 -245.64)" opacity=".2" stroke-width=".53033">
   <path transform="matrix(.26458 0 0 .26458 0 280.07)" d="m13.529 83.404a30 30 0 0 0-5.3477 5.5098l20.162 11.467 3.7598-6.4141z" opacity="1"/>
   <path transform="matrix(.26458 0 0 .26458 0 280.07)" d="m50.648 83.42-18.549 10.547 3.7598 6.4141 20.17-11.471a30 30 0 0 0-5.3809-5.4902z" opacity="1"/>
   <path transform="matrix(.26458 0 0 .26458 0 280.07)" d="m32.102 76.959a30 30 0 0 0-18.578 6.4492l18.58 10.557 18.551-10.539a30 30 0 0 0-18.553-6.4668z" opacity="1"/>
  </g>
  <path d="m8.4936 5.4145-0.82577 0.72381 0.32814 1.0854-0.82474 5.7292 1.4469 1.2061 1.4634-1.2061-1.1007-5.7292 0.32866-1.0854z" fill="#ff0a1e" opacity=".5"/>
  <path d="m8.4936 5.2781-0.82577 0.72381 0.32814 1.0854-0.82474 5.7292 1.4469 1.2061 1.4634-1.2061-1.1007-5.7292 0.32866-1.0854z" fill="url(#linearGradient949)"/>
  <path d="m3.5795 2.235a7.9374 7.9374 0 0 0-1.4149 1.4578l5.3345 3.0339 0.99477-1.697z" fill="#fff" stroke-width=".14031"/>
  <path d="m13.4 2.2393-4.9077 2.7905 0.99477 1.697 5.3366-3.035a7.9374 7.9374 0 0 0-1.4237-1.4526z" fill="#fff" stroke-width=".14031"/>
 </g>
 <path d="m8.4617 0.49327a7.9374 7.9374 0 0 0-4.9154 1.7063l4.9159 2.7932 4.9082-2.7884a7.9374 7.9374 0 0 0-4.9088-1.711z" fill="url(#linearGradient860)" stroke-width=".14031"/>
</svg>
