<svg width="64" height="64" version="1.1" viewBox="0 0 16.933 16.933" xmlns="http://www.w3.org/2000/svg" xmlns:xlink="http://www.w3.org/1999/xlink">
 <defs>
  <linearGradient id="a" x1="-6.1472" x2="-6.1472" y1="-137.82" y2="-100.78" gradientTransform="matrix(.53033 0 0 .53033 11.536 352.06)" gradientUnits="userSpaceOnUse">
   <stop stop-color="#14dc78" offset="0"/>
   <stop stop-color="#14a03c" offset="1"/>
  </linearGradient>
 </defs>
 <g transform="translate(0 -280.07)">
  <circle cx="-330.35" cy="-48.312" r="0" fill="#5e4aa6" stroke-width=".26458"/>
  <circle cx="8.4935" cy="288.8" r="7.9375" opacity=".2" stroke-width=".14032"/>
  <circle cx="8.4935" cy="288.53" r="7.9375" fill="url(#a)" stroke-width=".14032"/>
  <ellipse cx="-39.434" cy="286.51" r=".90502" fill="#5e4aa6" fill-rule="evenodd" stroke-width=".26458"/>
  <g transform="translate(0 .16536)" fill="#005028" fill-rule="evenodd" opacity=".5">
   <g transform="matrix(1.7268 0 0 1.7268 49.106 -236.66)">
    <path d="m-24.336 301.65a2.1514 1.9853 0 0 1 2.1514 1.9853 2.1514 1.9853 0 0 1-2.1514 1.9853 2.1514 1.9853 0 0 1-0.91703-0.19129c-0.37606 0.32014-0.7755 0.35092-0.7755 0.35092 0.21543-0.24592 0.35857-0.57777 0.3619-0.5855a2.1514 1.9853 0 0 1-0.82074-1.5594 2.1514 1.9853 0 0 1 2.1514-1.9853z" opacity="1" stroke-width=".34445"/>
    <circle cx="-25.13" cy="302.97" r=".33088" opacity="1" stroke-width=".33088"/>
    <circle cx="-23.587" cy="302.97" r=".33088" opacity="1" stroke-width=".33088"/>
   </g>
   <g transform="matrix(1.7268 0 0 1.7268 49.106 -243.55)">
    <path d="m-22.27 307.32a1.7203 1.5875 0 0 0-1.7203 1.5875 1.7203 1.5875 0 0 0 1.7203 1.5875 1.7203 1.5875 0 0 0 0.73329-0.15296c0.30071 0.25599 0.62012 0.2806 0.62012 0.2806-0.17227-0.19664-0.28673-0.462-0.28939-0.46818a1.7203 1.5875 0 0 0 0.65629-1.247 1.7203 1.5875 0 0 0-1.7203-1.5875z" opacity="1" stroke-width=".27543"/>
    <circle cx="-22.905" cy="308.38" r=".26458" opacity="1" stroke-width=".26458"/>
    <circle cx="-21.671" cy="308.38" r=".26458" opacity="1" stroke-width=".26458"/>
   </g>
  </g>
  <g fill-rule="evenodd">
   <g transform="matrix(1.7268 0 0 1.7268 49.106 -236.66)">
    <path d="m-24.336 301.65a2.1514 1.9853 0 0 1 2.1514 1.9853 2.1514 1.9853 0 0 1-2.1514 1.9853 2.1514 1.9853 0 0 1-0.91703-0.19129c-0.37606 0.32014-0.7755 0.35092-0.7755 0.35092 0.21543-0.24592 0.35857-0.57777 0.3619-0.5855a2.1514 1.9853 0 0 1-0.82074-1.5594 2.1514 1.9853 0 0 1 2.1514-1.9853z" fill="#b4ea6e" stroke-width=".34445"/>
    <circle cx="-25.13" cy="302.97" r=".33088" stroke-width=".33088"/>
    <circle cx="-23.587" cy="302.97" r=".33088" stroke-width=".33088"/>
   </g>
   <g transform="matrix(1.7268 0 0 1.7268 49.106 -243.55)">
    <path d="m-22.27 307.32a1.7203 1.5875 0 0 0-1.7203 1.5875 1.7203 1.5875 0 0 0 1.7203 1.5875 1.7203 1.5875 0 0 0 0.73329-0.15296c0.30071 0.25599 0.62012 0.2806 0.62012 0.2806-0.17227-0.19664-0.28673-0.462-0.28939-0.46818a1.7203 1.5875 0 0 0 0.65629-1.247 1.7203 1.5875 0 0 0-1.7203-1.5875z" fill="#fff" stroke-width=".27543"/>
    <circle cx="-22.905" cy="308.38" r=".26458" stroke-width=".26458"/>
    <circle cx="-21.671" cy="308.38" r=".26458" stroke-width=".26458"/>
   </g>
  </g>
 </g>
</svg>
