<svg width="64" height="64" version="1.1" viewBox="0 0 16.933 16.933" xmlns="http://www.w3.org/2000/svg" xmlns:xlink="http://www.w3.org/1999/xlink">
 <defs>
  <linearGradient id="d" x1="399.57" x2="399.57" y1="545.8" y2="517.8" gradientTransform="matrix(.56696 0 0 .56696 -218.64 -293.03)" gradientUnits="userSpaceOnUse">
   <stop stop-color="#3889e9" offset="0"/>
   <stop stop-color="#5ea5fb" offset="1"/>
  </linearGradient>
  <linearGradient id="a" x1="8.4665" x2="8.4665" y1=".5289" y2="16.404" gradientUnits="userSpaceOnUse">
   <stop stop-color="#54ba54" offset="0"/>
   <stop stop-color="#43a743" offset="1"/>
  </linearGradient>
 </defs>
 <circle cx="8.4665" cy="8.7308" r="7.9376" opacity=".25" stroke-width=".41578"/>
 <circle cx="8.4665" cy="8.4665" r="7.9376" fill="url(#a)" stroke-width=".41578"/>
 <g transform="translate(0 -.8841)" fill="none" stroke-linecap="round" stroke-linejoin="round" stroke-width=".9399">
  <path d="m8.4585 9.6338h-2.35s-1.41 0-1.41-1.41 1.41-1.41 1.41-1.41h5.64m-3.283 2.82h2.35s1.41 0 1.41 1.41-1.41 1.41-1.41 1.41h-5.64" opacity=".15" stroke="#000"/>
  <path d="m8.463 9.3506h-2.35s-1.41 0-1.41-1.41 1.41-1.41 1.41-1.41h5.64m-3.283 2.82h2.35s1.41 0 1.41 1.41-1.41 1.41-1.41 1.41h-5.64" stroke="#fff"/>
 </g>
 <circle cx="8.4665" cy="8.4665" r="7.9376" fill-opacity="0" stroke-width=".41578"/>
 <circle cx="8.4665" cy="8.4665" r="0" fill="url(#d)" stroke-width=".41578"/>
</svg>
