<svg width="64" height="64" version="1.1" viewBox="0 0 16.933 16.933" xmlns="http://www.w3.org/2000/svg">
 <defs>
  <linearGradient id="a" x1="8.4667" x2="8.4667" y1="5.7848" y2="12.376" gradientTransform="translate(0 -.1767)" gradientUnits="userSpaceOnUse">
   <stop stop-color="#f0faff" offset="0"/>
   <stop stop-color="#c5e4fc" offset="1"/>
  </linearGradient>
  <linearGradient id="d" x1="399.99" x2="399.99" y1="545.14" y2="518.14" gradientTransform="matrix(2.1429,0,0,2.1429,-826.36,-1107.5)" gradientUnits="userSpaceOnUse">
   <stop stop-color="#6abaf6" offset="0"/>
   <stop stop-color="#4d7df5" offset="1"/>
  </linearGradient>
  <linearGradient id="c" x1="399.57" x2="399.57" y1="545.8" y2="517.8" gradientTransform="matrix(2.1429,0,0,2.1429,-826.36,-1107.5)" gradientUnits="userSpaceOnUse">
   <stop stop-color="#3889e9" offset="0"/>
   <stop stop-color="#5ea5fb" offset="1"/>
  </linearGradient>
 </defs>
 <g transform="matrix(.26458 0 0 .26458 -.0052869 .25256)" opacity=".25" stroke-width="1.5715">
  <circle cx="32.02" cy="32.044" r="30.001"/>
  <circle cx="32.02" cy="32.044" r="30.001" fill-opacity="0"/>
  <circle cx="32.02" cy="32.044" r="0"/>
 </g>
 <g transform="matrix(.26458 0 0 .26458 -.0052869 -.011621)" stroke-width="1.5715">
  <circle cx="32.02" cy="32.044" r="30.001" fill="url(#d)"/>
  <circle cx="32.02" cy="32.044" r="30.001" fill-opacity="0"/>
  <circle cx="32.02" cy="32.044" r="0" fill="url(#c)"/>
 </g>
 <path d="m4.704 6.4551v5.644l3.7627-3.292 3.7627 3.292v-5.644" fill="none" opacity=".15" stroke="#000" stroke-linecap="round" stroke-linejoin="round" stroke-width=".941"/>
 <path d="m4.704 6.0853v5.644l3.7627-3.292 3.7627 3.292v-5.644" fill="none" stroke="url(#a)" stroke-linecap="round" stroke-linejoin="round" stroke-width=".941"/>
</svg>
