<svg width="64" height="64" version="1.1" viewBox="0 0 16.933 16.933" xmlns="http://www.w3.org/2000/svg">
 <defs>
  <linearGradient id="d" x1="399.99" x2="399.99" y1="545.14" y2="518.14" gradientTransform="matrix(.56697 0 0 .56697 -218.64 -293.03)" gradientUnits="userSpaceOnUse">
   <stop stop-color="#dc4836" offset="0"/>
   <stop stop-color="#e16455" offset="1"/>
  </linearGradient>
  <linearGradient id="c" x1="399.57" x2="399.57" y1="545.8" y2="517.8" gradientTransform="matrix(.56697 0 0 .56697 -218.64 -293.03)" gradientUnits="userSpaceOnUse">
   <stop stop-color="#3889e9" offset="0"/>
   <stop stop-color="#5ea5fb" offset="1"/>
  </linearGradient>
 </defs>
 <g stroke-width=".41579">
  <circle cx="8.4665" cy="8.7308" r="7.9377" opacity=".25"/>
  <circle cx="8.4666" cy="8.4666" r="7.9377" fill="url(#d)"/>
  <circle cx="8.4666" cy="8.4666" r="7.9377" fill-opacity="0"/>
  <circle cx="8.4666" cy="8.4666" r="0" fill="url(#c)"/>
 </g>
 <path d="m7.8051 4.7626c-0.21986 0-0.39687 0.177-0.39687 0.39687v3.1749c0 0.21986 0.177 0.39687 0.39687 0.39687s0.39687-0.177 0.39687-0.39687v-2.7781h1.3229a1.852 1.852 0 0 1 1.852 1.852 1.852 1.852 0 0 1-1.852 1.852h-2.9104v0.0067a1.7198 1.7198 0 0 0-1.5875 1.713 1.7198 1.7198 0 0 0 1.7198 1.7198h1.0583c0.21986 0 0.39687-0.177 0.39687-0.39687v-1.3229c0-0.21986-0.177-0.39687-0.39687-0.39687s-0.39687 0.177-0.39687 0.39687v0.92602h-0.66144a0.92602 0.92602 0 0 1-0.92602-0.92602 0.92602 0.92602 0 0 1 0.92602-0.92602h2.7781a2.6458 2.6458 0 0 0 2.6458-2.6458 2.6458 2.6458 0 0 0-2.6458-2.6458z" fill-rule="evenodd" opacity=".15" style="paint-order:stroke fill markers"/>
 <path d="m7.8051 4.498c-0.21986 0-0.39687 0.177-0.39687 0.39687v3.1749c0 0.21986 0.177 0.39687 0.39687 0.39687s0.39687-0.177 0.39687-0.39687v-2.7781h1.3229a1.852 1.852 0 0 1 1.852 1.852 1.852 1.852 0 0 1-1.852 1.852h-2.9104v0.0067a1.7198 1.7198 0 0 0-1.5875 1.713 1.7198 1.7198 0 0 0 1.7198 1.7198h1.0583c0.21986 0 0.39687-0.177 0.39687-0.39687v-1.3229c0-0.21986-0.177-0.39687-0.39687-0.39687s-0.39687 0.177-0.39687 0.39687v0.92602h-0.66144a0.92602 0.92602 0 0 1-0.92602-0.92602 0.92602 0.92602 0 0 1 0.92602-0.92602h2.7781a2.6458 2.6458 0 0 0 2.6458-2.6458 2.6458 2.6458 0 0 0-2.6458-2.6458z" fill="#fff" fill-rule="evenodd" style="paint-order:stroke fill markers"/>
</svg>
