<?xml version="1.0" encoding="UTF-8" standalone="no"?>
<svg
   xmlns:dc="http://purl.org/dc/elements/1.1/"
   xmlns:cc="http://creativecommons.org/ns#"
   xmlns:rdf="http://www.w3.org/1999/02/22-rdf-syntax-ns#"
   xmlns:svg="http://www.w3.org/2000/svg"
   xmlns="http://www.w3.org/2000/svg"
   xmlns:sodipodi="http://sodipodi.sourceforge.net/DTD/sodipodi-0.dtd"
   xmlns:inkscape="http://www.inkscape.org/namespaces/inkscape"
   inkscape:version="1.0 (4035a4fb49, 2020-05-01)"
   sodipodi:docname="xterm.svg"
   id="svg25"
   viewBox="0 0 16.933 16.933"
   version="1.1"
   height="64"
   width="64">
  <metadata
     id="metadata29">
    <rdf:RDF>
      <cc:Work
         rdf:about="">
        <dc:format>image/svg+xml</dc:format>
        <dc:type
           rdf:resource="http://purl.org/dc/dcmitype/StillImage" />
        <dc:title></dc:title>
      </cc:Work>
    </rdf:RDF>
  </metadata>
  <sodipodi:namedview
     inkscape:current-layer="svg25"
     inkscape:window-maximized="1"
     inkscape:window-y="36"
     inkscape:window-x="0"
     inkscape:cy="0.15968848"
     inkscape:cx="52.882455"
     inkscape:zoom="4.2150193"
     showgrid="false"
     id="namedview27"
     inkscape:window-height="932"
     inkscape:window-width="1920"
     inkscape:pageshadow="2"
     inkscape:pageopacity="0"
     guidetolerance="10"
     gridtolerance="10"
     objecttolerance="10"
     borderopacity="1"
     bordercolor="#666666"
     pagecolor="#ffffff" />
  <defs
     id="defs7">
    <linearGradient
       gradientUnits="userSpaceOnUse"
       y2="1.852"
       y1="15.081"
       x2="7.9373"
       x1="7.9373"
       id="linearGradient862">
      <stop
         id="stop2"
         offset="0"
         stop-color="#767574" />
      <stop
         id="stop4"
         offset="1"
         stop-color="#d1e7ee" />
    </linearGradient>
    <linearGradient
       id="b"
       x1="399.57"
       x2="399.57"
       y1="545.8"
       y2="517.8"
       gradientTransform="matrix(0.56696445,0,0,0.56696445,-218.63954,-293.15258)"
       gradientUnits="userSpaceOnUse">
      <stop
         stop-color="#3889e9"
         offset="0"
         id="stop856" />
      <stop
         stop-color="#5ea5fb"
         offset="1"
         id="stop858" />
    </linearGradient>
    <linearGradient
       id="linearGradient857"
       x1="102.41"
       x2="102.41"
       y1="61.83"
       y2="2.1693"
       gradientTransform="matrix(0.21722657,0,0,0.21722657,-13.479845,1.3829764)"
       gradientUnits="userSpaceOnUse">
      <stop
         stop-color="#606060"
         offset="0"
         id="stop861" />
      <stop
         stop-color="#414141"
         offset=".5"
         id="stop863" />
      <stop
         stop-color="#1e1e1e"
         offset="1"
         id="stop865" />
    </linearGradient>
  </defs>
  <path
     id="path870"
     stroke-width="0.263848"
     opacity="0.2"
     d="M 13.292021,2.3001365 Q 12.270829,1.513678 11.057924,1.094798 9.8045642,0.6616042 8.4645024,0.6616042 c -4.3840594,0 -7.93813729,3.5538133 -7.93813729,7.9376082 0,4.0104756 2.97518099,7.3245806 6.83802149,7.8603516 0.188422,0.02607 0.3793786,0.04626 0.5711448,0.05804 0.1749602,0.01093 0.3507777,0.0185 0.5291033,0.0185 4.3832653,0 7.9365503,-3.553813 7.9365503,-7.9370788 0,-0.3465444 -0.02187,-0.6888821 -0.06477,-1.0228061 -0.04963,-0.3902792 -0.130381,-0.7696578 -0.233852,-1.138903 Q 15.750963,5.1966584 15.0225,4.1284771 14.30245,3.0762235 13.292132,2.2999248 Z" />
  <path
     id="path872"
     stroke-width="0.263848"
     fill="#fafafa"
     d="M 13.292021,2.0354261 Q 12.270829,1.2489676 11.057924,0.83008755 9.8045642,0.3968938 8.4645024,0.3968938 c -4.3840594,0 -7.93813729,3.5538133 -7.93813729,7.9376082 0,4.010475 2.97518099,7.324581 6.83802149,7.860351 0.188422,0.02608 0.3793786,0.04626 0.5711448,0.05804 0.1749602,0.01093 0.3507777,0.0185 0.5291033,0.0185 4.3832653,0 7.9365503,-3.553814 7.9365503,-7.9370792 0,-0.3465445 -0.02187,-0.6888821 -0.06477,-1.0228061 -0.04963,-0.3902792 -0.130381,-0.7696578 -0.233852,-1.138903 Q 15.750963,4.931948 15.0225,3.8637667 14.30245,2.8115131 13.292132,2.0352144 Z" />
  <circle
     id="circle874"
     stroke-width="0.415785"
     fill-opacity="0"
     r="7.9376082"
     cy="8.3458252"
     cx="8.4690266" />
  <circle
     id="circle876"
     stroke-width="0.415785"
     fill="url(#b)"
     r="0"
     cy="8.3458252"
     cx="8.4690266"
     style="fill:url(#b)" />
  <path
     id="path878"
     stroke-width="0.216626"
     fill="url(#linearGradient857)"
     d="M 12.427909,3.1627405 Q 11.589488,2.5170376 10.593642,2.1731125 9.5645918,1.8174402 8.4643702,1.8174402 c -3.5993208,0 -6.5173529,2.9177675 -6.5173529,6.5170882 0,3.2926746 2.4427175,6.0135966 5.6140832,6.4535896 0.1546988,0.02141 0.3114878,0.03798 0.4689382,0.04765 0.1436474,0.009 0.2879933,0.01519 0.4344108,0.01519 3.5987915,0 6.5160295,-2.917768 6.5160295,-6.5165596 0,-0.2845273 -0.01796,-0.5655886 -0.05318,-0.8397445 C 14.886552,7.1742264 14.820251,6.8627386 14.7353,6.5595849 Q 14.446619,5.5409592 13.84854,4.6639621 13.257367,3.8000352 12.427862,3.1626665 Z"
     style="fill:url(#linearGradient857)" />
  <g
     transform="translate(0,1.1096112)"
     id="g930">
    <g
       id="g19"
       aria-label="$"
       fill="#6be54f"
       transform="translate(0,-0.011633)">
      <path
         id="path17"
         stroke-width="0.12274"
         fill="#6be54f"
         d="M 5.0469,8.4781 H 5.53296 V 7.90858 c 0.56462,-0.10801 0.86411,-0.5057 0.86411,-1.0409 0,-1.0998 -1.4925,-1.0065 -1.4925,-1.6153 0,-0.27003 0.16202,-0.4075 0.45169,-0.4075 0.25039,0 0.42714,0.1031 0.62844,0.28967 L 6.34802,4.72214 C 6.1369,4.49629 5.88651,4.32445 5.53301,4.27536 V 3.71565 H 5.04695 V 4.28517 C 4.53143,4.383364 4.2123,4.75159 4.2123,5.28677 c 0,1.0261 1.4925,0.96721 1.4925,1.63 0,0.27985 -0.15711,0.43205 -0.50079,0.43205 -0.27985,0 -0.54007,-0.12274 -0.8101,-0.33386 L 4.07478,7.50102 C 4.33499,7.73669 4.71304,7.88889 5.0469,7.92816 Z" />
    </g>
    <rect
       id="rect21"
       opacity="0.35"
       fill="#6be54f"
       height="4.7624002"
       width="2.3812001"
       y="3.7040999"
       x="7.4081998" />
  </g>
</svg>
