<?xml version="1.0" encoding="UTF-8"?>
<svg width="64" height="64" version="1.1" xmlns="http://www.w3.org/2000/svg" xmlns:cc="http://creativecommons.org/ns#" xmlns:dc="http://purl.org/dc/elements/1.1/" xmlns:rdf="http://www.w3.org/1999/02/22-rdf-syntax-ns#" xmlns:xlink="http://www.w3.org/1999/xlink">
 <metadata>
  <rdf:RDF>
   <cc:Work rdf:about="">
    <dc:format>image/svg+xml</dc:format>
    <dc:type rdf:resource="http://purl.org/dc/dcmitype/StillImage"/>
    <dc:title/>
   </cc:Work>
  </rdf:RDF>
 </metadata>
 <defs>
  <linearGradient id="b" x1="399.57" x2="399.57" y1="545.8" y2="517.8" gradientTransform="matrix(2.1429 0 0 2.1429 -826.36 -1107.5)" gradientUnits="userSpaceOnUse">
   <stop stop-color="#3889e9" offset="0"/>
   <stop stop-color="#5ea5fb" offset="1"/>
  </linearGradient>
  <linearGradient id="d" x1="32.045" x2="30" y1="1.7894" y2="61.55" gradientTransform="matrix(.86339 0 0 .8182 -320.77 -397.49)" gradientUnits="userSpaceOnUse">
   <stop stop-color="#f9f9f9" offset="0"/>
   <stop stop-color="#e6e6e6" offset="1"/>
  </linearGradient>
  <linearGradient id="b-62">
   <stop stop-color="#808080" offset="0"/>
   <stop stop-color="#999" offset="1"/>
  </linearGradient>
  <linearGradient id="c-9" x1="529.66" x2="-35.31" y1="295.64" y2="295.64" gradientTransform="matrix(0 -.029972 -.02997 0 16.798 15.875)" gradientUnits="userSpaceOnUse">
   <stop stop-color="#999" offset="0"/>
   <stop stop-color="#b7b7b7" offset=".61328"/>
   <stop stop-color="#dbdbdb" offset="1"/>
  </linearGradient>
  <linearGradient id="a-1" x1="334.87" x2="334.87" y1="140.23" y2="160.63" gradientUnits="userSpaceOnUse" xlink:href="#b-62"/>
 </defs>
 <path d="m50.249 9.1937q-3.8597-2.9725-8.444-4.5557-4.7372-1.6373-9.8021-1.6373c-16.57 0-30.003 13.432-30.003 30.001 0 15.158 11.245 27.684 25.845 29.709 0.71216 0.09855 1.4339 0.17485 2.1587 0.21936 0.66128 0.04133 1.3258 0.06994 1.9998 0.06994 16.567 0 29.997-13.432 29.997-29.999 0-1.3098-0.08266-2.6037-0.24481-3.8658-0.18758-1.4751-0.49279-2.909-0.88387-4.3046q-1.3289-4.6892-4.0822-8.7265-2.7215-3.9771-6.5401-6.9112z" opacity=".2" stroke-width=".99724"/>
 <path d="m50.249 8.1932q-3.8597-2.9725-8.444-4.5557-4.7372-1.6373-9.8021-1.6373c-16.57 0-30.003 13.432-30.003 30.001 0 15.158 11.245 27.684 25.845 29.709 0.71216 0.09855 1.4339 0.17485 2.1587 0.21936 0.66128 0.04133 1.3258 0.06994 1.9998 0.06994 16.567 0 29.997-13.432 29.997-29.999 0-1.3098-0.08266-2.6037-0.24481-3.8658-0.18758-1.4751-0.49279-2.909-0.88387-4.3046q-1.3289-4.6892-4.0822-8.7265-2.7215-3.9771-6.5401-6.9112z" fill="url(#d)" stroke-width=".99724"/>
 <circle cx="32.02" cy="32.044" r="30.001" fill-opacity="0" stroke-width="1.5715"/>
 <circle cx="32.02" cy="32.044" r="0" fill="url(#b)" stroke-width="1.5715"/>
 <g transform="matrix(2.577 0 0 2.577 10.183 9.8408)">
  <path d="m11.712 1.3229c2.3346 0 2.5858 0.2398 2.5744 2.5792v9.658c0.01145 2.3394-0.23976 2.5792-2.5744 2.5792h-6.4923c-2.3346 0-2.5744-0.23978-2.5744-2.5792v-9.658c0-2.3394 0.23976-2.5792 2.5744-2.5792z" color="#000000" opacity=".35"/>
  <path d="m11.712 1.0583c2.3346 0 2.5858 0.2398 2.5744 2.5792v9.658c0.01145 2.3394-0.23976 2.5792-2.5744 2.5792h-6.4923c-2.3346 0-2.5744-0.23977-2.5744-2.5792v-9.658c0-2.3394 0.23976-2.5792 2.5744-2.5792z" color="#000000" fill="url(#c-9)"/>
  <g transform="translate(-25.929)" fill="none" stroke-linecap="square" stroke-linejoin="round" stroke-width="1.1334">
   <g transform="matrix(.4669 0 0 .46689 -122.49 -60.048)" enable-background="new" opacity=".2" stroke="#fff">
    <path d="m344.21 147.66a8.5002 8.5001 0 0 1-4.9577 10.053 8.5002 8.5001 0 0 1-10.614-3.603 8.5002 8.5001 0 0 1 2.1868-10.994 8.5002 8.5001 0 0 1 11.185 0.73311l-1.7604 1.7604" enable-background="new" opacity="1"/>
    <circle cx="336" cy="149.86" r="2.2666" enable-background="new" opacity="1"/>
   </g>
   <g transform="matrix(.4669 0 0 .46689 -122.49 -60.18)" enable-background="new" stroke="url(#a-1)">
    <path d="m344.21 147.66a8.5002 8.5001 0 0 1-4.9577 10.053 8.5002 8.5001 0 0 1-10.614-3.603 8.5002 8.5001 0 0 1 2.1868-10.994 8.5002 8.5001 0 0 1 11.185 0.73311l-1.7604 1.7604" enable-background="new"/>
    <circle cx="336" cy="149.86" r="2.2666" enable-background="new"/>
   </g>
  </g>
 </g>
</svg>
