<?xml version="1.0" encoding="UTF-8"?>
<svg width="64" height="64" version="1.1" xmlns="http://www.w3.org/2000/svg" xmlns:cc="http://creativecommons.org/ns#" xmlns:dc="http://purl.org/dc/elements/1.1/" xmlns:rdf="http://www.w3.org/1999/02/22-rdf-syntax-ns#">
 <metadata>
  <rdf:RDF>
   <cc:Work rdf:about="">
    <dc:format>image/svg+xml</dc:format>
    <dc:type rdf:resource="http://purl.org/dc/dcmitype/StillImage"/>
    <dc:title/>
   </cc:Work>
  </rdf:RDF>
 </metadata>
 <defs>
  <linearGradient id="b" x1="399.57" x2="399.57" y1="545.8" y2="517.8" gradientTransform="matrix(2.1429 0 0 2.1429 -826.36 -1107.5)" gradientUnits="userSpaceOnUse">
   <stop stop-color="#3889e9" offset="0"/>
   <stop stop-color="#5ea5fb" offset="1"/>
  </linearGradient>
  <linearGradient id="d" x1="32.045" x2="30" y1="1.7894" y2="61.55" gradientTransform="matrix(.86339 0 0 .8182 -320.77 -397.49)" gradientUnits="userSpaceOnUse">
   <stop stop-color="#f9f9f9" offset="0"/>
   <stop stop-color="#e6e6e6" offset="1"/>
  </linearGradient>
  <linearGradient id="b-3" x1="104" x2="200" y1="44" y2="268" gradientTransform="matrix(.71689 0 0 .71689 43.032 81.297)" gradientUnits="userSpaceOnUse">
   <stop stop-color="#cdcdcd" offset="0"/>
   <stop stop-color="#d9d9d9" offset="1"/>
  </linearGradient>
  <linearGradient id="a" x1="529.66" x2="-35.31" y1="295.64" y2="295.64" gradientTransform="matrix(0 -.11989 -.11988 0 50.474 38.893)" gradientUnits="userSpaceOnUse">
   <stop stop-color="#999" offset="0"/>
   <stop stop-color="#b7b7b7" offset=".61328"/>
   <stop stop-color="#dbdbdb" offset="1"/>
  </linearGradient>
 </defs>
 <path d="m50.249 9.1937q-3.8597-2.9725-8.444-4.5557-4.7372-1.6373-9.8021-1.6373c-16.57 0-30.003 13.432-30.003 30.001 0 15.158 11.245 27.684 25.845 29.709 0.71216 0.09855 1.4339 0.17485 2.1587 0.21936 0.66128 0.04133 1.3258 0.06994 1.9998 0.06994 16.567 0 29.997-13.432 29.997-29.999 0-1.3098-0.08266-2.6037-0.24481-3.8658-0.18758-1.4751-0.49279-2.909-0.88387-4.3046q-1.3289-4.6892-4.0822-8.7265-2.7215-3.9771-6.5401-6.9112z" opacity=".2" stroke-width=".99724"/>
 <path d="m50.249 8.1932q-3.8597-2.9725-8.444-4.5557-4.7372-1.6373-9.8021-1.6373c-16.57 0-30.003 13.432-30.003 30.001 0 15.158 11.245 27.684 25.845 29.709 0.71216 0.09855 1.4339 0.17485 2.1587 0.21936 0.66128 0.04133 1.3258 0.06994 1.9998 0.06994 16.567 0 29.997-13.432 29.997-29.999 0-1.3098-0.08266-2.6037-0.24481-3.8658-0.18758-1.4751-0.49279-2.909-0.88387-4.3046q-1.3289-4.6892-4.0822-8.7265-2.7215-3.9771-6.5401-6.9112z" fill="url(#d)" stroke-width=".99724"/>
 <circle cx="32.02" cy="32.044" r="30.001" fill-opacity="0" stroke-width="1.5715"/>
 <circle cx="32.02" cy="32.044" r="0" fill="url(#b)" stroke-width="1.5715"/>
 <g transform="matrix(.64118 0 0 .64118 21.005 25.554)">
  <path d="m46.781 22.245c0 9.3387-0.95921 10.344-10.317 10.298h-38.632c-9.3576 0.04577-10.317-0.95907-10.317-10.298v-25.97c0-9.3387 0.9591-10.298 10.317-10.298h38.632c9.3577 0 10.317 0.95907 10.317 10.298z" color="#000000" fill="url(#a)"/>
  <path d="m-12.485 21.716v0.52916c0 9.3387 0.95885 10.344 10.316 10.298h38.632c9.3576 0.04577 10.317-0.95914 10.317-10.298v-0.52916c0 9.3387-0.95937 10.344-10.317 10.298h-38.632c-9.3576 0.04577-10.316-0.95914-10.316-10.298z" color="#000000" opacity=".2"/>
  <path d="m-12.485 19.843v2.4014c0 9.3387 0.95885 10.344 10.316 10.298h38.632c9.3576 0.04577 10.317-0.95914 10.317-10.298v-2.4014z" color="#000000" opacity=".2"/>
  <path d="m-6.0028 24.467c0.017912 1.1973 0.031586 2.3951 0.087331 3.5914 13.107 0.20462 26.279 0.15874 39.381 0.09715 2.2521-0.02 4.5045-0.03513 6.756-0.09043 0.05319-1.3228 0.08264-2.6465 0.10387-3.9702h-46.333c0.00146 0.12402 0.00293 0.24804 0.00439 0.37206z" enable-background="new" opacity=".5"/>
  <rect x="-12.484" y="19.314" width="59.265" height=".52916" enable-background="new" fill="#fff" opacity=".2"/>
  <path d="m-6.007 24.624c0.00146 0.12402 0.00267 0.24804 0.00414 0.37206 0.017912 1.1973 0.031586 2.3951 0.087331 3.5914 13.107 0.20462 26.279 0.15874 39.381 0.09715 2.2521-0.02 4.5045-0.03514 6.756-0.09043 0.05319-1.3228 0.08264-2.6465 0.10387-3.9702h-0.01085c-0.02053 1.1473-0.04691 2.2945-0.09302 3.4411-2.2516 0.0553-4.5039 0.07043-6.756 0.09043-13.102 0.06159-26.274 0.10747-39.381-0.09715-0.053308-1.144-0.067889-2.2893-0.084748-3.4343z" enable-background="new" fill="#fff" opacity=".3"/>
  <g transform="matrix(.26458 0 0 .26458 -23.067 -32.014)" enable-background="new">
   <path d="m72.58 212a81.726 81.726 0 0 0 79.42 62.857 81.726 81.726 0 0 0 79.426-62.857z" enable-background="new" opacity=".1"/>
   <path d="m74.049 212a80.292 80.292 0 0 0 77.951 61.424 80.292 80.292 0 0 0 77.947-61.424z" enable-background="new" fill="url(#b-3)"/>
   <path d="m152 212v61.424a80.292 80.292 0 0 0 77.951-61.424z" enable-background="new" fill="#fff" opacity=".2"/>
   <path d="m133.13 212-37.908 37.908a80.292 80.292 0 0 0 113.55 0l-37.908-37.908z" enable-background="new" opacity=".02"/>
   <path d="m170.88 212 37.881 37.883a80.292 80.292 0 0 0 12.783-16.605l-36.852-21.277zm37.59 38.199a80.292 80.292 0 0 1-0.91016 0.84766 80.292 80.292 0 0 0 0.91016-0.84766zm-5.041 4.5195a80.292 80.292 0 0 1-3.1836 2.4941 80.292 80.292 0 0 0 3.1836-2.4941zm-6.4082 4.8281a80.292 80.292 0 0 1-3.4141 2.1602 80.292 80.292 0 0 0 3.4141-2.1602zm-85.109 3.0371-0.0469 0.082a80.292 80.292 0 0 0 1.3652 0.69921 80.292 80.292 0 0 1-1.3184-0.78125zm78.258 1.1211a80.292 80.292 0 0 1-3.6094 1.8105 80.292 80.292 0 0 0 3.6094-1.8105zm-73.377 1.4863a80.292 80.292 0 0 0 3.6426 1.6953 80.292 80.292 0 0 1-3.6426-1.6953zm66.131 1.9746a80.292 80.292 0 0 1-3.7559 1.4336 80.292 80.292 0 0 0 3.7559-1.4336zm-58.746 1.1875a80.292 80.292 0 0 0 3.7734 1.3164 80.292 80.292 0 0 1-3.7734-1.3164zm51.201 1.5293a80.292 80.292 0 0 1-3.8828 1.0508 80.292 80.292 0 0 0 3.8828-1.0508zm-43.547 0.875a80.292 80.292 0 0 0 3.8789 0.92969 80.292 80.292 0 0 1-3.8789-0.92969zm35.768 1.0742a80.292 80.292 0 0 1-3.9551 0.65625 80.292 80.292 0 0 0 3.9551-0.65625zm-27.932 0.54883a80.292 80.292 0 0 0 3.9805 0.54297 80.292 80.292 0 0 1-3.9805-0.54297zm19.988 0.61523a80.292 80.292 0 0 1-3.9863 0.25782 80.292 80.292 0 0 0 3.9863-0.25782zm-12.016 0.22071a80.292 80.292 0 0 0 4.0039 0.14453 80.292 80.292 0 0 1-4.0039-0.14453z" enable-background="new" fill="#faf8f6"/>
   <path d="m128 212c5.4385 6.2247 12.859 10.991 24 11 9.8847 0.1112 18.566-4.7799 24-11z" enable-background="new" fill="#7f7f7f"/>
   <path d="m134.44 212a25.808 25.808 0 0 0 17.562 6.9414 25.808 25.808 0 0 0 17.578-6.9414z" enable-background="new" fill="#faf8f6"/>
   <path d="m74.049 212a80.292 80.292 0 0 0 77.951 61.424 80.292 80.292 0 0 0 77.947-61.424h-0.3418a80.292 80.292 0 0 1-77.605 59.99 80.292 80.292 0 0 1-77.551-59.99z" enable-background="new" opacity=".2"/>
   <rect x="72" y="196" width="164" height="16" fill="#969696"/>
  </g>
  <path d="m-6.007 24.095c0.00146 0.12402 0.00267 0.24804 0.00414 0.37206 7.937e-4 0.05236 0.00183 0.10473 0.00259 0.15709h46.315c0.0031-0.1764 8e-3 -0.35275 0.01085-0.52916z" enable-background="new" opacity=".2"/>
 </g>
</svg>
