<?xml version="1.0" encoding="UTF-8"?>
<svg width="64" height="64" version="1.1" xmlns="http://www.w3.org/2000/svg" xmlns:cc="http://creativecommons.org/ns#" xmlns:dc="http://purl.org/dc/elements/1.1/" xmlns:rdf="http://www.w3.org/1999/02/22-rdf-syntax-ns#" xmlns:xlink="http://www.w3.org/1999/xlink">
 <metadata>
  <rdf:RDF>
   <cc:Work rdf:about="">
    <dc:format>image/svg+xml</dc:format>
    <dc:type rdf:resource="http://purl.org/dc/dcmitype/StillImage"/>
    <dc:title/>
   </cc:Work>
  </rdf:RDF>
 </metadata>
 <defs>
  <linearGradient id="b" x1="399.57" x2="399.57" y1="545.8" y2="517.8" gradientTransform="matrix(2.1429 0 0 2.1429 -826.36 -1107.5)" gradientUnits="userSpaceOnUse">
   <stop stop-color="#3889e9" offset="0"/>
   <stop stop-color="#5ea5fb" offset="1"/>
  </linearGradient>
  <linearGradient id="d" x1="32.045" x2="30" y1="1.7894" y2="61.55" gradientTransform="matrix(.86339 0 0 .8182 -320.77 -397.49)" gradientUnits="userSpaceOnUse">
   <stop stop-color="#f9f9f9" offset="0"/>
   <stop stop-color="#e6e6e6" offset="1"/>
  </linearGradient>
  <linearGradient id="b-5" x1="40.777" x2="60" y1="18" y2="18" gradientUnits="userSpaceOnUse" xlink:href="#a-3"/>
  <linearGradient id="a-3">
   <stop offset="0"/>
   <stop stop-opacity="0" offset="1"/>
  </linearGradient>
  <linearGradient id="c-3" x1="40.777" x2="60" y1="18" y2="18" gradientTransform="translate(0,24)" gradientUnits="userSpaceOnUse" xlink:href="#a-3"/>
  <linearGradient id="linearGradient969" x1="-28" x2="-8" y1="-32" y2="-32" gradientTransform="matrix(0 -.11989 -.11988 0 50.474 38.893)" gradientUnits="userSpaceOnUse">
   <stop stop-color="#969696" offset="0"/>
   <stop stop-color="#b7b7b7" offset=".61328"/>
   <stop stop-color="#c8c8c8" offset="1"/>
  </linearGradient>
  <linearGradient id="linearGradient977" x1="-52" x2="-32" y1="-32" y2="-32" gradientTransform="matrix(0 -.11989 -.11988 0 50.474 38.893)" gradientUnits="userSpaceOnUse">
   <stop stop-color="#969696" offset="0"/>
   <stop stop-color="#b7b7b7" offset=".61328"/>
   <stop stop-color="#c8c8c8" offset="1"/>
  </linearGradient>
 </defs>
 <path d="m50.249 9.1937q-3.8597-2.9725-8.444-4.5557-4.7372-1.6373-9.8021-1.6373c-16.57 0-30.003 13.432-30.003 30.001 0 15.158 11.245 27.684 25.845 29.709 0.71216 0.09855 1.4339 0.17485 2.1587 0.21936 0.66128 0.04133 1.3258 0.06994 1.9998 0.06994 16.567 0 29.997-13.432 29.997-29.999 0-1.3098-0.08266-2.6037-0.24481-3.8658-0.18758-1.4751-0.49279-2.909-0.88387-4.3046q-1.3289-4.6892-4.0822-8.7265-2.7215-3.9771-6.5401-6.9112z" opacity=".2" stroke-width=".99724"/>
 <path d="m50.249 8.1932q-3.8597-2.9725-8.444-4.5557-4.7372-1.6373-9.8021-1.6373c-16.57 0-30.003 13.432-30.003 30.001 0 15.158 11.245 27.684 25.845 29.709 0.71216 0.09855 1.4339 0.17485 2.1587 0.21936 0.66128 0.04133 1.3258 0.06994 1.9998 0.06994 16.567 0 29.997-13.432 29.997-29.999 0-1.3098-0.08266-2.6037-0.24481-3.8658-0.18758-1.4751-0.49279-2.909-0.88387-4.3046q-1.3289-4.6892-4.0822-8.7265-2.7215-3.9771-6.5401-6.9112z" fill="url(#d)" stroke-width=".99724"/>
 <circle cx="32.02" cy="32.044" r="30.001" fill-opacity="0" stroke-width="1.5715"/>
 <circle cx="32.02" cy="32.044" r="0" fill="url(#b)" stroke-width="1.5715"/>
 <g transform="matrix(.71429 0 0 .71429 9.143 9.1427)">
  <path d="m48 52h6v4h-6zm-38 0h6v4h-6z" fill="#333" opacity=".25"/>
  <rect transform="matrix(0,-1,-1,0,0,0)" x="-52" y="-60" width="20" height="56" rx="4" ry="4" fill="url(#linearGradient977)"/>
  <circle cx="13" cy="42" r="3" fill="#9eee5a"/>
  <path d="m48 28h6v4h-6zm-38 0h6v4h-6z" fill="#333" opacity=".25"/>
  <rect transform="matrix(0,-1,-1,0,0,0)" x="-28" y="-60" width="20" height="56" rx="4" ry="4" fill="url(#linearGradient969)"/>
  <circle cx="13" cy="18" r="3" fill="#9eee5a"/>
  <path d="m53.354 8a30.983 30.983 0 0 1-12.577 20h15.223c2.216 0 4-1.784 4-4v-12c0-2.216-1.784-4-4-4z" fill="url(#b-5)" opacity=".25"/>
  <path d="m53.354 32a30.983 30.983 0 0 1-12.577 20h15.223c2.216 0 4-1.784 4-4v-12c0-2.216-1.784-4-4-4z" fill="url(#c-3)" opacity=".25"/>
 </g>
</svg>
