<?xml version="1.0" encoding="UTF-8"?>
<svg width="64" height="64" version="1.1" xmlns="http://www.w3.org/2000/svg" xmlns:cc="http://creativecommons.org/ns#" xmlns:dc="http://purl.org/dc/elements/1.1/" xmlns:rdf="http://www.w3.org/1999/02/22-rdf-syntax-ns#" xmlns:xlink="http://www.w3.org/1999/xlink">
 <metadata>
  <rdf:RDF>
   <cc:Work rdf:about="">
    <dc:format>image/svg+xml</dc:format>
    <dc:type rdf:resource="http://purl.org/dc/dcmitype/StillImage"/>
    <dc:title/>
   </cc:Work>
  </rdf:RDF>
 </metadata>
 <defs>
  <linearGradient id="b" x1="399.57" x2="399.57" y1="545.8" y2="517.8" gradientTransform="matrix(2.1429 0 0 2.1429 -826.36 -1107.5)" gradientUnits="userSpaceOnUse">
   <stop stop-color="#3889e9" offset="0"/>
   <stop stop-color="#5ea5fb" offset="1"/>
  </linearGradient>
  <linearGradient id="linearGradient1836" x1="18.45" x2="45.55" y1="35.011" y2="35.011" gradientUnits="userSpaceOnUse">
   <stop stop-color="#3287ff" offset="0"/>
   <stop stop-color="#14b4ff" offset="1"/>
  </linearGradient>
  <linearGradient id="linearGradient1882" x1="28.997" x2="45.262" y1="32.057" y2="15.47" gradientUnits="userSpaceOnUse">
   <stop stop-color="#fff" offset="0"/>
   <stop stop-color="#f0f0f0" offset="1"/>
  </linearGradient>
  <linearGradient id="linearGradient1969" x1="399.57" x2="399.57" y1="545.8" y2="517.8" gradientTransform="matrix(2.1429 0 0 2.1429 -755.97 -1109.2)" gradientUnits="userSpaceOnUse" xlink:href="#b"/>
 </defs>
 <path d="m50.249 9.1937q-3.8597-2.9725-8.444-4.5557-4.7372-1.6373-9.8021-1.6373c-16.57 0-30.003 13.432-30.003 30.001 0 15.158 11.245 27.684 25.845 29.709 0.71216 0.09855 1.4339 0.17485 2.1587 0.21936 0.66128 0.04133 1.3258 0.06994 1.9998 0.06994 16.567 0 29.997-13.432 29.997-29.999 0-1.3098-0.08266-2.6037-0.24481-3.8658-0.18758-1.4751-0.49279-2.909-0.88387-4.3046q-1.3289-4.6892-4.0822-8.7265-2.7215-3.9771-6.5401-6.9112z" opacity=".2" stroke-width=".99724"/>
 <path d="m50.249 8.1932q-3.8597-2.9725-8.444-4.5557-4.7372-1.6373-9.8021-1.6373c-16.57 0-30.003 13.432-30.003 30.001 0 15.158 11.245 27.684 25.845 29.709 0.71216 0.09855 1.4339 0.17485 2.1587 0.21936 0.66128 0.04133 1.3258 0.06994 1.9998 0.06994 16.567 0 29.997-13.432 29.997-29.999 0-1.3098-0.08266-2.6037-0.24481-3.8658-0.18758-1.4751-0.49279-2.909-0.88387-4.3046q-1.3289-4.6892-4.0822-8.7265-2.7215-3.9771-6.5401-6.9112z" fill="#fafafa" stroke-width=".99724"/>
 <circle cx="32.02" cy="32.044" r="30.001" fill-opacity="0" stroke-width="1.5715"/>
 <circle cx="32.02" cy="32.044" r="0" fill="url(#b)" stroke-width="1.5715"/>
 <g stroke-width="1.5055">
  <path d="m18.45 22.967v21.078c0 1.6561 1.3481 3.0111 3.0111 3.0111h21.078c1.6636 0 3.0111-1.355 3.0111-3.0111v-21.078z" fill="url(#linearGradient1836)"/>
  <rect x="36.517" y="41.033" width="7.5277" height="6.0219" fill="#fff" opacity=".2"/>
  <path d="m21.461 15.439c-1.663 0-3.0111 1.3481-3.0111 3.0111v21.078c0 1.6636 1.3481 3.0111 3.0111 3.0111h21.078c1.6636 0 3.0111-1.3475 3.0111-3.0111v-21.078c0-1.663-1.3475-3.0111-3.0111-3.0111z" fill="url(#linearGradient1882)"/>
  <rect x="38.022" y="44.044" width="4.5166" height="1.5055" fill="#ffc80f"/>
 </g>
 <circle cx="102.41" cy="30.37" r="30.001" fill-opacity="0" stroke-width="1.5715"/>
 <circle cx="102.41" cy="30.37" r="0" fill="url(#linearGradient1969)" stroke-width="1.5715"/>
 <path d="m109.09 22.413-4.1703 4.1425 3.3402 3.3624 4.17-4.1425zm-12.876 0.24768-3.7232 3.8044 1.1922 1.1668 3.7232-3.805zm2.6184 2.5621-3.7237 3.805 1.1922 1.1665 3.7237-3.805zm3.5599 3.2309c-2.2404 0-4.0765 1.8091-4.0765 4.0102 0 2.2012 1.8359 4.007 4.0765 4.007 2.2406 0 4.0733-1.8056 4.0733-4.007 0-2.2014-1.8328-4.0102-4.0733-4.0102zm0 1.7025c1.2995 0 2.3417 1.0243 2.3417 2.3078 0 1.2835-1.0426 2.3044-2.3417 2.3044s-2.3417-1.021-2.3417-2.3044 1.0422-2.3078 2.3417-2.3078zm-2.7296 8.3317v1.6679h5.3232v-1.6679zm0 3.6633v1.6679h5.3232v-1.6679z" enable-background="new" fill="#fff" opacity=".2" stroke-width="2.6724"/>
 <path d="m37.089 20.345-3.2009 3.1796 2.5638 2.5808 3.2007-3.1796zm-9.8831 0.1901-2.8577 2.9201 0.91504 0.89561 2.8577-2.9205zm2.0097 1.9665-2.8581 2.9205 0.91504 0.89537 2.8581-2.9205zm2.7324 2.4799c-1.7196 0-3.1289 1.3885-3.1289 3.078 0 1.6896 1.4092 3.0756 3.1289 3.0756 1.7198 0 3.1264-1.3859 3.1264-3.0756 0-1.6897-1.4067-3.078-3.1264-3.078zm0 1.3068c0.99744 0 1.7974 0.78618 1.7974 1.7713 0 0.98515-0.80022 1.7688-1.7974 1.7688s-1.7974-0.78364-1.7974-1.7688 0.79995-1.7713 1.7974-1.7713zm-2.0951 6.395v1.2802h4.0858v-1.2802zm0 2.8118v1.2802h4.0858v-1.2802z" enable-background="new" fill="#14b4ff" stroke-width="2.0512"/>
</svg>
