<?xml version="1.0" encoding="UTF-8"?>
<svg width="64" height="64" version="1.1" xmlns="http://www.w3.org/2000/svg" xmlns:cc="http://creativecommons.org/ns#" xmlns:dc="http://purl.org/dc/elements/1.1/" xmlns:rdf="http://www.w3.org/1999/02/22-rdf-syntax-ns#" xmlns:xlink="http://www.w3.org/1999/xlink">
 <metadata>
  <rdf:RDF>
   <cc:Work rdf:about="">
    <dc:format>image/svg+xml</dc:format>
    <dc:type rdf:resource="http://purl.org/dc/dcmitype/StillImage"/>
    <dc:title/>
   </cc:Work>
  </rdf:RDF>
 </metadata>
 <defs>
  <linearGradient id="b" x1="399.57" x2="399.57" y1="545.8" y2="517.8" gradientTransform="matrix(2.1429 0 0 2.1429 -826.36 -1107.5)" gradientUnits="userSpaceOnUse">
   <stop stop-color="#3889e9" offset="0"/>
   <stop stop-color="#5ea5fb" offset="1"/>
  </linearGradient>
  <linearGradient id="linearGradient1836" x1="18.45" x2="45.55" y1="35.011" y2="35.011" gradientUnits="userSpaceOnUse">
   <stop stop-color="#3287ff" offset="0"/>
   <stop stop-color="#14b4ff" offset="1"/>
  </linearGradient>
  <linearGradient id="linearGradient1882" x1="28.997" x2="45.262" y1="32.057" y2="15.47" gradientUnits="userSpaceOnUse">
   <stop stop-color="#fff" offset="0"/>
   <stop stop-color="#f0f0f0" offset="1"/>
  </linearGradient>
 </defs>
 <path d="m50.249 9.1937q-3.8597-2.9725-8.444-4.5557-4.7372-1.6373-9.8021-1.6373c-16.57 0-30.003 13.432-30.003 30.001 0 15.158 11.245 27.684 25.845 29.709 0.71216 0.09855 1.4339 0.17485 2.1587 0.21936 0.66128 0.04133 1.3258 0.06994 1.9998 0.06994 16.567 0 29.997-13.432 29.997-29.999 0-1.3098-0.08266-2.6037-0.24481-3.8658-0.18758-1.4751-0.49279-2.909-0.88387-4.3046q-1.3289-4.6892-4.0822-8.7265-2.7215-3.9771-6.5401-6.9112z" opacity=".2" stroke-width=".99724"/>
 <path d="m50.249 8.1932q-3.8597-2.9725-8.444-4.5557-4.7372-1.6373-9.8021-1.6373c-16.57 0-30.003 13.432-30.003 30.001 0 15.158 11.245 27.684 25.845 29.709 0.71216 0.09855 1.4339 0.17485 2.1587 0.21936 0.66128 0.04133 1.3258 0.06994 1.9998 0.06994 16.567 0 29.997-13.432 29.997-29.999 0-1.3098-0.08266-2.6037-0.24481-3.8658-0.18758-1.4751-0.49279-2.909-0.88387-4.3046q-1.3289-4.6892-4.0822-8.7265-2.7215-3.9771-6.5401-6.9112z" fill="#fafafa" stroke-width=".99724"/>
 <circle cx="32.02" cy="32.044" r="30.001" fill-opacity="0" stroke-width="1.5715"/>
 <circle cx="32.02" cy="32.044" r="0" fill="url(#b)" stroke-width="1.5715"/>
 <g stroke-width="1.5055">
  <path d="m18.45 22.967v21.078c0 1.6561 1.3481 3.0111 3.0111 3.0111h21.078c1.6636 0 3.0111-1.355 3.0111-3.0111v-21.078z" fill="url(#linearGradient1836)"/>
  <rect x="36.517" y="41.033" width="7.5277" height="6.0219" fill="#fff" opacity=".2"/>
  <path d="m21.461 15.439c-1.663 0-3.0111 1.3481-3.0111 3.0111v21.078c0 1.6636 1.3481 3.0111 3.0111 3.0111h21.078c1.6636 0 3.0111-1.3475 3.0111-3.0111v-21.078c0-1.663-1.3475-3.0111-3.0111-3.0111z" fill="url(#linearGradient1882)"/>
  <rect x="38.022" y="44.044" width="4.5166" height="1.5055" fill="#ffc80f"/>
 </g>
 <g transform="matrix(.9071 0 0 .90708 -272.79 -107.37)" enable-background="new" fill="none" stroke="#14b4ff" stroke-linecap="square" stroke-linejoin="round" stroke-width="1.1334">
  <path d="m344.21 147.66a8.5002 8.5001 0 0 1-4.9577 10.053 8.5002 8.5001 0 0 1-10.614-3.603 8.5002 8.5001 0 0 1 2.1868-10.994 8.5002 8.5001 0 0 1 11.185 0.73311l-1.7604 1.7604" enable-background="new"/>
  <circle cx="336" cy="149.86" r="2.2666" enable-background="new"/>
 </g>
</svg>
