<?xml version="1.0" encoding="UTF-8"?>
<svg width="64" height="64" version="1.1" xmlns="http://www.w3.org/2000/svg" xmlns:cc="http://creativecommons.org/ns#" xmlns:dc="http://purl.org/dc/elements/1.1/" xmlns:rdf="http://www.w3.org/1999/02/22-rdf-syntax-ns#">
 <metadata>
  <rdf:RDF>
   <cc:Work rdf:about="">
    <dc:format>image/svg+xml</dc:format>
    <dc:type rdf:resource="http://purl.org/dc/dcmitype/StillImage"/>
    <dc:title/>
   </cc:Work>
  </rdf:RDF>
 </metadata>
 <defs>
  <linearGradient id="b" x1="399.57" x2="399.57" y1="545.8" y2="517.8" gradientTransform="matrix(2.1429 0 0 2.1429 -826.36 -1107.5)" gradientUnits="userSpaceOnUse">
   <stop stop-color="#3889e9" offset="0"/>
   <stop stop-color="#5ea5fb" offset="1"/>
  </linearGradient>
  <linearGradient id="b-3" x1="89.506" x2="200" y1="31.178" y2="268" gradientTransform="matrix(.71689 0 0 .71689 43.032 81.297)" gradientUnits="userSpaceOnUse">
   <stop stop-color="#cdcdcd" offset="0"/>
   <stop stop-color="#f0f0f0" offset="1"/>
  </linearGradient>
  <linearGradient id="a" x1="428.03" x2="57.573" y1="50.084" y2="523.88" gradientTransform="matrix(0 -.076871 -.076865 0 53.368 50.491)" gradientUnits="userSpaceOnUse">
   <stop stop-color="#e6e6e6" offset="0"/>
   <stop stop-color="#fff" offset="1"/>
  </linearGradient>
  <linearGradient id="linearGradient973" x1="38.22" x2="50.999" y1="43.027" y2="38.277" gradientUnits="userSpaceOnUse">
   <stop stop-color="#3287ff" offset="0"/>
   <stop stop-color="#14b4ff" offset="1"/>
  </linearGradient>
 </defs>
 <path d="m50.249 9.1937q-3.8597-2.9725-8.444-4.5557-4.7372-1.6373-9.8021-1.6373c-16.57 0-30.003 13.432-30.003 30.001 0 15.158 11.245 27.684 25.845 29.709 0.71216 0.09855 1.4339 0.17485 2.1587 0.21936 0.66128 0.04133 1.3258 0.06994 1.9998 0.06994 16.567 0 29.997-13.432 29.997-29.999 0-1.3098-0.08266-2.6037-0.24481-3.8658-0.18758-1.4751-0.49279-2.909-0.88387-4.3046q-1.3289-4.6892-4.0822-8.7265-2.7215-3.9771-6.5401-6.9112z" opacity=".2" stroke-width=".99724"/>
 <path d="m50.249 8.1932q-3.8597-2.9725-8.444-4.5557-4.7372-1.6373-9.8021-1.6373c-16.57 0-30.003 13.432-30.003 30.001 0 15.158 11.245 27.684 25.845 29.709 0.71216 0.09855 1.4339 0.17485 2.1587 0.21936 0.66128 0.04133 1.3258 0.06994 1.9998 0.06994 16.567 0 29.997-13.432 29.997-29.999 0-1.3098-0.08266-2.6037-0.24481-3.8658-0.18758-1.4751-0.49279-2.909-0.88387-4.3046q-1.3289-4.6892-4.0822-8.7265-2.7215-3.9771-6.5401-6.9112z" fill="#fafafa" stroke-width=".99724"/>
 <circle cx="32.02" cy="32.044" r="30.001" fill-opacity="0" stroke-width="1.5715"/>
 <circle cx="32.02" cy="32.044" r="0" fill="url(#b)" stroke-width="1.5715"/>
 <g stroke-width=".64118">
  <path d="m51 39.817c0 5.9878-0.61503 6.6324-6.6151 6.6029h-24.77c-5.9999 0.02935-6.6151-0.61494-6.6151-6.6029v-16.651c0-5.9878 0.61496-6.6029 6.6151-6.6029h24.77c6 0 6.6151 0.61494 6.6151 6.6029z" color="#000000" fill="url(#a)"/>
  <path d="m13 38.277v1.5397c0 5.9878 0.6148 6.6324 6.6144 6.6029h24.77c5.9999 0.02935 6.6151-0.61498 6.6151-6.6029v-1.5397z" color="#000000" fill="url(#linearGradient973)"/>
  <path d="m17.156 41.242c0.01149 0.76768 0.02025 1.5357 0.05599 2.3027 8.4039 0.1312 16.85 0.10178 25.25 0.06229 1.444-0.01282 2.8882-0.02253 4.3318-0.05798 0.03411-0.84815 0.05299-1.6969 0.0666-2.5456h-29.708c9.36e-4 0.07952 0.0019 0.15904 0.0028 0.23856z" enable-background="new" opacity=".5"/>
  <path d="m17.153 41.342c9.36e-4 0.07952 0.0017 0.15904 0.0027 0.23856 0.01149 0.76768 0.02025 1.5357 0.056 2.3027 8.4039 0.1312 16.85 0.10178 25.25 0.06229 1.444-0.01282 2.8882-0.02253 4.3318-0.05798 0.0341-0.84815 0.05299-1.6969 0.0666-2.5456h-7e-3c-0.01316 0.73563-0.03008 1.4712-0.05964 2.2064-1.4437 0.03546-2.8878 0.04516-4.3318 0.05798-8.4007 0.03949-16.846 0.06891-25.25-0.06229-0.03418-0.73351-0.04353-1.4679-0.05434-2.202z" enable-background="new" fill="#fff" opacity=".3"/>
 </g>
 <g transform="matrix(.16964 0 0 .16964 6.2149 5.0273)" enable-background="new">
  <path d="m72.58 212a81.726 81.726 0 0 0 79.42 62.857 81.726 81.726 0 0 0 79.426-62.857z" enable-background="new" opacity=".1"/>
  <path d="m74.049 212a80.292 80.292 0 0 0 77.951 61.424 80.292 80.292 0 0 0 77.947-61.424z" enable-background="new" fill="url(#b-3)"/>
  <path d="m152 212v61.424a80.292 80.292 0 0 0 77.951-61.424z" enable-background="new" fill="#fff" opacity=".2"/>
  <path d="m170.88 212 37.881 37.883a80.292 80.292 0 0 0 12.783-16.605l-36.852-21.277zm37.59 38.199a80.292 80.292 0 0 1-0.91016 0.84766 80.292 80.292 0 0 0 0.91016-0.84766zm-5.041 4.5195a80.292 80.292 0 0 1-3.1836 2.4941 80.292 80.292 0 0 0 3.1836-2.4941zm-6.4082 4.8281a80.292 80.292 0 0 1-3.4141 2.1602 80.292 80.292 0 0 0 3.4141-2.1602zm-85.109 3.0371-0.0469 0.082a80.292 80.292 0 0 0 1.3652 0.69921 80.292 80.292 0 0 1-1.3184-0.78125zm78.258 1.1211a80.292 80.292 0 0 1-3.6094 1.8105 80.292 80.292 0 0 0 3.6094-1.8105zm-73.377 1.4863a80.292 80.292 0 0 0 3.6426 1.6953 80.292 80.292 0 0 1-3.6426-1.6953zm66.131 1.9746a80.292 80.292 0 0 1-3.7559 1.4336 80.292 80.292 0 0 0 3.7559-1.4336zm-58.746 1.1875a80.292 80.292 0 0 0 3.7734 1.3164 80.292 80.292 0 0 1-3.7734-1.3164zm51.201 1.5293a80.292 80.292 0 0 1-3.8828 1.0508 80.292 80.292 0 0 0 3.8828-1.0508zm-43.547 0.875a80.292 80.292 0 0 0 3.8789 0.92969 80.292 80.292 0 0 1-3.8789-0.92969zm35.768 1.0742a80.292 80.292 0 0 1-3.9551 0.65625 80.292 80.292 0 0 0 3.9551-0.65625zm-27.932 0.54883a80.292 80.292 0 0 0 3.9805 0.54297 80.292 80.292 0 0 1-3.9805-0.54297zm19.988 0.61523a80.292 80.292 0 0 1-3.9863 0.25782 80.292 80.292 0 0 0 3.9863-0.25782zm-12.016 0.22071a80.292 80.292 0 0 0 4.0039 0.14453 80.292 80.292 0 0 1-4.0039-0.14453z" enable-background="new" fill="#faf8f6"/>
  <path d="m128 212c5.4385 6.2247 12.859 10.991 24 11 9.8847 0.1112 18.566-4.7799 24-11z" enable-background="new" fill="#3287ff"/>
  <path d="m134.44 212a25.808 25.808 0 0 0 17.562 6.9414 25.808 25.808 0 0 0 17.578-6.9414z" enable-background="new" fill="#faf8f6"/>
  <path d="m74.049 212a80.292 80.292 0 0 0 77.951 61.424 80.292 80.292 0 0 0 77.947-61.424h-0.3418a80.292 80.292 0 0 1-77.605 59.99 80.292 80.292 0 0 1-77.551-59.99z" enable-background="new" opacity=".2"/>
 </g>
 <path d="m17.153 41.003c9.36e-4 0.07952 0.0017 0.15904 0.0027 0.23856 5.09e-4 0.03357 0.0012 0.06715 0.0017 0.10072h29.696c2e-3 -0.1131 0.0051-0.22618 7e-3 -0.33929z" enable-background="new" opacity=".2" stroke-width=".64118"/>
</svg>
