<?xml version="1.0" encoding="UTF-8"?>
<svg width="64" height="64" version="1.1" xmlns="http://www.w3.org/2000/svg" xmlns:cc="http://creativecommons.org/ns#" xmlns:dc="http://purl.org/dc/elements/1.1/" xmlns:rdf="http://www.w3.org/1999/02/22-rdf-syntax-ns#" xmlns:xlink="http://www.w3.org/1999/xlink">
 <metadata>
  <rdf:RDF>
   <cc:Work rdf:about="">
    <dc:format>image/svg+xml</dc:format>
    <dc:type rdf:resource="http://purl.org/dc/dcmitype/StillImage"/>
    <dc:title/>
   </cc:Work>
  </rdf:RDF>
 </metadata>
 <defs>
  <linearGradient id="b" x1="399.57" x2="399.57" y1="545.8" y2="517.8" gradientTransform="matrix(2.1429 0 0 2.1429 -826.36 -1107.5)" gradientUnits="userSpaceOnUse">
   <stop stop-color="#3889e9" offset="0"/>
   <stop stop-color="#5ea5fb" offset="1"/>
  </linearGradient>
  <linearGradient id="linearGradient1882" x1="28.997" x2="45.262" y1="32.057" y2="15.47" gradientTransform="matrix(1.1901 0 0 1.1901 -6.0841 -5.9411)" gradientUnits="userSpaceOnUse">
   <stop stop-color="#fff" offset="0"/>
   <stop stop-color="#f0f0f0" offset="1"/>
  </linearGradient>
  <linearGradient id="linearGradient1969" x1="399.57" x2="399.57" y1="545.8" y2="517.8" gradientTransform="matrix(2.1429 0 0 2.1429 -755.97 -1109.2)" gradientUnits="userSpaceOnUse" xlink:href="#b"/>
  <linearGradient id="linearGradient1997" x1="24.755" x2="39.381" y1="20.831" y2="36.289" gradientUnits="userSpaceOnUse">
   <stop stop-color="#e6e6e6" offset="0"/>
   <stop stop-color="#d3d3d3" offset="1"/>
  </linearGradient>
 </defs>
 <path d="m50.249 9.1937q-3.8597-2.9725-8.444-4.5557-4.7372-1.6373-9.8021-1.6373c-16.57 0-30.003 13.432-30.003 30.001 0 15.158 11.245 27.684 25.845 29.709 0.71216 0.09855 1.4339 0.17485 2.1587 0.21936 0.66128 0.04133 1.3258 0.06994 1.9998 0.06994 16.567 0 29.997-13.432 29.997-29.999 0-1.3098-0.08266-2.6037-0.24481-3.8658-0.18758-1.4751-0.49279-2.909-0.88387-4.3046q-1.3289-4.6892-4.0822-8.7265-2.7215-3.9771-6.5401-6.9112z" opacity=".2" stroke-width=".99724"/>
 <path d="m50.249 8.1932q-3.8597-2.9725-8.444-4.5557-4.7372-1.6373-9.8021-1.6373c-16.57 0-30.003 13.432-30.003 30.001 0 15.158 11.245 27.684 25.845 29.709 0.71216 0.09855 1.4339 0.17485 2.1587 0.21936 0.66128 0.04133 1.3258 0.06994 1.9998 0.06994 16.567 0 29.997-13.432 29.997-29.999 0-1.3098-0.08266-2.6037-0.24481-3.8658-0.18758-1.4751-0.49279-2.909-0.88387-4.3046q-1.3289-4.6892-4.0822-8.7265-2.7215-3.9771-6.5401-6.9112z" fill="#fafafa" stroke-width=".99724"/>
 <circle cx="32.02" cy="32.044" r="30.001" fill-opacity="0" stroke-width="1.5715"/>
 <circle cx="32.02" cy="32.044" r="0" fill="url(#b)" stroke-width="1.5715"/>
 <g stroke-width="1.7917">
  <path d="m15.874 21.393v25.086c0 1.971 1.6044 3.5836 3.5836 3.5836h25.086c1.9799 0 3.5836-1.6126 3.5836-3.5836v-25.086z" fill="#5d5d5d"/>
  <rect x="37.376" y="42.893" width="8.9589" height="7.1668" fill="#fff" opacity=".2"/>
  <path d="m19.457 12.433c-1.9792 0-3.5836 1.6044-3.5836 3.5836v25.086c0 1.9799 1.6044 3.5836 3.5836 3.5836h25.086c1.9799 0 3.5836-1.6037 3.5836-3.5836v-25.086c0-1.9792-1.6037-3.5836-3.5836-3.5836z" fill="url(#linearGradient1882)"/>
  <rect x="39.167" y="46.477" width="5.3753" height="1.7917" fill="#ffc80f"/>
 </g>
 <circle cx="102.41" cy="30.37" r="0" fill="url(#linearGradient1969)" stroke-width="1.5715"/>
 <path d="m37.089 20.345-3.2009 3.1796 2.5638 2.5808 3.2007-3.1796zm-9.8831 0.1901-2.8577 2.9201 0.91504 0.89561 2.8577-2.9205zm2.0097 1.9665-2.8581 2.9205 0.91504 0.89537 2.8581-2.9205zm2.7324 2.4799c-1.7196 0-3.1289 1.3885-3.1289 3.078 0 1.6896 1.4092 3.0756 3.1289 3.0756 1.7198 0 3.1264-1.3859 3.1264-3.0756s-1.4067-3.078-3.1264-3.078zm0 1.3068c0.99744 0 1.7974 0.78618 1.7974 1.7713 0 0.98515-0.80022 1.7688-1.7974 1.7688s-1.7974-0.78364-1.7974-1.7688 0.79995-1.7713 1.7974-1.7713zm-2.0951 6.395v1.2802h4.0858v-1.2802zm0 2.8118v1.2802h4.0858v-1.2802z" enable-background="new" fill="url(#linearGradient1997)" stroke-width="2.0512"/>
</svg>
