<?xml version="1.0" encoding="UTF-8"?>
<svg width="64" height="64" version="1.1" xmlns="http://www.w3.org/2000/svg" xmlns:cc="http://creativecommons.org/ns#" xmlns:dc="http://purl.org/dc/elements/1.1/" xmlns:rdf="http://www.w3.org/1999/02/22-rdf-syntax-ns#">
 <metadata>
  <rdf:RDF>
   <cc:Work rdf:about="">
    <dc:format>image/svg+xml</dc:format>
    <dc:type rdf:resource="http://purl.org/dc/dcmitype/StillImage"/>
    <dc:title/>
   </cc:Work>
  </rdf:RDF>
 </metadata>
 <defs>
  <linearGradient id="b" x1="399.57" x2="399.57" y1="545.8" y2="517.8" gradientTransform="matrix(2.1429 0 0 2.1429 -826.36 -1107.5)" gradientUnits="userSpaceOnUse">
   <stop stop-color="#3889e9" offset="0"/>
   <stop stop-color="#5ea5fb" offset="1"/>
  </linearGradient>
  <linearGradient id="a-7" x1="479.94" x2="60.82" y1="259.18" y2="259.18" gradientTransform="matrix(0 -.08181 -.081807 0 53.297 50.595)" gradientUnits="userSpaceOnUse">
   <stop stop-color="#32b4ff" offset="0"/>
   <stop stop-color="#3287ff" offset="1"/>
  </linearGradient>
 </defs>
 <path d="m50.249 9.1937q-3.8597-2.9725-8.444-4.5557-4.7372-1.6373-9.8021-1.6373c-16.57 0-30.003 13.432-30.003 30.001 0 15.158 11.245 27.684 25.845 29.709 0.71216 0.09855 1.4339 0.17485 2.1587 0.21936 0.66128 0.04133 1.3258 0.06994 1.9998 0.06994 16.567 0 29.997-13.432 29.997-29.999 0-1.3098-0.08266-2.6037-0.24481-3.8658-0.18758-1.4751-0.49279-2.909-0.88387-4.3046q-1.3289-4.6892-4.0822-8.7265-2.7215-3.9771-6.5401-6.9112z" opacity=".2" stroke-width=".99724"/>
 <path d="m50.249 8.1932q-3.8597-2.9725-8.444-4.5557-4.7372-1.6373-9.8021-1.6373c-16.57 0-30.003 13.432-30.003 30.001 0 15.158 11.245 27.684 25.845 29.709 0.71216 0.09855 1.4339 0.17485 2.1587 0.21936 0.66128 0.04133 1.3258 0.06994 1.9998 0.06994 16.567 0 29.997-13.432 29.997-29.999 0-1.3098-0.08266-2.6037-0.24481-3.8658-0.18758-1.4751-0.49279-2.909-0.88387-4.3046q-1.3289-4.6892-4.0822-8.7265-2.7215-3.9771-6.5401-6.9112z" fill="#fafafa" stroke-width=".99724"/>
 <circle cx="32.02" cy="32.044" r="30.001" fill-opacity="0" stroke-width="1.5715"/>
 <circle cx="32.02" cy="32.044" r="0" fill="url(#b)" stroke-width="1.5715"/>
 <g stroke-width="2.7539">
  <rect x="23.256" y="45.115" width="17.487" height="7.2863" enable-background="new" fill="#c8c8c8"/>
  <rect x="23.256" y="44.385" width="17.487" height="7.2863" fill="#f0f0f0"/>
  <rect transform="scale(-1,1)" x="-29.814" y="47.301" width="4.3718" height="2.1859" fill="#c8c8c8"/>
 </g>
 <g stroke-width="2.7539">
  <path d="m37.972 11.598c6.3725 0 7.0582 0.65455 7.0271 7.0401v19.501c0.03123 6.3855-0.65444 7.0401-7.0271 7.0401h-11.944c-6.3725 0-7.0271-0.65446-7.0271-7.0401v-19.501c0-6.3855 0.65446-7.0401 7.0271-7.0401z" color="#000000" fill="url(#a-7)"/>
  <path d="m32.001 16.293-1.6679 2.888h1.1897v13.678l-3.0367-2.874c-0.19608-0.24462-0.33372-0.56502-0.34135-0.89425 0-1.3319 2.2e-5 -2.1229-7.52e-4 -2.4141 0.56226-0.19734 0.96761-0.72742 0.96761-1.3576 0-0.7972-0.64684-1.4436-1.4443-1.4436-0.79786 0-1.4443 0.64637-1.4443 1.4436 0 0.63018 0.40582 1.1603 0.96761 1.3576l-7.49e-4 2.3858c0 0.64656 0.35498 1.3242 0.77084 1.7554v7.51e-4c0.01019 0.0091 3.2215 3.0494 3.2215 3.0494 0.19578 0.24409 0.33278 0.56383 0.34063 0.89284v2.5382c-0.78431 0.21508-1.328 0.92798-1.328 1.7412 0 0.9971 0.80832 1.8054 1.8054 1.8054 0.9971 0 1.8054-0.80832 1.8054-1.8054-7.51e-4 -0.81314-0.54502-1.5254-1.3294-1.7399v-2.5107c0-0.0042 1.82e-4 -0.0084 0-0.01272v-2.9062c0.0083-0.32838 0.14532-0.64827 0.34135-0.89213 0 0 3.211-3.0395 3.2215-3.0488 0.41581-0.43121 0.77084-1.1094 0.77084-1.7561l-7.5e-4 -2.2991h0.9683v-2.8886h-2.8886v2.8886h0.96689s-7.49e-4 0.60561-7.49e-4 2.3273c-0.0074 0.32928-0.14527 0.64976-0.34135 0.89425l-3.0376 2.8745v-10.79h1.1919z" enable-background="new" fill="#fafafa"/>
  <path d="m19.001 37.778v0.36109c-0.03123 6.3855 0.65449 7.0401 7.0271 7.0401h11.944c6.3725 0 6.8613-0.65672 7.0271-7.0401v-0.36109c-0.16578 6.3835-0.65449 7.0401-7.0271 7.0401h-11.944c-6.3725 0-7.0582-0.65466-7.0271-7.0401z" color="#000000" opacity=".2"/>
  <rect transform="scale(-1,1)" x="-38.558" y="47.301" width="4.3718" height="2.1859" fill="#c8c8c8"/>
 </g>
</svg>
