<?xml version="1.0" encoding="UTF-8"?>
<svg width="64" height="64" version="1.1" xmlns="http://www.w3.org/2000/svg" xmlns:cc="http://creativecommons.org/ns#" xmlns:dc="http://purl.org/dc/elements/1.1/" xmlns:rdf="http://www.w3.org/1999/02/22-rdf-syntax-ns#" xmlns:xlink="http://www.w3.org/1999/xlink">
 <metadata>
  <rdf:RDF>
   <cc:Work rdf:about="">
    <dc:format>image/svg+xml</dc:format>
    <dc:type rdf:resource="http://purl.org/dc/dcmitype/StillImage"/>
    <dc:title/>
   </cc:Work>
  </rdf:RDF>
 </metadata>
 <defs>
  <linearGradient id="b" x1="399.57" x2="399.57" y1="545.8" y2="517.8" gradientTransform="matrix(2.1429 0 0 2.1429 -826.36 -1107.5)" gradientUnits="userSpaceOnUse">
   <stop stop-color="#3889e9" offset="0"/>
   <stop stop-color="#5ea5fb" offset="1"/>
  </linearGradient>
  <linearGradient id="d" x1="32.045" x2="30" y1="1.7894" y2="61.55" gradientTransform="matrix(.86339 0 0 .8182 -320.77 -397.49)" gradientUnits="userSpaceOnUse">
   <stop stop-color="#f9f9f9" offset="0"/>
   <stop stop-color="#e6e6e6" offset="1"/>
  </linearGradient>
  <linearGradient id="a-5" x1="152" x2="152" y1="108" y2="244" gradientTransform="matrix(.063782 0 0 .063782 -1.2368 -1.7313)" gradientUnits="userSpaceOnUse">
   <stop stop-color="#808080" offset="0"/>
   <stop stop-color="#999" offset="1"/>
  </linearGradient>
  <linearGradient id="b-35" x1="529.66" x2="-35.31" y1="295.64" y2="295.64" gradientTransform="matrix(0 -.028901 -.0289 0 16.492 15.617)" gradientUnits="userSpaceOnUse">
   <stop stop-color="#999" offset="0"/>
   <stop stop-color="#b7b7b7" offset=".61328"/>
   <stop stop-color="#dbdbdb" offset="1"/>
  </linearGradient>
 </defs>
 <path d="m50.249 9.1937q-3.8597-2.9725-8.444-4.5557-4.7372-1.6373-9.8021-1.6373c-16.57 0-30.003 13.432-30.003 30.001 0 15.158 11.245 27.684 25.845 29.709 0.71216 0.09855 1.4339 0.17485 2.1587 0.21936 0.66128 0.04133 1.3258 0.06994 1.9998 0.06994 16.567 0 29.997-13.432 29.997-29.999 0-1.3098-0.08266-2.6037-0.24481-3.8658-0.18758-1.4751-0.49279-2.909-0.88387-4.3046q-1.3289-4.6892-4.0822-8.7265-2.7215-3.9771-6.5401-6.9112z" opacity=".2" stroke-width=".99724"/>
 <path d="m50.249 8.1932q-3.8597-2.9725-8.444-4.5557-4.7372-1.6373-9.8021-1.6373c-16.57 0-30.003 13.432-30.003 30.001 0 15.158 11.245 27.684 25.845 29.709 0.71216 0.09855 1.4339 0.17485 2.1587 0.21936 0.66128 0.04133 1.3258 0.06994 1.9998 0.06994 16.567 0 29.997-13.432 29.997-29.999 0-1.3098-0.08266-2.6037-0.24481-3.8658-0.18758-1.4751-0.49279-2.909-0.88387-4.3046q-1.3289-4.6892-4.0822-8.7265-2.7215-3.9771-6.5401-6.9112z" fill="url(#d)" stroke-width=".99724"/>
 <circle cx="32.02" cy="32.044" r="30.001" fill-opacity="0" stroke-width="1.5715"/>
 <circle cx="32.02" cy="32.044" r="0" fill="url(#b)" stroke-width="1.5715"/>
 <g transform="matrix(2.6724 0 0 2.6724 9.3978 9.0138)">
  <path d="m11.588 1.5854c2.2513 0 2.4935 0.23124 2.4825 2.4871v9.313c0.01104 2.2559-0.2312 2.4871-2.4825 2.4871h-6.2607c-2.2513 0-2.4825-0.23121-2.4825-2.4871v-9.313c0-2.2559 0.2312-2.4871 2.4825-2.4871z" color="#000000" opacity=".35"/>
  <path d="m11.588 1.3302c2.2513 0 2.4935 0.23124 2.4825 2.4871v9.313c0.01104 2.2559-0.2312 2.4871-2.4825 2.4871h-6.2607c-2.2513 0-2.4825-0.23121-2.4825-2.4871v-9.313c0-2.2559 0.2312-2.4871 2.4825-2.4871z" color="#000000" fill="url(#b-35)"/>
  <path d="m10.964 5.6403-1.5605 1.5501 1.2499 1.2582 1.5604-1.5501zm-4.8182 0.09268-1.3932 1.4236 0.4461 0.43663 1.3932-1.4238zm0.97978 0.95873-1.3934 1.4238 0.4461 0.43651 1.3934-1.4238zm1.3321 1.209c-0.83836 0-1.5254 0.67694-1.5254 1.5006 0 0.82369 0.68699 1.4994 1.5254 1.4994 0.83843 0 1.5242-0.67563 1.5242-1.4994 0-0.82375-0.68581-1.5006-1.5242-1.5006zm0 0.63707c0.48627 0 0.87626 0.38328 0.87626 0.86355 0 0.48028-0.39012 0.86231-0.87626 0.86231s-0.87626-0.38204-0.87626-0.86231 0.38999-0.86355 0.87626-0.86355zm-1.0214 3.1177v0.62412h1.9919v-0.62412zm0 1.3708v0.62412h1.9919v-0.62412z" enable-background="new" fill="#fff" opacity=".2"/>
  <path d="m10.964 5.5127-1.5605 1.5501 1.2499 1.2582 1.5604-1.5501zm-4.8182 0.09268-1.3932 1.4236 0.4461 0.43663 1.3932-1.4238zm0.97978 0.95873-1.3934 1.4238 0.4461 0.43651 1.3934-1.4238zm1.3321 1.209c-0.83836 0-1.5254 0.67694-1.5254 1.5006 0 0.82369 0.68699 1.4994 1.5254 1.4994 0.83843 0 1.5242-0.67563 1.5242-1.4994 0-0.82375-0.68581-1.5006-1.5242-1.5006zm0 0.63708c0.48627 0 0.87626 0.38328 0.87626 0.86355 0 0.48028-0.39012 0.86231-0.87626 0.86231s-0.87626-0.38204-0.87626-0.86231 0.38999-0.86355 0.87626-0.86355zm-1.0214 3.1177v0.62412h1.9919v-0.62412zm0 1.3708v0.62412h1.9919v-0.62412z" enable-background="new" fill="url(#a-5)"/>
 </g>
</svg>
