<?xml version="1.0" encoding="UTF-8"?>
<svg width="64" height="64" version="1.1" xmlns="http://www.w3.org/2000/svg" xmlns:cc="http://creativecommons.org/ns#" xmlns:dc="http://purl.org/dc/elements/1.1/" xmlns:rdf="http://www.w3.org/1999/02/22-rdf-syntax-ns#">
 <metadata>
  <rdf:RDF>
   <cc:Work rdf:about="">
    <dc:format>image/svg+xml</dc:format>
    <dc:type rdf:resource="http://purl.org/dc/dcmitype/StillImage"/>
    <dc:title/>
   </cc:Work>
  </rdf:RDF>
 </metadata>
 <defs>
  <linearGradient id="b" x1="399.57" x2="399.57" y1="545.8" y2="517.8" gradientTransform="matrix(2.1429 0 0 2.1429 -826.36 -1107.5)" gradientUnits="userSpaceOnUse">
   <stop stop-color="#3889e9" offset="0"/>
   <stop stop-color="#5ea5fb" offset="1"/>
  </linearGradient>
 </defs>
 <path d="m50.249 9.1937q-3.8597-2.9725-8.444-4.5557-4.7372-1.6373-9.8021-1.6373c-16.57 0-30.003 13.432-30.003 30.001 0 15.158 11.245 27.684 25.845 29.709 0.71216 0.09855 1.4339 0.17485 2.1587 0.21936 0.66128 0.04133 1.3258 0.06994 1.9998 0.06994 16.567 0 29.997-13.432 29.997-29.999 0-1.3098-0.08266-2.6037-0.24481-3.8658-0.18758-1.4751-0.49279-2.909-0.88387-4.3046q-1.3289-4.6892-4.0822-8.7265-2.7215-3.9771-6.5401-6.9112z" opacity=".2" stroke-width=".99724"/>
 <path d="m50.249 8.1932q-3.8597-2.9725-8.444-4.5557-4.7372-1.6373-9.8021-1.6373c-16.57 0-30.003 13.432-30.003 30.001 0 15.158 11.245 27.684 25.845 29.709 0.71216 0.09855 1.4339 0.17485 2.1587 0.21936 0.66128 0.04133 1.3258 0.06994 1.9998 0.06994 16.567 0 29.997-13.432 29.997-29.999 0-1.3098-0.08266-2.6037-0.24481-3.8658-0.18758-1.4751-0.49279-2.909-0.88387-4.3046q-1.3289-4.6892-4.0822-8.7265-2.7215-3.9771-6.5401-6.9112z" fill="#fafafa" stroke-width=".99724"/>
 <circle cx="32.02" cy="32.044" r="30.001" fill-opacity="0" stroke-width="1.5715"/>
 <circle cx="32.02" cy="32.044" r="0" fill="url(#b)" stroke-width="1.5715"/>
 <circle cx="32" cy="32" r="20" enable-background="new" opacity=".05" stroke-width=".66309"/>
 <path d="m32 12.35a19.649 19.649 0 0 0-19.649 19.649h19.649zm0 19.649v19.649a19.649 19.649 0 0 0 19.649-19.649z" enable-background="new" fill="#fff" opacity=".3" stroke-width=".66309"/>
 <g stroke-width=".66309">
  <path d="m26.64 13.096a19.649 19.649 0 0 0-0.35678 0.12079 19.649 19.649 0 0 1 0.95021-0.25744 19.649 19.649 0 0 0-0.59341 0.13666zm1.5473-0.35642a19.649 19.649 0 0 1 0.96791-0.16074 19.649 19.649 0 0 0-0.96791 0.16074zm-2.8314 0.79093a19.649 19.649 0 0 0-0.91878 0.35083 19.649 19.649 0 0 1 0.91878-0.35083zm4.7754-1.0756a19.649 19.649 0 0 1 0.97521-0.06336 19.649 19.649 0 0 0-0.97521 0.06336zm-6.5845 1.8307a19.649 19.649 0 0 0-0.88317 0.44274 19.649 19.649 0 0 1 0.88317-0.44274zm8.5452-1.92a19.649 19.649 0 0 1 0.97998 0.03505 19.649 19.649 0 0 0-0.97998-0.03505zm-10.269 2.8518a19.649 19.649 0 0 0-0.83556 0.52897 19.649 19.649 0 0 1 0.83556-0.52897zm12.226-2.7449a19.649 19.649 0 0 1 0.97421 0.13272 19.649 19.649 0 0 0-0.97421-0.13272zm-13.851 3.8451a19.649 19.649 0 0 0-0.77867 0.61022 19.649 19.649 0 0 1 0.77867-0.61022zm15.793-3.5426a19.649 19.649 0 0 1 0.94928 0.22773 19.649 19.649 0 0 0-0.94928-0.22773zm-17.583 5.0513a19.649 19.649 0 0 0-0.22284 0.20763 19.649 19.649 0 0 1 0.22284-0.20763zm-0.29401 0.28488a19.649 19.649 0 0 0-3.1283 4.0639l17.017 9.8243zm13.888 13.888 13.888 13.888a19.649 19.649 0 0 0 3.1283-4.0639zm5.8877-18.73a19.649 19.649 0 0 1 0.92375 0.32184 19.649 19.649 0 0 0-0.92375-0.32184zm1.8395 0.68093a19.649 19.649 0 0 1 0.89159 0.41489 19.649 19.649 0 0 0-0.89159-0.41489zm1.7634 0.86168a19.649 19.649 0 0 1 0.32231 0.1914l0.01163-0.02014a19.649 19.649 0 0 0-0.33394-0.17126zm-19.303 34.184-0.01163 0.02014a19.649 19.649 0 0 0 0.33394 0.17126 19.649 19.649 0 0 1-0.32231-0.1914zm1.1941 0.6382a19.649 19.649 0 0 0 0.89159 0.41489 19.649 19.649 0 0 1-0.89159-0.41489zm1.8073 0.77402a19.649 19.649 0 0 0 0.92375 0.32184 19.649 19.649 0 0 1-0.92375-0.32184zm20.629-4.443a19.649 19.649 0 0 1-0.22284 0.20763 19.649 19.649 0 0 0 0.22284-0.20763zm-18.756 5.0312a19.649 19.649 0 0 0 0.94928 0.22773 19.649 19.649 0 0 1-0.94928-0.22773zm17.521-3.9251a19.649 19.649 0 0 1-0.77867 0.61022 19.649 19.649 0 0 0 0.77867-0.61022zm-15.604 4.3226a19.649 19.649 0 0 0 0.97421 0.13272 19.649 19.649 0 0 1-0.97421-0.13272zm14.036-3.1412a19.649 19.649 0 0 1-0.83556 0.52897 19.649 19.649 0 0 0 0.83556-0.52897zm-12.085 3.3456a19.649 19.649 0 0 0 0.97998 0.03505 19.649 19.649 0 0 1-0.97998-0.03505zm10.408-2.3276a19.649 19.649 0 0 1-0.88317 0.44275 19.649 19.649 0 0 0 0.88317-0.44275zm-8.4431 2.3367a19.649 19.649 0 0 0 0.97521-0.06337 19.649 19.649 0 0 1-0.97521 0.06337zm6.6694-1.4898a19.649 19.649 0 0 1-0.91878 0.35084 19.649 19.649 0 0 0 0.91878-0.35084zm-4.7182 1.3025a19.649 19.649 0 0 0 0.96791-0.16074 19.649 19.649 0 0 1-0.96791 0.16074zm2.872-0.63795a19.649 19.649 0 0 1-0.95021 0.25744 19.649 19.649 0 0 0 0.95021-0.25744z" enable-background="new" fill="#fff"/>
  <circle transform="scale(1,-1)" cx="32" cy="-32" r="7.0175" enable-background="new" fill="#3287ff"/>
  <circle cx="32" cy="32" r="6.3158" enable-background="new" fill="#fafafa"/>
 </g>
 <g stroke-width=".66309">
  <circle cx="32" cy="32" r="2.4562" enable-background="new" fill="#4d4d4d"/>
  <path d="m32 12.35a19.649 19.649 0 0 0-19.649 19.649 19.649 19.649 0 0 0 0.0072 0.20525 19.649 19.649 0 0 1 19.642-19.503 19.649 19.649 0 0 1 19.642 19.444 19.649 19.649 0 0 0 0.0072-0.14563 19.649 19.649 0 0 0-19.649-19.649z" enable-background="new" fill="#fff" opacity=".3"/>
  <path d="m32 51.648a19.649 19.649 0 0 1-19.649-19.649 19.649 19.649 0 0 1 0.0072-0.20525 19.649 19.649 0 0 0 19.642 19.503 19.649 19.649 0 0 0 19.642-19.444 19.649 19.649 0 0 1 0.0072 0.14563 19.649 19.649 0 0 1-19.649 19.649z" enable-background="new" opacity=".2"/>
 </g>
</svg>
