<?xml version="1.0" encoding="UTF-8"?>
<svg width="64" height="64" version="1.1" xmlns="http://www.w3.org/2000/svg" xmlns:cc="http://creativecommons.org/ns#" xmlns:dc="http://purl.org/dc/elements/1.1/" xmlns:rdf="http://www.w3.org/1999/02/22-rdf-syntax-ns#" xmlns:xlink="http://www.w3.org/1999/xlink">
 <metadata>
  <rdf:RDF>
   <cc:Work rdf:about="">
    <dc:format>image/svg+xml</dc:format>
    <dc:type rdf:resource="http://purl.org/dc/dcmitype/StillImage"/>
    <dc:title/>
   </cc:Work>
  </rdf:RDF>
 </metadata>
 <defs>
  <linearGradient id="b" x1="399.57" x2="399.57" y1="545.8" y2="517.8" gradientTransform="matrix(2.1429 0 0 2.1429 -826.36 -1107.5)" gradientUnits="userSpaceOnUse">
   <stop stop-color="#3889e9" offset="0"/>
   <stop stop-color="#5ea5fb" offset="1"/>
  </linearGradient>
  <linearGradient id="d" x1="32.045" x2="30" y1="1.7894" y2="61.55" gradientTransform="matrix(.86339 0 0 .8182 -320.77 -397.49)" gradientUnits="userSpaceOnUse">
   <stop stop-color="#f9f9f9" offset="0"/>
   <stop stop-color="#e6e6e6" offset="1"/>
  </linearGradient>
  <linearGradient id="a-5" x1="104" x2="200" y1="44" y2="268" gradientTransform="matrix(.26458 0 0 .26458 -26.458 -37.306)" gradientUnits="userSpaceOnUse">
   <stop stop-color="#cdcdcd" offset="0"/>
   <stop stop-color="#d9d9d9" offset="1"/>
  </linearGradient>
 </defs>
 <path d="m50.249 9.1937q-3.8597-2.9725-8.444-4.5557-4.7372-1.6373-9.8021-1.6373c-16.57 0-30.003 13.432-30.003 30.001 0 15.158 11.245 27.684 25.845 29.709 0.71216 0.09855 1.4339 0.17485 2.1587 0.21936 0.66128 0.04133 1.3258 0.06994 1.9998 0.06994 16.567 0 29.997-13.432 29.997-29.999 0-1.3098-0.08266-2.6037-0.24481-3.8658-0.18758-1.4751-0.49279-2.909-0.88387-4.3046q-1.3289-4.6892-4.0822-8.7265-2.7215-3.9771-6.5401-6.9112z" opacity=".2" stroke-width=".99724"/>
 <path d="m50.249 8.1932q-3.8597-2.9725-8.444-4.5557-4.7372-1.6373-9.8021-1.6373c-16.57 0-30.003 13.432-30.003 30.001 0 15.158 11.245 27.684 25.845 29.709 0.71216 0.09855 1.4339 0.17485 2.1587 0.21936 0.66128 0.04133 1.3258 0.06994 1.9998 0.06994 16.567 0 29.997-13.432 29.997-29.999 0-1.3098-0.08266-2.6037-0.24481-3.8658-0.18758-1.4751-0.49279-2.909-0.88387-4.3046q-1.3289-4.6892-4.0822-8.7265-2.7215-3.9771-6.5401-6.9112z" fill="url(#d)" stroke-width=".99724"/>
 <circle cx="32.02" cy="32.044" r="30.001" fill-opacity="0" stroke-width="1.5715"/>
 <circle cx="32.02" cy="32.044" r="0" fill="url(#b)" stroke-width="1.5715"/>
 <g transform="matrix(.66309 0 0 .66309 22.877 29.368)">
  <circle cx="13.758" cy="3.9687" r="30.162" enable-background="new" opacity=".1"/>
  <circle cx="13.758" cy="3.9687" r="29.633" enable-background="new" fill="url(#a-5)"/>
  <path d="m13.758-25.664a29.633 29.633 0 0 0-29.633 29.633h29.633zm0 29.633v29.633a29.633 29.633 0 0 0 29.633-29.633z" enable-background="new" fill="#fff" opacity=".2"/>
  <path d="m34.712-16.985a29.633 29.633 0 0 0-41.907 0l20.954 20.954zm-20.954 20.954-20.954 20.954a29.633 29.633 0 0 0 41.907 0z" enable-background="new" opacity=".02"/>
  <path d="m5.6748-24.54a29.633 29.633 0 0 0-0.53806 0.18216 29.633 29.633 0 0 1 1.433-0.38824 29.633 29.633 0 0 0-0.89491 0.20609zm2.3335-0.53752a29.633 29.633 0 0 1 1.4597-0.24241 29.633 29.633 0 0 0-1.4597 0.24241zm-4.27 1.1928a29.633 29.633 0 0 0-1.3856 0.52909 29.633 29.633 0 0 1 1.3856-0.52909zm7.2017-1.6221a29.633 29.633 0 0 1 1.4707-0.09556 29.633 29.633 0 0 0-1.4707 0.09556zm-9.93 2.7608a29.633 29.633 0 0 0-1.3319 0.6677 29.633 29.633 0 0 1 1.3319-0.6677zm12.887-2.8955a29.633 29.633 0 0 1 1.4779 0.05286 29.633 29.633 0 0 0-1.4779-0.05286zm-15.487 4.3007a29.633 29.633 0 0 0-1.2601 0.79774 29.633 29.633 0 0 1 1.2601-0.79774zm18.438-4.1396a29.633 29.633 0 0 1 1.4692 0.20016 29.633 29.633 0 0 0-1.4692-0.20016zm-20.888 5.7987a29.633 29.633 0 0 0-1.1743 0.92026 29.633 29.633 0 0 1 1.1743-0.92026zm23.818-5.3426a29.633 29.633 0 0 1 1.4316 0.34344 29.633 29.633 0 0 0-1.4316-0.34344zm-26.517 7.6178a29.633 29.633 0 0 0-0.33606 0.31313 29.633 29.633 0 0 1 0.33606-0.31313zm-0.4434 0.42963a29.633 29.633 0 0 0-4.7177 6.1287l25.663 14.816zm20.945 20.945 20.945 20.945a29.633 29.633 0 0 0 4.7177-6.1287zm8.8792-28.247a29.633 29.633 0 0 1 1.3931 0.48536 29.633 29.633 0 0 0-1.3931-0.48536zm2.7741 1.0269a29.633 29.633 0 0 1 1.3446 0.62569 29.633 29.633 0 0 0-1.3446-0.62569zm2.6593 1.2995a29.633 29.633 0 0 1 0.48607 0.28865l0.01754-0.03038a29.633 29.633 0 0 0-0.50361-0.25827zm-29.111 51.553-0.01754 0.03038a29.633 29.633 0 0 0 0.50361 0.25827 29.633 29.633 0 0 1-0.48607-0.28865zm1.8008 0.96247a29.633 29.633 0 0 0 1.3446 0.62569 29.633 29.633 0 0 1-1.3446-0.62569zm2.7255 1.1673a29.633 29.633 0 0 0 1.3931 0.48536 29.633 29.633 0 0 1-1.3931-0.48536zm31.11-6.7004a29.633 29.633 0 0 1-0.33606 0.31313 29.633 29.633 0 0 0 0.33606-0.31313zm-28.285 7.5875a29.633 29.633 0 0 0 1.4316 0.34344 29.633 29.633 0 0 1-1.4316-0.34344zm26.424-5.9194a29.633 29.633 0 0 1-1.1743 0.92026 29.633 29.633 0 0 0 1.1743-0.92026zm-23.532 6.5188a29.633 29.633 0 0 0 1.4692 0.20016 29.633 29.633 0 0 1-1.4692-0.20016zm21.167-4.7372a29.633 29.633 0 0 1-1.2601 0.79774 29.633 29.633 0 0 0 1.2601-0.79774zm-18.225 5.0455a29.633 29.633 0 0 0 1.4779 0.05286 29.633 29.633 0 0 1-1.4779-0.05286zm15.696-3.5103a29.633 29.633 0 0 1-1.3319 0.6677 29.633 29.633 0 0 0 1.3319-0.6677zm-12.733 3.524a29.633 29.633 0 0 0 1.4707-0.09556 29.633 29.633 0 0 1-1.4707 0.09556zm10.058-2.2467a29.633 29.633 0 0 1-1.3856 0.52909 29.633 29.633 0 0 0 1.3856-0.52909zm-7.1154 1.9643a29.633 29.633 0 0 0 1.4597-0.24241 29.633 29.633 0 0 1-1.4597 0.24241zm4.3313-0.96208a29.633 29.633 0 0 1-1.433 0.38824 29.633 29.633 0 0 0 1.433-0.38824z" enable-background="new" fill="#faf8f6"/>
  <circle transform="scale(1,-1)" cx="13.758" cy="-3.9687" r="10.583" enable-background="new" fill="#aea795"/>
  <circle cx="13.758" cy="3.9687" r="9.5248" enable-background="new" fill="#faf8f6"/>
  <circle cx="13.758" cy="3.9687" r="3.7041" enable-background="new" fill="#4d4d4d"/>
  <path d="m13.758-25.664a29.633 29.633 0 0 0-29.633 29.633 29.633 29.633 0 0 0 0.01085 0.30954 29.633 29.633 0 0 1 29.622-29.413 29.633 29.633 0 0 1 29.622 29.323 29.633 29.633 0 0 0 0.01085-0.21962 29.633 29.633 0 0 0-29.633-29.633z" enable-background="new" fill="#fff" opacity=".3"/>
  <path d="m13.758 33.601a29.633 29.633 0 0 1-29.633-29.633 29.633 29.633 0 0 1 0.01085-0.30954 29.633 29.633 0 0 0 29.622 29.413 29.633 29.633 0 0 0 29.622-29.323 29.633 29.633 0 0 1 0.01085 0.21962 29.633 29.633 0 0 1-29.633 29.633z" enable-background="new" opacity=".2"/>
 </g>
</svg>
