<?xml version="1.0" encoding="UTF-8"?>
<svg width="64" height="64" version="1.1" xmlns="http://www.w3.org/2000/svg" xmlns:cc="http://creativecommons.org/ns#" xmlns:dc="http://purl.org/dc/elements/1.1/" xmlns:rdf="http://www.w3.org/1999/02/22-rdf-syntax-ns#" xmlns:xlink="http://www.w3.org/1999/xlink">
 <metadata>
  <rdf:RDF>
   <cc:Work rdf:about="">
    <dc:format>image/svg+xml</dc:format>
    <dc:type rdf:resource="http://purl.org/dc/dcmitype/StillImage"/>
    <dc:title/>
   </cc:Work>
  </rdf:RDF>
 </metadata>
 <defs>
  <linearGradient id="b" x1="399.57" x2="399.57" y1="545.8" y2="517.8" gradientTransform="matrix(2.1429 0 0 2.1429 -826.36 -1107.5)" gradientUnits="userSpaceOnUse">
   <stop stop-color="#3889e9" offset="0"/>
   <stop stop-color="#5ea5fb" offset="1"/>
  </linearGradient>
  <linearGradient id="d" x1="32.045" x2="30" y1="1.7894" y2="61.55" gradientTransform="matrix(.86339 0 0 .8182 -320.77 -397.49)" gradientUnits="userSpaceOnUse">
   <stop stop-color="#f9f9f9" offset="0"/>
   <stop stop-color="#e6e6e6" offset="1"/>
  </linearGradient>
  <linearGradient id="c-36" x1="40" x2="40" y1="168" y2="136" gradientTransform="matrix(.20794 0 0 .26458 -12.302 -52.413)" gradientUnits="userSpaceOnUse" xlink:href="#a-0"/>
  <linearGradient id="a-0">
   <stop stop-color="#f00" offset="0"/>
   <stop stop-color="#f00" stop-opacity="0" offset="1"/>
  </linearGradient>
  <linearGradient id="d-62" x1="40" x2="40" y1="168" y2="136" gradientTransform="matrix(.20794 0 0 .26458 -12.302 -37.543)" gradientUnits="userSpaceOnUse" xlink:href="#a-0"/>
  <linearGradient id="b-6" x1="494.34" x2="4.4138" y1="386.3" y2="169.66" gradientTransform="matrix(0 -.11989 -.11988 0 52.626 33.364)" gradientUnits="userSpaceOnUse">
   <stop stop-color="#e8e8e8" offset="0"/>
   <stop stop-color="#f5f5f5" offset="1"/>
  </linearGradient>
 </defs>
 <path d="m50.249 9.1937q-3.8597-2.9725-8.444-4.5557-4.7372-1.6373-9.8021-1.6373c-16.57 0-30.003 13.432-30.003 30.001 0 15.158 11.245 27.684 25.845 29.709 0.71216 0.09855 1.4339 0.17485 2.1587 0.21936 0.66128 0.04133 1.3258 0.06994 1.9998 0.06994 16.567 0 29.997-13.432 29.997-29.999 0-1.3098-0.08266-2.6037-0.24481-3.8658-0.18758-1.4751-0.49279-2.909-0.88387-4.3046q-1.3289-4.6892-4.0822-8.7265-2.7215-3.9771-6.5401-6.9112z" opacity=".2" stroke-width=".99724"/>
 <path d="m50.249 8.1932q-3.8597-2.9725-8.444-4.5557-4.7372-1.6373-9.8021-1.6373c-16.57 0-30.003 13.432-30.003 30.001 0 15.158 11.245 27.684 25.845 29.709 0.71216 0.09855 1.4339 0.17485 2.1587 0.21936 0.66128 0.04133 1.3258 0.06994 1.9998 0.06994 16.567 0 29.997-13.432 29.997-29.999 0-1.3098-0.08266-2.6037-0.24481-3.8658-0.18758-1.4751-0.49279-2.909-0.88387-4.3046q-1.3289-4.6892-4.0822-8.7265-2.7215-3.9771-6.5401-6.9112z" fill="url(#d)" stroke-width=".99724"/>
 <circle cx="32.02" cy="32.044" r="30.001" fill-opacity="0" stroke-width="1.5715"/>
 <circle cx="32.02" cy="32.044" r="0" fill="url(#b)" stroke-width="1.5715"/>
 <g transform="matrix(.67191 0 0 .67191 19.032 29.493)">
  <path d="m6.0213-26.431c-9.551 0-10.579 0.97634-10.532 10.501v39.322c-0.04681 9.5247 0.98086 10.501 10.532 10.501h26.56c9.551 0 10.532-0.97622 10.532-10.501v-39.322c0-9.5248-0.98086-10.501-10.532-10.501z" color="#000000" opacity=".1"/>
  <path d="m32.284-25.902c9.3387 0 10.344 0.95921 10.298 10.317v38.632c0.04577 9.3576-0.95907 10.317-10.298 10.317h-25.97c-9.3387 0-10.298-0.9591-10.298-10.317v-38.632c0-9.3577 0.95907-10.317 10.298-10.317z" color="#000000" fill="url(#b-6)"/>
  <path d="m42.581 19.607-13.757 13.757h3.4586c9.3387 0 10.344-0.95936 10.298-10.317z" color="#000000" fill="#fff"/>
  <path d="m6.3151-25.902c-9.3387 0-10.344 0.95937-10.298 10.317v0.52916c-0.045769-9.3576 0.95914-10.317 10.298-10.317h25.97c9.3387 0 10.298 0.95926 10.298 10.317v-0.52916c0-9.3577-0.95914-10.317-10.298-10.317z" color="#000000" fill="#fff" opacity=".3"/>
  <path d="m6.3165 33.364c-9.3387 0-10.344-0.95937-10.298-10.317v-0.52916c-0.045769 9.3576 0.95914 10.317 10.298 10.317h25.97c9.3387 0 10.298-0.95926 10.298-10.317v0.52916c0 9.3577-0.95914 10.317-10.298 10.317z" color="#000000" opacity=".2"/>
  <path d="m19.3-25.902v59.266h12.983c9.3387 0 10.344-0.95936 10.298-10.317v-38.632c0.04577-9.3576-0.95913-10.317-10.298-10.317z" color="#000000" fill="#fff" opacity=".2"/>
  <path d="m4.6374-17.416-5.221 13.758h-1.2825v1.0583h3.7041v-1.0583h-1.1859l1.2371-3.1772h6.1386l1.2356 3.1772h-1.6021v1.0583h5.3134v-1.0583h-1.4658l-5.2225-13.758zm0.321 2.3819 2.7029 7.1452h-5.3603z" color="#bebebe" enable-background="new" fill="#5d5d5d" font-size="13.717" font-weight="400" letter-spacing="0" overflow="visible" stroke-width=".26458" word-spacing="0"/>
  <g fill="#e3dfd5" fill-opacity=".99608">
   <path d="m15.067-16.357v1.0583h25.4v-1.0583z" color="#000000"/>
   <path d="m15.067-12.124v1.0583h25.4v-1.0583z" color="#000000"/>
   <path d="m15.067-7.9104v1.0583h25.4v-1.0583z" color="#000000"/>
   <path d="m15.067-3.6772v1.0583h25.4v-1.0583z" color="#000000"/>
   <path d="m-1.8662 0.55606v1.0583l42.332 0.01963v-1.0583z" color="#000000"/>
   <path d="m-1.8662 4.7893v1.0583h42.332v-1.0583z" color="#000000"/>
   <path d="m-1.8662 9.0226v1.0583h42.332v-1.0583z" color="#000000"/>
   <path d="m-1.8662 13.256v1.0583l42.332 0.01963v-1.0583z" color="#000000"/>
   <path d="m-1.8662 17.489v1.0583h42.332v-1.0583z" color="#000000"/>
   <path d="m-1.8662 21.722v1.0583h34.924v-1.0583z" color="#000000"/>
  </g>
  <rect x="-3.9841" y="6.9059" width="46.579" height="1.0583" enable-background="new" fill="#f00"/>
  <rect x="-3.9841" y="-1.5606" width="46.579" height="8.4665" enable-background="new" fill="url(#d-62)" opacity=".4"/>
  <rect transform="scale(1,-1)" x="-3.9841" y="-16.431" width="46.579" height="8.4665" enable-background="new" fill="url(#c-36)" opacity=".4"/>
  <path d="m-3.9843 7.9642v15.083c0 9.3577 0.95914 10.317 10.298 10.317h25.97c9.3387 0 10.344-0.95936 10.298-10.317v-15.083z" color="#000000" opacity=".45"/>
 </g>
</svg>
