<?xml version="1.0" encoding="UTF-8"?>
<svg width="64" height="64" version="1.1" viewBox="0 0 16.933 16.933" xmlns="http://www.w3.org/2000/svg" xmlns:cc="http://creativecommons.org/ns#" xmlns:dc="http://purl.org/dc/elements/1.1/" xmlns:rdf="http://www.w3.org/1999/02/22-rdf-syntax-ns#" xmlns:xlink="http://www.w3.org/1999/xlink">
 <metadata>
  <rdf:RDF>
   <cc:Work rdf:about="">
    <dc:format>image/svg+xml</dc:format>
    <dc:type rdf:resource="http://purl.org/dc/dcmitype/StillImage"/>
    <dc:title/>
   </cc:Work>
  </rdf:RDF>
 </metadata>
 <defs>
  <linearGradient id="linearGradient1664" x1="16.721" x2="16.721" y1="279.38" y2="297.64" gradientTransform="matrix(.99873 0 0 .99873 -8.0604 -279.72)" gradientUnits="userSpaceOnUse">
   <stop stop-color="#785546" offset="0"/>
   <stop stop-color="#64463c" offset="1"/>
  </linearGradient>
  <linearGradient id="linearGradient929-3" x1="16.721" x2="16.721" y1="279.38" y2="297.94" gradientTransform="matrix(.99872 0 0 .99873 -8.0604 -279.7)" gradientUnits="userSpaceOnUse">
   <stop stop-color="#785546" offset="0"/>
   <stop stop-color="#64463c" offset="1"/>
  </linearGradient>
 </defs>
 <circle cx="8.4666" cy="8.749" r="7.9373" opacity=".35" stroke-width="1.2" style="paint-order:stroke markers fill"/>
 <circle cx="8.4668" cy="8.4667" r="7.9375" fill="url(#linearGradient929-3)" stroke-width="1.2" style="paint-order:stroke markers fill"/>
 <path d="m8.4802 1.3095c-2.0357 3e-3 -3.9735 0.87392-5.3268 2.3947 0 0 0.0217 0.79374 0.81544 0.79374h8.7311c1.0583 0 1.1048-0.79374 1.1048-0.79374-1.3528-1.5202-3.2898-2.3913-5.3247-2.3947z" fill="#5a5a5a" stroke-width="1.08" style="paint-order:stroke markers fill"/>
 <path d="m8.48 1.2601c-2.0357 3e-3 -3.9734 0.88748-5.3267 2.4317 0 0 0.0217 0.80603 0.81544 0.80603h8.731c1.0583 0 1.1048-0.80603 1.1048-0.80603-1.3528-1.5437-3.2897-2.4282-5.3246-2.4317z" fill="#666" stroke-width="1.0883" style="paint-order:stroke markers fill"/>
 <rect x="3.1557" y="1.2054" width="10.107" height="3.2924" fill="none"/>
 <path d="m3.1064 2.6236a7.9376 7.9376 0 0 0-2.5772 5.8431 7.9376 7.9376 0 0 0 7.9376 7.9376 7.9376 7.9376 0 0 0 7.9376-7.9376 7.9376 7.9376 0 0 0-2.5436-5.81c-0.26993 0.43202-0.34253 0.82265-0.05581 1.1167 0 0-0.04652 0.72452-1.1048 0.72452h-8.7313c-0.79376 0-0.81546-0.72452-0.81546-0.72452 0.27758-0.28469 0.21104-0.68879-0.04703-1.1498z" fill="url(#linearGradient1664)" stroke-width="1.2" style="paint-order:stroke markers fill"/>
 <path d="m13.764 3.9285c-0.07858 0.21247-0.31795 0.56946-1.064 0.56946h-8.7311c-0.55033 0-0.7268-0.34501-0.78496-0.55861-0.01001 0.011099-0.02055 0.021399-0.03049 0.032599 0 0 0.0217 0.79064 0.81544 0.79064h8.7311c1.0583 0 1.1048-0.79064 1.1048-0.79064-0.01328-0.014898-0.02743-0.0287-0.04082-0.043399z" fill="#fff" opacity=".25" stroke-width="1.0777" style="paint-order:stroke markers fill"/>
 <circle cx="-330.35" cy="-328.38" r="0" fill="#5e4aa6" stroke-width=".26458"/>
 <path d="m7.9904 7.3506c0.09485 0.0172 0.19836 0.10342 0.2501 0.1724l0.8364 1.4486-0.43107 0.25866h1.4313l0.71564-1.2416-0.43982 0.24992-0.43964-0.77601c-0.043109-0.077598-0.12935-0.11202-0.2242-0.11202zm-0.4935 0.087298c-0.21987 7e-3 -0.43333 0.089398-0.52387 0.2489l-0.65526 1.1469 1.2587 0.73281 0.80192-1.3968-0.31905-0.5345c-0.1164-0.13796-0.34259-0.20481-0.56246-0.19726zm3.4079 1.7752-1.2675 0.72423 0.80192 1.3709h0.68116c0.27592-0.051699 0.68982-0.50013 0.44839-0.96574zm-5.6131 0.30173 0.45697 0.26724-0.29315 0.49144c-0.25867 0.48286 0.17239 1.0154 0.43107 1.0434h0.67259l0.45697-0.79333 0.45697 0.2501-0.7328-1.2589zm4.1129 1.4743-0.73297 1.2589 0.73297 1.2503v-0.52592h0.89678c0.10347 0 0.17238-0.0604 0.20687-0.12935l0.8105-1.4313c-0.04311 0.0259-0.06895 0.0689-0.23277 0.0861h-1.6814zm-3.7249 0.4398c0.03449 0.0431 0.02583 0.0346 0.7846 1.3796 0.05174 0.0776 0.12077 0.17245 0.21562 0.16383h1.6124v-1.4745h-2.397c-0.12934 0-0.17466-0.0345-0.21562-0.069z" enable-background="new" opacity=".15"/>
 <path d="m7.9904 7.0779c0.09485 0.0172 0.19836 0.10341 0.2501 0.17239l0.8364 1.4486-0.43107 0.25867h1.4313l0.71564-1.2416-0.43982 0.24994-0.43964-0.77602c-0.043109-0.077598-0.12935-0.11201-0.2242-0.11201zm-0.4935 0.087298c-0.21987 7e-3 -0.43333 0.089398-0.52387 0.24891l-0.65526 1.1469 1.2587 0.7328 0.80192-1.3968-0.31905-0.53451c-0.1164-0.13796-0.34259-0.20481-0.56246-0.19726zm3.4079 1.7752-1.2675 0.72422 0.80192 1.3709h0.68116c0.27592-0.0517 0.68982-0.50013 0.44839-0.96574zm-5.6131 0.30172 0.45697 0.26725-0.29315 0.49144c-0.25867 0.48286 0.17239 1.0154 0.43107 1.0434h0.67259l0.45697-0.79334 0.45697 0.2501-0.7328-1.2589zm4.1129 1.4743-0.73297 1.2589 0.73297 1.2503v-0.52592h0.89678c0.10347 0 0.17238-0.0604 0.20687-0.12934l0.8105-1.4313c-0.04311 0.0259-0.06895 0.0689-0.23277 0.0861h-1.6814zm-3.7249 0.43981c0.03449 0.0431 0.02583 0.0346 0.7846 1.3796 0.05174 0.0776 0.12077 0.17244 0.21562 0.16382h1.6124v-1.4745h-2.397c-0.12934 0-0.17466-0.0345-0.21562-0.069z" enable-background="new" fill="#fff"/>
</svg>
