<?xml version="1.0" encoding="UTF-8"?>
<!-- Created with Inkscape (http://www.inkscape.org/) -->
<svg width="64" height="64" version="1.1" viewBox="0 0 16.933 16.933" xmlns="http://www.w3.org/2000/svg" xmlns:cc="http://creativecommons.org/ns#" xmlns:dc="http://purl.org/dc/elements/1.1/" xmlns:rdf="http://www.w3.org/1999/02/22-rdf-syntax-ns#" xmlns:xlink="http://www.w3.org/1999/xlink">
 <defs>
  <linearGradient id="linearGradient13468" x1="10.798" x2="10.798" y1="282.88" y2="283.29" gradientTransform="matrix(1.0543 0 0 .55499 4.1087 128.14)" gradientUnits="userSpaceOnUse" xlink:href="#linearGradient991"/>
  <linearGradient id="linearGradient991">
   <stop stop-color="#969696" offset="0"/>
   <stop stop-color="#e6e6e6" stop-opacity=".90196" offset="1"/>
  </linearGradient>
  <linearGradient id="linearGradient13470" x1="8.8166" x2="8.8166" y1="293.7" y2="294.12" gradientTransform="matrix(.94579 0 0 .555 7.7176 133.01)" gradientUnits="userSpaceOnUse" xlink:href="#linearGradient991"/>
  <linearGradient id="linearGradient13472" x1="7.998" x2="7.998" y1="284.98" y2="285.41" gradientTransform="matrix(.94579 0 0 .555 7.9256 129.13)" gradientUnits="userSpaceOnUse" xlink:href="#linearGradient991"/>
  <linearGradient id="linearGradient13474" x1="8.7643" x2="8.7643" y1="287.18" y2="287.64" gradientTransform="matrix(.94579 0 0 .555 7.919 130.1)" gradientUnits="userSpaceOnUse" xlink:href="#linearGradient991"/>
  <linearGradient id="linearGradient13476" x1="8.3178" x2="8.3178" y1="289.36" y2="289.81" gradientTransform="matrix(.94579 0 0 .555 7.901 131.07)" gradientUnits="userSpaceOnUse" xlink:href="#linearGradient991"/>
  <linearGradient id="linearGradient13478" x1="8.2553" x2="8.2553" y1="291.55" y2="291.96" gradientTransform="matrix(.94579 0 0 .55502 8.0111 132.03)" gradientUnits="userSpaceOnUse" xlink:href="#linearGradient991"/>
  <linearGradient id="linearGradient677348-3" x1="-6.1738" x2="-6.1738" y1="-126.08" y2="-126.7" gradientTransform="matrix(.54036 0 0 .54036 11.594 73.26)" gradientUnits="userSpaceOnUse">
   <stop stop-color="#6e4b41" offset="0"/>
   <stop stop-color="#4b322d" offset="1"/>
  </linearGradient>
  <linearGradient id="linearGradient677346-5" x1="19.27" x2="19.27" y1="279.77" y2="297.35" gradientTransform="matrix(.99999 0 0 .99999 -10.846 -280.08)" gradientUnits="userSpaceOnUse">
   <stop stop-color="#785546" offset="0"/>
   <stop stop-color="#64463c" offset="1"/>
  </linearGradient>
  <linearGradient id="linearGradient677332-6" x1="16.721" x2="16.721" y1="279.38" y2="297.64" gradientTransform="matrix(.98129 0 0 .99999 -7.7462 -280.08)" gradientUnits="userSpaceOnUse">
   <stop stop-color="#785546" offset="0"/>
   <stop stop-color="#64463c" offset="1"/>
  </linearGradient>
 </defs>
 <metadata>
  <rdf:RDF>
   <cc:Work rdf:about="">
    <dc:format>image/svg+xml</dc:format>
    <dc:type rdf:resource="http://purl.org/dc/dcmitype/StillImage"/>
    <dc:title/>
   </cc:Work>
  </rdf:RDF>
 </metadata>
 <circle cx="8.4937" cy="8.73" r="7.9376" opacity=".2" stroke-width=".14032"/>
 <ellipse cx="8.4937" cy="8.47" rx="7.7989" ry="7.9477" fill="url(#linearGradient677332-6)" stroke-width="1.1902" style="paint-order:stroke markers fill"/>
 <g transform="matrix(.85833 0 0 .85833 -5.1762 -241.39)">
  <circle cx="15.926" cy="290.69" r="7.9375" fill="#fafafa" style="paint-order:normal"/>
  <path d="m10.551 285.17c-0.04221 0.0443-0.07897 0.0835-0.13658 0.14895l11.024 9.8e-4c-0.05944-0.0607-0.08604-0.0922-0.14076-0.15z" fill="url(#linearGradient13468)" opacity=".6" style="paint-order:normal"/>
  <path d="m10.431 296.06c0.04857 0.052 0.08052 0.0907 0.1349 0.15h10.72c0.05003-0.0561 0.07465-0.0855 0.13441-0.15z" fill="url(#linearGradient13470)" opacity=".6" style="paint-order:normal"/>
  <path d="m9.1386 287.33c-0.022302 0.0517-0.037132 0.0892-0.065978 0.15h13.708c-0.02381-0.0504-0.04631-0.10145-0.06843-0.15z" fill="url(#linearGradient13472)" opacity=".6" style="paint-order:normal"/>
  <path d="m8.5204 289.52c-0.00964 0.0489-0.015643 0.0999-0.024922 0.15h14.862c-0.0088-0.0501-0.01516-0.10114-0.0259-0.15z" fill="url(#linearGradient13474)" opacity=".6" style="paint-order:normal"/>
  <path d="m8.4942 291.7c0.00899 0.0501 0.01744 0.10011 0.027371 0.15h14.811c0.0093-0.0539 0.01711-0.0968 0.02541-0.15z" fill="url(#linearGradient13476)" opacity=".6" style="paint-order:normal"/>
  <path d="m9.0766 293.88c0.021867 0.0535 0.040442 0.0932 0.064512 0.15h13.57c0.02313-0.0512 0.03674-0.0804 0.06941-0.15z" fill="url(#linearGradient13478)" opacity=".6" style="paint-order:normal"/>
 </g>
 <path d="m8.4937 3.3c-0.32459 7.93e-4 -0.42374 0.31784-0.58798 0.60999l-0.34223 0.60819-6.1697 5.29e-4a7.9377 8.2267 0 0 0-0.83719 3.6564 7.9377 8.2267 0 0 0 7.9377 8.2267 7.9377 8.2267 0 0 0 7.9377-8.2267 7.9377 8.2267 0 0 0-1.5556-4.875h-6.3816z" fill="url(#linearGradient677346-5)" stroke-width="1.1312" style="paint-order:stroke markers fill"/>
 <path d="m1.3037 4.83c-0.0461 0.091-0.0916 0.18277-0.13426 0.27538h14.652c-0.0408-0.0926-0.0896-0.18439-0.13374-0.27538z" fill="url(#linearGradient677348-3)" stroke-width=".14297"/>
 <path d="m8.4984 6.63c-0.076665 0-0.14631 0.0489-0.1709 0.12522l-0.71496 2.2108-2.2955-0.0128c-0.064313-5e-3 -0.12479 0.0177-0.16463 0.0738-0.058244 0.0824-0.04355 0.19577 0.039184 0.25394l1.8815 1.3609-0.7228 2.1889c-0.018314 0.0553-0.011713 0.11869 0.025129 0.17092 0.058244 0.0827 0.17432 0.0988 0.25399 0.0406l1.869-1.364 0.00639-3e-3 1.8517 1.3609c0.046 0.0398 0.11271 0.0543 0.17404 0.0329 0.09498-0.0307 0.14826-0.13384 0.1176-0.22876l-0.72123-2.2076 1.8642-1.339c0.05207-0.0307 0.08774-0.0894 0.08774-0.15668 0-0.10094-0.07911-0.18031-0.1803-0.18031l-2.3237 3e-3 -0.69771-2.1857c-0.015439-0.0613-0.059415-0.11341-0.12073-0.13466-0.018527-5e-3 -0.033221-0.01-0.051749-0.01z" opacity=".25" stroke-width=".3065"/>
 <path d="m8.4984 6.35c-0.076665 0-0.14631 0.0489-0.1709 0.12523l-0.71496 2.2108-2.2955-0.0128c-0.064313-5e-3 -0.12479 0.0177-0.16463 0.0738-0.058244 0.0824-0.04355 0.19579 0.039184 0.25395l1.8815 1.3609-0.7228 2.1889c-0.018314 0.0553-0.011713 0.11867 0.025129 0.17091 0.058244 0.0827 0.17432 0.0988 0.25399 0.0406l1.869-1.364 0.00639-3e-3 1.8517 1.3609c0.046 0.0398 0.11271 0.0543 0.17404 0.0329 0.09498-0.0307 0.14826-0.13385 0.1176-0.22875l-0.72123-2.2076 1.8642-1.339c0.05207-0.0307 0.08774-0.0894 0.08774-0.15669 0-0.10094-0.07911-0.18031-0.1803-0.18031l-2.3237 3e-3 -0.69771-2.1857c-0.015439-0.0613-0.059415-0.11341-0.12073-0.13465-0.018527-5e-3 -0.033221-0.01-0.051749-0.01z" fill="#fafafa" stroke-width=".3065"/>
 <circle cx="-330.35" cy="-328.38" r="0" fill="#5e4aa6" stroke-width=".26458"/>
 <circle cx="-39.434" cy="6.44" r="0" fill="#5e4aa6" fill-rule="evenodd" stroke-width=".26458"/>
</svg>
