<svg width="64" height="64" version="1.1" viewBox="0 0 16.933 16.933" xmlns="http://www.w3.org/2000/svg" xmlns:xlink="http://www.w3.org/1999/xlink">
 <defs>
  <linearGradient id="g" x1="16.721" x2="16.721" y1="279.38" y2="297.64" gradientTransform="matrix(.98129 0 0 1 -7.7351 -280.08)" gradientUnits="userSpaceOnUse" xlink:href="#b"/>
  <linearGradient id="b">
   <stop stop-color="#ffb932" offset="0"/>
   <stop stop-color="#e68c32" offset="1"/>
  </linearGradient>
  <linearGradient id="h" x1="19.27" x2="19.27" y1="281.99" y2="297.35" gradientTransform="translate(-10.848 -280.08)" gradientUnits="userSpaceOnUse">
   <stop stop-color="#ffbe3c" offset="0"/>
   <stop stop-color="#e68c28" offset="1"/>
  </linearGradient>
  <linearGradient id="j" x1="-6.1738" x2="-6.1738" y1="-126.08" y2="-126.7" gradientTransform="matrix(.54036 0 0 .54036 11.594 73.26)" gradientUnits="userSpaceOnUse" xlink:href="#b"/>
 </defs>
 <circle cx="8.4937" cy="8.73" r="7.9377" opacity=".2" stroke-width=".14032"/>
 <circle cx="-330.36" cy="-328.39" r="0" fill="#5e4aa6" stroke-width=".26459"/>
 <ellipse cx="8.5037" cy="8.47" rx="7.799" ry="7.9478" fill="url(#g)" stroke-width="1.1902" style="paint-order:stroke markers fill"/>
 <circle cx="8.4936" cy="8.1" r="6.8131" fill="#fafafa" stroke-width=".85835" style="paint-order:normal"/>
 <path d="m8.4931 3.3c-0.32459 7.9e-4 -0.42373 0.31783-0.58798 0.60998l-0.34223 0.6082-6.1697 5.3e-4a7.9378 8.2268 0 0 0-0.83719 3.6564 7.9378 8.2268 0 0 0 7.9378 8.2268 7.9378 8.2268 0 0 0 7.9378-8.2268 7.9378 8.2268 0 0 0-1.5555-4.8751h-6.3816z" fill="url(#h)" stroke-width="1.1312" style="paint-order:stroke markers fill"/>
 <path d="m1.3013 4.83c-0.046137 0.091-0.091601 0.18275-0.13426 0.27537h14.652c-0.04075-0.0926-0.08955-0.18439-0.13374-0.27537z" fill="url(#j)" stroke-width=".14297"/>
 <g transform="translate(0 .26386)" color="#000000" opacity=".15" stroke-width="4.781">
  <path d="m8.553 7.144c-1.47 0-2.68 0.968-2.813 2.381h-0.713l1.054 1.323 1.053-1.323h-0.688c0.13-1.03 1.026-1.691 2.107-1.691 1.171 0 2.122 0.935 2.122 2.088 0 1.152-0.95 2.088-2.122 2.088a2.132 2.132 0 0 1-1.595-0.712l-0.515 0.47a2.836 2.836 0 0 0 2.11 0.932c1.559 0 2.824-1.245 2.824-2.778 0-1.534-1.265-2.778-2.824-2.778z" overflow="visible"/>
  <path d="m8.731 8.202h-0.264l-0.265 1.852 1.323 1.059v-0.265l-0.794-1.058z" overflow="visible"/>
 </g>
 <g color="#000000" fill="#fff" stroke-width="4.781">
  <path d="m8.553 7.144c-1.47 0-2.68 0.968-2.813 2.381h-0.713l1.054 1.323 1.053-1.323h-0.688c0.13-1.03 1.026-1.691 2.107-1.691 1.171 0 2.122 0.935 2.122 2.088 0 1.152-0.95 2.088-2.122 2.088a2.132 2.132 0 0 1-1.595-0.712l-0.515 0.47a2.836 2.836 0 0 0 2.11 0.932c1.559 0 2.824-1.245 2.824-2.778 0-1.534-1.265-2.778-2.824-2.778z" overflow="visible"/>
  <path d="m8.731 8.202h-0.264l-0.265 1.852 1.323 1.059v-0.265l-0.794-1.058z" overflow="visible"/>
 </g>
</svg>
