<svg width="64" height="64" version="1.1" viewBox="0 0 16.933 16.933" xmlns="http://www.w3.org/2000/svg" xmlns:xlink="http://www.w3.org/1999/xlink">
 <defs>
  <clipPath id="bz">
   <path d="m-0.9996 1335h1029v-1334h-1029z"/>
  </clipPath>
  <linearGradient id="b">
   <stop stop-color="#ffb932" offset="0"/>
   <stop stop-color="#e68c32" offset="1"/>
  </linearGradient>
  <linearGradient id="d" x1="16.721" x2="16.721" y1="279.38" y2="297.64" gradientTransform="matrix(.98127 0 0 1 -7.7349 -280.07)" gradientUnits="userSpaceOnUse" xlink:href="#b"/>
  <linearGradient id="c" x1="19.27" x2="19.27" y1="281.99" y2="297.35" gradientTransform="translate(-10.848 -280.07)" gradientUnits="userSpaceOnUse">
   <stop stop-color="#ffbe3c" offset="0"/>
   <stop stop-color="#e68c28" offset="1"/>
  </linearGradient>
  <linearGradient id="a" x1="-6.1738" x2="-6.1738" y1="-126.08" y2="-126.7" gradientTransform="matrix(.54035 0 0 .54035 11.594 73.26)" gradientUnits="userSpaceOnUse" xlink:href="#b"/>
 </defs>
 <circle cx="8.4935" cy="8.73" r="7.9375" opacity=".2" stroke-width=".14032"/>
 <circle cx="-330.35" cy="-328.38" r="0" fill="#5e4aa6" stroke-width=".26458"/>
 <ellipse cx="8.5035" cy="8.47" rx="7.7988" ry="7.9476" fill="url(#d)" stroke-width="1.1902" style="paint-order:stroke markers fill"/>
 <circle cx="8.4935" cy="8.105" r="6.813" fill="#fafafa" stroke-width=".85833" style="paint-order:normal"/>
 <path d="m8.4929 3.3c-0.32458 8e-4 -0.42372 0.31783-0.58797 0.60998l-0.34222 0.60818-6.1696 5.3e-4a7.9376 8.2266 0 0 0-0.83717 3.6563 7.9376 8.2266 0 0 0 7.9376 8.2266 7.9376 8.2266 0 0 0 7.9376-8.2266 7.9376 8.2266 0 0 0-1.5555-4.875h-6.3815z" fill="url(#c)" stroke-width="1.1312" style="paint-order:stroke markers fill"/>
 <path d="m1.3013 4.83c-0.046136 0.091-0.091599 0.18276-0.13426 0.27537h14.652c-0.04075-0.0926-0.08955-0.18439-0.13374-0.27537z" fill="url(#a)" stroke-width=".14297"/>
 <g transform="matrix(.11126 0 0 -.11126 -49.116 110.26)" fill="#a0641e" opacity=".5">
  <g fill="#a0641e">
   <g fill="#a0641e">
    <g fill="#a0641e">
     <g clip-path="url(#bz)" fill="#a0641e">
      <path d="m527.94 931.53c-0.742-1.04-4.751-2.822-8.164-3.563-4.305-0.891-6.532-1.634-8.758-2.821-2.97-1.781-4.603-4.009-4.306-6.087 0.149-0.445 3.712-5.64 7.868-11.578 4.305-5.938 7.7928-10.872 7.9398-11.02 0.29231-0.61958-1.5594-0.10676-2.3622-0.25238l-0.19733-9e-3c-8.6452-0.80697-15.652-5.7948-15.92-12.766 0-4.454 3.3052-8.707 6.829-10.095 10.651-3.9587 23.89 7.0973 20.041 16.626-0.594 1.337-4.305 7.719-8.315 14.251l-7.272 12.025h1.187c4.75 0.296 8.016 1.781 10.243 4.304 1.93 2.227 2.523 4.453 2.375 8.016-0.107 2.365-0.293 3.407-0.669 3.407-0.143 0-0.314-0.151-0.519-0.437" fill="#a0641e"/>
     </g>
    </g>
   </g>
  </g>
 </g>
 <g transform="matrix(.11126 0 0 -.11126 -49.116 110.03)" fill="#fff">
  <g fill="#fff">
   <g fill="#fff">
    <g fill="#fff">
     <g clip-path="url(#bz)" fill="#fff">
      <path d="m527.94 931.53c-0.742-1.04-4.751-2.822-8.164-3.563-4.305-0.891-6.532-1.634-8.758-2.821-2.97-1.781-4.603-4.009-4.306-6.087 0.149-0.445 3.712-5.64 7.868-11.578 4.305-5.938 7.7928-10.872 7.9398-11.02 0.29231-0.61958-1.5594-0.10676-2.3622-0.25238l-0.19733-9e-3c-8.6452-0.80697-15.652-5.7948-15.92-12.766 0-4.454 3.3052-8.707 6.829-10.095 10.651-3.9587 23.89 7.0973 20.041 16.626-0.594 1.337-4.305 7.719-8.315 14.251l-7.272 12.025h1.187c4.75 0.296 8.016 1.781 10.243 4.304 1.93 2.227 2.523 4.453 2.375 8.016-0.107 2.365-0.293 3.407-0.669 3.407-0.143 0-0.314-0.151-0.519-0.437" fill="#fff"/>
     </g>
    </g>
   </g>
  </g>
 </g>
</svg>
