<svg width="64" height="64" version="1.1" viewBox="0 0 16.933 16.933" xmlns="http://www.w3.org/2000/svg" xmlns:xlink="http://www.w3.org/1999/xlink">
 <defs>
  <clipPath id="a">
   <path d="m-0.99971 1335h1029v-1334h-1029z"/>
  </clipPath>
  <linearGradient id="g" x1="16.721" x2="16.721" y1="279.38" y2="297.64" gradientTransform="matrix(.98129 0 0 1 -7.7351 -280.08)" gradientUnits="userSpaceOnUse" xlink:href="#b"/>
  <linearGradient id="b">
   <stop stop-color="#ffb932" offset="0"/>
   <stop stop-color="#e68c32" offset="1"/>
  </linearGradient>
  <linearGradient id="h" x1="19.27" x2="19.27" y1="281.99" y2="297.35" gradientTransform="translate(-10.848 -280.08)" gradientUnits="userSpaceOnUse">
   <stop stop-color="#ffbe3c" offset="0"/>
   <stop stop-color="#e68c28" offset="1"/>
  </linearGradient>
  <linearGradient id="j" x1="-6.1738" x2="-6.1738" y1="-126.08" y2="-126.7" gradientTransform="matrix(.54036 0 0 .54036 11.594 73.26)" gradientUnits="userSpaceOnUse" xlink:href="#b"/>
 </defs>
 <circle cx="8.4937" cy="8.73" r="7.9377" opacity=".2" stroke-width=".14032"/>
 <circle cx="-330.36" cy="-328.39" r="0" fill="#5e4aa6" stroke-width=".26459"/>
 <ellipse cx="8.5037" cy="8.47" rx="7.799" ry="7.9478" fill="url(#g)" stroke-width="1.1902" style="paint-order:stroke markers fill"/>
 <circle cx="8.4936" cy="8.1" r="6.8131" fill="#fafafa" stroke-width=".85835" style="paint-order:normal"/>
 <path d="m8.4931 3.3c-0.32459 7.9e-4 -0.42373 0.31783-0.58798 0.60998l-0.34223 0.6082-6.1697 5.3e-4a7.9378 8.2268 0 0 0-0.83719 3.6564 7.9378 8.2268 0 0 0 7.9378 8.2268 7.9378 8.2268 0 0 0 7.9378-8.2268 7.9378 8.2268 0 0 0-1.5555-4.8751h-6.3816z" fill="url(#h)" stroke-width="1.1312" style="paint-order:stroke markers fill"/>
 <path d="m1.3013 4.83c-0.046137 0.091-0.091601 0.18275-0.13426 0.27537h14.652c-0.04075-0.0926-0.08955-0.18439-0.13374-0.27537z" fill="url(#j)" stroke-width=".14297"/>
 <g transform="translate(0,-280.07)">
  <g transform="matrix(.096903 0 0 -.096903 -41.528 358.97)" fill="#a0641e" opacity=".5">
   <g fill="#a0641e">
    <g fill="#a0641e">
     <g fill="#a0641e">
      <g clip-path="url(#a)" fill="#a0641e">
       <path d="m508.6 714.78v-5.746h-9.928c-0.51 0-0.966-0.293-1.184-0.755-0.211-0.463-0.137-1.001 0.191-1.389l17.53-20.497c0.245-0.286 0.605-0.456 0.986-0.456s0.742 0.17 0.988 0.456l17.516 20.497c0.333 0.388 0.408 0.932 0.19 1.389-0.21 0.462-0.674 0.755-1.184 0.755h-9.929c-5.7619 12.045-3.7849 29.758 2.481 36.97-10.955-6.59-17.657-18.439-17.657-31.224" fill="#a0641e"/>
      </g>
     </g>
    </g>
   </g>
  </g>
  <g transform="matrix(.096903 0 0 -.096903 -41.528 358.71)" fill="#fff">
   <g fill="#fff">
    <g fill="#fff">
     <g fill="#fff">
      <g clip-path="url(#a)" fill="#fff">
       <path d="m508.6 714.78v-5.746h-9.928c-0.51 0-0.966-0.293-1.184-0.755-0.211-0.463-0.137-1.001 0.191-1.389l17.53-20.497c0.245-0.286 0.605-0.456 0.986-0.456s0.742 0.17 0.988 0.456l17.516 20.497c0.333 0.388 0.408 0.932 0.19 1.389-0.21 0.462-0.674 0.755-1.184 0.755h-9.929c-5.7619 12.045-3.7849 29.758 2.481 36.97-10.955-6.59-17.657-18.439-17.657-31.224" fill="#fff"/>
      </g>
     </g>
    </g>
   </g>
  </g>
  <rect x="6.2446" y="292.93" width="4.4979" height=".26458" fill="#a0641e" opacity=".5" style="paint-order:normal"/>
  <rect x="6.2446" y="292.77" width="4.4979" height=".26458" fill="#fff" style="paint-order:normal"/>
 </g>
</svg>
