<svg width="64" height="64" version="1.1" viewBox="0 0 16.933 16.933" xmlns="http://www.w3.org/2000/svg" xmlns:xlink="http://www.w3.org/1999/xlink">
 <defs>
  <linearGradient id="b">
   <stop stop-color="#ffb932" offset="0"/>
   <stop stop-color="#e68c32" offset="1"/>
  </linearGradient>
  <linearGradient id="d" x1="16.721" x2="16.721" y1="279.38" y2="297.64" gradientTransform="matrix(.98127 0 0 1 -7.7349 -280.07)" gradientUnits="userSpaceOnUse" xlink:href="#b"/>
  <linearGradient id="c" x1="19.27" x2="19.27" y1="281.99" y2="297.35" gradientTransform="translate(-10.848 -280.07)" gradientUnits="userSpaceOnUse">
   <stop stop-color="#ffbe3c" offset="0"/>
   <stop stop-color="#e68c28" offset="1"/>
  </linearGradient>
  <linearGradient id="a" x1="-6.1738" x2="-6.1738" y1="-126.08" y2="-126.7" gradientTransform="matrix(.54035 0 0 .54035 11.594 73.26)" gradientUnits="userSpaceOnUse" xlink:href="#b"/>
 </defs>
 <circle cx="8.4935" cy="8.73" r="7.9375" opacity=".2" stroke-width=".14032"/>
 <circle cx="-330.35" cy="-328.38" r="0" fill="#5e4aa6" stroke-width=".26458"/>
 <ellipse cx="8.5035" cy="8.47" rx="7.7988" ry="7.9476" fill="url(#d)" stroke-width="1.1902" style="paint-order:stroke markers fill"/>
 <circle cx="8.4935" cy="8.105" r="6.813" fill="#fafafa" stroke-width=".85833" style="paint-order:normal"/>
 <path d="m8.4929 3.3c-0.32458 8e-4 -0.42372 0.31783-0.58797 0.60998l-0.34222 0.60818-6.1696 5.3e-4a7.9376 8.2266 0 0 0-0.83717 3.6563 7.9376 8.2266 0 0 0 7.9376 8.2266 7.9376 8.2266 0 0 0 7.9376-8.2266 7.9376 8.2266 0 0 0-1.5555-4.875h-6.3815z" fill="url(#c)" stroke-width="1.1312" style="paint-order:stroke markers fill"/>
 <path d="m1.3013 4.83c-0.046136 0.091-0.091599 0.18276-0.13426 0.27537h14.652c-0.04075-0.0926-0.08955-0.18439-0.13374-0.27537z" fill="url(#a)" stroke-width=".14297"/>
 <g transform="translate(0,-280.07)">
  <circle cx="-330.35" cy="-48.312" r="0" fill="#5e4aa6" stroke-width=".26458"/>
  <circle cx="-39.434" cy="286.51" r="0" fill="#5e4aa6" fill-rule="evenodd" stroke-width=".26458"/>
  <path d="m8.5072 286.67c-1.5871 0-2.89 1.2616-2.89 2.8016s1.3029 2.8041 2.89 2.8041 2.8873-1.2642 2.8873-2.8041-1.3002-2.8016-2.8873-2.8016zm0 1.3124c0.85611 0 1.5348 0.65852 1.5348 1.4892s-0.67869 1.4918-1.5348 1.4918c-0.85612 0-1.5374-0.66109-1.5374-1.4918 0-0.83069 0.68133-1.4892 1.5374-1.4892z" color="#000000" color-rendering="auto" dominant-baseline="auto" fill="#a0641e" fill-rule="evenodd" image-rendering="auto" opacity=".5" shape-rendering="auto" solid-color="#000000" style="font-feature-settings:normal;font-variant-alternates:normal;font-variant-caps:normal;font-variant-ligatures:normal;font-variant-numeric:normal;font-variant-position:normal;isolation:auto;mix-blend-mode:normal;shape-padding:0;text-decoration-color:#000000;text-decoration-line:none;text-decoration-style:solid;text-indent:0;text-orientation:mixed;text-transform:none;white-space:normal"/>
  <path d="m10.526 290.86-0.32861 0.12166s0.36766 1.0041-0.21217 1.8526l0.2898 0.19924c0.69042-1.0104 0.25099-2.1735 0.25099-2.1735z" color="#000000" color-rendering="auto" dominant-baseline="auto" fill="#a0641e" image-rendering="auto" opacity=".5" shape-rendering="auto" solid-color="#000000" style="font-feature-settings:normal;font-variant-alternates:normal;font-variant-caps:normal;font-variant-ligatures:normal;font-variant-numeric:normal;font-variant-position:normal;isolation:auto;mix-blend-mode:normal;shape-padding:0;text-decoration-color:#000000;text-decoration-line:none;text-decoration-style:solid;text-indent:0;text-orientation:mixed;text-transform:none;white-space:normal"/>
 </g>
 <path d="m10.363 10.7s0.40276 1.0844-0.23236 2.0138" fill="none" stroke="#fff" stroke-width=".35052px"/>
 <circle cx="8.5064" cy="9.18" r="2.1665" fill="none" stroke="#fff" stroke-width="1.3248"/>
</svg>
