<svg width="64" height="64" version="1.1" viewBox="0 0 16.933 16.933" xmlns="http://www.w3.org/2000/svg" xmlns:xlink="http://www.w3.org/1999/xlink">
 <defs>
  <linearGradient id="b">
   <stop stop-color="#ffb932" offset="0"/>
   <stop stop-color="#e68c32" offset="1"/>
  </linearGradient>
  <linearGradient id="d" x1="16.721" x2="16.721" y1="279.38" y2="297.64" gradientTransform="matrix(.98127 0 0 1 -7.7349 -280.07)" gradientUnits="userSpaceOnUse" xlink:href="#b"/>
  <linearGradient id="c" x1="19.27" x2="19.27" y1="281.99" y2="297.35" gradientTransform="translate(-10.848 -280.07)" gradientUnits="userSpaceOnUse">
   <stop stop-color="#ffbe3c" offset="0"/>
   <stop stop-color="#e68c28" offset="1"/>
  </linearGradient>
  <linearGradient id="a" x1="-6.1738" x2="-6.1738" y1="-126.08" y2="-126.7" gradientTransform="matrix(.54035 0 0 .54035 11.594 73.26)" gradientUnits="userSpaceOnUse" xlink:href="#b"/>
 </defs>
 <circle cx="8.4935" cy="8.73" r="7.9375" opacity=".2" stroke-width=".14032"/>
 <circle cx="-330.35" cy="-328.38" r="0" fill="#5e4aa6" stroke-width=".26458"/>
 <ellipse cx="8.5035" cy="8.47" rx="7.7988" ry="7.9476" fill="url(#d)" stroke-width="1.1902" style="paint-order:stroke markers fill"/>
 <circle cx="8.4935" cy="8.105" r="6.813" fill="#fafafa" stroke-width=".85833" style="paint-order:normal"/>
 <path d="m8.4929 3.3c-0.32458 8e-4 -0.42372 0.31783-0.58797 0.60998l-0.34222 0.60818-6.1696 5.3e-4a7.9376 8.2266 0 0 0-0.83717 3.6563 7.9376 8.2266 0 0 0 7.9376 8.2266 7.9376 8.2266 0 0 0 7.9376-8.2266 7.9376 8.2266 0 0 0-1.5555-4.875h-6.3815z" fill="url(#c)" stroke-width="1.1312" style="paint-order:stroke markers fill"/>
 <path d="m1.3013 4.83c-0.046136 0.091-0.091599 0.18276-0.13426 0.27537h14.652c-0.04075-0.0926-0.08955-0.18439-0.13374-0.27537z" fill="url(#a)" stroke-width=".14297"/>
 <g transform="translate(0,-280.07)" stroke-width=".25437">
  <path transform="matrix(.26458 0 0 .26458 0 280.07)" d="m21.043 47.953v0.75586s-1.15e-4 1.0449 1.1074 1.0449h19.9s1.1074-8.44e-4 1.1074-1.0449v-0.75586c0 1.0441-1.1074 1.0449-1.1074 1.0449h-19.9c-1.1075 0-1.1074-1.0449-1.1074-1.0449z" fill="#a0641e" opacity=".5" stroke-width=".96142"/>
  <path transform="matrix(.26458 0 0 .26458 0 280.07)" d="m22.154 23.996-0.003906 0.003906s-1.1074 7.56e-4 -1.1074 1.041v22.912s-1.15e-4 1.0449 1.1074 1.0449h19.9s1.1074-8.45e-4 1.1074-1.0449v-15.623l-0.013672-0.013672c-3.204 0.014947-6.6157 0-7.7207 0-1.1075 0-1.1094-7.56e-4 -1.1094-1.041 0-1.042-0.003969-3.1263 0-7.2754-4.108-0.003628-9.6622-0.003906-12.16-0.003906zm0.38672 4.9941h9v1h-9v-1zm0 2.9844h9v1h-9v-1zm14.162 2.0117c0.2455 0.008688 0.61759 0.089875 1.125 0.38281 1.057 0.61037 1.0566 1.084 1.0566 1.084l-5.5137 9.5488-2.8262 1.9824 0.30664-3.4375 5.4863-9.5059s0.11974-0.063376 0.36523-0.054688zm-14.162 1.0137h9v1h-9v-1z" fill="#fff" stroke-width=".96142"/>
  <path d="m11.419 288.62-2.3399-2.2038c-0.00106 1.1019 0 1.6524 0 1.9286 0 0.27523 0 0.27523 0.29303 0.27523s1.1983 4e-3 2.0477 0" fill="#fff" opacity=".35"/>
 </g>
 <g fill="#fff" stroke-width=".19269">
  <path d="m10.288 9.38s1.72e-4 -0.12514-0.2795-0.28663c-0.2685-0.15501-0.39406-0.0867-0.39406-0.0867l-1.4519 2.5148-0.080913 0.90935 0.74772-0.52436" opacity=".15"/>
  <path d="m8.1598 11.59-0.07766 0.84514 0.69309-0.48982" opacity=".15"/>
  <path d="m8.1171 12.01-0.036159 0.42412 0.34921-0.24337" opacity=".35"/>
  <path d="m9.3856 9.4 0.66748 0.38536 0.23488-0.40682s1.68e-4 -0.12516-0.2795-0.28664c-0.26917-0.1554-0.39396-0.0884-0.39396-0.0884" opacity=".35"/>
 </g>
</svg>
