<svg width="64" height="64" version="1.1" viewBox="0 0 16.933 16.933" xmlns="http://www.w3.org/2000/svg" xmlns:xlink="http://www.w3.org/1999/xlink">
 <defs>
  <clipPath id="SVGID_2_">
   <use width="100%" height="100%" xlink:href="#SVGID_1_"/>
  </clipPath>
  <rect id="SVGID_1_" x="247.96" y="371.21" width="99.36" height="99.46"/>
  <linearGradient id="b">
   <stop stop-color="#ffb932" offset="0"/>
   <stop stop-color="#e68c32" offset="1"/>
  </linearGradient>
  <linearGradient id="d" x1="16.721" x2="16.721" y1="279.38" y2="297.64" gradientTransform="matrix(.98127 0 0 1 -7.7349 -280.07)" gradientUnits="userSpaceOnUse" xlink:href="#b"/>
  <linearGradient id="c" x1="19.27" x2="19.27" y1="281.99" y2="297.35" gradientTransform="translate(-10.848 -280.07)" gradientUnits="userSpaceOnUse">
   <stop stop-color="#ffbe3c" offset="0"/>
   <stop stop-color="#e68c28" offset="1"/>
  </linearGradient>
  <linearGradient id="a" x1="-6.1738" x2="-6.1738" y1="-126.08" y2="-126.7" gradientTransform="matrix(.54035 0 0 .54035 11.594 73.26)" gradientUnits="userSpaceOnUse" xlink:href="#b"/>
 </defs>
 <circle cx="8.4935" cy="8.73" r="7.9375" opacity=".2" stroke-width=".14032"/>
 <circle cx="-330.35" cy="-328.38" r="0" fill="#5e4aa6" stroke-width=".26458"/>
 <ellipse cx="8.5035" cy="8.47" rx="7.7988" ry="7.9476" fill="url(#d)" stroke-width="1.1902" style="paint-order:stroke markers fill"/>
 <circle cx="8.4935" cy="8.105" r="6.813" fill="#fafafa" stroke-width=".85833" style="paint-order:normal"/>
 <path d="m8.4929 3.3c-0.32458 8e-4 -0.42372 0.31783-0.58797 0.60998l-0.34222 0.60818-6.1696 5.3e-4a7.9376 8.2266 0 0 0-0.83717 3.6563 7.9376 8.2266 0 0 0 7.9376 8.2266 7.9376 8.2266 0 0 0 7.9376-8.2266 7.9376 8.2266 0 0 0-1.5555-4.875h-6.3815z" fill="url(#c)" stroke-width="1.1312" style="paint-order:stroke markers fill"/>
 <path d="m1.3013 4.83c-0.046136 0.091-0.091599 0.18276-0.13426 0.27537h14.652c-0.04075-0.0926-0.08955-0.18439-0.13374-0.27537z" fill="url(#a)" stroke-width=".14297"/>
 <g transform="translate(0,-280.07)">
  <path class="st0" transform="matrix(.066624 0 0 .066624 -11.333 261.92)" d="m344.62 415.53-40.62-41.55c-3.53-3.62-9.32-3.62-12.85 0l-40.62 41.54c-5.53 5.65-1.61 15.32 6.21 15.32h6.1v29.78c0 5.49 4.44 9.93 9.93 9.93h14.89v-24.82c0-2.74 2.22-4.96 4.96-4.96h9.93c2.74 0 4.96 2.22 4.96 4.96v24.82h14.88c5.49 0 9.93-4.44 9.93-9.93v-29.78h6.1c7.81 0 11.73-9.66 6.2-15.31z" clip-path="url(#SVGID_2_)" fill="#a0641e" opacity=".5"/>
  <path class="st0" transform="matrix(.066624 0 0 .066624 -11.333 261.68)" d="m344.62 415.53-40.62-41.55c-3.53-3.62-9.32-3.62-12.85 0l-40.62 41.54c-5.53 5.65-1.61 15.32 6.21 15.32h6.1v29.78c0 5.49 4.44 9.93 9.93 9.93h14.89v-24.82c0-2.74 2.22-4.96 4.96-4.96h9.93c2.74 0 4.96 2.22 4.96 4.96v24.82h14.88c5.49 0 9.93-4.44 9.93-9.93v-29.78h6.1c7.81 0 11.73-9.66 6.2-15.31z" clip-path="url(#SVGID_2_)" fill="#fff"/>
 </g>
</svg>
