<?xml version="1.0" encoding="UTF-8"?>
<svg width="64" height="64" version="1.1" viewBox="0 0 16.933 16.933" xmlns="http://www.w3.org/2000/svg" xmlns:cc="http://creativecommons.org/ns#" xmlns:dc="http://purl.org/dc/elements/1.1/" xmlns:rdf="http://www.w3.org/1999/02/22-rdf-syntax-ns#" xmlns:xlink="http://www.w3.org/1999/xlink">
 <metadata>
  <rdf:RDF>
   <cc:Work rdf:about="">
    <dc:format>image/svg+xml</dc:format>
    <dc:type rdf:resource="http://purl.org/dc/dcmitype/StillImage"/>
    <dc:title/>
   </cc:Work>
  </rdf:RDF>
 </metadata>
 <defs>
  <linearGradient id="b">
   <stop stop-color="#ffb932" offset="0"/>
   <stop stop-color="#e68c32" offset="1"/>
  </linearGradient>
  <linearGradient id="linearGradient676960" x1="16.721" x2="16.721" y1="279.38" y2="297.64" gradientTransform="matrix(.9813 0 0 1 155.18 -31.246)" gradientUnits="userSpaceOnUse" xlink:href="#b"/>
  <linearGradient id="linearGradient15629" x1="10.798" x2="10.798" y1="282.88" y2="283.29" gradientTransform="matrix(1.0543 0 0 .55499 4.1087 128.14)" gradientUnits="userSpaceOnUse" xlink:href="#linearGradient991"/>
  <linearGradient id="linearGradient991">
   <stop stop-color="#969696" offset="0"/>
   <stop stop-color="#e6e6e6" stop-opacity=".90196" offset="1"/>
  </linearGradient>
  <linearGradient id="linearGradient15631" x1="8.8166" x2="8.8166" y1="293.7" y2="294.12" gradientTransform="matrix(.94579 0 0 .555 7.7176 133.01)" gradientUnits="userSpaceOnUse" xlink:href="#linearGradient991"/>
  <linearGradient id="linearGradient15633" x1="7.998" x2="7.998" y1="284.98" y2="285.41" gradientTransform="matrix(.94579 0 0 .555 7.9256 129.13)" gradientUnits="userSpaceOnUse" xlink:href="#linearGradient991"/>
  <linearGradient id="linearGradient15635" x1="8.7643" x2="8.7643" y1="287.18" y2="287.64" gradientTransform="matrix(.94579 0 0 .555 7.919 130.1)" gradientUnits="userSpaceOnUse" xlink:href="#linearGradient991"/>
  <linearGradient id="linearGradient15637" x1="8.3178" x2="8.3178" y1="289.36" y2="289.81" gradientTransform="matrix(.94579 0 0 .555 7.901 131.07)" gradientUnits="userSpaceOnUse" xlink:href="#linearGradient991"/>
  <linearGradient id="linearGradient15639" x1="8.2553" x2="8.2553" y1="291.55" y2="291.96" gradientTransform="matrix(.94579 0 0 .55502 8.0111 132.03)" gradientUnits="userSpaceOnUse" xlink:href="#linearGradient991"/>
  <linearGradient id="linearGradient676974" x1="19.27" x2="19.27" y1="281.99" y2="297.35" gradientTransform="translate(152.08,-31.246)" gradientUnits="userSpaceOnUse">
   <stop stop-color="#ffbe3c" offset="0"/>
   <stop stop-color="#e68c28" offset="1"/>
  </linearGradient>
  <linearGradient id="linearGradient676976" x1="-6.1738" x2="-6.1738" y1="-126.08" y2="-126.7" gradientTransform="matrix(.54037 0 0 .54037 174.52 322.09)" gradientUnits="userSpaceOnUse" xlink:href="#b"/>
 </defs>
 <g transform="matrix(.99997 0 0 .99997 -162.92 -248.82)">
  <circle cx="171.42" cy="257.56" r="7.9377" opacity=".2" stroke-width=".14032"/>
  <ellipse cx="171.42" cy="257.3" rx="7.799" ry="7.9478" fill="url(#linearGradient676960)" stroke-width="1.1902" style="paint-order:stroke markers fill"/>
  <g transform="matrix(.85834 0 0 .85834 157.75 7.4292)">
   <circle cx="15.926" cy="290.69" r="7.9375" fill="#fafafa" style="paint-order:normal"/>
   <path d="m10.551 285.17c-0.04221 0.0443-0.07897 0.0835-0.13658 0.14895l11.024 9.8e-4c-0.05944-0.0607-0.08604-0.0922-0.14076-0.15z" fill="url(#linearGradient15629)" opacity=".6" style="paint-order:normal"/>
   <path d="m10.431 296.06c0.04857 0.052 0.08052 0.0907 0.1349 0.15h10.72c0.05003-0.0561 0.07465-0.0855 0.13441-0.15z" fill="url(#linearGradient15631)" opacity=".6" style="paint-order:normal"/>
   <path d="m9.1386 287.33c-0.022302 0.0517-0.037132 0.0892-0.065978 0.15h13.708c-0.02381-0.0504-0.04631-0.10145-0.06843-0.15z" fill="url(#linearGradient15633)" opacity=".6" style="paint-order:normal"/>
   <path d="m8.5204 289.52c-0.00964 0.0489-0.015643 0.0999-0.024922 0.15h14.862c-0.0088-0.0501-0.01516-0.10114-0.0259-0.15z" fill="url(#linearGradient15635)" opacity=".6" style="paint-order:normal"/>
   <path d="m8.4942 291.7c0.00899 0.0501 0.01744 0.10011 0.027371 0.15h14.811c0.0093-0.0539 0.01711-0.0968 0.02541-0.15z" fill="url(#linearGradient15637)" opacity=".6" style="paint-order:normal"/>
   <path d="m9.0766 293.88c0.021867 0.0535 0.040442 0.0932 0.064512 0.15h13.57c0.02313-0.0512 0.03674-0.0804 0.06941-0.15z" fill="url(#linearGradient15639)" opacity=".6" style="paint-order:normal"/>
  </g>
  <path d="m171.42 252.13c-0.32459 8e-4 -0.42374 0.31784-0.58799 0.61l-0.34223 0.60819-6.1698 5.3e-4a7.9378 8.2268 0 0 0-0.8372 3.6564 7.9378 8.2268 0 0 0 7.9378 8.2268 7.9378 8.2268 0 0 0 7.9378-8.2268 7.9378 8.2268 0 0 0-1.5556-4.8751h-6.3817z" fill="url(#linearGradient676974)" stroke-width="1.1312" style="paint-order:stroke markers fill"/>
  <path d="m164.23 253.66c-0.0461 0.091-0.0916 0.18277-0.13426 0.27538h14.652c-0.0408-0.0926-0.0896-0.18439-0.13374-0.27538z" fill="url(#linearGradient676976)" stroke-width=".14297"/>
  <g transform="translate(61.651,27.517)" stroke-width="4.781">
   <g transform="matrix(1.1709,0,0,1.1709,100.16,219.52)" color="#000000" opacity=".15">
    <path d="m8.553 7.144c-1.47 0-2.68 0.968-2.813 2.381h-0.713l1.054 1.323 1.053-1.323h-0.688c0.13-1.03 1.026-1.691 2.107-1.691 1.171 0 2.122 0.935 2.122 2.088 0 1.152-0.95 2.088-2.122 2.088a2.132 2.132 0 0 1-1.595-0.712l-0.515 0.47a2.836 2.836 0 0 0 2.11 0.932c1.559 0 2.824-1.245 2.824-2.778 0-1.534-1.265-2.778-2.824-2.778z" overflow="visible"/>
    <path d="m8.731 8.202h-0.264l-0.265 1.852 1.323 1.059v-0.265l-0.794-1.058z" overflow="visible"/>
   </g>
   <g transform="matrix(1.1709,0,0,1.1709,100.16,219.29)" color="#000000" fill="#fff">
    <path d="m8.553 7.144c-1.47 0-2.68 0.968-2.813 2.381h-0.713l1.054 1.323 1.053-1.323h-0.688c0.13-1.03 1.026-1.691 2.107-1.691 1.171 0 2.122 0.935 2.122 2.088 0 1.152-0.95 2.088-2.122 2.088a2.132 2.132 0 0 1-1.595-0.712l-0.515 0.47a2.836 2.836 0 0 0 2.11 0.932c1.559 0 2.824-1.245 2.824-2.778 0-1.534-1.265-2.778-2.824-2.778z" overflow="visible"/>
    <path d="m8.731 8.202h-0.264l-0.265 1.852 1.323 1.059v-0.265l-0.794-1.058z" overflow="visible"/>
   </g>
  </g>
 </g>
 <circle cx="-330.36" cy="-328.39" r="0" fill="#5e4aa6" stroke-width=".26459"/>
</svg>
