<?xml version="1.0" encoding="UTF-8"?>
<svg width="64" height="64" version="1.1" viewBox="0 0 16.933 16.933" xmlns="http://www.w3.org/2000/svg" xmlns:cc="http://creativecommons.org/ns#" xmlns:dc="http://purl.org/dc/elements/1.1/" xmlns:rdf="http://www.w3.org/1999/02/22-rdf-syntax-ns#" xmlns:xlink="http://www.w3.org/1999/xlink">
 <metadata>
  <rdf:RDF>
   <cc:Work rdf:about="">
    <dc:format>image/svg+xml</dc:format>
    <dc:type rdf:resource="http://purl.org/dc/dcmitype/StillImage"/>
    <dc:title/>
   </cc:Work>
  </rdf:RDF>
 </metadata>
 <defs>
  <linearGradient id="b">
   <stop stop-color="#ffb932" offset="0"/>
   <stop stop-color="#e68c32" offset="1"/>
  </linearGradient>
  <linearGradient id="linearGradient677511" x1="16.721" x2="16.721" y1="279.38" y2="297.64" gradientTransform="matrix(.9813 0 0 1 217.11 -29.577)" gradientUnits="userSpaceOnUse" xlink:href="#b"/>
  <linearGradient id="linearGradient13492" x1="10.798" x2="10.798" y1="282.88" y2="283.29" gradientTransform="matrix(1.0543 0 0 .55499 4.1087 128.14)" gradientUnits="userSpaceOnUse" xlink:href="#linearGradient991"/>
  <linearGradient id="linearGradient991">
   <stop stop-color="#969696" offset="0"/>
   <stop stop-color="#e6e6e6" stop-opacity=".90196" offset="1"/>
  </linearGradient>
  <linearGradient id="linearGradient13494" x1="8.8166" x2="8.8166" y1="293.7" y2="294.12" gradientTransform="matrix(.94579 0 0 .555 7.7176 133.01)" gradientUnits="userSpaceOnUse" xlink:href="#linearGradient991"/>
  <linearGradient id="linearGradient13496" x1="7.998" x2="7.998" y1="284.98" y2="285.41" gradientTransform="matrix(.94579 0 0 .555 7.9256 129.13)" gradientUnits="userSpaceOnUse" xlink:href="#linearGradient991"/>
  <linearGradient id="linearGradient13498" x1="8.7643" x2="8.7643" y1="287.18" y2="287.64" gradientTransform="matrix(.94579 0 0 .555 7.919 130.1)" gradientUnits="userSpaceOnUse" xlink:href="#linearGradient991"/>
  <linearGradient id="linearGradient13500" x1="8.3178" x2="8.3178" y1="289.36" y2="289.81" gradientTransform="matrix(.94579 0 0 .555 7.901 131.07)" gradientUnits="userSpaceOnUse" xlink:href="#linearGradient991"/>
  <linearGradient id="linearGradient13502" x1="8.2553" x2="8.2553" y1="291.55" y2="291.96" gradientTransform="matrix(.94579 0 0 .55502 8.0111 132.03)" gradientUnits="userSpaceOnUse" xlink:href="#linearGradient991"/>
  <linearGradient id="linearGradient677525" x1="19.27" x2="19.27" y1="281.99" y2="297.35" gradientTransform="translate(214.01,-29.577)" gradientUnits="userSpaceOnUse">
   <stop stop-color="#ffbe3c" offset="0"/>
   <stop stop-color="#e68c28" offset="1"/>
  </linearGradient>
  <linearGradient id="linearGradient677527" x1="-6.1738" x2="-6.1738" y1="-126.08" y2="-126.7" gradientTransform="matrix(.54037 0 0 .54037 236.45 323.76)" gradientUnits="userSpaceOnUse" xlink:href="#b"/>
 </defs>
 <g transform="matrix(.99997 0 0 .99997 -224.85 -250.49)">
  <circle cx="233.35" cy="259.23" r="7.9377" opacity=".2" stroke-width=".14032"/>
  <ellipse cx="233.35" cy="258.97" rx="7.799" ry="7.9478" fill="url(#linearGradient677511)" stroke-width="1.1902" style="paint-order:stroke markers fill"/>
  <g transform="matrix(.85834 0 0 .85834 219.68 9.0984)">
   <circle cx="15.926" cy="290.69" r="7.9375" fill="#fafafa" style="paint-order:normal"/>
   <path d="m10.551 285.17c-0.04221 0.0443-0.07897 0.0835-0.13658 0.14895l11.024 9.8e-4c-0.05944-0.0607-0.08604-0.0922-0.14076-0.15z" fill="url(#linearGradient13492)" opacity=".6" style="paint-order:normal"/>
   <path d="m10.431 296.06c0.04857 0.052 0.08052 0.0907 0.1349 0.15h10.72c0.05003-0.0561 0.07465-0.0855 0.13441-0.15z" fill="url(#linearGradient13494)" opacity=".6" style="paint-order:normal"/>
   <path d="m9.1386 287.33c-0.022302 0.0517-0.037132 0.0892-0.065978 0.15h13.708c-0.02381-0.0504-0.04631-0.10145-0.06843-0.15z" fill="url(#linearGradient13496)" opacity=".6" style="paint-order:normal"/>
   <path d="m8.5204 289.52c-0.00964 0.0489-0.015643 0.0999-0.024922 0.15h14.862c-0.0088-0.0501-0.01516-0.10114-0.0259-0.15z" fill="url(#linearGradient13498)" opacity=".6" style="paint-order:normal"/>
   <path d="m8.4942 291.7c0.00899 0.0501 0.01744 0.10011 0.027371 0.15h14.811c0.0093-0.0539 0.01711-0.0968 0.02541-0.15z" fill="url(#linearGradient13500)" opacity=".6" style="paint-order:normal"/>
   <path d="m9.0766 293.88c0.021867 0.0535 0.040442 0.0932 0.064512 0.15h13.57c0.02313-0.0512 0.03674-0.0804 0.06941-0.15z" fill="url(#linearGradient13502)" opacity=".6" style="paint-order:normal"/>
  </g>
  <path d="m233.35 253.8c-0.32459 8e-4 -0.42374 0.31784-0.58799 0.61l-0.34223 0.60819-6.1698 5.3e-4a7.9378 8.2268 0 0 0-0.8372 3.6564 7.9378 8.2268 0 0 0 7.9378 8.2268 7.9378 8.2268 0 0 0 7.9378-8.2268 7.9378 8.2268 0 0 0-1.5556-4.8751h-6.3817z" fill="url(#linearGradient677525)" stroke-width="1.1312" style="paint-order:stroke markers fill"/>
  <path d="m226.16 255.33c-0.0461 0.091-0.0916 0.18277-0.13426 0.27538h14.652c-0.0408-0.0926-0.0896-0.18439-0.13374-0.27538z" fill="url(#linearGradient677527)" stroke-width=".14297"/>
  <g transform="matrix(.98658 0 0 .98658 109.43 32.238)">
   <g transform="translate(117.11,-58.763)" stroke-width=".25437">
    <path transform="matrix(.26458 0 0 .26458 0 280.07)" d="m21.043 47.953v0.75586s-1.15e-4 1.0449 1.1074 1.0449h19.9s1.1074-8.44e-4 1.1074-1.0449v-0.75586c0 1.0441-1.1074 1.0449-1.1074 1.0449h-19.9c-1.1075 0-1.1074-1.0449-1.1074-1.0449z" fill="#a0641e" opacity=".5" stroke-width=".96142"/>
    <path transform="matrix(.26458 0 0 .26458 0 280.07)" d="m22.154 23.996-0.0039 0.0039s-1.1074 7.56e-4 -1.1074 1.041v22.912s-1.15e-4 1.0449 1.1074 1.0449h19.9s1.1074-8.45e-4 1.1074-1.0449v-15.623l-0.01367-0.01367c-3.204 0.01495-6.6157 0-7.7207 0-1.1075 0-1.1094-7.56e-4 -1.1094-1.041 0-1.042-4e-3 -3.1263 0-7.2754-4.108-0.0036-9.6622-0.0039-12.16-0.0039zm0.38672 4.9941h9v1h-9zm0 2.9844h9v1h-9zm14.162 2.0117c0.2455 0.0087 0.61759 0.08988 1.125 0.38281 1.057 0.61037 1.0566 1.084 1.0566 1.084l-5.5137 9.5488-2.8262 1.9824 0.30664-3.4375 5.4863-9.5059s0.11974-0.06338 0.36523-0.05469zm-14.162 1.0137h9v1h-9z" fill="#fff" stroke-width=".96142"/>
    <path d="m11.419 288.62-2.3399-2.2038c-0.00106 1.1019 0 1.6524 0 1.9286 0 0.27523 0 0.27523 0.29303 0.27523s1.1983 4e-3 2.0477 0" fill="#fff" opacity=".35"/>
   </g>
   <g transform="translate(117.11,221.31)" fill="#fff" stroke-width=".19269">
    <path d="m10.288 9.38s1.72e-4 -0.12514-0.2795-0.28663c-0.2685-0.15501-0.39406-0.0867-0.39406-0.0867l-1.4519 2.5148-0.080913 0.90935 0.74772-0.52436" opacity=".15"/>
    <path d="m8.1598 11.59-0.07766 0.84514 0.69309-0.48982" opacity=".15"/>
    <path d="m8.1171 12.01-0.036159 0.42412 0.34921-0.24337" opacity=".35"/>
    <path d="m9.3856 9.4 0.66748 0.38536 0.23488-0.40682s1.68e-4 -0.12516-0.2795-0.28664c-0.26917-0.1554-0.39396-0.0884-0.39396-0.0884" opacity=".35"/>
   </g>
  </g>
 </g>
 <circle cx="-330.35" cy="-328.38" r="0" fill="#5e4aa6" stroke-width=".26458"/>
</svg>
