<?xml version="1.0" encoding="UTF-8"?>
<svg width="64" height="64" version="1.1" viewBox="0 0 16.933 16.933" xmlns="http://www.w3.org/2000/svg" xmlns:cc="http://creativecommons.org/ns#" xmlns:dc="http://purl.org/dc/elements/1.1/" xmlns:rdf="http://www.w3.org/1999/02/22-rdf-syntax-ns#" xmlns:xlink="http://www.w3.org/1999/xlink">
 <metadata>
  <rdf:RDF>
   <cc:Work rdf:about="">
    <dc:format>image/svg+xml</dc:format>
    <dc:type rdf:resource="http://purl.org/dc/dcmitype/StillImage"/>
    <dc:title/>
   </cc:Work>
  </rdf:RDF>
 </metadata>
 <defs>
  <linearGradient id="g-9" x1="16.721" x2="16.721" y1="279.38" y2="297.64" gradientTransform="matrix(.9813 0 0 1 115.79 -58.763)" gradientUnits="userSpaceOnUse">
   <stop stop-color="#ffb932" offset="0"/>
   <stop stop-color="#e68c32" offset="1"/>
  </linearGradient>
  <linearGradient id="linearGradient13586" x1="10.798" x2="10.798" y1="282.88" y2="283.29" gradientTransform="matrix(1.0543 0 0 .55499 4.1087 128.14)" gradientUnits="userSpaceOnUse" xlink:href="#linearGradient991-3"/>
  <linearGradient id="linearGradient991-3">
   <stop stop-color="#969696" offset="0"/>
   <stop stop-color="#e6e6e6" stop-opacity=".90196" offset="1"/>
  </linearGradient>
  <linearGradient id="linearGradient13589" x1="8.8166" x2="8.8166" y1="293.7" y2="294.12" gradientTransform="matrix(.94579 0 0 .555 7.7176 133.01)" gradientUnits="userSpaceOnUse" xlink:href="#linearGradient991-3"/>
  <linearGradient id="linearGradient13591" x1="7.998" x2="7.998" y1="284.98" y2="285.41" gradientTransform="matrix(.94579 0 0 .555 7.9256 129.13)" gradientUnits="userSpaceOnUse" xlink:href="#linearGradient991-3"/>
  <linearGradient id="linearGradient13593" x1="8.7643" x2="8.7643" y1="287.18" y2="287.64" gradientTransform="matrix(.94579 0 0 .555 7.919 130.1)" gradientUnits="userSpaceOnUse" xlink:href="#linearGradient991-3"/>
  <linearGradient id="linearGradient13595" x1="8.3178" x2="8.3178" y1="289.36" y2="289.81" gradientTransform="matrix(.94579 0 0 .555 7.901 131.07)" gradientUnits="userSpaceOnUse" xlink:href="#linearGradient991-3"/>
  <linearGradient id="linearGradient13597" x1="8.2553" x2="8.2553" y1="291.55" y2="291.96" gradientTransform="matrix(.94579 0 0 .55502 8.0111 132.03)" gradientUnits="userSpaceOnUse" xlink:href="#linearGradient991-3"/>
  <linearGradient id="a-7" x1="19.27" x2="19.27" y1="281.99" y2="297.35" gradientTransform="translate(112.68,-58.778)" gradientUnits="userSpaceOnUse">
   <stop stop-color="#ffbe3c" offset="0"/>
   <stop stop-color="#e68c28" offset="1"/>
  </linearGradient>
  <linearGradient id="j-3" x1="-6.1738" x2="-6.1738" y1="-126.08" y2="-126.7" gradientTransform="matrix(.58196 0 0 .58196 95.988 302.96)" gradientUnits="userSpaceOnUse">
   <stop stop-color="#ffb932" offset="0"/>
   <stop stop-color="#e68c32" offset="1"/>
  </linearGradient>
 </defs>
 <g transform="matrix(.99997 0 0 .99997 -84.151 -222.06)">
  <g transform="translate(-39.373 .74916)">
   <circle cx="132.02" cy="230.05" r="7.9377" opacity=".2" stroke-width=".14032"/>
   <ellipse cx="132.03" cy="229.79" rx="7.799" ry="7.9478" fill="url(#g-9)" stroke-width="1.1902" style="paint-order:stroke markers fill"/>
   <g transform="matrix(.85834 0 0 .85834 118.35 -20.088)">
    <circle cx="15.926" cy="290.69" r="7.9375" fill="#fafafa" style="paint-order:normal"/>
    <path d="m10.551 285.17c-0.04221 0.0443-0.07897 0.0835-0.13658 0.14895l11.024 9.8e-4c-0.05944-0.0607-0.08604-0.0922-0.14076-0.15z" fill="url(#linearGradient13586)" opacity=".6" style="paint-order:normal"/>
    <path d="m10.431 296.06c0.04857 0.052 0.08052 0.0907 0.1349 0.15h10.72c0.05003-0.0561 0.07465-0.0855 0.13441-0.15z" fill="url(#linearGradient13589)" opacity=".6" style="paint-order:normal"/>
    <path d="m9.1386 287.33c-0.022302 0.0517-0.037132 0.0892-0.065978 0.15h13.708c-0.02381-0.0504-0.04631-0.10145-0.06843-0.15z" fill="url(#linearGradient13591)" opacity=".6" style="paint-order:normal"/>
    <path d="m8.5204 289.52c-0.00964 0.0489-0.015643 0.0999-0.024922 0.15h14.862c-0.0088-0.0501-0.01516-0.10114-0.0259-0.15z" fill="url(#linearGradient13593)" opacity=".6" style="paint-order:normal"/>
    <path d="m8.4942 291.7c0.00899 0.0501 0.01744 0.10011 0.027371 0.15h14.811c0.0093-0.0539 0.01711-0.0968 0.02541-0.15z" fill="url(#linearGradient13595)" opacity=".6" style="paint-order:normal"/>
    <path d="m9.0766 293.88c0.021867 0.0535 0.040442 0.0932 0.064512 0.15h13.57c0.02313-0.0512 0.03674-0.0804 0.06941-0.15z" fill="url(#linearGradient13597)" opacity=".6" style="paint-order:normal"/>
   </g>
   <path d="m139.51 226.81-7.5244 0.0651h-1e-3c-0.3246 7.9e-4 -0.42384 0.31764-0.5881 0.60979l-0.34211 0.60824-6.8571 0.0413a7.9379 8.2268 0 0 0-0.1142 1.3596 7.9379 8.2268 0 0 0 7.9376 8.2271 7.9379 8.2268 0 0 0 7.9382-8.2271 7.9379 8.2268 0 0 0-0.44908-2.6842z" fill="url(#a-7)" stroke-width="1.1312" style="paint-order:stroke markers fill"/>
  </g>
  <path d="m84.789 229.27c-0.0238 0.1104-0.03457 0.17409-0.03092 0.29658h15.78c-2e-3 -0.10073-6e-3 -0.19238-0.0293-0.29658z" fill="url(#j-3)" stroke-width=".15398"/>
 </g>
 <circle cx="-330.35" cy="-328.38" r="0" fill="#5e4aa6" stroke-width=".26458"/>
</svg>
