<svg width="64" height="64" version="1.1" viewBox="0 0 16.933 16.933" xmlns="http://www.w3.org/2000/svg">
 <defs>
  <linearGradient id="a" x1="505.39" x2="-110.8" y1="446.78" y2="-19.343" gradientTransform="matrix(.03122 0 0 .031219 .22065 .6944)" gradientUnits="userSpaceOnUse">
   <stop stop-color="#fb752e" offset="0"/>
   <stop stop-color="#d0c311" offset="1"/>
  </linearGradient>
 </defs>
 <g transform="matrix(.99431 0 0 1 .57429 -.3551)">
  <path d="m2.9072 2.4722c-2.4368-0.011919-2.6865 0.28694-2.6865 2.7187v7.8282c0 2.4319 0.24966 2.6815 2.6865 2.6815h10.06c2.4368 0 2.6866-0.24963 2.6866-2.6815v-7.8282c0-2.4317-0.24983-2.7306-2.6866-2.7187h-5.03z" color="#000000" opacity=".15"/>
  <path d="m2.9072 2.2077c-2.4368-0.011919-2.6865 0.28694-2.6865 2.7187v7.8282c0 2.4319 0.24966 2.6815 2.6865 2.6815h10.06c2.4368 0 2.6866-0.24963 2.6866-2.6815v-7.8282c0-2.4317-0.24983-2.7306-2.6866-2.7187h-5.03z" color="#000000" fill="url(#a)"/>
  <path d="m0.2207 12.617v0.1378c0 2.4319 0.24966 2.6815 2.6865 2.6815h10.06c2.4368 0 2.6866-0.24963 2.6866-2.6815v-0.1378c0 2.4319-0.2498 2.6815-2.6866 2.6815h-10.06c-2.4368 0-2.6865-0.24963-2.6865-2.6815z" color="#000000" opacity=".2"/>
  <path d="m2.6195 2.2077c-2.1757-0.011919-2.3987 0.28694-2.3987 2.7187v7.8282c0 2.4319 0.22292 2.6815 2.3987 2.6815h1.0604v-13.228z" enable-background="new" opacity=".3"/>
  <path d="m2.9072 2.2075c-2.4368-0.011919-2.6865 0.24977-2.6865 2.6817v0.1378c0-2.4319 0.24969-2.6936 2.6865-2.6817h10.06c2.4368-0.011919 2.6866 0.24977 2.6866 2.6817v-0.1378c0-2.4319-0.24983-2.6936-2.6866-2.6817h-5.03z" color="#000000" fill="#fff" opacity=".2"/>
 </g>
</svg>
