<?xml version="1.0" encoding="UTF-8"?>
<svg width="64" height="64" version="1.1" viewBox="0 0 16.933 16.933" xmlns="http://www.w3.org/2000/svg" xmlns:cc="http://creativecommons.org/ns#" xmlns:dc="http://purl.org/dc/elements/1.1/" xmlns:rdf="http://www.w3.org/1999/02/22-rdf-syntax-ns#" xmlns:xlink="http://www.w3.org/1999/xlink">
 <metadata>
  <rdf:RDF>
   <cc:Work rdf:about="">
    <dc:format>image/svg+xml</dc:format>
    <dc:type rdf:resource="http://purl.org/dc/dcmitype/StillImage"/>
    <dc:title/>
   </cc:Work>
  </rdf:RDF>
 </metadata>
 <defs>
  <linearGradient id="b">
   <stop stop-color="#ffb932" offset="0"/>
   <stop stop-color="#e68c32" offset="1"/>
  </linearGradient>
  <linearGradient id="linearGradient677234" x1="16.721" x2="16.721" y1="279.38" y2="297.64" gradientTransform="matrix(.98127 0 0 .99997 -7.7453 -280.07)" gradientUnits="userSpaceOnUse" xlink:href="#b"/>
  <linearGradient id="linearGradient15409" x1="10.798" x2="10.798" y1="282.88" y2="283.29" gradientTransform="matrix(1.0543 0 0 .55499 4.1087 128.14)" gradientUnits="userSpaceOnUse" xlink:href="#linearGradient991"/>
  <linearGradient id="linearGradient991">
   <stop stop-color="#969696" offset="0"/>
   <stop stop-color="#e6e6e6" stop-opacity=".90196" offset="1"/>
  </linearGradient>
  <linearGradient id="linearGradient15411" x1="8.8166" x2="8.8166" y1="293.7" y2="294.12" gradientTransform="matrix(.94579 0 0 .555 7.7176 133.01)" gradientUnits="userSpaceOnUse" xlink:href="#linearGradient991"/>
  <linearGradient id="linearGradient15413" x1="7.998" x2="7.998" y1="284.98" y2="285.41" gradientTransform="matrix(.94579 0 0 .555 7.9256 129.13)" gradientUnits="userSpaceOnUse" xlink:href="#linearGradient991"/>
  <linearGradient id="linearGradient15415" x1="8.7643" x2="8.7643" y1="287.18" y2="287.64" gradientTransform="matrix(.94579 0 0 .555 7.919 130.1)" gradientUnits="userSpaceOnUse" xlink:href="#linearGradient991"/>
  <linearGradient id="linearGradient15417" x1="8.3178" x2="8.3178" y1="289.36" y2="289.81" gradientTransform="matrix(.94579 0 0 .555 7.901 131.07)" gradientUnits="userSpaceOnUse" xlink:href="#linearGradient991"/>
  <linearGradient id="linearGradient15419" x1="8.2553" x2="8.2553" y1="291.55" y2="291.96" gradientTransform="matrix(.94579 0 0 .55502 8.0111 132.03)" gradientUnits="userSpaceOnUse" xlink:href="#linearGradient991"/>
  <linearGradient id="linearGradient677248" x1="19.27" x2="19.27" y1="281.99" y2="297.35" gradientTransform="matrix(.99997 0 0 .99997 -10.845 -280.07)" gradientUnits="userSpaceOnUse">
   <stop stop-color="#ffbe3c" offset="0"/>
   <stop stop-color="#e68c28" offset="1"/>
  </linearGradient>
  <linearGradient id="linearGradient677250" x1="-6.1738" x2="-6.1738" y1="-126.08" y2="-126.7" gradientTransform="matrix(.54035 0 0 .54035 11.594 73.26)" gradientUnits="userSpaceOnUse" xlink:href="#b"/>
  <clipPath id="e-2">
   <path d="m0 1337h1028v-1337h-1028z"/>
  </clipPath>
  <clipPath id="d-4">
   <path d="m643.08 355.8h39.287v-33.32h-39.287z"/>
  </clipPath>
  <clipPath id="c-27">
   <path d="m678.88 333.92h10.444v-9.946h-10.444z"/>
  </clipPath>
  <clipPath id="a-51">
   <path d="m679.38 339.39h3.482v-3.481h-3.482z"/>
  </clipPath>
 </defs>
 <circle cx="8.4943" cy="8.7322" r="7.9375" opacity=".2" stroke-width=".14032"/>
 <ellipse cx="8.4943" cy="8.4722" rx="7.7988" ry="7.9476" fill="url(#linearGradient677234)" stroke-width="1.1902" style="paint-order:stroke markers fill"/>
 <g transform="matrix(.85831 0 0 .85831 -5.1753 -241.4)">
  <circle cx="15.926" cy="290.69" r="7.9375" fill="#fafafa" style="paint-order:normal"/>
  <path d="m10.551 285.17c-0.04221 0.0443-0.07897 0.0835-0.13658 0.14895l11.024 9.8e-4c-0.05944-0.0607-0.08604-0.0922-0.14076-0.15z" fill="url(#linearGradient15409)" opacity=".6" style="paint-order:normal"/>
  <path d="m10.431 296.06c0.04857 0.052 0.08052 0.0907 0.1349 0.15h10.72c0.05003-0.0561 0.07465-0.0855 0.13441-0.15z" fill="url(#linearGradient15411)" opacity=".6" style="paint-order:normal"/>
  <path d="m9.1386 287.33c-0.022302 0.0517-0.037132 0.0892-0.065978 0.15h13.708c-0.02381-0.0504-0.04631-0.10145-0.06843-0.15z" fill="url(#linearGradient15413)" opacity=".6" style="paint-order:normal"/>
  <path d="m8.5204 289.52c-0.00964 0.0489-0.015643 0.0999-0.024922 0.15h14.862c-0.0088-0.0501-0.01516-0.10114-0.0259-0.15z" fill="url(#linearGradient15415)" opacity=".6" style="paint-order:normal"/>
  <path d="m8.4942 291.7c0.00899 0.0501 0.01744 0.10011 0.027371 0.15h14.811c0.0093-0.0539 0.01711-0.0968 0.02541-0.15z" fill="url(#linearGradient15417)" opacity=".6" style="paint-order:normal"/>
  <path d="m9.0766 293.88c0.021867 0.0535 0.040442 0.0932 0.064512 0.15h13.57c0.02313-0.0512 0.03674-0.0804 0.06941-0.15z" fill="url(#linearGradient15419)" opacity=".6" style="paint-order:normal"/>
 </g>
 <path d="m8.4943 3.3023c-0.32458 8e-4 -0.42373 0.31783-0.58797 0.60998l-0.34222 0.60817-6.1696 5.299e-4a7.9376 8.2266 0 0 0-0.83717 3.6563 7.9376 8.2266 0 0 0 7.9376 8.2266 7.9376 8.2266 0 0 0 7.9376-8.2266 7.9376 8.2266 0 0 0-1.5556-4.875h-6.3815z" fill="url(#linearGradient677248)" stroke-width="1.1312" style="paint-order:stroke markers fill"/>
 <path d="m1.3045 4.8323c-0.046099 0.090997-0.091597 0.18276-0.13426 0.27537h14.652c-0.0408-0.092597-0.0896-0.18438-0.13374-0.27537z" fill="url(#linearGradient677250)" stroke-width=".14297"/>
 <g transform="matrix(.73381 0 0 .73381 -68.045 -159.15)">
  <g transform="matrix(.11931 0 0 -.11937 22.891 270.19)">
   <g clip-path="url(#e-2)">
    <g clip-path="url(#d-4)" opacity=".66548">
     <g transform="translate(648.55,338.99)">
      <path d="m0 0c2.161 2.507 7.198 7.761 13.427 10.347-3.602-2.205-5.999-6.121-5.999-10.584 0-3.7 1.649-7.024 4.266-9.308-5.425 2.754-9.74 7.272-11.694 9.545m22.483-12.244c-1.727 2.549-2.658 5.559-2.658 8.719 0 4.126 1.448 8.152 4.465 10.925 2.923 2.689 7.358 4.29 9.527 4.468-3.971 2.736-8.815 4.944-14.112 4.944-13.649 0-24.284-14.641-24.729-15.261-0.595-0.834-0.595-1.961 0-2.793 0.445-0.62 11.08-15.265 24.729-15.265 2.038 0 4.009 0.328 5.882 0.885-0.448 0.366-0.883 0.752-1.297 1.174-0.677 0.683-1.277 1.421-1.807 2.204" fill="#fff"/>
     </g>
    </g>
    <g clip-path="url(#c-27)" opacity=".61821">
     <g transform="translate(687.91,327.34)">
      <path d="m0 0c-4.463 0.805-5.583 5.069-5.629 5.268-0.224 0.91-1.139 1.469-2.066 1.26-0.926-0.214-1.5-1.129-1.286-2.042 0.063-0.269 1.641-6.626 8.369-7.833 0.104-0.018 0.205-0.028 0.312-0.028 0.813 0 1.538 0.576 1.69 1.401 0.168 0.918-0.452 1.808-1.39 1.974" fill="#fff"/>
     </g>
    </g>
    <g transform="translate(698.96,324.29)">
     <path d="m0 0c-2.771-2.773-6.455-4.3-10.375-4.3-3.921 0-7.611 1.531-10.379 4.3-2.771 2.766-4.296 6.454-4.296 10.372 0 2.482 0.612 4.873 1.768 6.989 0.667 1.232 1.515 2.368 2.528 3.384 0.149 0.149 0.298 0.291 0.45 0.433 2.716 2.495 6.219 3.863 9.929 3.863 3.92 0 7.604-1.527 10.375-4.296 0.557-0.557 1.062-1.152 1.512-1.77 4.153-5.73 3.655-13.815-1.512-18.975m21.666-12.378-8.362 8.36c-1.285 1.281-3.358 1.281-4.646 0v-6e-3l-2.271 2.274c6.066 8.299 5.348 20.037-2.145 27.531-4.008 4.014-9.345 6.223-15.016 6.223-5.674 0-11.006-2.209-15.02-6.223-4.012-4.014-6.218-9.344-6.218-15.017-6e-3 -5.674 2.206-11.007 6.218-15.018 4.011-4.01 9.346-6.226 15.02-6.226 4.561 0 8.906 1.433 12.516 4.082l2.268-2.271h-4e-3c-1.281-1.28-1.274-3.36 4e-3 -4.644l8.359-8.361c1.371-1.368 3.584-1.368 4.956 0l4.338 4.34c1.371 1.372 1.371 3.587 3e-3 4.956" fill="#fff"/>
    </g>
    <g clip-path="url(#a-51)" opacity=".61821">
     <g transform="translate(679.38,337.65)">
      <path d="m0 0c0-0.961 0.779-1.741 1.741-1.741 0.961 0 1.74 0.78 1.74 1.741s-0.779 1.741-1.74 1.741c-0.962 0-1.741-0.78-1.741-1.741" fill="#fff"/>
     </g>
    </g>
   </g>
  </g>
 </g>
 <circle cx="-330.36" cy="-328.39" r="0" fill="#5e4aa6" stroke-width=".26459"/>
</svg>
