<svg width="64" height="64" version="1.1" viewBox="0 0 16.933 16.933" xmlns="http://www.w3.org/2000/svg" xmlns:xlink="http://www.w3.org/1999/xlink">
 <defs>
  <clipPath id="e">
   <path d="m0 1337h1028v-1337h-1028z"/>
  </clipPath>
  <clipPath id="d">
   <path d="m643.08 355.8h39.287v-33.32h-39.287z"/>
  </clipPath>
  <clipPath id="c">
   <path d="m678.88 333.92h10.444v-9.946h-10.444z"/>
  </clipPath>
  <clipPath id="a">
   <path d="m679.38 339.39h3.482v-3.481h-3.482z"/>
  </clipPath>
  <linearGradient id="g" x1="16.721" x2="16.721" y1="279.38" y2="297.64" gradientTransform="matrix(.98129 0 0 1 -7.7351 -280.08)" gradientUnits="userSpaceOnUse" xlink:href="#b"/>
  <linearGradient id="b">
   <stop stop-color="#ffb932" offset="0"/>
   <stop stop-color="#e68c32" offset="1"/>
  </linearGradient>
  <linearGradient id="h" x1="19.27" x2="19.27" y1="281.99" y2="297.35" gradientTransform="translate(-10.848 -280.08)" gradientUnits="userSpaceOnUse">
   <stop stop-color="#ffbe3c" offset="0"/>
   <stop stop-color="#e68c28" offset="1"/>
  </linearGradient>
  <linearGradient id="j" x1="-6.1738" x2="-6.1738" y1="-126.08" y2="-126.7" gradientTransform="matrix(.54036 0 0 .54036 11.594 73.26)" gradientUnits="userSpaceOnUse" xlink:href="#b"/>
 </defs>
 <circle cx="8.4937" cy="8.73" r="7.9377" opacity=".2" stroke-width=".14032"/>
 <circle cx="-330.36" cy="-328.39" r="0" fill="#5e4aa6" stroke-width=".26459"/>
 <ellipse cx="8.5037" cy="8.47" rx="7.799" ry="7.9478" fill="url(#g)" stroke-width="1.1902" style="paint-order:stroke markers fill"/>
 <circle cx="8.4936" cy="8.1" r="6.8131" fill="#fafafa" stroke-width=".85835" style="paint-order:normal"/>
 <path d="m8.4931 3.3c-0.32459 7.9e-4 -0.42373 0.31783-0.58798 0.60998l-0.34223 0.6082-6.1697 5.3e-4a7.9378 8.2268 0 0 0-0.83719 3.6564 7.9378 8.2268 0 0 0 7.9378 8.2268 7.9378 8.2268 0 0 0 7.9378-8.2268 7.9378 8.2268 0 0 0-1.5555-4.8751h-6.3816z" fill="url(#h)" stroke-width="1.1312" style="paint-order:stroke markers fill"/>
 <path d="m1.3013 4.83c-0.046137 0.091-0.091601 0.18275-0.13426 0.27537h14.652c-0.04075-0.0926-0.08955-0.18439-0.13374-0.27537z" fill="url(#j)" stroke-width=".14297"/>
 <path d="m10.61 10.858c-0.35209 0.35234-0.82018 0.54636-1.3183 0.54636-0.4982 0-0.96707-0.19454-1.3188-0.54636-0.35209-0.35147-0.54586-0.82006-0.54586-1.3179 0-0.31537 0.077762-0.61916 0.22465-0.88803 0.08475-0.15653 0.1925-0.30088 0.32121-0.42998 0.018932-0.018911 0.037864-0.036981 0.057178-0.054946 0.3451-0.31701 0.7902-0.49084 1.2616-0.49084 0.49808 0 0.96617 0.19402 1.3183 0.54587 0.07077 0.07081 0.13494 0.14637 0.19211 0.22488 0.52768 0.72808 0.46441 1.7553-0.19211 2.411m2.7529 1.5727-1.0625-1.0623c-0.16327-0.16277-0.42667-0.16277-0.59033 0v7.67e-4l-0.28856-0.28894c0.77075-1.0545 0.67953-2.5459-0.27255-3.4982-0.50926-0.51002-1.1874-0.7907-1.908-0.7907-0.72095 0-1.3985 0.28068-1.9085 0.7907-0.50977 0.51003-0.79007 1.1873-0.79007 1.9081-7.624e-4 0.72095 0.2803 1.3986 0.79007 1.9082 0.50965 0.50953 1.1875 0.7911 1.9085 0.7911 0.57953 0 1.1316-0.18209 1.5903-0.51867l0.28818 0.28856h-5.08e-4c-0.16277 0.16263-0.16188 0.42693 5.08e-4 0.59008l1.0622 1.0624c0.1742 0.17383 0.45539 0.17383 0.62972 0l0.5512-0.55145c0.1742-0.17434 0.1742-0.45577 3.8e-4 -0.6297" fill="#ff6414" opacity=".5" stroke-width="1.0506"/>
 <g transform="matrix(.12706 0 0 -.12706 -78.201 51.852)">
  <g clip-path="url(#e)">
   <g clip-path="url(#d)" opacity=".66548">
    <g transform="translate(648.55,338.99)">
     <path d="m0 0c2.161 2.507 7.198 7.761 13.427 10.347-3.602-2.205-5.999-6.121-5.999-10.584 0-3.7 1.649-7.024 4.266-9.308-5.425 2.754-9.74 7.272-11.694 9.545m22.483-12.244c-1.727 2.549-2.658 5.559-2.658 8.719 0 4.126 1.448 8.152 4.465 10.925 2.923 2.689 7.358 4.29 9.527 4.468-3.971 2.736-8.815 4.944-14.112 4.944-13.649 0-24.284-14.641-24.729-15.261-0.595-0.834-0.595-1.961 0-2.793 0.445-0.62 11.08-15.265 24.729-15.265 2.038 0 4.009 0.328 5.882 0.885-0.448 0.366-0.883 0.752-1.297 1.174-0.677 0.683-1.277 1.421-1.807 2.204" fill="#fff"/>
    </g>
   </g>
   <g clip-path="url(#c)" opacity=".61821">
    <g transform="translate(687.91,327.34)">
     <path d="m0 0c-4.463 0.805-5.583 5.069-5.629 5.268-0.224 0.91-1.139 1.469-2.066 1.26-0.926-0.214-1.5-1.129-1.286-2.042 0.063-0.269 1.641-6.626 8.369-7.833 0.104-0.018 0.205-0.028 0.312-0.028 0.813 0 1.538 0.576 1.69 1.401 0.168 0.918-0.452 1.808-1.39 1.974" fill="#fff"/>
    </g>
   </g>
   <g transform="translate(698.96,324.29)">
    <path d="m0 0c-2.771-2.773-6.455-4.3-10.375-4.3-3.921 0-7.611 1.531-10.379 4.3-2.771 2.766-4.296 6.454-4.296 10.372 0 2.482 0.612 4.873 1.768 6.989 0.667 1.232 1.515 2.368 2.528 3.384 0.149 0.149 0.298 0.291 0.45 0.433 2.716 2.495 6.219 3.863 9.929 3.863 3.92 0 7.604-1.527 10.375-4.296 0.557-0.557 1.062-1.152 1.512-1.77 4.153-5.73 3.655-13.815-1.512-18.975m21.666-12.378-8.362 8.36c-1.285 1.281-3.358 1.281-4.646 0v-6e-3l-2.271 2.274c6.066 8.299 5.348 20.037-2.145 27.531-4.008 4.014-9.345 6.223-15.016 6.223-5.674 0-11.006-2.209-15.02-6.223-4.012-4.014-6.218-9.344-6.218-15.017-6e-3 -5.674 2.206-11.007 6.218-15.018 4.011-4.01 9.346-6.226 15.02-6.226 4.561 0 8.906 1.433 12.516 4.082l2.268-2.271h-4e-3c-1.281-1.28-1.274-3.36 4e-3 -4.644l8.359-8.361c1.371-1.368 3.584-1.368 4.956 0l4.338 4.34c1.371 1.372 1.371 3.587 3e-3 4.956" fill="#fff"/>
   </g>
   <g clip-path="url(#a)" opacity=".61821">
    <g transform="translate(679.38,337.65)">
     <path d="m0 0c0-0.961 0.779-1.741 1.741-1.741 0.961 0 1.74 0.78 1.74 1.741s-0.779 1.741-1.74 1.741c-0.962 0-1.741-0.78-1.741-1.741" fill="#fff"/>
    </g>
   </g>
  </g>
 </g>
</svg>
