<svg width="64" height="64" version="1.1" viewBox="0 0 16.933 16.933" xmlns="http://www.w3.org/2000/svg" xmlns:xlink="http://www.w3.org/1999/xlink">
 <defs>
  <linearGradient id="b">
   <stop stop-color="#ffb932" offset="0"/>
   <stop stop-color="#e68c32" offset="1"/>
  </linearGradient>
  <linearGradient id="d" x1="16.721" x2="16.721" y1="279.38" y2="297.64" gradientTransform="matrix(.98127 0 0 1 -7.7349 -280.07)" gradientUnits="userSpaceOnUse" xlink:href="#b"/>
  <linearGradient id="c" x1="19.27" x2="19.27" y1="281.99" y2="297.35" gradientTransform="translate(-10.848 -280.07)" gradientUnits="userSpaceOnUse">
   <stop stop-color="#ffbe3c" offset="0"/>
   <stop stop-color="#e68c28" offset="1"/>
  </linearGradient>
  <linearGradient id="a" x1="-6.1738" x2="-6.1738" y1="-126.08" y2="-126.7" gradientTransform="matrix(.54035 0 0 .54035 11.594 73.26)" gradientUnits="userSpaceOnUse" xlink:href="#b"/>
 </defs>
 <circle cx="8.4935" cy="8.73" r="7.9375" opacity=".2" stroke-width=".14032"/>
 <circle cx="-330.35" cy="-328.38" r="0" fill="#5e4aa6" stroke-width=".26458"/>
 <ellipse cx="8.5035" cy="8.47" rx="7.7988" ry="7.9476" fill="url(#d)" stroke-width="1.1902" style="paint-order:stroke markers fill"/>
 <circle cx="8.4935" cy="8.105" r="6.813" fill="#fafafa" stroke-width=".85833" style="paint-order:normal"/>
 <path d="m8.4929 3.3c-0.32458 8e-4 -0.42372 0.31783-0.58797 0.60998l-0.34222 0.60818-6.1696 5.3e-4a7.9376 8.2266 0 0 0-0.83717 3.6563 7.9376 8.2266 0 0 0 7.9376 8.2266 7.9376 8.2266 0 0 0 7.9376-8.2266 7.9376 8.2266 0 0 0-1.5555-4.875h-6.3815z" fill="url(#c)" stroke-width="1.1312" style="paint-order:stroke markers fill"/>
 <path d="m1.3013 4.83c-0.046136 0.091-0.091599 0.18276-0.13426 0.27537h14.652c-0.04075-0.0926-0.08955-0.18439-0.13374-0.27537z" fill="url(#a)" stroke-width=".14297"/>
 <path d="m7.3398 7.95c-0.47095 0-0.8524 0.38146-0.8524 0.85239 0 0.47097 0.38145 0.8524 0.8524 0.8524s0.8524-0.38143 0.8524-0.8524c0-0.47093-0.38145-0.85239-0.8524-0.85239z" fill="#fff" opacity=".5" stroke-width=".4262"/>
 <g transform="translate(0,-280.07)" fill="#fff" stroke-width=".28893">
  <path d="m5.3152 289.73a3.1796 3.1796 0 0 0 3.1394 3.1702h0.095885a3.1796 3.1796 0 0 0 0.8888-0.14507z" opacity=".5"/>
  <path d="m8.4814 288.57-2.7399 2.7399a3.1796 3.1796 0 0 0 2.7131 1.5943h0.095885a3.1796 3.1796 0 0 0 2.5958-1.4268z"/>
  <path d="m11.578 288.96-3.0961 3.9407h0.069057a3.1796 3.1796 0 0 0 3.1091-2.89v-0.56538a3.1796 3.1796 0 0 0-0.08197-0.48538z" opacity=".75"/>
 </g>
 <circle cx="8.4935" cy="9.85" r="3.1796" fill="none" opacity=".5" stroke="#a0641e" stroke-width=".25477"/>
 <circle cx="8.4935" cy="9.65" r="3.1796" fill="none" stroke="#fff" stroke-width=".25477"/>
</svg>
