<?xml version="1.0" encoding="UTF-8"?>
<svg width="64" height="64" version="1.1" viewBox="0 0 16.933 16.933" xmlns="http://www.w3.org/2000/svg" xmlns:cc="http://creativecommons.org/ns#" xmlns:dc="http://purl.org/dc/elements/1.1/" xmlns:rdf="http://www.w3.org/1999/02/22-rdf-syntax-ns#" xmlns:xlink="http://www.w3.org/1999/xlink">
 <metadata>
  <rdf:RDF>
   <cc:Work rdf:about="">
    <dc:format>image/svg+xml</dc:format>
    <dc:type rdf:resource="http://purl.org/dc/dcmitype/StillImage"/>
    <dc:title/>
   </cc:Work>
  </rdf:RDF>
 </metadata>
 <defs>
  <linearGradient id="b">
   <stop stop-color="#ffb932" offset="0"/>
   <stop stop-color="#e68c32" offset="1"/>
  </linearGradient>
  <linearGradient id="linearGradient677847" x1="16.721" x2="16.721" y1="279.38" y2="297.64" gradientTransform="matrix(.98127 0 0 .99997 -7.7471 -280.07)" gradientUnits="userSpaceOnUse" xlink:href="#b"/>
  <linearGradient id="linearGradient13480" x1="10.798" x2="10.798" y1="282.88" y2="283.29" gradientTransform="matrix(1.0543 0 0 .55499 4.1087 128.14)" gradientUnits="userSpaceOnUse" xlink:href="#linearGradient991"/>
  <linearGradient id="linearGradient991">
   <stop stop-color="#969696" offset="0"/>
   <stop stop-color="#e6e6e6" stop-opacity=".90196" offset="1"/>
  </linearGradient>
  <linearGradient id="linearGradient13482" x1="8.8166" x2="8.8166" y1="293.7" y2="294.12" gradientTransform="matrix(.94579 0 0 .555 7.7176 133.01)" gradientUnits="userSpaceOnUse" xlink:href="#linearGradient991"/>
  <linearGradient id="linearGradient13484" x1="7.998" x2="7.998" y1="284.98" y2="285.41" gradientTransform="matrix(.94579 0 0 .555 7.9256 129.13)" gradientUnits="userSpaceOnUse" xlink:href="#linearGradient991"/>
  <linearGradient id="linearGradient13486" x1="8.7643" x2="8.7643" y1="287.18" y2="287.64" gradientTransform="matrix(.94579 0 0 .555 7.919 130.1)" gradientUnits="userSpaceOnUse" xlink:href="#linearGradient991"/>
  <linearGradient id="linearGradient13488-6" x1="8.3178" x2="8.3178" y1="289.36" y2="289.81" gradientTransform="matrix(.94579 0 0 .555 7.901 131.07)" gradientUnits="userSpaceOnUse" xlink:href="#linearGradient991"/>
  <linearGradient id="linearGradient13490" x1="8.2553" x2="8.2553" y1="291.55" y2="291.96" gradientTransform="matrix(.94579 0 0 .55502 8.0111 132.03)" gradientUnits="userSpaceOnUse" xlink:href="#linearGradient991"/>
  <linearGradient id="linearGradient677861" x1="19.27" x2="19.27" y1="281.99" y2="297.35" gradientTransform="matrix(.99997 0 0 .99997 -10.847 -280.07)" gradientUnits="userSpaceOnUse">
   <stop stop-color="#ffbe3c" offset="0"/>
   <stop stop-color="#e68c28" offset="1"/>
  </linearGradient>
  <linearGradient id="linearGradient677863" x1="-6.1738" x2="-6.1738" y1="-126.08" y2="-126.7" gradientTransform="matrix(.54035 0 0 .54035 11.592 73.26)" gradientUnits="userSpaceOnUse" xlink:href="#b"/>
 </defs>
 <circle cx="8.4924" cy="8.7323" r="7.9375" opacity=".2" stroke-width=".14032"/>
 <ellipse cx="8.4924" cy="8.4723" rx="7.7988" ry="7.9476" fill="url(#linearGradient677847)" stroke-width="1.1902" style="paint-order:stroke markers fill"/>
 <g transform="matrix(.85831 0 0 .85831 -5.1772 -241.39)">
  <circle cx="15.926" cy="290.69" r="7.9375" fill="#fafafa" style="paint-order:normal"/>
  <path d="m10.551 285.17c-0.04221 0.0443-0.07897 0.0835-0.13658 0.14895l11.024 9.8e-4c-0.05944-0.0607-0.08604-0.0922-0.14076-0.15z" fill="url(#linearGradient13480)" opacity=".6" style="paint-order:normal"/>
  <path d="m10.431 296.06c0.04857 0.052 0.08052 0.0907 0.1349 0.15h10.72c0.05003-0.0561 0.07465-0.0855 0.13441-0.15z" fill="url(#linearGradient13482)" opacity=".6" style="paint-order:normal"/>
  <path d="m9.1386 287.33c-0.022302 0.0517-0.037132 0.0892-0.065978 0.15h13.708c-0.02381-0.0504-0.04631-0.10145-0.06843-0.15z" fill="url(#linearGradient13484)" opacity=".6" style="paint-order:normal"/>
  <path d="m8.5204 289.52c-0.00964 0.0489-0.015643 0.0999-0.024922 0.15h14.862c-0.0088-0.0501-0.01516-0.10114-0.0259-0.15z" fill="url(#linearGradient13486)" opacity=".6" style="paint-order:normal"/>
  <path d="m8.4942 291.7c0.00899 0.0501 0.01744 0.10011 0.027371 0.15h14.811c0.0093-0.0539 0.01711-0.0968 0.02541-0.15z" fill="url(#linearGradient13488-6)" opacity=".6" style="paint-order:normal"/>
  <path d="m9.0766 293.88c0.021867 0.0535 0.040442 0.0932 0.064512 0.15h13.57c0.02313-0.0512 0.03674-0.0804 0.06941-0.15z" fill="url(#linearGradient13490)" opacity=".6" style="paint-order:normal"/>
 </g>
 <path d="m8.4924 3.3024c-0.32458 8e-4 -0.42373 0.31783-0.58797 0.60998l-0.34222 0.60817-6.1696 5.299e-4a7.9376 8.2266 0 0 0-0.83717 3.6563 7.9376 8.2266 0 0 0 7.9376 8.2266 7.9376 8.2266 0 0 0 7.9376-8.2266 7.9376 8.2266 0 0 0-1.5556-4.875h-6.3815z" fill="url(#linearGradient677861)" stroke-width="1.1312" style="paint-order:stroke markers fill"/>
 <path d="m1.3026 4.8324c-0.046099 0.090997-0.091597 0.18276-0.13426 0.27537h14.652c-0.0408-0.092597-0.0896-0.18438-0.13374-0.27537z" fill="url(#linearGradient677863)" stroke-width=".14297"/>
 <circle cx="-330.36" cy="-328.39" r="0" fill="#5e4aa6" stroke-width=".26459"/>
 <path d="m6.7733 7.725v4.9747h0.85984v-0.41456h1.7198v0.41456h0.85992v-4.9747h-0.28663v0.20729h-0.28662v-0.20729h-0.28663v1.0364h-1.7198v-1.0364h-0.28662v0.20729h-0.28663v-0.20729zm0.28662 0.41456h0.28663v0.20729h-0.28663zm2.5796 0h0.28662v0.20729h-0.28662zm-2.5796 0.41456h0.28663v0.20729h-0.28663zm2.5796 0h0.28662v0.20729h-0.28662zm-2.5796 0.41456h0.28663v0.20728h-0.28663zm0.57325 0h1.7198v1.451h-1.7198zm2.0064 0h0.28662v0.20728h-0.28662zm-2.5796 0.41455h0.28663v0.20729h-0.28663zm2.5796 0h0.28662v0.20729h-0.28662zm-2.5796 0.41456h0.28663v0.20728h-0.28663zm2.5796 0h0.28662v0.20728h-0.28662zm-2.5796 0.41456h0.28663v0.20728h-0.28663zm2.5796 0h0.28662v0.20728h-0.28662zm-2.5796 0.41455h0.28663v0.20728h-0.28663zm0.57325 0h1.7198v1.451h-1.7198zm2.0064 0h0.28662v0.20728h-0.28662zm-2.5796 0.41457h0.28663v0.20727h-0.28663zm2.5796 0h0.28662v0.20727h-0.28662zm-2.5796 0.41456h0.28663v0.20727h-0.28663zm2.5796 0h0.28662v0.20727h-0.28662zm-2.5796 0.41456h0.28663v0.20728h-0.28663zm2.5796 0h0.28662v0.20728h-0.28662zm-2.5796 0.41456h0.28663v0.20727h-0.28663zm2.5796 0h0.28662v0.20727h-0.28662z" fill="#fff" stroke-width=".24375"/>
 <circle cx="-304.63" cy="-337.42" r="0" fill="#5e4aa6" stroke-width=".26459"/>
</svg>
