<svg width="64" height="64" version="1.1" viewBox="0 0 16.933 16.933" xmlns="http://www.w3.org/2000/svg" xmlns:xlink="http://www.w3.org/1999/xlink">
 <defs>
  <linearGradient id="g" x1="16.721" x2="16.721" y1="279.38" y2="297.64" gradientTransform="matrix(.98129 0 0 1 -7.7351 -280.08)" gradientUnits="userSpaceOnUse" xlink:href="#b"/>
  <linearGradient id="b">
   <stop stop-color="#ffb932" offset="0"/>
   <stop stop-color="#e68c32" offset="1"/>
  </linearGradient>
  <linearGradient id="h" x1="19.27" x2="19.27" y1="281.99" y2="297.35" gradientTransform="translate(-10.848 -280.08)" gradientUnits="userSpaceOnUse">
   <stop stop-color="#ffbe3c" offset="0"/>
   <stop stop-color="#e68c28" offset="1"/>
  </linearGradient>
  <linearGradient id="j" x1="-6.1738" x2="-6.1738" y1="-126.08" y2="-126.7" gradientTransform="matrix(.54036 0 0 .54036 11.594 73.26)" gradientUnits="userSpaceOnUse" xlink:href="#b"/>
 </defs>
 <circle cx="8.4937" cy="8.73" r="7.9377" opacity=".2" stroke-width=".14032"/>
 <circle cx="-330.36" cy="-328.39" r="0" fill="#5e4aa6" stroke-width=".26459"/>
 <ellipse cx="8.5037" cy="8.47" rx="7.799" ry="7.9478" fill="url(#g)" stroke-width="1.1902" style="paint-order:stroke markers fill"/>
 <circle cx="8.4936" cy="8.1" r="6.8131" fill="#fafafa" stroke-width=".85835" style="paint-order:normal"/>
 <path d="m8.4931 3.3c-0.32459 7.9e-4 -0.42373 0.31783-0.58798 0.60998l-0.34223 0.6082-6.1697 5.3e-4a7.9378 8.2268 0 0 0-0.83719 3.6564 7.9378 8.2268 0 0 0 7.9378 8.2268 7.9378 8.2268 0 0 0 7.9378-8.2268 7.9378 8.2268 0 0 0-1.5555-4.8751h-6.3816z" fill="url(#h)" stroke-width="1.1312" style="paint-order:stroke markers fill"/>
 <path d="m1.3013 4.83c-0.046137 0.091-0.091601 0.18275-0.13426 0.27537h14.652c-0.04075-0.0926-0.08955-0.18439-0.13374-0.27537z" fill="url(#j)" stroke-width=".14297"/>
 <path d="m8.467 7.16c-0.071969 0-0.13741 0.0459-0.1605 0.1176l-0.67144 2.0762-2.1557-0.012c-0.060435-5e-3 -0.1172 0.0166-0.15461 0.0693-0.054708 0.0774-0.04092 0.18386 0.036813 0.23849l1.7669 1.2781-0.6788 2.0556c-0.017218 0.0519-0.01098 0.11145 0.023554 0.16051 0.054708 0.0777 0.16371 0.0928 0.23854 0.0381l1.7552-1.281 6e-3 -3e-3 1.739 1.2781c0.04317 0.0374 0.10585 0.051 0.16345 0.0309 0.08916-0.0288 0.13923-0.1257 0.11043-0.21483l-0.67733-2.0732 1.7507-1.2575c0.04894-0.0288 0.08245-0.084 0.08245-0.14714 0-0.0948-0.07432-0.16934-0.16933-0.16934l-2.1822 3e-3 -0.65524-2.0526c-0.01455-0.0576-0.0558-0.1065-0.11338-0.12645-0.017385-5e-3 -0.0312-9e-3 -0.048585-9e-3z" opacity=".15" stroke-width=".28784"/>
 <path d="m8.467 6.9c-0.071969 0-0.13741 0.0459-0.1605 0.1176l-0.67144 2.0762-2.1557-0.012c-0.060435-5e-3 -0.1172 0.0166-0.15461 0.0693-0.054708 0.0774-0.04092 0.18386 0.036813 0.23849l1.7669 1.2781-0.6788 2.0556c-0.017218 0.0519-0.01098 0.11145 0.023554 0.16051 0.054708 0.0777 0.16371 0.0928 0.23854 0.0381l1.7552-1.281 6e-3 -3e-3 1.739 1.2781c0.04317 0.0374 0.10585 0.051 0.16345 0.0309 0.08916-0.0288 0.13923-0.1257 0.11043-0.21483l-0.67733-2.0732 1.7507-1.2575c0.04894-0.0288 0.08245-0.084 0.08245-0.14714 0-0.0948-0.07432-0.16934-0.16933-0.16934l-2.1822 3e-3 -0.65524-2.0526c-0.01455-0.0576-0.0558-0.1065-0.11338-0.12645-0.017385-5e-3 -0.0312-9e-3 -0.048585-9e-3z" fill="#fafafa" stroke-width=".28784"/>
</svg>
