<?xml version="1.0" encoding="UTF-8"?>
<svg width="64" height="64" version="1.1" viewBox="0 0 16.933 16.933" xmlns="http://www.w3.org/2000/svg" xmlns:cc="http://creativecommons.org/ns#" xmlns:dc="http://purl.org/dc/elements/1.1/" xmlns:rdf="http://www.w3.org/1999/02/22-rdf-syntax-ns#" xmlns:xlink="http://www.w3.org/1999/xlink">
 <metadata>
  <rdf:RDF>
   <cc:Work rdf:about="">
    <dc:format>image/svg+xml</dc:format>
    <dc:type rdf:resource="http://purl.org/dc/dcmitype/StillImage"/>
    <dc:title/>
   </cc:Work>
  </rdf:RDF>
 </metadata>
 <defs>
  <linearGradient id="b">
   <stop stop-color="#ffb932" offset="0"/>
   <stop stop-color="#e68c32" offset="1"/>
  </linearGradient>
  <linearGradient id="linearGradient675380" x1="16.721" x2="16.721" y1="279.38" y2="297.64" gradientTransform="matrix(.98127 0 0 .99997 -7.7432 -280.07)" gradientUnits="userSpaceOnUse" xlink:href="#b"/>
  <linearGradient id="linearGradient15515" x1="10.798" x2="10.798" y1="282.88" y2="283.29" gradientTransform="matrix(1.0543 0 0 .55499 4.1087 128.14)" gradientUnits="userSpaceOnUse" xlink:href="#linearGradient991"/>
  <linearGradient id="linearGradient991">
   <stop stop-color="#969696" offset="0"/>
   <stop stop-color="#e6e6e6" stop-opacity=".90196" offset="1"/>
  </linearGradient>
  <linearGradient id="linearGradient15517" x1="8.8166" x2="8.8166" y1="293.7" y2="294.12" gradientTransform="matrix(.94579 0 0 .555 7.7176 133.01)" gradientUnits="userSpaceOnUse" xlink:href="#linearGradient991"/>
  <linearGradient id="linearGradient15519" x1="7.998" x2="7.998" y1="284.98" y2="285.41" gradientTransform="matrix(.94579 0 0 .555 7.9256 129.13)" gradientUnits="userSpaceOnUse" xlink:href="#linearGradient991"/>
  <linearGradient id="linearGradient15521" x1="8.7643" x2="8.7643" y1="287.18" y2="287.64" gradientTransform="matrix(.94579 0 0 .555 7.919 130.1)" gradientUnits="userSpaceOnUse" xlink:href="#linearGradient991"/>
  <linearGradient id="linearGradient15523" x1="8.3178" x2="8.3178" y1="289.36" y2="289.81" gradientTransform="matrix(.94579 0 0 .555 7.901 131.07)" gradientUnits="userSpaceOnUse" xlink:href="#linearGradient991"/>
  <linearGradient id="linearGradient15525" x1="8.2553" x2="8.2553" y1="291.55" y2="291.96" gradientTransform="matrix(.94579 0 0 .55502 8.0111 132.03)" gradientUnits="userSpaceOnUse" xlink:href="#linearGradient991"/>
  <linearGradient id="linearGradient675394" x1="19.27" x2="19.27" y1="281.99" y2="297.35" gradientTransform="matrix(.99997 0 0 .99997 -10.843 -280.07)" gradientUnits="userSpaceOnUse">
   <stop stop-color="#ffbe3c" offset="0"/>
   <stop stop-color="#e68c28" offset="1"/>
  </linearGradient>
  <linearGradient id="linearGradient675396" x1="-6.1738" x2="-6.1738" y1="-126.08" y2="-126.7" gradientTransform="matrix(.54035 0 0 .54035 11.596 73.261)" gradientUnits="userSpaceOnUse" xlink:href="#b"/>
 </defs>
 <circle cx="8.4964" cy="8.7331" r="7.9375" opacity=".2" stroke-width=".14032"/>
 <ellipse cx="8.4964" cy="8.4731" rx="7.7988" ry="7.9476" fill="url(#linearGradient675380)" stroke-width="1.1902" style="paint-order:stroke markers fill"/>
 <g transform="matrix(.85831 0 0 .85831 -5.1732 -241.4)">
  <circle cx="15.926" cy="290.69" r="7.9375" fill="#fafafa" style="paint-order:normal"/>
  <path d="m10.551 285.17c-0.04221 0.0443-0.07897 0.0835-0.13658 0.14895l11.024 9.8e-4c-0.05944-0.0607-0.08604-0.0922-0.14076-0.15z" fill="url(#linearGradient15515)" opacity=".6" style="paint-order:normal"/>
  <path d="m10.431 296.06c0.04857 0.052 0.08052 0.0907 0.1349 0.15h10.72c0.05003-0.0561 0.07465-0.0855 0.13441-0.15z" fill="url(#linearGradient15517)" opacity=".6" style="paint-order:normal"/>
  <path d="m9.1386 287.33c-0.022302 0.0517-0.037132 0.0892-0.065978 0.15h13.708c-0.02381-0.0504-0.04631-0.10145-0.06843-0.15z" fill="url(#linearGradient15519)" opacity=".6" style="paint-order:normal"/>
  <path d="m8.5204 289.52c-0.00964 0.0489-0.015643 0.0999-0.024922 0.15h14.862c-0.0088-0.0501-0.01516-0.10114-0.0259-0.15z" fill="url(#linearGradient15521)" opacity=".6" style="paint-order:normal"/>
  <path d="m8.4942 291.7c0.00899 0.0501 0.01744 0.10011 0.027371 0.15h14.811c0.0093-0.0539 0.01711-0.0968 0.02541-0.15z" fill="url(#linearGradient15523)" opacity=".6" style="paint-order:normal"/>
  <path d="m9.0766 293.88c0.021867 0.0535 0.040442 0.0932 0.064512 0.15h13.57c0.02313-0.0512 0.03674-0.0804 0.06941-0.15z" fill="url(#linearGradient15525)" opacity=".6" style="paint-order:normal"/>
 </g>
 <path d="m8.4964 3.2933c-0.32458 8e-4 -0.42373 0.31783-0.58797 0.60998l-0.34222 0.60817-6.1696 5.299e-4a7.9376 8.2266 0 0 0-0.83717 3.6563 7.9376 8.2266 0 0 0 7.9376 8.2266 7.9376 8.2266 0 0 0 7.9376-8.2266 7.9376 8.2266 0 0 0-1.5556-4.875h-6.3815z" fill="url(#linearGradient675394)" stroke-width="1.1312" style="paint-order:stroke markers fill"/>
 <path d="m1.3066 4.8332c-0.046099 0.090997-0.091597 0.18276-0.13426 0.27537h14.652c-0.0408-0.092597-0.0896-0.18438-0.13374-0.27537z" fill="url(#linearGradient675396)" stroke-width=".14297"/>
 <g transform="matrix(.79163 0 0 .79163 -104.78 -172.76)" stroke-width=".3175">
  <path d="m143.09 227.93c-0.10985 0-0.22035 9e-3 -0.32735 0.02a3.1115 3.1115 0 0 0-0.61532 0.11906 3.1893 3.1893 0 0 0-2.0933 2.0933 3.1115 3.1115 0 0 0-0.11906 0.61532 3.1846 3.1846 0 0 0-0.02 0.32735c0 0.10985 9e-3 0.22035 0.02 0.32735a3.1115 3.1115 0 0 0 0.11906 0.61532 3.1893 3.1893 0 0 0 2.0933 2.0933 3.1115 3.1115 0 0 0 0.61532 0.11938c0.107 0.0108 0.21749 0.0197 0.32735 0.0197s0.22035-9e-3 0.32735-0.02a3.1115 3.1115 0 0 0 0.61532-0.11874 3.2433 3.2433 0 0 0 0.57531-0.24829 3.1693 3.1693 0 0 0 1.5184-1.8454 3.1115 3.1115 0 0 0 0.11874-0.61532c0.0112-0.107 0.02-0.21749 0.02-0.32735 0-0.10953-9e-3 -0.22067-0.02-0.32735a3.1115 3.1115 0 0 0-0.11874-0.61532 3.1973 3.1973 0 0 0-0.58548-1.0814c-0.0648-0.0784-0.13652-0.14636-0.20859-0.21845-0.28671-0.2867-0.62199-0.52419-1.002-0.68454a3.29 3.29 0 0 0-0.2975-0.1089 3.1115 3.1115 0 0 0-0.61532-0.11906 3.2747 3.2747 0 0 0-0.32735-0.02zm0 0.31749c0.48038 0 0.93219 0.1178 1.3297 0.32735 0.0105 6e-3 0.0191 0.0143 0.0295 0.02 8e-3 0.0105 6e-3 0.0219 0.02 0.0295 0.0102 6e-3 0.02 0.0149 0.0295 0.02 0.0168 0.01 0.0333 0.0235 0.0298 0.0397-4e-3 0.0238-0.0432 0.0222-0.0594 0.0397 2e-3 0.0333-0.0114 0.027-0.02 0.0495 5e-3 0.0146 0.0178 0.0127 0.02 0.0299-3e-3 0.0184-0.027 0.0206-0.02 0.0397 0.0311 0.0241 0.06 4e-3 0.0895 0 0.0644-8e-3 0.11875 1e-3 0.15876-0.0298-4e-3 -0.0248 0.019-0.0317 0.0295-0.0495 0.0213 0.0149 0.0391 0.0343 0.0597 0.0495-0.0121 5e-3 -0.0387 0.013-0.0498 0.02-0.0159 0.0108-0.021 0.0276-0.0394 0.0397-0.0133 9e-3 -0.0457 0.0397-0.0597 0.0397-0.0168 0-0.0476-0.014-0.0597-0.0102-0.0171 5e-3 -0.0102 0.033-0.0295 0.0397-0.0381 0.014-0.10573-0.0371-0.11906 0.02 0.0159 0.033 0.0702 0.0219 0.0991 0.0397 0.0181 0.0114 0.0451 0.0699 0.0499 0.0892a0.23273 0.23273 0 0 1 0 0.0895c-0.0181 0.046-0.066 0.0406-0.11938 0.0397-0.0143 0-0.0264 1e-3 -0.0394 0-0.0895-6e-3 -0.17781-0.0343-0.21845 0.0295 3e-3 0.0492 0.0111 0.0762 0 0.11906-8e-3 0.0311-0.0413 0.0524-0.0397 0.0794 6.4e-4 0.014 0.0264 0.0406 0.0298 0.0597 2e-3 0.0102-5e-3 0.0305 0 0.0397 0.0149 0.0283 0.0527-5e-3 0.0794 0 0.0254 4e-3 0.0495 0.0413 0.0495 0.0692a0.1813 0.1813 0 0 1-0.02 0.0794c-0.0254 0.0381-0.0727 0.0289-0.10891 0.0498-0.0302 0.0171-0.0416 0.0591-0.0597 0.0892-0.0191 0.0324-0.0371 0.0432-0.0295 0.0892a0.21432 0.21432 0 0 1-0.10922 0.10922 0.31369 0.31369 0 0 0-0.0498 0.0299 0.25147 0.25147 0 0 0-0.0394 0.0397c-0.0203 0.0222-0.0486 0.0321-0.0597 0.0495-8e-3 0.0133-1e-3 0.0416-0.01 0.0597-0.0127 0.0241-0.0337 0.0451-0.0498 0.0692-7e-3 0.0117-0.0216 0.0248-0.0295 0.0397-0.0184 0.0337-0.0432 0.06-0.0397 0.0895 3e-3 0.0283 0.0381 0.0346 0.0397 0.0594 2e-3 0.014-0.0105 0.0248-0.0102 0.0397 9.5e-4 0.0222 8e-3 0.0324 0.0102 0.0495 4e-3 0.0429-0.0219 0.06-0.0299 0.0895-4e-3 0.0137 3e-3 0.0286 0 0.0394-7e-3 0.0216-0.0391 0.0343-0.0397 0.0597-6.4e-4 0.0178 0.0279 0.0343 0.0298 0.0597 1e-3 0.0172-0.0133 0.0333-0.0102 0.0495 6e-3 0.0311 0.0651 0.0749 0.0895 0.0991 0.0327 0.033 0.0648 0.0546 0.0794 0.0895 0.0121 0.0292 0.0171 0.0772 0.0397 0.0991 0.0165 0.0159 0.0479 0.0229 0.0692 0.0397 0.0203 0.0159 0.0483 0.0229 0.0699 0.0397 0.0349 0.0276 0.0825 0.0835 0.13875 0.0794 0.0292-2e-3 0.0562-0.014 0.0892-0.02 0.034-6e-3 0.0746-0.0232 0.10922-0.0197 0.0264 3e-3 0.0514 0.0216 0.0794 0.02 0.0286-2e-3 0.0664-0.0156 0.0991-0.0298 0.0572-0.0248 0.1451-0.0718 0.22829-0.0597 0.0635 0.01 0.0648 0.081 0.10922 0.10922 0.0508 4e-3 0.0886-0.01 0.1289 0 0.0305 8e-3 0.0667 0.0651 0.0695 0.0892 3e-3 0.0248-0.0165 0.0441-0.02 0.0597-8e-3 0.0333-0.014 0.0778-0.0197 0.0991-5e-3 0.0168-0.0104 0.033-0.0102 0.0498 0 0.0149 0.0241 0.0495 0.04 0.0692 0.0191 0.0244 0.0464 0.0429 0.0692 0.0695 0.0422 0.0486 0.06 0.11431 0.0895 0.17876 7e-3 0.0159-7e-3 0.019 0 0.0394-0.0127 0.0971-0.0457 0.16065-0.10921 0.26797-0.0302 0.0349-0.0603 0.0759-0.0597 0.11906-2e-3 0.10382 0.0543 0.15749 0.0499 0.25813-0.0105 0.13494 3.1e-4 0.15589-0.0102 0.22796 0.0457 0.0232 0.0232 0.0911 0.0102 0.13907-0.0197 0.0571-0.0388 0.0711-0.0499 0.10922a0.127 0.127 0 0 0 0.0695 0.01 2.8553 2.8553 0 0 1-2.0638 0.87314 2.8521 2.8521 0 0 1-1.0715-0.20829c-9.5e-4 -6.3e-4 9.6e-4 -0.01 0-0.0102 0.0302-0.0127 0.0873 0.0222 0.10923-0.0197 0.0108-0.0203-0.0146-0.0591 0-0.0794 0.0102-0.014 0.0778-0.0264 0.0991-0.0298 0.0308-5e-3 0.0622 1e-3 0.0794-0.01a0.090489 0.090489 0 0 0 0.0397-0.0794c-2e-3 -0.0168-0.0165-0.0248-0.0295-0.0397-0.0111-0.0127-3e-3 -0.0283-0.0102-0.0397-0.0136-0.0203-0.034-0.0302-0.0397-0.0597 0.0416-8e-3 0.0988 0.0467 0.15876 0.0298 0.0286-8e-3 0.0762-0.0625 0.0895-0.0892 4e-3 -8e-3 -5e-3 -0.0397 0-0.0495 5e-3 -0.0112 0.0178-0.0143 0.0197-0.02 4e-3 -0.0155-3e-3 -0.02 0-0.0295 0.0105-0.0295 0.0422-0.0483 0.0597-0.0699 0.013-0.0159 0.0273-0.0327 0.0397-0.0495 0.0136-0.0178 0.0203-0.0238 0.0295-0.0394 9e-3 -0.0527-0.0324-0.093-0.0197-0.13906 0.0136-0.0521 0.0889-0.0857 0.13874-0.10923 0.0175-8e-3 0.0352-0.0244 0.0499-0.0295 0.0346-0.0124 0.0765-8e-3 0.1089-0.02 0.0543-0.0197 0.073-0.0794 0.0994-0.1289 0.0127-0.0232 0.0273-0.0429 0.0295-0.0597 3e-3 -0.0149-3e-3 -0.0321 0-0.0495 3e-3 -0.0171 5e-3 -0.0305 0.0102-0.0495a0.50483 0.50483 0 0 0 0.01-0.0994c0-0.0229-0.01-0.0286-0.01-0.0495-4e-3 -0.0749 0.0219-0.0781 0.0495-0.11906 0.014-0.0203 0.02-0.0549 0.0299-0.0695 0.0467-0.0692 0.12478-0.10319 0.11906-0.20828-2e-3 -0.0349-0.0143-0.10795-0.0397-0.11907-0.0146-6e-3 -0.0483-2e-3 -0.0695-0.01-0.0683-0.0254-0.11747-0.1035-0.18859-0.10921-0.0149-6.3e-4 -0.0229 6.4e-4 -0.0397 0-0.0276-6.3e-4 -0.0581-0.0264-0.0892-0.0298-0.0197-2e-3 -0.0578 6e-3 -0.0695 0-0.0178-8e-3 -0.0152-0.0397-0.0295-0.0495-0.0118-8e-3 -0.0317-0.0133-0.0498-0.02a0.23654 0.23654 0 0 0-0.0794-0.0197c-0.0102-6.4e-4 -0.0381 2e-3 -0.0495 0-0.0178-3e-3 -0.033-0.0194-0.0495-0.0298-0.021-0.0127-0.0311-0.0216-0.0397-0.0397 0.019-0.0622-0.047-0.0727-0.0597-0.10891-6e-3 -0.0168 6e-3 -0.0445 0-0.0597-7e-3 -0.0213-0.0257-0.0317-0.0495-0.0495-0.0413-0.0324-0.0794-0.0619-0.13907-0.0695-0.0264-3e-3 -0.0572 2e-3 -0.0889 0a0.15462 0.15462 0 0 1-0.0994-0.0496c-0.0244-0.0286-0.0286-0.0562-0.0498-0.0695-0.02-0.0127-0.0556-0.0165-0.0692-0.0299-6e-3 -6e-3 -4e-3 -0.0165-0.0102-0.0295-0.0102-0.021-0.0324-0.0245-0.0197-0.0498-0.0232-0.0114-0.0149 0.0146-0.0397 0.0102-0.0222-0.0317-0.0384-0.0495-0.0892-0.04-0.0232 5e-3 -0.0426 0.0394-0.0695 0.04-0.0222 6.4e-4 -0.04-0.0359-0.0695-0.04-0.0222-3e-3 -0.054 0.0235-0.0692 0.02-0.0251-4e-3 -0.0273-0.0346-0.0498-0.0495-0.0165-0.0111-0.0502-0.0403-0.0594-0.0397-0.0289 6.4e-4 -0.0495 0.061-0.0895 0.0397-0.0194-0.0248 0.0333-0.0267 0.0102-0.0498-0.0175-0.0171-0.026 9.5e-4 -0.0397 0.0102-0.0162 0.0108-0.0318 0.0235-0.0499 0.0295-0.0397 0.0152-0.0679 0.0137-0.0991 0.0299-0.0286 0.0152-0.033 0.04-0.0495 0.0695-0.0133 0.0241-0.0394 0.0584-0.0597 0.0597-0.0241 2e-3 -0.0476-0.0305-0.0692-0.04-0.0667-0.0286-0.10414 0.0194-0.15875 0.02-0.0508 6.3e-4 -0.12161-0.081-0.11907-0.1289 2e-3 -0.0295 0.0162-0.073 0.0197-0.10923 3e-3 -0.0286 0.0292-0.0527 0.0298-0.0794 6.4e-4 -0.0349-0.0565-0.0654-0.0794-0.0695-0.0543-0.01-0.12701 0.0245-0.1886 0-0.0114-0.0197 0.0229-0.0305 0.0298-0.0495 4e-3 -0.0111-4e-3 -0.0178 0-0.0298 7e-3 -0.0184 0.0308-0.0299 0.0397-0.0495 6e-3 -0.0149 3e-3 -0.0413 0.01-0.0597 8e-3 -0.0206 0.0279-0.0343 0.0299-0.0495 2e-3 -0.0197-0.0143-0.0467-0.0299-0.0594a0.30925 0.30925 0 0 0-0.10922 0.0197c-0.0622 0.0286-0.046 0.10953-0.1089 0.12922-0.0216 7e-3 -0.0553 0.0159-0.0794 0.0197a2.829 2.829 0 0 1 0.18832-0.59537c0.0222 4e-3 0.0406 0.0181 0.0597 0.02 0.053 4e-3 0.0552-0.0365 0.0991-0.0597 0.0451 6e-3 0.0683-4e-3 0.10922 0 0.0276 3e-3 0.0673 0.0381 0.0892 0.0397 0.0184 6.3e-4 0.0222-0.0229 0.0397-0.02 0.0175 3e-3 0.0467 0.0391 0.0498 0.0597 3e-3 0.026-0.0175 0.0508-0.0102 0.0794 0.0273 0.0276 0.0803 0.0435 0.11906 0.0597 0.0254-0.0209 4e-3 -0.0692 0-0.0994-6.3e-4 -0.0133 2e-3 -0.0276 0-0.0397-3e-3 -0.0206-0.01-0.0416-0.01-0.0597 0-0.0825 0.0635-0.11621 0.11907-0.1486 0.0238-0.014 0.0486-0.0394 0.0695-0.0498 0.0292-0.0143 0.0451-0.0159 0.0692-0.0295 0.0441-0.0248 0.0851-0.0511 0.11906-0.0794 0.0159-0.0375-2e-3 -0.0822 0-0.11906 0.0159-0.01 0.0232 2e-3 0.0397 0 0.0267-6e-3 0.0349-0.0445 0.0498-0.0597 9e-3 -9e-3 0.0391-0.0111 0.0495-0.0197 0.0267-0.0209 0.0267-0.0505 0.0495-0.0597 8e-3 -3e-3 0.027-6e-3 0.0397-0.01 0.0175-5e-3 0.0419-0.02 0.0695-0.0299 0.0178-6e-3 0.0626-3e-3 0.0695-0.01 9e-3 -9e-3 -2e-3 -0.0463 0-0.0597 0.0136-0.0651 0.11018-0.0673 0.1686-0.0889 0.0403-0.0159 0.0838-0.0486 0.1289-0.04-9e-3 0.0311-0.047 0.0222-0.0397 0.0597 0.01 0.0524 0.0708-0.0127 0.0895-0.02 0.0349-0.0149 0.10255-0.0229 0.14859-0.0397 0.0406-0.0143 0.10764-0.0426 0.0695-0.0892-0.0318-2e-3 -0.0416 0.0283-0.0695 0.0397-0.019 3e-3 -0.0235-9e-3 -0.0397-0.01-0.0156-6.4e-4 -0.0241 0.0127-0.0397 0.01-0.0156-3e-3 -0.0372-0.0311-0.0397-0.0495-6e-3 -0.0486 0.0498-0.0635 0.0695-0.0994-0.0133-0.0438-0.0721-3e-3 -0.10923-0.0197 4e-3 -0.026 0.019-0.0543 0.0498-0.0597a0.19622 0.19622 0 0 1 0.0991 0.02c9e-3 7e-3 -3e-3 0.0273 0.01 0.0397 0.0152 0.0133 0.04 3e-3 0.0597 0 7e-3 -0.033-0.0454-0.0184-0.0397-0.0397 0.0391-0.0254 0.11081-0.0137 0.15875-0.02 0.0276-4e-3 0.0546-0.0264 0.0794-0.0397 0.0229-0.0133 0.0451-0.0318 0.0692-0.01 7e-3 0.0238-0.0165 0.0375-0.0295 0.0495-0.0445 0.0394-0.0845 0.0835-0.11907 0.12922 0.0213 0.0206 0.0533 6e-3 0.0892 0.01 0.014 2e-3 0.0349 8e-3 0.0495 0.0102 0.0175 3e-3 0.0359-3e-3 0.0498 0 0.0241 6e-3 0.0254 0.0397 0.0495 0.0397 0.0391 0 0.0422-0.033 0.0197-0.0597 7e-3 -0.027 0.02-0.0502 0.0102-0.0692-0.0181-0.0359-0.0857 6e-3 -0.0895-0.0397-2e-3 -0.0289 0.0295-0.0378 0.0397-0.0597-4e-3 -0.0553 0.0454-0.0587 0.0397-0.10891-3e-3 -0.0209-0.0254-0.0203-0.0397-0.0397-7e-3 -0.0105-0.0111-0.0324-0.0197-0.0397-0.0302-0.0254-0.0857-0.0213-0.0895-0.0699-2e-3 -0.0286 4e-3 -0.0479 0-0.0794-4e-3 -0.0292-0.034-0.11303-0.0594-0.11874-0.0324-7e-3 -0.0508 0.0514-0.0892 0.0692a0.15652 0.15652 0 0 1-0.0794 0.0102c-0.014-3e-3 -0.0381-0.0133-0.0397-0.0397-2e-3 -0.0152 3e-3 -0.0206 0.01-0.0298 2e-3 -2e-3 -2e-3 -8e-3 0-0.01a2.8798 2.8798 0 0 1 0.79376-0.10923zm-1.1808 0.25813c-0.0279 0.0902-0.10953 0.14161-0.21812 0.13875-0.0267 0.0254-0.0156 0.074-0.0299 0.10922a0.087631 0.087631 0 0 1-0.0794 0.0495c-0.0213-2e-3 -0.0597-0.0295-0.0597-0.0495 0-0.0165 0.0159-0.0352 0.02-0.0498a2.8334 2.8334 0 0 1 0.36703-0.19843zm2.4311 0.0991a0.086996 0.086996 0 0 0-0.0298 0.01c-0.0222 0.0133-0.0232 0.0333-0.0397 0.0397-0.0238 9e-3 -0.0562 9e-3 -0.0597 0.0299-3e-3 0.0178 0.0206 0.0235 0.02 0.0397-9e-3 0.0213-0.0254 0.0235-0.0298 0.0495 0.0295 0.0479 0.10256 6.4e-4 0.13907-0.01 0.0159-5e-3 0.0308 3e-3 0.0394-0.01 0.01-0.0159 2e-3 -0.0476 0.0102-0.0695 8e-3 -0.0241 0.0327-0.0184 0.0295-0.0397-2e-3 -0.0213-0.0435-0.0432-0.0794-0.0397zm-3.1455 0.36703c0.0213 0.0254 0.0391 0.0629 0 0.0794-6e-3 3e-3 -0.0752 0.0127-0.0892 0.0102-4e-3 -6.3e-4 -6e-3 -7e-3 -0.01-0.0102 0.0302-0.0295 0.0676-0.0511 0.0991-0.0794zm0.0794 0.0994c0.014 6.4e-4 0.0235 0.0286 0.0397 0.0295 0.0159 2e-3 0.0403-0.0127 0.0499-0.01 0.0241 6e-3 0.033 0.0514 0.01 0.0692-0.019 2e-3 -0.0254-0.0229-0.0394-0.02-0.0394 7e-3 -0.0502 0.0819-0.0794 0.0794-0.0279-3e-3 -0.0483-0.0591-0.02-0.0794 6.3e-4 -0.0171-0.0111-0.0222-0.01-0.0397 9e-3 -0.0108 0.0263-0.0314 0.0495-0.0295zm-0.1289 0.0197c8e-3 0 7e-3 -3e-3 0.01 0-4e-3 0.0308-0.0159 0.0352-0.0397 0.0498a0.16256 0.16256 0 0 0-0.0794 0.1089c-4e-3 0.0159-0.0498 0.0635-0.0692 0.0597-0.0457-0.01 0.019-0.0959 0.0295-0.10922 0.0118-0.0146 0.0264-0.0235 0.0397-0.0397 0.0133-0.0159 0.0172-0.0502 0.0299-0.0597 0.014-0.01 0.0552-0.0108 0.0794-0.01zm3.9094 0.0794c0.0454-3e-3 0.0683 0.0518 0.0889 0.0794 0.0175 0.0225 0.0711 0.054 0.0994 0.0695 0.0162 9e-3 0.0318 0.0216 0.0499 0.0299 0.0187 8e-3 0.047 0.019 0.0692 0.0397 0.0222 0.0203 0.0391 0.0508 0.0397 0.0692 6.4e-4 0.0187-0.0127 0.0324-0.01 0.0498 0.02 3e-3 0.0305-0.0171 0.0397-0.0397 0.0749 0.10669 0.13844 0.22067 0.19844 0.33719a0.037465 0.037465 0 0 0-0.02 0.0299c-6e-3 0.0324 0.019 0.0737-0.0295 0.0794-0.0308 4e-3 -0.067-0.0305-0.10923-0.0397-0.0171-4e-3 -0.0457 4e-3 -0.0597 0-0.0317-0.0111-0.0222-0.0505-0.0495-0.0695a0.22226 0.22226 0 0 0-0.0794-0.0295c-0.0156-2e-3 -0.0235 2e-3 -0.0397 0-0.0197-3e-3 -0.0533 0-0.0692-0.0102-0.0159-0.01-0.0556-0.0264-0.0597-0.0397-6e-3 -0.0213 0.0486-0.0514 0.0495-0.0692 1e-3 -0.014-0.0168-0.019-0.0197-0.04-2e-3 -0.0127 3e-3 -0.0314 0-0.0394-4e-3 -0.0152-0.026-0.0292-0.0498-0.0298-0.0206 0-0.0413 0.01-0.0594 0.01-0.0254 6.3e-4 -0.0775-0.0127-0.10922-0.01-0.019 2e-3 -0.0317 9e-3 -0.0495 0.01-0.0502 4e-3 -0.0797-3e-3 -0.11907 0-0.0286 2e-3 -0.0825 0.0178-0.10922 0.0298-0.0133 6e-3 -0.0222 0.021-0.0397 0.0295-8e-3 4e-3 -0.019 5e-3 -0.0295 0.0102-0.0162 7e-3 -0.0441 0.0254-0.0597 0.0295-0.0222 6e-3 -0.0483-2e-3 -0.0892 0-0.0295 2e-3 -0.0787-4e-3 -0.0794-0.0394-6.3e-4 -0.054 0.0981-0.0305 0.1486-0.04 0.019-4e-3 0.0267-0.0264 0.0498-0.0394 0.0108-6e-3 0.019-0.013 0.0295-0.02 0.0175-0.0121 0.047-0.0359 0.0498-0.0495 2e-3 -0.0127-0.0117-0.0305-0.0102-0.0397 2e-3 -0.0121 0.0241-0.0241 0.04-0.0397 0.0241-0.0245 0.0394-0.054 0.0692-0.0695 0.0203-0.0111 0.0603-0.0136 0.0695-0.0298 2e-3 -0.0184-6.4e-4 -0.0229 0-0.0397 0.0127-0.0114 9e-3 -0.0175 0.02-0.0197 0.0311-7e-3 0.0626 0.0117 0.0991 0.01 0.0159-6.3e-4 0.033 1e-3 0.0495-0.01 0.014-0.01 0.026-0.0229 0.0397-0.0298 0.0152-8e-3 0.0311-0.0286 0.0498-0.0299zm-3.6418 0.0299c8e-3 -1e-3 0.0206 9.5e-4 0.0302 0 0.013-6.4e-4 0.0254 0 0.0397 0s0.0337-6e-3 0.0397 0c-0.01 0.0381-0.0991 0.0238-0.12922 0.01 9.5e-4 -7e-3 0.0124-9e-3 0.02-0.01zm-0.1089 0.0695c0.01 0 0.0194-4e-3 0.0299 0-0.0267 0.0222-0.0632 0.0349-0.10923 0.0495-0.0222 7e-3 -0.0556 0.0143-0.0597-0.01-4e-3 -0.0302 0.0203-0.027 0.0397-0.0298 0.0254-3e-3 0.0699-0.01 0.0994-0.01zm3.7605 0c-0.019 6e-3 -0.0286 0.0445 0 0.0495 0.0133-8e-3 0.0133-0.0254 0.01-0.0495-8e-3 -8e-3 -4e-3 -2e-3 -0.01 0zm-0.0102 0.0794c-9e-3 3e-3 -0.0197-6.4e-4 -0.0295 0.01 6.4e-4 0.0324 6e-3 0.0508 0 0.0794 0.0184 0.0359 0.0603 0.0143 0.0692-0.01 0.0112-0.0603-0.0118-0.087-0.0394-0.0794zm0.24829 0.15875a0.085409 0.085409 0 0 0-0.0597 0.0197c0.0216 0.0349 0.0613 0.0413 0.10922 0.0498 0.0172-0.0127 0.0118-0.0476 0.02-0.0699-0.0209 0-0.0343 2e-3 -0.0597 0h-0.01zm-5.0404 1.2201c0.0203 0.026 0.0422 0.0562 0.0692 0.0699 0.0146 7e-3 0.0314 6e-3 0.0498 0.01 0.0149 3e-3 0.0254 0.0156 0.0397 0.02 0.0305 0.0105 0.0749 9e-3 0.0991 0.02 0.0371 0.0159 0.0575 0.0806 0.0895 0.0991 2e-3 0.0184-6e-3 0.0359 0 0.0495 0.0149 0.0203 0.0451 0.0263 0.0692 0.0397 0.0295 0.0162 0.0419 0.0568 0.0695 0.0695 0.01 4e-3 0.0248-4e-3 0.0397 0 0.0381 0.0114 0.0464 0.0692 0.0794 0.0597 0.0213-6e-3 0.0263-0.0391 0.0298-0.0597 0.0143-0.0159 0.027-0.0397 0.0495-0.0397 0.0359-6.3e-4 0.0464 0.0445 0.0597 0.0794 7e-3 0.0197 0.0245 0.0387 0.0295 0.0597a0.52071 0.52071 0 0 1 0 0.15875c-9e-3 0.0264-0.0476 0.0403-0.0692 0.0692-0.0105 0.014-0.0219 0.0305-0.0298 0.0397-0.014 0.0175-0.0292 0.0241-0.0397 0.0397-6e-3 9e-3 -5e-3 0.0276-0.0102 0.0397-0.0171 0.0372-0.0441 0.0648-0.0295 0.10922 6e-3 0.0178 0.0295 0.0381 0.0295 0.0597 0 0.0254-0.0552 0.0317-0.0594 0.0594-3e-3 0.0203 0.0235 0.0622 0.0299 0.0892 4e-3 0.0203 0.0375 0.0365 0.0495 0.0499 0.0203 0.0222 0.0413 0.0505 0.0597 0.0794 0.0362 0.0559 0.0533 0.12382 0.0889 0.17844 0.019 0.0286 0.0572 0.0492 0.0699 0.0794 6e-3 0.0149-6e-3 0.0457 0 0.0597 0.0206 0.0467 0.1216 0.0959 0.16827 0.11874 0.0222 0.0112 0.0397 0.0184 0.0597 0.0298 0.0308 0.0175 0.0937 0.0524 0.10923 0.0794 0.014 0.0244 0.0229 0.0803 0.0298 0.11906 9e-3 0.0508-2e-3 0.094 0 0.14891 2e-3 0.0298 0.01 0.0492 0.01 0.0794 0 0.0104 6.4e-4 0.0292 0 0.0397-6.3e-4 0.0359 3e-3 0.073 0 0.10922a0.41339 0.41339 0 0 0 0 0.0594c2e-3 0.0181 0.0187 0.0241 0.02 0.0397 1e-3 0.0168-0.0219 0.0365-0.02 0.0499 4e-3 0.0362 0.0426 0.0657 0.0495 0.0991 6e-3 0.0267 0.0133 0.0873 0.0102 0.11906-3e-3 0.0168-8e-3 0.0413-0.0102 0.0597-2e-3 0.0143 2e-3 0.0264 0 0.0394-0.7909-0.50801-1.3195-1.3906-1.3195-2.401 0-0.12954 0.013-0.25209 0.0298-0.37719zm1.0912 0.28798c0.0279-0.0127 0.0225 0.0362 0 0.0397-0.0213 3e-3 -0.0206-0.0299 0-0.0397z" color="#000000" fill="#fff"/>
 </g>
 <circle cx="-330.36" cy="-328.39" r="0" fill="#5e4aa6" stroke-width=".26459"/>
</svg>
