<svg width="64" height="64" version="1.1" viewBox="0 0 16.933 16.933" xmlns="http://www.w3.org/2000/svg" xmlns:xlink="http://www.w3.org/1999/xlink">
 <defs>
  <linearGradient id="g" x1="16.721" x2="16.721" y1="279.38" y2="297.64" gradientTransform="matrix(.98129 0 0 1 -7.7351 -280.08)" gradientUnits="userSpaceOnUse" xlink:href="#b"/>
  <linearGradient id="b">
   <stop stop-color="#ffb932" offset="0"/>
   <stop stop-color="#e68c32" offset="1"/>
  </linearGradient>
  <linearGradient id="h" x1="19.27" x2="19.27" y1="281.99" y2="297.35" gradientTransform="translate(-10.848 -280.08)" gradientUnits="userSpaceOnUse">
   <stop stop-color="#ffbe3c" offset="0"/>
   <stop stop-color="#e68c28" offset="1"/>
  </linearGradient>
  <linearGradient id="j" x1="-6.1738" x2="-6.1738" y1="-126.08" y2="-126.7" gradientTransform="matrix(.54036 0 0 .54036 11.594 73.26)" gradientUnits="userSpaceOnUse" xlink:href="#b"/>
 </defs>
 <circle cx="8.4937" cy="8.73" r="7.9377" opacity=".2" stroke-width=".14032"/>
 <circle cx="-330.36" cy="-328.39" r="0" fill="#5e4aa6" stroke-width=".26459"/>
 <ellipse cx="8.5037" cy="8.47" rx="7.799" ry="7.9478" fill="url(#g)" stroke-width="1.1902" style="paint-order:stroke markers fill"/>
 <circle cx="8.4936" cy="8.1" r="6.8131" fill="#fafafa" stroke-width=".85835" style="paint-order:normal"/>
 <path d="m8.4931 3.3c-0.32459 7.9e-4 -0.42373 0.31783-0.58798 0.60998l-0.34223 0.6082-6.1697 5.3e-4a7.9378 8.2268 0 0 0-0.83719 3.6564 7.9378 8.2268 0 0 0 7.9378 8.2268 7.9378 8.2268 0 0 0 7.9378-8.2268 7.9378 8.2268 0 0 0-1.5555-4.8751h-6.3816z" fill="url(#h)" stroke-width="1.1312" style="paint-order:stroke markers fill"/>
 <path d="m1.3013 4.83c-0.046137 0.091-0.091601 0.18275-0.13426 0.27537h14.652c-0.04075-0.0926-0.08955-0.18439-0.13374-0.27537z" fill="url(#j)" stroke-width=".14297"/>
 <path d="m8.4665 6.879c-0.10985 0-0.22034 0.00889-0.32734 0.020002a3.1114 3.1114 0 0 0-0.6153 0.11906 3.1892 3.1892 0 0 0-2.0932 2.0932 3.1114 3.1114 0 0 0-0.11906 0.6153 3.1845 3.1845 0 0 0-0.020003 0.32734c0 0.10985 0.00889 0.22034 0.020003 0.32734a3.1114 3.1114 0 0 0 0.11906 0.6153 3.1892 3.1892 0 0 0 2.0932 2.0932 3.1114 3.1114 0 0 0 0.6153 0.11938c0.107 0.0108 0.21748 0.01968 0.32734 0.01968s0.22034-0.0089 0.32734-0.02a3.1114 3.1114 0 0 0 0.6153-0.11874 3.2432 3.2432 0 0 0 0.5753-0.24828 3.1692 3.1692 0 0 0 1.5183-1.8453 3.1114 3.1114 0 0 0 0.11874-0.6153c0.01116-0.107 0.02-0.21748 0.02-0.32734 0-0.10953-0.0089-0.22066-0.02-0.32734a3.1114 3.1114 0 0 0-0.11874-0.6153 3.1972 3.1972 0 0 0-0.58546-1.0814c-0.064769-0.078421-0.13652-0.14636-0.20859-0.21844-0.2867-0.2867-0.62197-0.52418-1.002-0.68452a3.2899 3.2899 0 0 0-0.29749-0.1089 3.1114 3.1114 0 0 0-0.6153-0.11906 3.2746 3.2746 0 0 0-0.32734-0.020002zm0 0.31749c0.48037 0 0.93216 0.11779 1.3297 0.32734 0.01048 0.00571 0.01905 0.014287 0.02953 0.020002 0.0083 0.010476 0.0057 0.021907 0.02 0.029527 0.01016 0.00604 0.02 0.014922 0.02953 0.020002 0.01683 0.00953 0.03334 0.023495 0.02984 0.039686-0.0044 0.023812-0.04318 0.022225-0.05937 0.039686 0.0022 0.033337-0.01142 0.026987-0.02 0.049529 0.0054 0.014605 0.01778 0.0127 0.02 0.029844-0.0032 0.018414-0.02699 0.020638-0.02 0.039686 0.03111 0.02413 0.06001 0.00413 0.08953 0 0.06445-0.00826 0.11874 0.00127 0.15875-0.029844-0.0044-0.024764 0.01905-0.03175 0.02953-0.049529 0.02127 0.014922 0.03905 0.034289 0.05969 0.049529-0.01206 0.0054-0.03873 0.013018-0.04985 0.020002-0.01588 0.0108-0.02096 0.027622-0.03937 0.039686-0.01333 0.0092-0.04572 0.039686-0.05969 0.039686-0.01683 0-0.04763-0.013969-0.05969-0.010164-0.01714 0.0054-0.01016 0.033019-0.02953 0.039686-0.0381 0.013969-0.10573-0.037147-0.11906 0.020002 0.01588 0.033019 0.07017 0.021907 0.09906 0.039686 0.0181 0.011436 0.04508 0.069848 0.04985 0.089215a0.23272 0.23272 0 0 1 0 0.089533c-0.0181 0.046037-0.06604 0.040639-0.11938 0.039686-0.01429 0-0.02635 0.00127-0.03937 0-0.08953-0.00604-0.1778-0.034289-0.21844 0.029527 0.0029 0.049212 0.01111 0.076199 0 0.11906-0.0079 0.031115-0.04127 0.052386-0.03969 0.079374 6.35e-4 0.01397 0.02635 0.040639 0.02984 0.059689 0.0022 0.010164-0.0048 0.03048 0 0.039686 0.01492 0.028256 0.0527-0.00476 0.07937 0 0.0254 0.0038 0.04953 0.041274 0.04953 0.069214a0.18129 0.18129 0 0 1-0.02 0.079373c-0.0254 0.038099-0.07271 0.028892-0.1089 0.049847-0.03016 0.017144-0.04159 0.059053-0.05969 0.089215-0.01905 0.032384-0.03715 0.04318-0.02953 0.089215a0.21431 0.21431 0 0 1-0.10922 0.10922 0.31368 0.31368 0 0 0-0.049847 0.029844 0.25146 0.25146 0 0 0-0.03937 0.039686c-0.02032 0.022224-0.048576 0.032066-0.059689 0.049529-0.00826 0.013334-0.00127 0.041592-0.00984 0.059689-0.0127 0.02413-0.033654 0.045084-0.049847 0.069214-0.00731 0.011748-0.021589 0.024764-0.029527 0.039686-0.018415 0.033654-0.04318 0.060006-0.039686 0.089533 0.00286 0.028256 0.038099 0.034607 0.039686 0.059371 0.00158 0.013969-0.010476 0.024764-0.010164 0.039686 9.526e-4 0.022224 0.00826 0.032384 0.010164 0.049529 0.00382 0.042862-0.021907 0.060006-0.029844 0.089533-0.00413 0.013652 0.00318 0.028574 0 0.03937-0.00698 0.021589-0.039052 0.034289-0.039686 0.059689-6.349e-4 0.017779 0.02794 0.034289 0.029844 0.059689 0.00127 0.01714-0.013334 0.03334-0.010164 0.04953 0.00635 0.03111 0.065086 0.07493 0.089533 0.09906 0.032702 0.03302 0.064769 0.05461 0.079374 0.08953 0.012065 0.02921 0.017144 0.07715 0.039686 0.09906 0.01651 0.01587 0.047941 0.02286 0.069214 0.03969 0.02032 0.01587 0.048259 0.02286 0.069848 0.03969 0.034925 0.02762 0.082548 0.0835 0.13874 0.07937 0.02921-0.0022 0.0562-0.01397 0.08922-0.02 0.03397-0.0057 0.07461-0.02318 0.10922-0.01968 0.02635 0.0029 0.05143 0.02159 0.07937 0.02 0.02857-0.0019 0.06636-0.01556 0.09906-0.02984 0.057151-0.02476 0.1451-0.07175 0.22828-0.05969 0.0635 0.0095 0.06477 0.08096 0.10922 0.10922 0.0508 0.0044 0.08858-0.0095 0.1289 0 0.03048 0.0076 0.06667 0.06509 0.06953 0.08921 0.0029 0.02477-0.01651 0.04414-0.02 0.05969-0.0079 0.03334-0.01397 0.07778-0.01968 0.09906-0.0048 0.01682-0.01044 0.03302-0.0102 0.04985 0 0.01492 0.02413 0.04952 0.04001 0.06922 0.01906 0.02444 0.04636 0.04286 0.06922 0.06953 0.04223 0.04858 0.06001 0.1143 0.08953 0.17875 0.0073 0.01588-7e-3 0.01904 0 0.03937-0.0127 0.09715-0.04572 0.16065-0.10921 0.26796-0.03017 0.03492-0.06032 0.07588-0.05969 0.11906-0.0022 0.10382 0.05429 0.15748 0.04985 0.25812-0.01044 0.13494 3.16e-4 0.15589-0.0102 0.22796 0.04572 0.02317 0.02317 0.09112 0.0102 0.13906-0.01968 0.05714-0.03874 0.07111-0.04985 0.10922a0.127 0.127 0 0 0 0.06953 0.0098 2.8552 2.8552 0 0 1-2.0637 0.87311 2.852 2.852 0 0 1-1.0715-0.20828c-9.526e-4 -6.35e-4 9.524e-4 -0.0095 0-0.0102 0.030162-0.0127 0.087311 0.02222 0.10922-0.01968 0.0108-0.02032-0.014605-0.05905 0-0.07938 0.010164-0.01397 0.077786-0.02635 0.099058-0.02984 0.030797-5e-3 0.062228 0.0013 0.079374-0.0098a0.090486 0.090486 0 0 0 0.039686-0.07938c-0.00158-0.01682-0.01651-0.02477-0.029527-0.03968-0.011112-0.0127-0.00254-0.02826-0.010164-0.03968-0.013652-0.02032-0.033972-0.03017-0.039686-0.05969 0.041592-0.0079 0.098741 0.04667 0.15875 0.02984 0.028574-0.0079 0.076199-0.06254 0.089533-0.08922 0.0038-0.0083-0.00476-0.03968 0-0.04952 0.00508-0.01116 0.017779-0.01429 0.019685-0.02 0.00413-0.01555-0.00318-0.02 0-0.02953 0.010476-0.02953 0.042227-0.04826 0.059689-0.06985 0.013018-0.01588 0.027305-0.0327 0.039686-0.04952 0.013652-0.01778 0.02032-0.02381 0.029527-0.03937 0.00889-0.0527-0.032384-0.09302-0.019685-0.13906 0.013652-0.05207 0.088898-0.08573 0.13874-0.10922 0.017462-0.0079 0.035242-0.02444 0.049847-0.02953 0.034607-0.01238 0.076516-0.0085 0.1089-0.02 0.054292-0.01968 0.073024-0.07938 0.099376-0.1289 0.0127-0.02317 0.027305-0.04286 0.029527-0.05969 0.00254-0.01492-0.00286-0.03206 0-0.04952 0.00318-0.01715 0.0054-0.03048 0.010164-0.04952a0.50482 0.50482 0 0 0 0.00984-0.09937c0-0.02286-0.00953-0.02857-0.00984-0.04952-0.00413-0.07493 0.021907-0.07811 0.049529-0.11906 0.013969-0.02032 0.020002-0.05492 0.029844-0.06953 0.046672-0.06922 0.12478-0.10319 0.11906-0.20828-0.00222-0.03492-0.014287-0.10795-0.039686-0.11906-0.014605-0.0064-0.048259-0.0019-0.069532-0.0098-0.068261-0.0254-0.11747-0.1035-0.18859-0.10921-0.014922-6.35e-4 -0.02286 6.35e-4 -0.039686 0-0.027622-6.35e-4 -0.058102-0.02635-0.089215-0.02984-0.019685-0.0023-0.057784 0.0058-0.069532 0-0.017779-0.0085-0.01524-0.03968-0.029527-0.04952-0.011748-0.0083-0.03175-0.01333-0.049847-0.02a0.23653 0.23653 0 0 0-0.079373-0.01968c-0.010164-6.35e-4 -0.038099 0.0016-0.049529 0-0.017779-0.0029-0.033019-0.01937-0.049529-0.02984-0.020954-0.0127-0.031115-0.02159-0.039686-0.03968 0.01905-0.06223-0.046988-0.07271-0.059689-0.1089-0.00571-0.01682 0.00571-0.04445 0-0.05969-0.00731-0.02127-0.025717-0.03175-0.049529-0.04953-0.041274-0.03238-0.079374-0.06191-0.13906-0.06953-0.026352-0.0029-0.057149 0.0022-0.088898 0a0.15462 0.15462 0 0 1-0.099379-0.04956c-0.024448-0.02857-0.028574-0.0562-0.049847-0.06953-0.020002-0.0127-0.055561-0.01651-0.069214-0.02984-0.00635-0.0057-0.00413-0.01651-0.010164-0.02953-0.010164-0.02095-0.032384-0.02445-0.019685-0.04985-0.023177-0.01142-0.014922 0.0146-0.039686 0.01016-0.022224-0.03175-0.038417-0.04953-0.089215-0.04-0.023177 0.0048-0.042545 0.03937-0.069532 0.04-0.022224 6.35e-4 -0.040004-0.03588-0.069532-0.04-0.022224-0.0025-0.053974 0.0235-0.069214 0.02-0.025082-0.0044-0.027305-0.03461-0.049847-0.04953-0.01651-0.01111-0.050164-0.04032-0.059371-0.03969-0.028892 6.35e-4 -0.049529 0.06096-0.089533 0.03969-0.019367-0.02476 0.033337-0.02667 0.010164-0.04985-0.017462-0.01714-0.026034 9.52e-4 -0.039686 0.01016-0.016192 0.0108-0.03175 0.0235-0.049847 0.02953-0.039686 0.01524-0.067944 0.01365-0.099058 0.02984-0.028574 0.01524-0.033019 0.04-0.049529 0.06953-0.013334 0.02413-0.03937 0.05842-0.059689 0.05969-0.02413 0.0016-0.047624-0.03048-0.069214-0.04-0.066673-0.02857-0.10414 0.01937-0.15875 0.02-0.050798 6.35e-4 -0.1216-0.08096-0.11906-0.1289 0.00158-0.02953 0.016193-0.07302 0.019685-0.10922 0.00286-0.02857 0.029209-0.052704 0.029844-0.079374 6.349e-4 -0.034925-0.056514-0.065404-0.079374-0.069532-0.054292-0.00953-0.127 0.024448-0.18859 0-0.011436-0.019685 0.02286-0.030479 0.029844-0.049529 0.0038-0.011112-0.00413-0.017779 0-0.029844 0.00698-0.018415 0.030797-0.029844 0.039686-0.049529 0.00635-0.014922 0.00349-0.041274 0.00984-0.059689 0.00762-0.020636 0.02794-0.034289 0.029844-0.049529 0.00222-0.019685-0.014287-0.046672-0.029844-0.059371a0.30924 0.30924 0 0 0-0.10922 0.019685c-0.062228 0.028574-0.046037 0.10953-0.1089 0.12922-0.021589 0.00667-0.055244 0.015875-0.079374 0.019685a2.8289 2.8289 0 0 1 0.18831-0.59535c0.022225 0.00413 0.040639 0.018097 0.059689 0.020002 0.053022 0.0038 0.055244-0.036512 0.099058-0.059689 0.045084 0.00635 0.068261-0.00444 0.10922 0 0.027622 0.00286 0.067309 0.038099 0.089215 0.039686 0.018415 6.351e-4 0.022225-0.02286 0.039686-0.020002 0.017462 0.00318 0.046672 0.039052 0.049847 0.059689 0.00286 0.026034-0.017462 0.0508-0.010164 0.079374 0.027305 0.027622 0.080326 0.043496 0.11906 0.059689 0.025399-0.020954 0.00413-0.069214 0-0.099376-6.35e-4 -0.013334 0.00158-0.027622 0-0.039686-0.00286-0.020638-0.00984-0.041592-0.00984-0.059689 0-0.082548 0.063499-0.1162 0.11906-0.14859 0.023812-0.01397 0.048576-0.03937 0.069532-0.049847 0.029209-0.014287 0.045084-0.015875 0.069214-0.029527 0.044131-0.024764 0.085088-0.051116 0.11906-0.079374 0.015875-0.037464-0.00158-0.082231 0-0.11906 0.015875-0.00984 0.023177 0.00158 0.039686 0 0.02667-0.00571 0.034925-0.044449 0.049847-0.059689 0.00857-0.00857 0.039052-0.011112 0.049529-0.019685 0.02667-0.020954 0.02667-0.050482 0.049529-0.059689 0.00826-0.00286 0.026987-0.00635 0.039686-0.00984 0.017462-0.00476 0.041909-0.020002 0.069532-0.029844 0.017779-0.00635 0.062546-0.00318 0.069532-0.00984 0.00857-0.00857-0.00222-0.046354 0-0.059689 0.013652-0.065086 0.11017-0.067309 0.16859-0.088898 0.040321-0.015875 0.083819-0.048576 0.1289-0.040004-0.00857 0.031115-0.04699 0.022225-0.039686 0.059689 0.00984 0.052386 0.070801-0.0127 0.089533-0.020002 0.034925-0.014922 0.10255-0.02286 0.14859-0.039686 0.040639-0.014287 0.10763-0.042544 0.069532-0.089215-0.03175-0.00222-0.041592 0.028256-0.069532 0.039686-0.01905 0.00286-0.023495-0.00889-0.039686-0.00984-0.015557-6.35e-4 -0.02413 0.0127-0.039686 0.00984-0.015557-0.00286-0.037147-0.031115-0.039686-0.049529-0.00635-0.048577 0.049847-0.063499 0.069532-0.099376-0.013334-0.043814-0.072071-0.00254-0.10922-0.019685 0.00413-0.026034 0.01905-0.054292 0.049847-0.059689a0.19621 0.19621 0 0 1 0.099058 0.020002c0.00857 0.0073-0.00318 0.027305 0.00984 0.039686 0.01524 0.013334 0.040004 0.00286 0.059689 0 0.00698-0.033019-0.045402-0.018415-0.039686-0.039686 0.039052-0.025399 0.11081-0.013652 0.15875-0.020002 0.027622-0.0038 0.054608-0.026352 0.079374-0.039686 0.02286-0.013334 0.045084-0.03175 0.069214-0.00984 0.00698 0.023812-0.01651 0.037464-0.029527 0.049529-0.044449 0.03937-0.084454 0.083501-0.11906 0.12922 0.021272 0.020638 0.053339 0.00571 0.089215 0.00953 0.01397 0.00191 0.034925 0.00793 0.049529 0.010164 0.017462 0.00286 0.035876-0.00286 0.049847 0 0.02413 0.00571 0.025399 0.039686 0.049529 0.039686 0.039052 0 0.042227-0.033019 0.019685-0.059689 0.00698-0.026987 0.020002-0.050164 0.010164-0.069214-0.018097-0.035876-0.085723 0.00571-0.089533-0.039686-0.00222-0.028892 0.029527-0.037782 0.039686-0.059689-0.00444-0.055244 0.045402-0.058736 0.039686-0.1089-0.00286-0.020954-0.025399-0.02032-0.039686-0.039686-0.00731-0.010476-0.011112-0.032384-0.019685-0.039686-0.030162-0.025399-0.085723-0.021272-0.089533-0.069848-0.00158-0.028574 0.00413-0.047941 0-0.079373-0.0038-0.029209-0.033972-0.11303-0.059371-0.11874-0.032384-0.00698-0.0508 0.051434-0.089216 0.069214a0.15652 0.15652 0 0 1-0.079374 0.010164c-0.013969-0.00318-0.038099-0.013334-0.039686-0.039686-0.00158-0.01524 0.00318-0.020638 0.00984-0.029844 0.00158-0.00222-0.00158-0.00762 0-0.00984a2.8797 2.8797 0 0 1 0.79373-0.10922zm-1.1808 0.25812c-0.02794 0.090168-0.10953 0.1416-0.21812 0.13874-0.02667 0.025399-0.015557 0.073976-0.029844 0.10922a0.087628 0.087628 0 0 1-0.079374 0.049529c-0.021272-0.00158-0.059689-0.029527-0.059689-0.049529 0-0.01651 0.015875-0.035242 0.020002-0.049847a2.8333 2.8333 0 0 1 0.36702-0.19843zm2.431 0.099058a0.086993 0.086993 0 0 0-0.02984 0.00984c-0.02222 0.013334-0.02318 0.033337-0.03969 0.039686-0.02381 0.00889-0.0562 0.00857-0.05969 0.029844-0.0029 0.017779 0.02064 0.023495 0.02 0.039686-0.0089 0.021272-0.0254 0.023495-0.02984 0.049529 0.02953 0.047941 0.10255 6.35e-4 0.13906-0.00984 0.01587-0.00476 0.0308 0.00254 0.03937-0.00984 0.0098-0.015875 0.0025-0.047624 0.01016-0.069532 0.0079-0.02413 0.0327-0.018415 0.02953-0.039686-0.0019-0.021272-0.0435-0.04318-0.07937-0.039686zm-3.1454 0.36702c0.021272 0.025399 0.039052 0.062863 0 0.079374-0.00571 0.00318-0.075246 0.0127-0.089215 0.010164-0.00444-6.351e-4 -0.00635-0.00731-0.00984-0.010164 0.030162-0.029527 0.067626-0.051116 0.099058-0.079374zm0.079374 0.099375c0.013969 6.35e-4 0.023495 0.028574 0.039686 0.029527 0.015875 0.00158 0.040321-0.0127 0.049847-0.00953 0.02413 0.00635 0.033019 0.051434 0.00953 0.069214-0.01905 0.00222-0.025399-0.02286-0.03937-0.020002-0.03937 0.00698-0.050164 0.081913-0.079374 0.079374-0.02794-0.00286-0.048259-0.059053-0.020002-0.079374 6.349e-4 -0.017144-0.011112-0.022225-0.00984-0.039686 0.00857-0.0108 0.026352-0.031432 0.049529-0.029527zm-0.1289 0.019685c0.00826 0 0.00698-0.00318 0.00984 0-0.00382 0.030797-0.015875 0.035242-0.039686 0.049847a0.16256 0.16256 0 0 0-0.079374 0.1089c-0.00382 0.015875-0.049847 0.063499-0.069214 0.059689-0.045719-0.00984 0.01905-0.095884 0.029527-0.10922 0.011748-0.014605 0.026352-0.023495 0.039686-0.039686 0.013334-0.015875 0.017144-0.050164 0.029844-0.059689 0.013969-0.00953 0.055244-0.0108 0.079373-0.00953zm3.9093 0.079374c0.04541-0.00286 0.06826 0.051751 0.0889 0.079373 0.01746 0.022542 0.07111 0.053974 0.09937 0.069532 0.01619 0.00857 0.03175 0.021589 0.04985 0.029844 0.01873 0.00826 0.04699 0.01905 0.06922 0.039686 0.02222 0.02032 0.03905 0.050798 0.03968 0.069214 6.35e-4 0.018732-0.0127 0.032384-0.0098 0.049847 0.02 0.00318 0.03048-0.017144 0.03968-0.039686 0.07493 0.10668 0.13843 0.22066 0.19843 0.33718a0.037464 0.037464 0 0 0-0.02 0.029844c-0.0058 0.032384 0.01904 0.073658-0.02953 0.079374-0.03079 0.00413-0.067-0.03048-0.10922-0.039686-0.01715-0.00413-0.04572 0.00444-0.05969 0-0.03175-0.011112-0.02222-0.050482-0.04952-0.069532a0.22225 0.22225 0 0 0-0.07938-0.029527c-0.01555-0.00191-0.0235 0.00191-0.03968 0-0.01968-0.00254-0.05334 0-0.06922-0.010164-0.01588-0.00953-0.05556-0.026352-0.05969-0.039686-0.0064-0.021272 0.04858-0.051434 0.04952-0.069214 0.0013-0.013969-0.01682-0.01905-0.01968-0.040004-0.0023-0.0127 0.0029-0.031432 0-0.03937-0.0041-0.01524-0.02604-0.029209-0.04985-0.029844-0.02064 0-0.04127 0.00984-0.05938 0.00984-0.0254 6.349e-4 -0.07747-0.0127-0.10922-0.00984-0.01905 0.00158-0.03175 0.00857-0.04953 0.00984-0.05016 0.00413-0.07969-0.00286-0.11906 0-0.02857 0.00158-0.08255 0.017779-0.10922 0.029844-0.01333 0.00635-0.02222 0.020954-0.039689 0.029527-0.0079 0.00413-0.01905 0.0054-0.02953 0.010164-0.01619 0.00731-0.04413 0.025399-0.05969 0.029527-0.02223 0.00604-0.04826-0.00158-0.08921 0-0.02953 0.00191-0.07874-0.00444-0.07937-0.03937-6.35e-4 -0.053974 0.09811-0.03048 0.14859-0.040004 0.01905-0.0038 0.02667-0.026352 0.04985-0.03937 0.0108-0.00635 0.01905-0.013018 0.02953-0.020002 0.01746-0.012065 0.04699-0.035876 0.04985-0.049529 0.0022-0.0127-0.01175-0.03048-0.01016-0.039686 0.0025-0.012065 0.024129-0.02413 0.04-0.039686 0.02413-0.024448 0.03937-0.053974 0.06921-0.069532 0.02032-0.011112 0.06032-0.013652 0.06953-0.029844 0.0022-0.018415-6.35e-4 -0.02286 0-0.039686 0.0127-0.011424 0.0095-0.017462 0.02-0.019685 0.03111-0.00698 0.06255 0.011748 0.09906 0.00984 0.01587-6.351e-4 0.03302 0.00127 0.04953-0.00984 0.01397-0.00953 0.02604-0.02286 0.03968-0.029844 0.01524-0.00826 0.03112-0.028574 0.04985-0.029844zm-3.6417 0.029844c0.00793-0.00127 0.020638 9.524e-4 0.030162 0 0.013018-6.351e-4 0.025399 0 0.039686 0s0.033654-0.00571 0.039686 0c-0.00953 0.038099-0.099058 0.023812-0.12922 0.00984 9.526e-4 -0.00698 0.012383-0.00857 0.020002-0.00984zm-0.1089 0.069532c0.00953 0 0.019367-0.00413 0.029844 0-0.02667 0.022224-0.063181 0.034925-0.10922 0.049529-0.022224 0.00698-0.055561 0.014287-0.059689-0.00984-0.00444-0.030162 0.02032-0.026987 0.039686-0.029844 0.025399-0.00286 0.069848-0.00953 0.099376-0.00984zm3.7604 0c-0.01904 0.00635-0.02857 0.044449 0 0.049529 0.01333-0.00793 0.01333-0.025399 0.0098-0.049529-0.0077-0.00826-0.0041-0.00222-0.0098 0zm-0.0102 0.079374c-0.0092 0.00286-0.01968-6.349e-4 -0.02953 0.00984 6.35e-4 0.032384 0.0064 0.0508 0 0.079374 0.01842 0.035876 0.06032 0.014287 0.06922-0.00984 0.01116-0.060324-0.01176-0.086993-0.03937-0.079374zm0.24828 0.15875a0.085406 0.085406 0 0 0-0.05969 0.019685c0.02159 0.034925 0.06127 0.041274 0.10922 0.049847 0.01715-0.0127 0.01176-0.047624 0.02-0.069848-0.02095 0-0.03428 0.00158-0.05969 0h-0.0098zm-5.0402 1.2201c0.02032 0.026034 0.042227 0.056196 0.069214 0.069849 0.014605 0.0073 0.031432 0.0057 0.049847 0.0095 0.014922 0.0032 0.025399 0.01556 0.039686 0.02 0.03048 0.01048 0.074928 0.0089 0.099058 0.02 0.037147 0.01587 0.057467 0.08064 0.089533 0.09906 0.00158 0.01842-0.00604 0.03588 0 0.04953 0.014922 0.02032 0.045084 0.02635 0.069214 0.03969 0.029527 0.01619 0.041909 0.05683 0.069532 0.06953 0.00953 0.0041 0.024764-0.0044 0.039686 0 0.038099 0.01142 0.046354 0.06921 0.079374 0.05969 0.021272-0.0063 0.026352-0.03905 0.029844-0.05969 0.014287-0.01587 0.026987-0.03969 0.049529-0.03969 0.035876-6.35e-4 0.046354 0.04445 0.059689 0.07937 0.00731 0.01969 0.024448 0.03873 0.029527 0.05969a0.52069 0.52069 0 0 1 0 0.15875c-0.0092 0.02635-0.047624 0.04032-0.069214 0.06922-0.010476 0.01397-0.021907 0.03048-0.029844 0.03968-0.013969 0.01746-0.029209 0.02413-0.039686 0.03968-0.00571 0.0089-0.00476 0.02762-0.010164 0.03968-0.017144 0.03715-0.044131 0.06476-0.029527 0.10922 0.00571 0.01778 0.029527 0.0381 0.029527 0.05969 0 0.0254-0.055244 0.03175-0.059371 0.05938-0.00286 0.02032 0.023495 0.06223 0.029844 0.08922 0.00444 0.02032 0.037464 0.03652 0.049529 0.04985 0.02032 0.02222 0.041274 0.05048 0.059689 0.07938 0.036194 0.05588 0.053339 0.12382 0.088898 0.17843 0.01905 0.02857 0.057149 0.04921 0.069848 0.07937 0.00635 0.01492-0.00604 0.04572 0 0.05969 0.020638 0.04667 0.1216 0.09588 0.16827 0.11874 0.022224 0.01116 0.039686 0.01842 0.059689 0.02984 0.030797 0.01746 0.093661 0.05238 0.10922 0.07937 0.013969 0.02444 0.02286 0.08033 0.029844 0.11906 0.00857 0.0508-0.00222 0.09397 0 0.1489 0.00158 0.02984 0.00984 0.04921 0.00984 0.07938 0 0.01044 6.35e-4 0.02921 0 0.03968-6.349e-4 0.03588 0.00286 0.07302 0 0.10922a0.41338 0.41338 0 0 0 0 0.05938c0.00158 0.0181 0.018732 0.02413 0.020002 0.03968 0.00127 0.01682-0.021907 0.03652-0.020002 0.04985 0.00413 0.03619 0.042545 0.06572 0.049529 0.09906 0.00571 0.02666 0.013334 0.08731 0.010164 0.11906-0.00254 0.01682-0.00762 0.04127-0.010164 0.05969-0.00158 0.01429 0.00222 0.02635 0 0.03937-0.79088-0.50796-1.3195-1.3906-1.3195-2.4009 0-0.12954 0.013018-0.25209 0.029844-0.37718zm1.0912 0.28797c0.02794-0.0127 0.022542 0.03619 0 0.03969-0.021272 0.0029-0.020638-0.02984 0-0.03969z" color="#000000" opacity=".15" stroke-width=".31749"/>
 <path d="m8.4665 6.6145c-0.10985 0-0.22034 0.00889-0.32734 0.020002a3.1114 3.1114 0 0 0-0.6153 0.11906 3.1892 3.1892 0 0 0-2.0932 2.0932 3.1114 3.1114 0 0 0-0.11906 0.6153 3.1845 3.1845 0 0 0-0.020003 0.32734c0 0.10985 0.00889 0.22034 0.020003 0.32734a3.1114 3.1114 0 0 0 0.11906 0.6153 3.1892 3.1892 0 0 0 2.0932 2.0932 3.1114 3.1114 0 0 0 0.6153 0.11938c0.107 0.0108 0.21748 0.01968 0.32734 0.01968s0.22034-0.0089 0.32734-0.02a3.1114 3.1114 0 0 0 0.6153-0.11874 3.2432 3.2432 0 0 0 0.5753-0.24828 3.1692 3.1692 0 0 0 1.5183-1.8453 3.1114 3.1114 0 0 0 0.11874-0.6153c0.01116-0.107 0.02-0.21748 0.02-0.32734 0-0.10953-0.0089-0.22066-0.02-0.32734a3.1114 3.1114 0 0 0-0.11874-0.6153 3.1972 3.1972 0 0 0-0.58546-1.0814c-0.064769-0.078421-0.13652-0.14636-0.20859-0.21844-0.2867-0.2867-0.62197-0.52418-1.002-0.68452a3.2899 3.2899 0 0 0-0.29749-0.1089 3.1114 3.1114 0 0 0-0.6153-0.11906 3.2746 3.2746 0 0 0-0.32734-0.020002zm0 0.31749c0.48037 0 0.93216 0.11779 1.3297 0.32734 0.01048 0.00571 0.01905 0.014287 0.02953 0.020002 0.0083 0.010476 0.0057 0.021907 0.02 0.029527 0.01016 0.00604 0.02 0.014922 0.02953 0.020002 0.01683 0.00953 0.03334 0.023495 0.02984 0.039686-0.0044 0.023812-0.04318 0.022225-0.05937 0.039686 0.0022 0.033337-0.01142 0.026987-0.02 0.049529 0.0054 0.014605 0.01778 0.0127 0.02 0.029844-0.0032 0.018414-0.02699 0.020638-0.02 0.039686 0.03111 0.02413 0.06001 0.00413 0.08953 0 0.06445-0.00826 0.11874 0.00127 0.15875-0.029844-0.0044-0.024764 0.01905-0.03175 0.02953-0.049529 0.02127 0.014922 0.03905 0.034289 0.05969 0.049529-0.01206 0.0054-0.03873 0.013018-0.04985 0.020002-0.01588 0.0108-0.02096 0.027622-0.03937 0.039686-0.01333 0.0092-0.04572 0.039686-0.05969 0.039686-0.01683 0-0.04763-0.013969-0.05969-0.010164-0.01714 0.0054-0.01016 0.033019-0.02953 0.039686-0.0381 0.013969-0.10573-0.037147-0.11906 0.020002 0.01588 0.033019 0.07017 0.021907 0.09906 0.039686 0.0181 0.011436 0.04508 0.069848 0.04985 0.089215a0.23272 0.23272 0 0 1 0 0.089533c-0.0181 0.046037-0.06604 0.040639-0.11938 0.039686-0.01429 0-0.02635 0.00127-0.03937 0-0.08953-0.00604-0.1778-0.034289-0.21844 0.029527 0.0029 0.049212 0.01111 0.076199 0 0.11906-0.0079 0.031115-0.04127 0.052386-0.03969 0.079374 6.35e-4 0.01397 0.02635 0.040639 0.02984 0.059689 0.0022 0.010164-0.0048 0.03048 0 0.039686 0.01492 0.028256 0.0527-0.00476 0.07937 0 0.0254 0.0038 0.04953 0.041274 0.04953 0.069214a0.18129 0.18129 0 0 1-0.02 0.079373c-0.0254 0.038099-0.07271 0.028892-0.1089 0.049847-0.03016 0.017144-0.04159 0.059053-0.05969 0.089215-0.01905 0.032384-0.03715 0.04318-0.02953 0.089215a0.21431 0.21431 0 0 1-0.10922 0.10922 0.31368 0.31368 0 0 0-0.049847 0.029844 0.25146 0.25146 0 0 0-0.03937 0.039686c-0.02032 0.022224-0.048576 0.032066-0.059689 0.049529-0.00826 0.013334-0.00127 0.041592-0.00984 0.059689-0.0127 0.02413-0.033654 0.045084-0.049847 0.069214-0.00731 0.011748-0.021589 0.024764-0.029527 0.039686-0.018415 0.033654-0.04318 0.060006-0.039686 0.089533 0.00286 0.028256 0.038099 0.034607 0.039686 0.059371 0.00158 0.013969-0.010476 0.024764-0.010164 0.039686 9.526e-4 0.022224 0.00826 0.032384 0.010164 0.049529 0.00382 0.042862-0.021907 0.060006-0.029844 0.089533-0.00413 0.013652 0.00318 0.028574 0 0.03937-0.00698 0.021589-0.039052 0.034289-0.039686 0.059689-6.349e-4 0.017779 0.02794 0.034289 0.029844 0.059689 0.00127 0.017144-0.013334 0.033337-0.010164 0.049529 0.00635 0.031115 0.065086 0.074929 0.089533 0.099058 0.032702 0.033019 0.064769 0.054608 0.079374 0.089533 0.012065 0.029209 0.017144 0.077152 0.039686 0.099058 0.01651 0.015875 0.047941 0.02286 0.069214 0.039686 0.02032 0.015875 0.048259 0.02286 0.069848 0.039686 0.034925 0.027622 0.082548 0.083501 0.13874 0.079374 0.02921-0.00222 0.0562-0.01397 0.08922-0.020002 0.03397-0.00571 0.07461-0.023177 0.10922-0.019685 0.02635 0.00286 0.05143 0.021589 0.07937 0.020002 0.02857-0.00191 0.06636-0.015557 0.09906-0.029844 0.057151-0.024764 0.1451-0.071754 0.22828-0.059689 0.0635 0.00953 0.06477 0.08096 0.10922 0.10922 0.0508 0.00444 0.08858-0.00953 0.1289 0 0.03048 0.00762 0.06667 0.065086 0.06953 0.089215 0.0029 0.02477-0.01651 0.04414-0.02 0.05969-0.0079 0.03334-0.01397 0.07778-0.01968 0.09906-0.0048 0.01682-0.01044 0.03302-0.0102 0.04985 0 0.01492 0.02413 0.04952 0.04001 0.06922 0.01906 0.02444 0.04636 0.04286 0.06922 0.06953 0.04223 0.04858 0.06001 0.1143 0.08953 0.17875 0.0073 0.01588-7e-3 0.01904 0 0.03937-0.0127 0.09715-0.04572 0.16065-0.10921 0.26796-0.03017 0.03492-0.06032 0.07588-0.05969 0.11906-0.0022 0.10382 0.05429 0.15748 0.04985 0.25812-0.01044 0.13494 3.16e-4 0.15589-0.0102 0.22796 0.04572 0.02317 0.02317 0.09112 0.0102 0.13906-0.01968 0.05714-0.03874 0.07111-0.04985 0.10922a0.127 0.127 0 0 0 0.06953 0.0098 2.8552 2.8552 0 0 1-2.0637 0.87311 2.852 2.852 0 0 1-1.0715-0.20828c-9.526e-4 -6.35e-4 9.524e-4 -0.0095 0-0.0102 0.030162-0.0127 0.087311 0.02222 0.10922-0.01968 0.0108-0.02032-0.014605-0.05905 0-0.07938 0.010164-0.01397 0.077786-0.02635 0.099058-0.02984 0.030797-5e-3 0.062228 0.0013 0.079374-0.0098a0.090486 0.090486 0 0 0 0.039686-0.07938c-0.00158-0.01682-0.01651-0.02477-0.029527-0.03968-0.011112-0.0127-0.00254-0.02826-0.010164-0.03968-0.013652-0.02032-0.033972-0.03017-0.039686-0.05969 0.041592-0.0079 0.098741 0.04667 0.15875 0.02984 0.028574-0.0079 0.076199-0.06254 0.089533-0.08922 0.0038-0.0083-0.00476-0.03968 0-0.04952 0.00508-0.01116 0.017779-0.01429 0.019685-0.02 0.00413-0.01555-0.00318-0.02 0-0.02953 0.010476-0.02953 0.042227-0.04826 0.059689-0.06985 0.013018-0.01588 0.027305-0.0327 0.039686-0.04952 0.013652-0.01778 0.02032-0.02381 0.029527-0.03937 0.00889-0.0527-0.032384-0.09302-0.019685-0.13906 0.013652-0.05207 0.088898-0.08573 0.13874-0.10922 0.017462-0.0079 0.035242-0.02444 0.049847-0.02953 0.034607-0.01238 0.076516-0.0085 0.1089-0.02 0.054292-0.01968 0.073024-0.07938 0.099376-0.1289 0.0127-0.02317 0.027305-0.04286 0.029527-0.05969 0.00254-0.01492-0.00286-0.03206 0-0.04952 0.00318-0.01715 0.0054-0.03048 0.010164-0.04952a0.50482 0.50482 0 0 0 0.00984-0.09937c0-0.02286-0.00953-0.02857-0.00984-0.04952-0.00413-0.07493 0.021907-0.07811 0.049529-0.11906 0.013969-0.02032 0.020002-0.05492 0.029844-0.06953 0.046672-0.06922 0.12478-0.10319 0.11906-0.20828-0.00222-0.03492-0.014287-0.10795-0.039686-0.11906-0.014605-0.0064-0.048259-0.0019-0.069532-0.0098-0.068261-0.0254-0.11747-0.1035-0.18859-0.10921-0.014922-6.35e-4 -0.02286 6.35e-4 -0.039686 0-0.027622-6.35e-4 -0.058102-0.02635-0.089215-0.02984-0.019685-0.0023-0.057784 0.0058-0.069532 0-0.017779-0.0085-0.01524-0.03968-0.029527-0.04952-0.011748-0.0083-0.03175-0.01333-0.049847-0.02a0.23653 0.23653 0 0 0-0.079373-0.01968c-0.010164-6.35e-4 -0.038099 0.0016-0.049529 0-0.017779-0.0029-0.033019-0.01937-0.049529-0.02984-0.020954-0.0127-0.031115-0.02159-0.039686-0.03968 0.01905-0.06223-0.046988-0.07271-0.059689-0.1089-0.00571-0.01682 0.00571-0.04445 0-0.05969-0.00731-0.02127-0.025717-0.03175-0.049529-0.049529-0.041274-0.032384-0.079374-0.061912-0.13906-0.069532-0.026352-0.00286-0.057149 0.00222-0.088898 0a0.15462 0.15462 0 0 1-0.099379-0.049563c-0.024448-0.028574-0.028574-0.056196-0.049847-0.069532-0.020002-0.0127-0.055561-0.01651-0.069214-0.029844-0.00635-0.00571-0.00413-0.01651-0.010164-0.029527-0.010164-0.020954-0.032384-0.024448-0.019685-0.049847-0.023177-0.011424-0.014922 0.014605-0.039686 0.010164-0.022224-0.03175-0.038417-0.049529-0.089215-0.040004-0.023177 0.00476-0.042545 0.039369-0.069532 0.040004-0.022224 6.35e-4 -0.040004-0.035876-0.069532-0.040004-0.022224-0.00254-0.053974 0.023495-0.069214 0.020003-0.025082-0.00444-0.027305-0.034607-0.049847-0.049529-0.01651-0.011112-0.050164-0.040322-0.059371-0.039686-0.028892 6.35e-4 -0.049529 0.060959-0.089533 0.039686-0.019367-0.024764 0.033337-0.02667 0.010164-0.049847-0.017462-0.017144-0.026034 9.524e-4 -0.039686 0.010164-0.016192 0.0108-0.03175 0.023495-0.049847 0.029527-0.039686 0.01524-0.067944 0.013652-0.099058 0.029844-0.028574 0.01524-0.033019 0.040004-0.049529 0.069532-0.013334 0.02413-0.03937 0.058418-0.059689 0.059689-0.02413 0.00158-0.047624-0.03048-0.069214-0.040004-0.066673-0.028574-0.10414 0.019367-0.15875 0.020002-0.050798 6.351e-4 -0.1216-0.08096-0.11906-0.1289 0.00158-0.029527 0.016193-0.073024 0.019685-0.10922 0.00286-0.028574 0.029209-0.052704 0.029844-0.079374 6.349e-4 -0.034925-0.056514-0.065404-0.079374-0.069532-0.054292-0.00953-0.127 0.024448-0.18859 0-0.011436-0.019685 0.02286-0.030479 0.029844-0.049529 0.0038-0.011112-0.00413-0.017779 0-0.029844 0.00698-0.018415 0.030797-0.029844 0.039686-0.049529 0.00635-0.014922 0.00349-0.041274 0.00984-0.059689 0.00762-0.020636 0.02794-0.034289 0.029844-0.049529 0.00222-0.019685-0.014287-0.046672-0.029844-0.059371a0.30924 0.30924 0 0 0-0.10922 0.019685c-0.062228 0.028574-0.046037 0.10953-0.1089 0.12922-0.021589 0.00667-0.055244 0.015875-0.079374 0.019685a2.8289 2.8289 0 0 1 0.18831-0.59535c0.022225 0.00413 0.040639 0.018097 0.059689 0.020002 0.053022 0.0038 0.055244-0.036512 0.099058-0.059689 0.045084 0.00635 0.068261-0.00444 0.10922 0 0.027622 0.00286 0.067309 0.038099 0.089215 0.039686 0.018415 6.351e-4 0.022225-0.02286 0.039686-0.020002 0.017462 0.00318 0.046672 0.039052 0.049847 0.059689 0.00286 0.026034-0.017462 0.0508-0.010164 0.079374 0.027305 0.027622 0.080326 0.043496 0.11906 0.059689 0.025399-0.020954 0.00413-0.069214 0-0.099376-6.35e-4 -0.013334 0.00158-0.027622 0-0.039686-0.00286-0.020638-0.00984-0.041592-0.00984-0.059689 0-0.082548 0.063499-0.1162 0.11906-0.14859 0.023812-0.01397 0.048576-0.03937 0.069532-0.049847 0.029209-0.014287 0.045084-0.015875 0.069214-0.029527 0.044131-0.024764 0.085088-0.051116 0.11906-0.079374 0.015875-0.037464-0.00158-0.082231 0-0.11906 0.015875-0.00984 0.023177 0.00158 0.039686 0 0.02667-0.00571 0.034925-0.044449 0.049847-0.059689 0.00857-0.00857 0.039052-0.011112 0.049529-0.019685 0.02667-0.020954 0.02667-0.050482 0.049529-0.059689 0.00826-0.00286 0.026987-0.00635 0.039686-0.00984 0.017462-0.00476 0.041909-0.020002 0.069532-0.029844 0.017779-0.00635 0.062546-0.00318 0.069532-0.00984 0.00857-0.00857-0.00222-0.046354 0-0.059689 0.013652-0.065086 0.11017-0.067309 0.16859-0.088898 0.040321-0.015875 0.083819-0.048576 0.1289-0.040004-0.00857 0.031115-0.04699 0.022225-0.039686 0.059689 0.00984 0.052386 0.070801-0.0127 0.089533-0.020002 0.034925-0.014922 0.10255-0.02286 0.14859-0.039686 0.040639-0.014287 0.10763-0.042544 0.069532-0.089215-0.03175-0.00222-0.041592 0.028256-0.069532 0.039686-0.01905 0.00286-0.023495-0.00889-0.039686-0.00984-0.015557-6.35e-4 -0.02413 0.0127-0.039686 0.00984-0.015557-0.00286-0.037147-0.031115-0.039686-0.049529-0.00635-0.048577 0.049847-0.063499 0.069532-0.099376-0.013334-0.043814-0.072071-0.00254-0.10922-0.019685 0.00413-0.026034 0.01905-0.054292 0.049847-0.059689a0.19621 0.19621 0 0 1 0.099058 0.020002c0.00857 0.0073-0.00318 0.027305 0.00984 0.039686 0.01524 0.013334 0.040004 0.00286 0.059689 0 0.00698-0.033019-0.045402-0.018415-0.039686-0.039686 0.039052-0.025399 0.11081-0.013652 0.15875-0.020002 0.027622-0.0038 0.054608-0.026352 0.079374-0.039686 0.02286-0.013334 0.045084-0.03175 0.069214-0.00984 0.00698 0.023812-0.01651 0.037464-0.029527 0.049529-0.044449 0.03937-0.084454 0.083501-0.11906 0.12922 0.021272 0.020638 0.053339 0.00571 0.089215 0.00953 0.01397 0.00191 0.034925 0.00793 0.049529 0.010164 0.017462 0.00286 0.035876-0.00286 0.049847 0 0.02413 0.00571 0.025399 0.039686 0.049529 0.039686 0.039052 0 0.042227-0.033019 0.019685-0.059689 0.00698-0.026987 0.020002-0.050164 0.010164-0.069214-0.018097-0.035876-0.085723 0.00571-0.089533-0.039686-0.00222-0.028892 0.029527-0.037782 0.039686-0.059689-0.00444-0.055244 0.045402-0.058736 0.039686-0.1089-0.00286-0.020954-0.025399-0.02032-0.039686-0.039686-0.00731-0.010476-0.011112-0.032384-0.019685-0.039686-0.030162-0.025399-0.085723-0.021272-0.089533-0.069848-0.00158-0.028574 0.00413-0.047941 0-0.079373-0.0038-0.029209-0.033972-0.11303-0.059371-0.11874-0.032384-0.00698-0.0508 0.051434-0.089216 0.069214a0.15652 0.15652 0 0 1-0.079374 0.010164c-0.013969-0.00318-0.038099-0.013334-0.039686-0.039686-0.00158-0.01524 0.00318-0.020638 0.00984-0.029844 0.00158-0.00222-0.00158-0.00762 0-0.00984a2.8797 2.8797 0 0 1 0.79373-0.10922zm-1.1808 0.25812c-0.02794 0.090168-0.10953 0.1416-0.21812 0.13874-0.02667 0.025399-0.015557 0.073976-0.029844 0.10922a0.087628 0.087628 0 0 1-0.079374 0.049529c-0.021272-0.00158-0.059689-0.029527-0.059689-0.049529 0-0.01651 0.015875-0.035242 0.020002-0.049847a2.8333 2.8333 0 0 1 0.36702-0.19843zm2.431 0.099058a0.086993 0.086993 0 0 0-0.02984 0.00984c-0.02222 0.013334-0.02318 0.033337-0.03969 0.039686-0.02381 0.00889-0.0562 0.00857-0.05969 0.029844-0.0029 0.017779 0.02064 0.023495 0.02 0.039686-0.0089 0.021272-0.0254 0.023495-0.02984 0.049529 0.02953 0.047941 0.10255 6.35e-4 0.13906-0.00984 0.01587-0.00476 0.0308 0.00254 0.03937-0.00984 0.0098-0.015875 0.0025-0.047624 0.01016-0.069532 0.0079-0.02413 0.0327-0.018415 0.02953-0.039686-0.0019-0.021272-0.0435-0.04318-0.07937-0.039686zm-3.1454 0.36702c0.021272 0.025399 0.039052 0.062863 0 0.079374-0.00571 0.00318-0.075246 0.0127-0.089215 0.010164-0.00444-6.351e-4 -0.00635-0.00731-0.00984-0.010164 0.030162-0.029527 0.067626-0.051116 0.099058-0.079374zm0.079374 0.099375c0.013969 6.35e-4 0.023495 0.028574 0.039686 0.029527 0.015875 0.00158 0.040321-0.0127 0.049847-0.00953 0.02413 0.00635 0.033019 0.051434 0.00953 0.069214-0.01905 0.00222-0.025399-0.02286-0.03937-0.020002-0.03937 0.00698-0.050164 0.081913-0.079374 0.079374-0.02794-0.00286-0.048259-0.059053-0.020002-0.079374 6.349e-4 -0.017144-0.011112-0.022225-0.00984-0.039686 0.00857-0.0108 0.026352-0.031432 0.049529-0.029527zm-0.1289 0.019685c0.00826 0 0.00698-0.00318 0.00984 0-0.00382 0.030797-0.015875 0.035242-0.039686 0.049847a0.16256 0.16256 0 0 0-0.079374 0.1089c-0.00382 0.015875-0.049847 0.063499-0.069214 0.059689-0.045719-0.00984 0.01905-0.095884 0.029527-0.10922 0.011748-0.014605 0.026352-0.023495 0.039686-0.039686 0.013334-0.015875 0.017144-0.050164 0.029844-0.059689 0.013969-0.00953 0.055244-0.0108 0.079373-0.00953zm3.9093 0.079374c0.04541-0.00286 0.06826 0.051751 0.0889 0.079373 0.01746 0.022542 0.07111 0.053974 0.09937 0.069532 0.01619 0.00857 0.03175 0.021589 0.04985 0.029844 0.01873 0.00826 0.04699 0.01905 0.06922 0.039686 0.02222 0.02032 0.03905 0.050798 0.03968 0.069214 6.35e-4 0.018732-0.0127 0.032384-0.0098 0.049847 0.02 0.00318 0.03048-0.017144 0.03968-0.039686 0.07493 0.10668 0.13843 0.22066 0.19843 0.33718a0.037464 0.037464 0 0 0-0.02 0.029844c-0.0058 0.032384 0.01904 0.073658-0.02953 0.079374-0.03079 0.00413-0.067-0.03048-0.10922-0.039686-0.01715-0.00413-0.04572 0.00444-0.05969 0-0.03175-0.011112-0.02222-0.050482-0.04952-0.069532a0.22225 0.22225 0 0 0-0.07938-0.029527c-0.01555-0.00191-0.0235 0.00191-0.03968 0-0.01968-0.00254-0.05334 0-0.06922-0.010164-0.01588-0.00953-0.05556-0.026352-0.05969-0.039686-0.0064-0.021272 0.04858-0.051434 0.04952-0.069214 0.0013-0.013969-0.01682-0.01905-0.01968-0.040004-0.0023-0.0127 0.0029-0.031432 0-0.03937-0.0041-0.01524-0.02604-0.029209-0.04985-0.029844-0.02064 0-0.04127 0.00984-0.05938 0.00984-0.0254 6.349e-4 -0.07747-0.0127-0.10922-0.00984-0.01905 0.00158-0.03175 0.00857-0.04953 0.00984-0.05016 0.00413-0.07969-0.00286-0.11906 0-0.02857 0.00158-0.08255 0.017779-0.10922 0.029844-0.01333 0.00635-0.02222 0.020954-0.039689 0.029527-0.0079 0.00413-0.01905 0.0054-0.02953 0.010164-0.01619 0.00731-0.04413 0.025399-0.05969 0.029527-0.02223 0.00604-0.04826-0.00158-0.08921 0-0.02953 0.00191-0.07874-0.00444-0.07937-0.03937-6.35e-4 -0.053974 0.09811-0.03048 0.14859-0.040004 0.01905-0.0038 0.02667-0.026352 0.04985-0.03937 0.0108-0.00635 0.01905-0.013018 0.02953-0.020002 0.01746-0.012065 0.04699-0.035876 0.04985-0.049529 0.0022-0.0127-0.01175-0.03048-0.01016-0.039686 0.0025-0.012065 0.024129-0.02413 0.04-0.039686 0.02413-0.024448 0.03937-0.053974 0.06921-0.069532 0.02032-0.011112 0.06032-0.013652 0.06953-0.029844 0.0022-0.018415-6.35e-4 -0.02286 0-0.039686 0.0127-0.011424 0.0095-0.017462 0.02-0.019685 0.03111-0.00698 0.06255 0.011748 0.09906 0.00984 0.01587-6.351e-4 0.03302 0.00127 0.04953-0.00984 0.01397-0.00953 0.02604-0.02286 0.03968-0.029844 0.01524-0.00826 0.03112-0.028574 0.04985-0.029844zm-3.6417 0.029844c0.00793-0.00127 0.020638 9.524e-4 0.030162 0 0.013018-6.351e-4 0.025399 0 0.039686 0s0.033654-0.00571 0.039686 0c-0.00953 0.038099-0.099058 0.023812-0.12922 0.00984 9.526e-4 -0.00698 0.012383-0.00857 0.020002-0.00984zm-0.1089 0.069532c0.00953 0 0.019367-0.00413 0.029844 0-0.02667 0.022224-0.063181 0.034925-0.10922 0.049529-0.022224 0.00698-0.055561 0.014287-0.059689-0.00984-0.00444-0.030162 0.02032-0.026987 0.039686-0.029844 0.025399-0.00286 0.069848-0.00953 0.099376-0.00984zm3.7604 0c-0.01904 0.00635-0.02857 0.044449 0 0.049529 0.01333-0.00793 0.01333-0.025399 0.0098-0.049529-0.0077-0.00826-0.0041-0.00222-0.0098 0zm-0.0102 0.079374c-0.0092 0.00286-0.01968-6.349e-4 -0.02953 0.00984 6.35e-4 0.032384 0.0064 0.0508 0 0.079374 0.01842 0.035876 0.06032 0.014287 0.06922-0.00984 0.01116-0.060324-0.01176-0.086993-0.03937-0.079374zm0.24828 0.15875a0.085406 0.085406 0 0 0-0.05969 0.019685c0.02159 0.034925 0.06127 0.041274 0.10922 0.049847 0.01715-0.0127 0.01176-0.047624 0.02-0.069848-0.02095 0-0.03428 0.00158-0.05969 0h-0.0098zm-5.0402 1.2201c0.02032 0.026034 0.042227 0.056196 0.069214 0.069848 0.014605 0.00731 0.031432 0.00571 0.049847 0.00953 0.014922 0.00318 0.025399 0.015557 0.039686 0.020002 0.03048 0.010476 0.074928 0.00889 0.099058 0.020002 0.037147 0.015875 0.057467 0.080644 0.089533 0.099058 0.00158 0.018415-0.00604 0.035876 0 0.049529 0.014922 0.02032 0.045084 0.026352 0.069214 0.039686 0.029527 0.016193 0.041909 0.056832 0.069532 0.069532 0.00953 0.00413 0.024764-0.00444 0.039686 0 0.038099 0.011424 0.046354 0.069214 0.079374 0.059689 0.021272-0.00635 0.026352-0.039052 0.029844-0.059689 0.014287-0.015875 0.026987-0.039686 0.049529-0.039686 0.035876-6.35e-4 0.046354 0.044449 0.059689 0.079374 0.00731 0.019685 0.024448 0.038734 0.029527 0.059689a0.52069 0.52069 0 0 1 0 0.15875c-0.0092 0.02635-0.047624 0.04032-0.069214 0.06922-0.010476 0.01397-0.021907 0.03048-0.029844 0.03968-0.013969 0.01746-0.029209 0.02413-0.039686 0.03968-0.00571 0.0089-0.00476 0.02762-0.010164 0.03968-0.017144 0.03715-0.044131 0.06476-0.029527 0.10922 0.00571 0.01778 0.029527 0.0381 0.029527 0.05969 0 0.0254-0.055244 0.03175-0.059371 0.05938-0.00286 0.02032 0.023495 0.06223 0.029844 0.08922 0.00444 0.02032 0.037464 0.03652 0.049529 0.04985 0.02032 0.02222 0.041274 0.05048 0.059689 0.07938 0.036194 0.05588 0.053339 0.12382 0.088898 0.17843 0.01905 0.02857 0.057149 0.04921 0.069848 0.07937 0.00635 0.01492-0.00604 0.04572 0 0.05969 0.020638 0.04667 0.1216 0.09588 0.16827 0.11874 0.022224 0.01116 0.039686 0.01842 0.059689 0.02984 0.030797 0.01746 0.093661 0.05238 0.10922 0.07937 0.013969 0.02444 0.02286 0.08033 0.029844 0.11906 0.00857 0.0508-0.00222 0.09397 0 0.1489 0.00158 0.02984 0.00984 0.04921 0.00984 0.07938 0 0.01044 6.35e-4 0.02921 0 0.03968-6.349e-4 0.03588 0.00286 0.07302 0 0.10922a0.41338 0.41338 0 0 0 0 0.05938c0.00158 0.0181 0.018732 0.02413 0.020002 0.03968 0.00127 0.01682-0.021907 0.03652-0.020002 0.04985 0.00413 0.03619 0.042545 0.06572 0.049529 0.09906 0.00571 0.02666 0.013334 0.08731 0.010164 0.11906-0.00254 0.01682-0.00762 0.04127-0.010164 0.05969-0.00158 0.01429 0.00222 0.02635 0 0.03937-0.79088-0.50799-1.3195-1.3906-1.3195-2.4009 0-0.12954 0.013018-0.25209 0.029844-0.37718zm1.0912 0.28797c0.02794-0.0127 0.022542 0.036194 0 0.039686-0.021272 0.00286-0.020638-0.029844 0-0.039686z" color="#000000" fill="#fff" stroke-width=".31749"/>
</svg>
