<?xml version="1.0" encoding="UTF-8"?>
<!-- Created with Inkscape (http://www.inkscape.org/) -->
<svg width="64" height="64" version="1.1" viewBox="0 0 16.933 16.933" xmlns="http://www.w3.org/2000/svg" xmlns:cc="http://creativecommons.org/ns#" xmlns:dc="http://purl.org/dc/elements/1.1/" xmlns:rdf="http://www.w3.org/1999/02/22-rdf-syntax-ns#" xmlns:xlink="http://www.w3.org/1999/xlink">
 <defs>
  <clipPath id="clipPath11292">
   <path d="m144.34 1018.2h71.467v78h-71.467z"/>
  </clipPath>
  <clipPath id="clipPath11456">
   <path d="m293.21 1068.6 66.323-38.292 36.047 62.435-66.323 38.292z"/>
  </clipPath>
  <clipPath id="clipPath11724">
   <path d="m488.86 1054.5h10v10.706h-10z"/>
  </clipPath>
  <clipPath id="clipPath11774">
   <path d="m508 1066.8h10.001v10.705h-10.001z"/>
  </clipPath>
  <clipPath id="clipPath11824">
   <path d="m525 1045.8h10v10.706h-10z"/>
  </clipPath>
  <clipPath id="clipPath11938">
   <path d="m836 1043.7h25.5v31.5h-25.5z"/>
  </clipPath>
  <clipPath id="clipPath11970">
   <path d="m838 1062.2h24v24h-24z"/>
  </clipPath>
  <clipPath id="clipPath12144">
   <path d="m134 489.24h7v6h-7z"/>
  </clipPath>
  <clipPath id="clipPath12174">
   <path d="m216 489.24h7v6h-7z"/>
  </clipPath>
  <clipPath id="clipPath12576">
   <path d="m838 477.24h22v22h-22z"/>
  </clipPath>
  <clipPath id="clipPath12760">
   <path d="m704 1061.2h25v25h-25z"/>
  </clipPath>
  <clipPath id="clipPath12862">
   <path d="m663.04 1078.6-1.808-3.514-21.07-47.453c13.336-18.439 48.336-26.938 73.836-3.439 0.842 0 6.476 6.246 6 7l-18.386 25.895c-0.483 0.765-1.453 0.946-2.177 0.431l-15.505-11.011c-0.359-0.255-0.847-0.153-1.07 0.238l-18.272 31.869c-0.218 0.384-0.502 0.578-0.782 0.578-0.282 0-0.561-0.197-0.766-0.594"/>
  </clipPath>
  <clipPath id="clipPath13494">
   <path d="m127 820.24h100v100h-100z"/>
  </clipPath>
  <clipPath id="clipPath13934">
   <path d="m809 680.24c0-22.092 17.908-40 40-40s40 17.908 40 40c0 22.091-17.908 40-40 40s-40-17.909-40-40"/>
  </clipPath>
  <clipPath id="clipPath14580">
   <path d="m658 469.24h44v45h-44z"/>
  </clipPath>
  <clipPath id="clipPath14846">
   <path d="m651 271.24h58v58h-58z"/>
  </clipPath>
  <clipPath id="clipPath14938">
   <path d="m662 307.24h38v8h-38z"/>
  </clipPath>
  <clipPath id="clipPath15102">
   <path d="m858.98 137.24c0.013-0.101 0.021-0.203 0.021-0.307v-6.693h15.75c1.237 0 2.25-1.013 2.25-2.25v-11.25l-27-4.5-27 4.5v-2.25l27-4.5 27 4.5v-27c0-1.237-1.013-2.25-2.25-2.25h-49.5c-1.237 0-2.25 1.013-2.25 2.25v-4.25h54v54zm-35.979 0v-9.25c0 1.237 1.013 2.25 2.25 2.25h15.75v6.693c0 0.104 7e-3 0.207 0.02 0.307zm22.5-7h9v4.5h-9zm1.125-9c-0.62 0-1.125-0.506-1.125-1.125v-2.25c0-0.619 0.505-1.125 1.125-1.125h6.75c0.619 0 1.125 0.506 1.125 1.125v2.25c0 0.619-0.506 1.125-1.125 1.125z"/>
  </clipPath>
  <clipPath id="clipPath15274">
   <path d="m531.27 136.24c6.325-2.29 10.727-8.277 10.727-15.484 0-11.316-10.2-20.563-25.65-34.575l-4.35-3.941-4.35 3.941c-15.45 14.012-25.65 23.259-25.65 34.575v-39.516h60v55zm-26.983 0c2.995-1.052 5.686-2.883 7.71-5.25 2.024 2.367 4.715 4.198 7.71 5.25zm-22.29 0v-15.484c0 7.207 4.402 13.194 10.727 15.484z"/>
  </clipPath>
  <clipPath id="clipPath15438">
   <path d="m648 79.241h64v64h-64z"/>
  </clipPath>
  <clipPath id="clipPath16058">
   <path d="m500 691.74c0-3.037 2.463-5.5 5.5-5.5s5.5 2.463 5.5 5.5-2.463 5.5-5.5 5.5-5.5-2.463-5.5-5.5"/>
  </clipPath>
  <clipPath id="clipPath16086">
   <path d="m500 669.74c0-3.037 2.463-5.5 5.5-5.5s5.5 2.463 5.5 5.5c0 3.038-2.463 5.5-5.5 5.5s-5.5-2.462-5.5-5.5"/>
  </clipPath>
  <clipPath id="clipPath16114">
   <path d="m494 680.74c0-3.037 2.462-5.5 5.5-5.5s5.5 2.463 5.5 5.5c0 3.038-2.462 5.5-5.5 5.5s-5.5-2.462-5.5-5.5"/>
  </clipPath>
  <clipPath id="clipPath16142">
   <path d="m513 691.74c0-3.037 2.463-5.5 5.5-5.5s5.5 2.463 5.5 5.5-2.463 5.5-5.5 5.5-5.5-2.463-5.5-5.5"/>
  </clipPath>
  <clipPath id="clipPath16170">
   <path d="m513 669.74c0-3.037 2.463-5.5 5.5-5.5s5.5 2.463 5.5 5.5c0 3.038-2.463 5.5-5.5 5.5s-5.5-2.462-5.5-5.5"/>
  </clipPath>
  <clipPath id="clipPath16198">
   <path d="m507 680.74c0-3.037 2.463-5.5 5.5-5.5s5.5 2.463 5.5 5.5c0 3.038-2.463 5.5-5.5 5.5s-5.5-2.462-5.5-5.5"/>
  </clipPath>
  <clipPath id="clipPath16226">
   <path d="m520 680.74c0-3.037 2.463-5.5 5.5-5.5s5.5 2.463 5.5 5.5c0 3.038-2.463 5.5-5.5 5.5s-5.5-2.462-5.5-5.5"/>
  </clipPath>
  <clipPath id="clipPath16326">
   <path d="m321 322.24c-4.97 0-9-4.029-9-9 0-4.97 4.03-9 9-9h45c4.971 0 9 4.03 9 9 0 4.971-4.029 9-9 9z"/>
  </clipPath>
  <clipPath id="clipPath16354">
   <path d="m322 297.24c-4.971 0-9-4.029-9-9 0-4.97 4.029-9 9-9h45c4.971 0 9 4.03 9 9 0 4.971-4.029 9-9 9z"/>
  </clipPath>
  <clipPath id="clipPath16474">
   <path d="m155 83.24h44v53h-44z"/>
  </clipPath>
  <clipPath id="clipPath22683">
   <path d="m481 318h22v22h-22z"/>
  </clipPath>
  <clipPath id="clipPath22719">
   <path d="m507 318h22v22h-22z"/>
  </clipPath>
  <clipPath id="clipPath22755">
   <path d="m530 318h22v22h-22z"/>
  </clipPath>
  <clipPath id="clipPath23007">
   <path d="m672 1064c0-1.105 4.925-2 11-2s11 0.895 11 2-4.925 2-11 2-11-0.895-11-2"/>
  </clipPath>
  <clipPath id="clipPath23025">
   <path d="m660 1057h51v65.001h-51z"/>
  </clipPath>
  <clipPath id="clipPath23289">
   <path d="m659 517h53v18h-53z"/>
  </clipPath>
  <clipPath id="clipPath23381">
   <path d="m659 500h53v18h-53z"/>
  </clipPath>
  <clipPath id="clipPath23699">
   <path d="m648 112h73v60h-73z"/>
  </clipPath>
  <clipPath id="clipPath23863">
   <path d="m826 1056h59v60h-59z"/>
  </clipPath>
  <clipPath id="clipPath24559">
   <path d="m805 276h100v100h-100z"/>
  </clipPath>
  <clipPath id="clipPath24595">
   <path d="m145 1063.8h74.152v45.21h-74.152z"/>
  </clipPath>
  <clipPath id="clipPath24969">
   <path d="m151 667h57v57h-57z"/>
  </clipPath>
  <clipPath id="clipPath25061">
   <path d="m154 697h51v51h-51z"/>
  </clipPath>
  <clipPath id="clipPath25255">
   <path d="m500.04 864.45h36.012v67.52h-36.012z"/>
  </clipPath>
  <clipPath id="clipPath25347">
   <path d="m836 870.54h47v55.539h-47z"/>
  </clipPath>
  <clipPath id="clipPath25731">
   <path d="m318.03 702.35h62.848v37.991h-62.848z"/>
  </clipPath>
  <clipPath id="clipPath25833">
   <path d="m485.03 133.35h62.847v37.991h-62.847z"/>
  </clipPath>
  <clipPath id="clipPath25963">
   <path d="m493.37 677.93h45.643v68.067h-45.643z"/>
  </clipPath>
  <clipPath id="clipPath23007-0">
   <path d="m481 318h22v22h-22z"/>
  </clipPath>
  <clipPath id="clipPath23043">
   <path d="m507 318h22v22h-22z"/>
  </clipPath>
  <clipPath id="clipPath23079">
   <path d="m530 318h22v22h-22z"/>
  </clipPath>
  <clipPath id="clipPath23331">
   <path d="m672 1064c0-1.105 4.925-2 11-2s11 0.895 11 2-4.925 2-11 2-11-0.895-11-2"/>
  </clipPath>
  <clipPath id="clipPath23349">
   <path d="m660 1057h51v65.001h-51z"/>
  </clipPath>
  <clipPath id="clipPath23613">
   <path d="m659 517h53v18h-53z"/>
  </clipPath>
  <clipPath id="clipPath23705">
   <path d="m659 500h53v18h-53z"/>
  </clipPath>
  <clipPath id="clipPath24023">
   <path d="m648 112h73v60h-73z"/>
  </clipPath>
  <clipPath id="clipPath24187">
   <path d="m826 1056h59v60h-59z"/>
  </clipPath>
  <clipPath id="clipPath24883">
   <path d="m805 276h100v100h-100z"/>
  </clipPath>
  <clipPath id="clipPath24919">
   <path d="m145 1063.8h74.152v45.21h-74.152z"/>
  </clipPath>
  <clipPath id="clipPath25293">
   <path d="m151 667h57v57h-57z"/>
  </clipPath>
  <clipPath id="clipPath25385">
   <path d="m154 697h51v51h-51z"/>
  </clipPath>
  <clipPath id="clipPath25579">
   <path d="m500.04 864.45h36.012v67.52h-36.012z"/>
  </clipPath>
  <clipPath id="clipPath25671">
   <path d="m836 870.54h47v55.539h-47z"/>
  </clipPath>
  <clipPath id="clipPath26055-0">
   <path d="m318.03 702.35h62.848v37.991h-62.848z"/>
  </clipPath>
  <clipPath id="clipPath26157">
   <path d="m485.03 133.35h62.847v37.991h-62.847z"/>
  </clipPath>
  <clipPath id="clipPath26287">
   <path d="m493.37 677.93h45.643v68.067h-45.643z"/>
  </clipPath>
  <linearGradient id="linearGradient991">
   <stop stop-color="#969696" offset="0"/>
   <stop stop-color="#e6e6e6" stop-opacity=".90196" offset="1"/>
  </linearGradient>
  <linearGradient id="linearGradient15515" x1="10.798" x2="10.798" y1="282.88" y2="283.29" gradientTransform="matrix(1.0543 0 0 .55499 4.1087 128.14)" gradientUnits="userSpaceOnUse" xlink:href="#linearGradient991"/>
  <linearGradient id="linearGradient15517" x1="8.8166" x2="8.8166" y1="293.7" y2="294.12" gradientTransform="matrix(.94579 0 0 .555 7.7176 133.01)" gradientUnits="userSpaceOnUse" xlink:href="#linearGradient991"/>
  <linearGradient id="linearGradient15519" x1="7.998" x2="7.998" y1="284.98" y2="285.41" gradientTransform="matrix(.94579 0 0 .555 7.9256 129.13)" gradientUnits="userSpaceOnUse" xlink:href="#linearGradient991"/>
  <linearGradient id="linearGradient15521" x1="8.7643" x2="8.7643" y1="287.18" y2="287.64" gradientTransform="matrix(.94579 0 0 .555 7.919 130.1)" gradientUnits="userSpaceOnUse" xlink:href="#linearGradient991"/>
  <linearGradient id="linearGradient15523" x1="8.3178" x2="8.3178" y1="289.36" y2="289.81" gradientTransform="matrix(.94579 0 0 .555 7.901 131.07)" gradientUnits="userSpaceOnUse" xlink:href="#linearGradient991"/>
  <linearGradient id="linearGradient15525" x1="8.2553" x2="8.2553" y1="291.55" y2="291.96" gradientTransform="matrix(.94579 0 0 .55502 8.0111 132.03)" gradientUnits="userSpaceOnUse" xlink:href="#linearGradient991"/>
  <linearGradient id="linearGradient677332-3" x1="16.721" x2="16.721" y1="279.38" y2="297.64" gradientTransform="matrix(.98129 0 0 .99999 -7.7462 -280.08)" gradientUnits="userSpaceOnUse">
   <stop stop-color="#14d278" offset="0"/>
   <stop stop-color="#147864" offset="1"/>
  </linearGradient>
  <linearGradient id="linearGradient677346-6" x1="19.27" x2="19.27" y1="281.99" y2="297.35" gradientTransform="matrix(.99999 0 0 .99999 -10.846 -280.09)" gradientUnits="userSpaceOnUse">
   <stop stop-color="#14c878" offset="0"/>
   <stop stop-color="#147864" offset="1"/>
  </linearGradient>
  <linearGradient id="linearGradient677348-7" x1="-6.1738" x2="-6.1738" y1="-126.08" y2="-126.7" gradientTransform="matrix(.54036 0 0 .54036 11.594 73.26)" gradientUnits="userSpaceOnUse">
   <stop stop-color="#14dc78" offset="0"/>
   <stop stop-color="#147864" offset="1"/>
  </linearGradient>
 </defs>
 <metadata>
  <rdf:RDF>
   <cc:Work rdf:about="">
    <dc:format>image/svg+xml</dc:format>
    <dc:type rdf:resource="http://purl.org/dc/dcmitype/StillImage"/>
    <dc:title/>
   </cc:Work>
  </rdf:RDF>
 </metadata>
 <circle cx="8.4937" cy="8.73" r="7.9376" opacity=".2" stroke-width=".14032"/>
 <ellipse cx="8.4937" cy="8.47" rx="7.7989" ry="7.9477" fill="url(#linearGradient677332-3)" stroke-width="1.1902" style="paint-order:stroke markers fill"/>
 <g transform="matrix(.85833 0 0 .85833 -5.1762 -241.4)">
  <circle cx="15.926" cy="290.69" r="7.9375" fill="#fafafa" style="paint-order:normal"/>
  <path d="m10.551 285.17c-0.04221 0.0443-0.07897 0.0835-0.13658 0.14895l11.024 9.8e-4c-0.05944-0.0607-0.08604-0.0922-0.14076-0.15z" fill="url(#linearGradient15515)" opacity=".6" style="paint-order:normal"/>
  <path d="m10.431 296.06c0.04857 0.052 0.08052 0.0907 0.1349 0.15h10.72c0.05003-0.0561 0.07465-0.0855 0.13441-0.15z" fill="url(#linearGradient15517)" opacity=".6" style="paint-order:normal"/>
  <path d="m9.1386 287.33c-0.022302 0.0517-0.037132 0.0892-0.065978 0.15h13.708c-0.02381-0.0504-0.04631-0.10145-0.06843-0.15z" fill="url(#linearGradient15519)" opacity=".6" style="paint-order:normal"/>
  <path d="m8.5204 289.52c-0.00964 0.0489-0.015643 0.0999-0.024922 0.15h14.862c-0.0088-0.0501-0.01516-0.10114-0.0259-0.15z" fill="url(#linearGradient15521)" opacity=".6" style="paint-order:normal"/>
  <path d="m8.4942 291.7c0.00899 0.0501 0.01744 0.10011 0.027371 0.15h14.811c0.0093-0.0539 0.01711-0.0968 0.02541-0.15z" fill="url(#linearGradient15523)" opacity=".6" style="paint-order:normal"/>
  <path d="m9.0766 293.88c0.021867 0.0535 0.040442 0.0932 0.064512 0.15h13.57c0.02313-0.0512 0.03674-0.0804 0.06941-0.15z" fill="url(#linearGradient15525)" opacity=".6" style="paint-order:normal"/>
 </g>
 <path d="m8.4937 3.29c-0.32459 8e-4 -0.42374 0.31784-0.58798 0.60999l-0.34223 0.60819-6.1697 5.3e-4a7.9377 8.2267 0 0 0-0.83719 3.6564 7.9377 8.2267 0 0 0 7.9377 8.2267 7.9377 8.2267 0 0 0 7.9377-8.2267 7.9377 8.2267 0 0 0-1.5556-4.875h-6.3816z" fill="url(#linearGradient677346-6)" stroke-width="1.1312" style="paint-order:stroke markers fill"/>
 <path d="m1.3037 4.83c-0.0461 0.091-0.0916 0.18277-0.13426 0.27538h14.652c-0.0408-0.0926-0.0896-0.18439-0.13374-0.27538z" fill="url(#linearGradient677348-7)" stroke-width=".14297"/>
 <path d="m8.4863 6.61c-0.11165 0-0.22396 9e-3 -0.33272 0.0203a3.1625 3.1625 0 0 0-0.62541 0.12102 3.2416 3.2416 0 0 0-2.1276 2.1276 3.1625 3.1625 0 0 0-0.12101 0.6254 3.2368 3.2368 0 0 0-0.020328 0.33272c0 0.11165 0.00915 0.22396 0.020328 0.33271a3.1625 3.1625 0 0 0 0.12101 0.62541 3.2416 3.2416 0 0 0 2.1276 2.1276 3.1625 3.1625 0 0 0 0.62541 0.12133c0.10875 0.011 0.22105 0.02 0.33272 0.02s0.22396-9e-3 0.33272-0.0203a3.1625 3.1625 0 0 0 0.62541-0.12069 3.2965 3.2965 0 0 0 0.58474-0.25236 3.2212 3.2212 0 0 0 1.5433-1.8756 3.1625 3.1625 0 0 0 0.12069-0.62541c0.01138-0.10875 0.02033-0.22105 0.02033-0.33271 0-0.11133-0.0091-0.22429-0.02033-0.33272a3.1625 3.1625 0 0 0-0.12069-0.62541 3.2497 3.2497 0 0 0-0.59508-1.0991c-0.06586-0.0797-0.13876-0.14877-0.21201-0.22203-0.29141-0.29141-0.63218-0.53278-1.0184-0.69576a3.3439 3.3439 0 0 0-0.30238-0.11068 3.1625 3.1625 0 0 0-0.62541-0.12102 3.3284 3.3284 0 0 0-0.33272-0.0203zm0 0.3227c0.48825 0 0.94747 0.11973 1.3515 0.33272 0.010672 6e-3 0.019413 0.0145 0.029984 0.0203 0.00813 0.0107 0.0061 0.0223 0.020328 0.03 0.010367 6e-3 0.020328 0.0151 0.029984 0.0203 0.017075 0.0102 0.033846 0.0239 0.030288 0.0403-0.00407 0.0242-0.043908 0.0226-0.060374 0.0403 0.00203 0.0338-0.011587 0.0274-0.020328 0.0503 0.00508 0.0148 0.018092 0.0129 0.020328 0.0303-0.00305 0.0187-0.027442 0.0209-0.020328 0.0403 0.03161 0.0245 0.060983 4e-3 0.090967 0 0.065455-8e-3 0.1207 1e-3 0.16136-0.0303-0.0041-0.0252 0.01931-0.0322 0.02998-0.0503 0.02165 0.0151 0.03974 0.0349 0.06068 0.0503-0.0123 5e-3 -0.03933 0.0132-0.05062 0.0203-0.01616 0.011-0.02134 0.0281-0.04004 0.0403-0.01352 9e-3 -0.04645 0.0403-0.06068 0.0403-0.01708 0-0.04838-0.0142-0.060678-0.0104-0.01738 5e-3 -0.010367 0.0335-0.029984 0.0403-0.038725 0.0142-0.10746-0.0378-0.12101 0.0203 0.016161 0.0335 0.07135 0.0223 0.10072 0.0403 0.018397 0.0116 0.045839 0.0711 0.050718 0.0907a0.23654 0.23654 0 0 1 0 0.091c-0.018397 0.0467-0.067082 0.0413-0.12134 0.0403-0.014534 0-0.026833 1e-3 -0.040046 0-0.090967-6e-3 -0.18072-0.0349-0.22203 0.03 0.00305 0.05 0.011282 0.0774 0 0.12102-0.00813 0.0316-0.041977 0.0533-0.040351 0.0807 6.505e-4 0.0142 0.026833 0.0413 0.030288 0.0607 0.00203 0.0104-0.00508 0.031 0 0.0403 0.015144 0.0288 0.053564-5e-3 0.080701 0 0.025816 4e-3 0.050311 0.042 0.050311 0.0703a0.18427 0.18427 0 0 1-0.020328 0.0807c-0.025816 0.0387-0.073892 0.0294-0.1107 0.0507-0.030695 0.0174-0.042282 0.0601-0.060678 0.0907-0.019413 0.0329-0.037708 0.0439-0.029984 0.0907a0.21783 0.21783 0 0 1-0.11101 0.11101 0.31883 0.31883 0 0 0-0.050616 0.0304 0.25559 0.25559 0 0 0-0.040046 0.0403c-0.020633 0.0226-0.049397 0.0326-0.060678 0.0503-0.00813 0.0135-0.00102 0.0423-0.010164 0.0607-0.012908 0.0245-0.034252 0.0458-0.050616 0.0703-0.00711 0.0119-0.021954 0.0252-0.029984 0.0403-0.018702 0.0342-0.043908 0.061-0.040351 0.091 0.00305 0.0288 0.038724 0.0352 0.040351 0.0604 0.00203 0.0142-0.010672 0.0252-0.010367 0.0403 9.655e-4 0.0226 0.00813 0.0329 0.010367 0.0503 0.00407 0.0436-0.022259 0.061-0.03039 0.091-0.00407 0.0139 0.00305 0.0291 0 0.04-0.00711 0.022-0.039741 0.0349-0.040351 0.0607-6.505e-4 0.0181 0.028357 0.0349 0.030288 0.0607 0.00102 0.0174-0.013518 0.0338-0.010367 0.0503 0.0061 0.0316 0.066167 0.0761 0.090967 0.10073 0.033236 0.0335 0.065862 0.0555 0.080701 0.091 0.012298 0.0297 0.01738 0.0784 0.040351 0.10073 0.01677 0.0162 0.048685 0.0233 0.070334 0.0404 0.020633 0.0162 0.049092 0.0233 0.071046 0.0403 0.035472 0.0281 0.083852 0.0849 0.14102 0.0807 0.029679-2e-3 0.057121-0.0142 0.090662-0.0203 0.034557-6e-3 0.075823-0.0236 0.11101-0.02 0.026833 3e-3 0.052242 0.022 0.080701 0.0203 0.029069-2e-3 0.067488-0.0159 0.10072-0.0303 0.058137-0.0252 0.14748-0.073 0.23203-0.0607 0.06454 0.0102 0.06586 0.0823 0.11101 0.11102 0.05163 4e-3 0.09005-0.0102 0.13101 0 0.031 8e-3 0.06779 0.0662 0.07064 0.0907 3e-3 0.0252-0.01677 0.0448-0.02033 0.0607-0.0081 0.0339-0.01423 0.0791-0.02002 0.10072-0.0051 0.0171-0.01057 0.0335-0.01037 0.0507 0 0.0152 0.02449 0.0503 0.04066 0.0703 0.01941 0.0248 0.04716 0.0436 0.07033 0.0706 0.04289 0.0494 0.06098 0.11617 0.09097 0.18168 0.0071 0.0162-0.0071 0.0194 0 0.04-0.01291 0.0987-0.04645 0.16328-0.111 0.27235-0.03069 0.0355-0.06129 0.0772-0.06068 0.12102-2e-3 0.10553 0.05519 0.16007 0.05072 0.26236-0.01067 0.13716 3.15e-4 0.15845-0.01037 0.2317 0.04645 0.0236 0.02358 0.0926 0.01037 0.14135-0.02002 0.058-0.03944 0.0723-0.05072 0.11101a0.12908 0.12908 0 0 0 0.07064 0.0102 2.9021 2.9021 0 0 1-2.0976 0.88744 2.8988 2.8988 0 0 1-1.0891-0.2117c-9.656e-4 -6.5e-4 9.757e-4 -0.0102 0-0.0104 0.030695-0.0129 0.088731 0.0226 0.11102-0.02 0.010977-0.0206-0.014839-0.0601 0-0.0807 0.010367-0.0142 0.079075-0.0268 0.10072-0.0303 0.031305-5e-3 0.063219 1e-3 0.080701-0.0102a0.091972 0.091972 0 0 0 0.040351-0.0807c-0.00203-0.0171-0.01677-0.0252-0.029984-0.0404-0.011282-0.0129-0.00305-0.0288-0.010367-0.0403-0.013823-0.0206-0.034557-0.0307-0.040351-0.0607 0.042282-8e-3 0.10042 0.0475 0.16136 0.0303 0.029069-8e-3 0.077449-0.0635 0.090967-0.0907 0.00407-8e-3 -0.00508-0.0403 0-0.0503 0.00508-0.0114 0.018092-0.0145 0.020023-0.0203 0.00407-0.0158-0.00305-0.0203 0-0.03 0.010672-0.03 0.042892-0.0491 0.060678-0.071 0.013213-0.0162 0.027748-0.0332 0.040351-0.0503 0.013823-0.0181 0.020633-0.0242 0.029984-0.04 0.00915-0.0536-0.032931-0.0945-0.020023-0.14135 0.013823-0.053 0.090357-0.0871 0.14101-0.11101 0.017787-8e-3 0.035777-0.0248 0.050718-0.03 0.035167-0.0126 0.077754-8e-3 0.11068-0.0203 0.05519-0.02 0.074197-0.0807 0.10103-0.13102 0.012908-0.0236 0.027747-0.0436 0.029984-0.0607 0.00305-0.0152-0.00305-0.0326 0-0.0503 0.00305-0.0174 0.00508-0.031 0.010367-0.0503a0.5131 0.5131 0 0 0 0.010164-0.10103c0-0.0233-0.010164-0.0291-0.010164-0.0503-0.00407-0.0761 0.022259-0.0794 0.050311-0.12102 0.014229-0.0206 0.020328-0.0558 0.03039-0.0706 0.047466-0.0703 0.12683-0.10488 0.12101-0.21169-0.00203-0.0355-0.014534-0.10973-0.040351-0.12102-0.014839-6e-3 -0.049092-2e-3 -0.070639-0.0102-0.069419-0.0258-0.1194-0.10519-0.19168-0.111-0.015144-6.5e-4 -0.023275 6.4e-4 -0.040351 0-0.028052-6.5e-4 -0.059052-0.0267-0.090662-0.0303-0.020023-2e-3 -0.058747 6e-3 -0.070639 0-0.018092-8e-3 -0.015449-0.0403-0.029984-0.0503-0.011993-8e-3 -0.03222-0.0135-0.050616-0.0203a0.24042 0.24042 0 0 0-0.080701-0.02c-0.010367-6.4e-4 -0.038724 2e-3 -0.050311 0-0.018092-3e-3 -0.033541-0.0197-0.050311-0.0303-0.021344-0.0129-0.03161-0.022-0.040351-0.0404 0.019311-0.0632-0.04777-0.0739-0.060678-0.11068-0.0061-0.0171 0.0061-0.0451 0-0.0607-0.00711-0.0216-0.026121-0.0322-0.050311-0.0503-0.041977-0.0329-0.080701-0.0629-0.14135-0.0706-0.026833-3e-3 -0.058138 2e-3 -0.090357 0a0.15715 0.15715 0 0 1-0.10103-0.0504c-0.0248-0.0291-0.029069-0.0571-0.050616-0.0706-0.020328-0.0129-0.056511-0.0168-0.070334-0.0303-0.0061-6e-3 -0.00407-0.0168-0.010367-0.03-0.010367-0.0213-0.032931-0.0249-0.020023-0.0506-0.02358-0.0116-0.015144 0.0148-0.040351 0.0104-0.022564-0.0322-0.039029-0.0503-0.090662-0.0407-0.02358 5e-3 -0.043298 0.0401-0.070639 0.0407-0.022564 6.4e-4 -0.040656-0.0365-0.070639-0.0407-0.022564-2e-3 -0.054885 0.0239-0.070334 0.0203-0.025511-4e-3 -0.027748-0.0352-0.050616-0.0503-0.01677-0.0113-0.051023-0.041-0.060374-0.0403-0.029374 6.5e-4 -0.050311 0.062-0.090967 0.0403-0.019718-0.0252 0.033846-0.0271 0.010367-0.0507-0.017787-0.0174-0.026426 9.8e-4 -0.040351 0.0104-0.016465 0.011-0.032321 0.0239-0.050718 0.03-0.040351 0.0154-0.069013 0.0139-0.10072 0.0303-0.029069 0.0154-0.033541 0.0407-0.050311 0.0706-0.013518 0.0245-0.040046 0.0594-0.060679 0.0607-0.024495 2e-3 -0.04838-0.031-0.070334-0.0407-0.067793-0.0291-0.10585 0.0197-0.16135 0.0203-0.051633 6.4e-4 -0.1236-0.0823-0.12102-0.13101 0.00203-0.03 0.016466-0.0742 0.020023-0.11102 0.00305-0.0291 0.029679-0.0536 0.030288-0.0807 6.505e-4 -0.0355-0.057426-0.0665-0.080701-0.0706-0.05519-0.0102-0.12909 0.0249-0.19169 0-0.011587-0.02 0.023275-0.031 0.030288-0.0503 0.00407-0.0113-0.00407-0.0181 0-0.0303 0.00711-0.0187 0.031305-0.0304 0.040351-0.0503 0.0061-0.0151 0.00305-0.042 0.010164-0.0607 0.00813-0.0209 0.028357-0.0349 0.03039-0.0503 0.00203-0.02-0.014534-0.0475-0.03039-0.0604a0.31432 0.31432 0 0 0-0.11101 0.02c-0.063219 0.0291-0.046754 0.11133-0.11068 0.13134-0.021954 7e-3 -0.056206 0.0162-0.080701 0.02a2.8754 2.8754 0 0 1 0.19141-0.60512c0.022564 4e-3 0.041266 0.0184 0.060678 0.0203 0.053869 4e-3 0.056105-0.0371 0.10072-0.0607 0.045839 6e-3 0.069419-4e-3 0.11101 0 0.028052 3e-3 0.068403 0.0387 0.090662 0.0403 0.018702 6.4e-4 0.022564-0.0233 0.040351-0.0203s0.047466 0.0396 0.050616 0.0607c0.00305 0.0264-0.017787 0.0516-0.010367 0.0807 0.027747 0.0281 0.081616 0.0442 0.12101 0.0607 0.025816-0.0213 0.00407-0.0703 0-0.10103-6.403e-4 -0.0135 0.00203-0.0281 0-0.0403-0.00305-0.0209-0.010164-0.0423-0.010164-0.0607 0-0.0838 0.064541-0.11812 0.12102-0.15104 0.02419-0.0142 0.049397-0.04 0.070639-0.0506 0.029679-0.0145 0.045839-0.0162 0.070334-0.03 0.044823-0.0252 0.086495-0.0519 0.12101-0.0807 0.016161-0.0381-0.00203-0.0836 0-0.12101 0.016161-0.0102 0.02358 2e-3 0.040351 0 0.027138-6e-3 0.035472-0.0452 0.050616-0.0607 0.00915-9e-3 0.039741-0.0113 0.050311-0.02 0.027138-0.0212 0.027138-0.0513 0.050311-0.0607 0.00813-3e-3 0.027443-6e-3 0.040351-0.0102 0.017787-5e-3 0.042587-0.0203 0.070639-0.0304 0.018092-6e-3 0.063626-3e-3 0.070639-0.0102 0.00915-9e-3 -0.00203-0.0471 0-0.0607 0.013823-0.0662 0.11199-0.0684 0.17136-0.0904 0.040961-0.0162 0.085174-0.0494 0.13101-0.0407-0.00915 0.0316-0.04777 0.0226-0.040351 0.0607 0.010164 0.0533 0.07196-0.0129 0.090967-0.0203 0.035472-0.0151 0.10423-0.0233 0.15103-0.0403 0.041265-0.0145 0.1094-0.0433 0.070639-0.0907-0.032321-2e-3 -0.042282 0.0288-0.070639 0.0403-0.019311 3e-3 -0.023885-9e-3 -0.040351-0.0102-0.015856-6.5e-4 -0.024495 0.0129-0.040351 0.0102-0.015856-3e-3 -0.03781-0.0316-0.040351-0.0503-0.0061-0.0494 0.050616-0.0645 0.070639-0.10103-0.013518-0.0445-0.073282-3e-3 -0.11102-0.02 0.00407-0.0264 0.019312-0.0552 0.050616-0.0607a0.19944 0.19944 0 0 1 0.10072 0.0203c0.00915 7e-3 -0.00305 0.0277 0.010164 0.0403 0.015449 0.0135 0.040656 3e-3 0.060678 0 0.00711-0.0335-0.046144-0.0187-0.040351-0.0403 0.039741-0.0258 0.11263-0.0139 0.16135-0.0203 0.028052-4e-3 0.055495-0.0268 0.080701-0.0403 0.023275-0.0135 0.045839-0.0322 0.070334-0.0102 0.00711 0.0242-0.01677 0.0381-0.029984 0.0503-0.045229 0.04-0.085885 0.0849-0.12102 0.13133 0.021649 0.0209 0.054174 6e-3 0.090662 0.0102 0.014229 2e-3 0.035472 8e-3 0.050311 0.0104 0.017787 3e-3 0.036488-3e-3 0.050616 0 0.024495 6e-3 0.025816 0.0404 0.050311 0.0404 0.039741 0 0.042892-0.0335 0.020023-0.0607 0.00711-0.0275 0.020328-0.051 0.010367-0.0703-0.018397-0.0365-0.087105 6e-3 -0.090967-0.0403-0.00203-0.0294 0.029984-0.0384 0.040351-0.0607-0.00407-0.0562 0.046144-0.0597 0.040351-0.11069-0.00305-0.0212-0.025816-0.0206-0.040351-0.0404-0.00711-0.0107-0.011282-0.0329-0.020023-0.0403-0.030695-0.0258-0.087105-0.0216-0.090967-0.0711-0.00203-0.0291 0.00407-0.0487 0-0.0807-0.00407-0.0297-0.034557-0.11488-0.060374-0.12069-0.032931-7e-3 -0.051633 0.0522-0.090662 0.0703a0.15909 0.15909 0 0 1-0.080701 0.0104c-0.014229-3e-3 -0.038724-0.0135-0.040351-0.0404-0.00203-0.0154 0.00305-0.0209 0.010164-0.0303 0.00203-2e-3 -0.00203-8e-3 0-0.0102a2.927 2.927 0 0 1 0.80677-0.11102zm-1.2002 0.26236c-0.028357 0.0917-0.11133 0.14392-0.2217 0.14102-0.027138 0.0258-0.015856 0.0752-0.03039 0.11102a0.089067 0.089067 0 0 1-0.080701 0.0503c-0.021649-2e-3 -0.060678-0.03-0.060678-0.0503 0-0.0168 0.016161-0.0358 0.020328-0.0506a2.8798 2.8798 0 0 1 0.37305-0.20169zm2.4709 0.10073a0.088422 0.088422 0 0 0-0.030288 0.0102c-0.022564 0.0135-0.02358 0.0338-0.040351 0.0403-0.02419 9e-3 -0.057121 9e-3 -0.060678 0.0303-0.00305 0.0181 0.020938 0.0239 0.020328 0.0403-0.00915 0.0217-0.025816 0.0239-0.030288 0.0503 0.029984 0.0487 0.10424 6.5e-4 0.14135-0.0102 0.016161-5e-3 0.031305 3e-3 0.040046-0.0102 0.010164-0.0162 0.00203-0.0484 0.010367-0.0706 0.00813-0.0245 0.033236-0.0187 0.029984-0.0403-0.00203-0.0216-0.044213-0.0439-0.080701-0.0403zm-3.1971 0.37304c0.021649 0.0258 0.039741 0.0639 0 0.0807-0.0061 3e-3 -0.076433 0.0129-0.090662 0.0104-0.00407-6.4e-4 -0.0061-7e-3 -0.010164-0.0104 0.030695-0.03 0.068708-0.0519 0.10072-0.0807zm0.080701 0.10103c0.014229 6.4e-4 0.023885 0.0291 0.040351 0.03 0.016161 2e-3 0.040961-0.0129 0.050718-0.0102 0.024495 6e-3 0.033541 0.0522 0.010164 0.0703-0.019311 2e-3 -0.025816-0.0233-0.040046-0.0203-0.040046 7e-3 -0.051023 0.0832-0.080701 0.0807-0.028357-3e-3 -0.049092-0.0601-0.020328-0.0807 6.404e-4 -0.0174-0.011282-0.0226-0.010164-0.0403 0.00915-0.011 0.026731-0.0319 0.050311-0.03zm-0.13101 0.02c0.00813 0 0.00711-3e-3 0.010164 0-0.00407 0.0313-0.016161 0.0358-0.040351 0.0506a0.16522 0.16522 0 0 0-0.080701 0.11069c-0.00407 0.0162-0.050616 0.0645-0.070334 0.0607-0.046449-0.0102 0.019311-0.0975 0.029984-0.11102 0.011993-0.0148 0.026833-0.0239 0.040351-0.0403 0.013518-0.0162 0.017482-0.051 0.03039-0.0607 0.014229-0.0102 0.056105-0.011 0.080701-0.0102zm3.9735 0.0807c0.04614-3e-3 0.06942 0.0525 0.09036 0.0807 0.01779 0.0229 0.07226 0.0549 0.10103 0.0706 0.01647 9e-3 0.03232 0.022 0.05072 0.0304 0.01901 8e-3 0.04777 0.0193 0.07033 0.0404 0.02256 0.0206 0.03974 0.0516 0.04035 0.0703 6.5e-4 0.019-0.01291 0.0329-0.01016 0.0506 0.02033 3e-3 0.031-0.0175 0.04035-0.0403 0.07613 0.10842 0.14071 0.22428 0.20169 0.34271a0.038079 0.038079 0 0 0-0.02033 0.0304c-0.0061 0.0329 0.01931 0.0749-0.02998 0.0807-0.0313 4e-3 -0.0681-0.031-0.11102-0.0404-0.01738-4e-3 -0.04645 4e-3 -0.06068 0-0.03222-0.0113-0.02256-0.0513-0.05031-0.0706a0.2259 0.2259 0 0 0-0.0807-0.03c-0.01586-2e-3 -0.02388 2e-3 -0.04035 0-0.02002-3e-3 -0.05417 0-0.07033-0.0104-0.01616-0.0102-0.05651-0.0268-0.06068-0.0404-0.0061-0.0216 0.0494-0.0522 0.05031-0.0703 1e-3 -0.0142-0.01708-0.0193-0.02002-0.0407-2e-3 -0.0129 3e-3 -0.0319 0-0.04-0.0041-0.0154-0.02643-0.0297-0.05062-0.0303-0.02094 0-0.04198 0.0102-0.06037 0.0102-0.02582 6.5e-4 -0.07877-0.0129-0.11101-0.0102-0.01931 2e-3 -0.03222 9e-3 -0.05031 0.0102-0.05102 4e-3 -0.08101-3e-3 -0.12102 0-0.02907 2e-3 -0.08385 0.0181-0.11101 0.0303-0.01352 6e-3 -0.02256 0.0212-0.04035 0.03-0.0081 4e-3 -0.01931 5e-3 -0.029983 0.0104-0.016466 7e-3 -0.044823 0.0258-0.060678 0.03-0.022564 6e-3 -0.049092-2e-3 -0.090662 0-0.029984 2e-3 -0.07999-4e-3 -0.080701-0.0401-6.403e-4 -0.0549 0.099708-0.031 0.15104-0.0407 0.019311-4e-3 0.027138-0.0268 0.050616-0.04 0.010977-6e-3 0.019311-0.0132 0.029984-0.0203 0.017787-0.0123 0.047771-0.0365 0.050617-0.0503 2e-3 -0.0129-0.01189-0.031-0.01037-0.0403 2e-3 -0.0123 0.02449-0.0245 0.04066-0.0403 0.02449-0.0248 0.04005-0.0549 0.07033-0.0706 0.02063-0.0113 0.06129-0.0138 0.07064-0.0303 2e-3 -0.0187-6.5e-4 -0.0233 0-0.0403 0.01291-0.0116 0.0091-0.0178 0.02033-0.02 0.03161-7e-3 0.06363 0.0119 0.10072 0.0102 0.01616-6.4e-4 0.03354 1e-3 0.05031-0.0102 0.01423-0.0102 0.02643-0.0233 0.04035-0.0303 0.01545-8e-3 0.03161-0.0291 0.05062-0.0304zm-3.7015 0.0304c0.00813-1e-3 0.020938 9.6e-4 0.030695 0 0.013213-6.6e-4 0.025816 0 0.040351 0 0.014534 0 0.034252-6e-3 0.040351 0-0.010164 0.0387-0.10072 0.0242-0.13134 0.0102 9.655e-4 -7e-3 0.012603-9e-3 0.020328-0.0102zm-0.11068 0.0706c0.010164 0 0.019718-4e-3 0.03039 0-0.027138 0.0226-0.064236 0.0355-0.11102 0.0503-0.022564 7e-3 -0.056511 0.0145-0.060678-0.0102-0.00407-0.0307 0.020633-0.0274 0.040351-0.0303 0.025816-3e-3 0.071046-0.0102 0.10103-0.0102zm3.8221 0c-0.01931 6e-3 -0.02907 0.0452 0 0.0503 0.01352-8e-3 0.01352-0.0258 0.01016-0.0503-0.0081-8e-3 -0.0041-2e-3 -0.01016 0zm-0.01037 0.0807c-0.0091 3e-3 -0.02002-6.5e-4 -0.02998 0.0102 6.51e-4 0.0329 0.0061 0.0516 0 0.0807 0.0187 0.0365 0.06129 0.0145 0.07034-0.0102 0.01138-0.0613-0.01199-0.0884-0.04005-0.0807zm0.25236 0.16135a0.086809 0.086809 0 0 0-0.06068 0.02c0.02195 0.0355 0.06231 0.042 0.11101 0.0506 0.01748-0.0129 0.01199-0.0484 0.02033-0.071-0.02124 0-0.03486 2e-3 -0.06068 0h-0.01016zm-5.123 1.2401c0.020633 0.0264 0.042892 0.0571 0.070334 0.0711 0.014839 7e-3 0.031915 6e-3 0.050616 0.0102 0.015144 3e-3 0.025816 0.0159 0.040351 0.0203 0.031 0.0107 0.076128 9e-3 0.10072 0.0203 0.037708 0.0162 0.058442 0.0819 0.090967 0.10072 0.00203 0.0187-0.0061 0.0365 0 0.0503 0.015144 0.0206 0.045839 0.0268 0.070334 0.0404 0.029984 0.0165 0.042587 0.0577 0.070639 0.0706 0.010164 4e-3 0.025206-4e-3 0.040351 0 0.038725 0.0116 0.047161 0.0703 0.080701 0.0607 0.021649-6e-3 0.026731-0.0396 0.030288-0.0607 0.014534-0.0162 0.027443-0.0404 0.050311-0.0404 0.036488-6.5e-4 0.047161 0.0452 0.060678 0.0807 0.00711 0.02 0.024902 0.0393 0.029984 0.0607a0.52924 0.52924 0 0 1 0 0.16137c-0.00915 0.0268-0.04838 0.041-0.070334 0.0703-0.010672 0.0142-0.022259 0.031-0.030288 0.0403-0.01423 0.0178-0.029679 0.0245-0.040351 0.0404-0.0061 9e-3 -0.00508 0.028-0.010367 0.0403-0.01738 0.0377-0.044823 0.0659-0.029984 0.11101 0.0061 0.0181 0.029984 0.0387 0.029984 0.0607 0 0.0258-0.056105 0.0323-0.060373 0.0604-0.00305 0.0206 0.023885 0.0632 0.03039 0.0907 0.00407 0.0206 0.038115 0.0371 0.050311 0.0506 0.020633 0.0226 0.041977 0.0513 0.060679 0.0807 0.036793 0.0568 0.054174 0.12586 0.090357 0.18137 0.019311 0.0291 0.058137 0.05 0.071046 0.0807 0.0061 0.0151-0.0061 0.0465 0 0.0607 0.020938 0.0475 0.12359 0.0975 0.17103 0.1207 0.022564 0.0114 0.040351 0.0187 0.060678 0.0303 0.031305 0.0178 0.095236 0.0533 0.11102 0.0807 0.014229 0.0248 0.023275 0.0816 0.030288 0.12101 0.00915 0.0516-0.00203 0.0955 0 0.15135 0.00203 0.0303 0.010164 0.05 0.010164 0.0807 0 0.0106 6.505e-4 0.0297 0 0.0403-6.404e-4 0.0365 0.00305 0.0742 0 0.11101a0.42017 0.42017 0 0 0 0 0.0604c0.00203 0.0184 0.019006 0.0245 0.020328 0.0403 0.00102 0.0171-0.022259 0.0371-0.020328 0.0507 0.00407 0.0368 0.043298 0.0668 0.050311 0.10073 0.0061 0.0271 0.013518 0.0887 0.010367 0.12102-0.00305 0.0171-0.00813 0.042-0.010367 0.0607-0.00203 0.0145 0.00203 0.0268 0 0.04-0.80386-0.5163-1.3411-1.4134-1.3411-2.4404 0-0.13167 0.013213-0.25623 0.030288-0.38337zm1.1091 0.2927c0.028357-0.0129 0.022869 0.0368 0 0.0404-0.021649 3e-3 -0.020938-0.0303 0-0.0404z" color="#000000" opacity=".25" stroke-width=".3227"/>
 <path d="m8.4863 6.34c-0.11165 0-0.22396 9e-3 -0.33272 0.0203a3.1625 3.1625 0 0 0-0.62541 0.12101 3.2416 3.2416 0 0 0-2.1276 2.1276 3.1625 3.1625 0 0 0-0.12101 0.62541 3.2368 3.2368 0 0 0-0.020328 0.33271c0 0.11165 0.00915 0.22397 0.020328 0.33272a3.1625 3.1625 0 0 0 0.12101 0.6254 3.2416 3.2416 0 0 0 2.1276 2.1276 3.1625 3.1625 0 0 0 0.62541 0.12134c0.10875 0.011 0.22105 0.02 0.33272 0.02s0.22396-9e-3 0.33272-0.0203a3.1625 3.1625 0 0 0 0.62541-0.12069 3.2965 3.2965 0 0 0 0.58474-0.25236 3.2212 3.2212 0 0 0 1.5433-1.8756 3.1625 3.1625 0 0 0 0.12069-0.6254c0.01138-0.10875 0.02033-0.22106 0.02033-0.33272 0-0.11132-0.0091-0.22428-0.02033-0.33271a3.1625 3.1625 0 0 0-0.12069-0.62541 3.2497 3.2497 0 0 0-0.59508-1.0991c-0.06586-0.0797-0.13876-0.14876-0.21201-0.22203-0.29141-0.2914-0.63218-0.53278-1.0184-0.69576a3.3439 3.3439 0 0 0-0.30238-0.11069 3.1625 3.1625 0 0 0-0.62541-0.12101 3.3284 3.3284 0 0 0-0.33272-0.0203zm0 0.32269c0.48825 0 0.94747 0.11973 1.3515 0.33271 0.010672 6e-3 0.019413 0.0145 0.029984 0.0203 0.00813 0.0107 0.0061 0.0223 0.020328 0.03 0.010367 6e-3 0.020328 0.0151 0.029984 0.0203 0.017075 0.0102 0.033846 0.0239 0.030288 0.0403-0.00407 0.0242-0.043908 0.0226-0.060374 0.0404 0.00203 0.0338-0.011587 0.0274-0.020328 0.0503 0.00508 0.0148 0.018092 0.0129 0.020328 0.0304-0.00305 0.0187-0.027442 0.0209-0.020328 0.0403 0.03161 0.0245 0.060983 4e-3 0.090967 0 0.065455-8e-3 0.1207 1e-3 0.16136-0.0303-0.0041-0.0252 0.01931-0.0322 0.02998-0.0503 0.02165 0.0151 0.03974 0.0349 0.06068 0.0503-0.0123 5e-3 -0.03933 0.0132-0.05062 0.0203-0.01616 0.011-0.02134 0.0281-0.04004 0.0403-0.01352 9e-3 -0.04645 0.0403-0.06068 0.0403-0.01708 0-0.04838-0.0142-0.060678-0.0104-0.01738 5e-3 -0.010367 0.0335-0.029984 0.0403-0.038725 0.0142-0.10746-0.0377-0.12101 0.0203 0.016161 0.0335 0.07135 0.0223 0.10072 0.0403 0.018397 0.0116 0.045839 0.0711 0.050718 0.0907a0.23654 0.23654 0 0 1 0 0.091c-0.018397 0.0468-0.067082 0.0413-0.12134 0.0403-0.014534 0-0.026833 1e-3 -0.040046 0-0.090967-6e-3 -0.18072-0.0349-0.22203 0.03 0.00305 0.05 0.011282 0.0774 0 0.12101-0.00813 0.0316-0.041977 0.0533-0.040351 0.0807 6.505e-4 0.0142 0.026833 0.0413 0.030288 0.0607 0.00203 0.0104-0.00508 0.031 0 0.0403 0.015144 0.0288 0.053564-5e-3 0.080701 0 0.025816 4e-3 0.050311 0.042 0.050311 0.0703a0.18427 0.18427 0 0 1-0.020328 0.0807c-0.025816 0.0387-0.073892 0.0294-0.1107 0.0506-0.030695 0.0174-0.042282 0.0601-0.060678 0.0907-0.019413 0.0329-0.037708 0.0439-0.029984 0.0907a0.21783 0.21783 0 0 1-0.11101 0.11101 0.31883 0.31883 0 0 0-0.050616 0.0304 0.25559 0.25559 0 0 0-0.040046 0.0403c-0.020633 0.0226-0.049397 0.0326-0.060678 0.0503-0.00813 0.0135-0.00102 0.0423-0.010164 0.0607-0.012908 0.0245-0.034252 0.0458-0.050616 0.0703-0.00711 0.0119-0.021954 0.0252-0.029984 0.0404-0.018702 0.0342-0.043908 0.061-0.040351 0.091 0.00305 0.0288 0.038724 0.0352 0.040351 0.0604 0.00203 0.0142-0.010672 0.0252-0.010367 0.0403 9.655e-4 0.0226 0.00813 0.0329 0.010367 0.0503 0.00407 0.0436-0.022259 0.061-0.03039 0.091-0.00407 0.0139 0.00305 0.0291 0 0.04-0.00711 0.022-0.039741 0.0349-0.040351 0.0607-6.505e-4 0.0181 0.028357 0.0349 0.030288 0.0607 0.00102 0.0175-0.013518 0.0338-0.010367 0.0503 0.0061 0.0316 0.066167 0.0761 0.090967 0.10072 0.033236 0.0335 0.065862 0.0555 0.080701 0.091 0.012298 0.0297 0.01738 0.0785 0.040351 0.10072 0.01677 0.0162 0.048685 0.0233 0.070334 0.0404 0.020633 0.0162 0.049092 0.0233 0.071046 0.0404 0.035472 0.028 0.083852 0.0849 0.14102 0.0807 0.029679-2e-3 0.057121-0.0142 0.090662-0.0203 0.034557-6e-3 0.075823-0.0236 0.11101-0.02 0.026833 3e-3 0.052242 0.022 0.080701 0.0203 0.029069-2e-3 0.067488-0.0159 0.10072-0.0303 0.058137-0.0252 0.14748-0.073 0.23203-0.0607 0.06454 0.0102 0.06586 0.0823 0.11101 0.11101 0.05163 4e-3 0.09005-0.0102 0.13101 0 0.031 8e-3 0.06779 0.0662 0.07064 0.0907 3e-3 0.0252-0.01677 0.0448-0.02033 0.0607-0.0081 0.0338-0.01423 0.0791-0.02002 0.10072-0.0051 0.0171-0.01057 0.0335-0.01037 0.0506 0 0.0151 0.02449 0.0503 0.04066 0.0703 0.01941 0.0248 0.04716 0.0436 0.07033 0.0706 0.04289 0.0494 0.06098 0.11619 0.09097 0.18169 0.0071 0.0162-0.0071 0.0193 0 0.0401-0.01291 0.0987-0.04645 0.16328-0.111 0.27236-0.03069 0.0355-0.06129 0.0771-0.06068 0.12101-2e-3 0.10552 0.05519 0.16007 0.05072 0.26236-0.01067 0.13715 3.15e-4 0.15845-0.01037 0.2317 0.04645 0.0236 0.02358 0.0926 0.01037 0.14135-0.02002 0.058-0.03944 0.0723-0.05072 0.11101a0.12908 0.12908 0 0 0 0.07064 0.0102 2.9021 2.9021 0 0 1-2.0976 0.88745 2.8988 2.8988 0 0 1-1.0891-0.2117c-9.656e-4 -6.4e-4 9.757e-4 -0.0102 0-0.0104 0.030695-0.0129 0.088731 0.0226 0.11102-0.02 0.010977-0.0206-0.014839-0.0601 0-0.0807 0.010367-0.0142 0.079075-0.0268 0.10072-0.0303 0.031305-5e-3 0.063219 1e-3 0.080701-0.0102a0.091972 0.091972 0 0 0 0.040351-0.0807c-0.00203-0.0171-0.01677-0.0252-0.029984-0.0404-0.011282-0.0129-0.00305-0.0288-0.010367-0.0403-0.013823-0.0206-0.034557-0.0307-0.040351-0.0607 0.042282-8e-3 0.10042 0.0475 0.16136 0.0303 0.029069-8e-3 0.077449-0.0635 0.090967-0.0907 0.00407-8e-3 -0.00508-0.0404 0-0.0503 0.00508-0.0114 0.018092-0.0145 0.020023-0.0203 0.00407-0.0158-0.00305-0.0203 0-0.03 0.010672-0.03 0.042892-0.0491 0.060678-0.071 0.013213-0.0162 0.027748-0.0332 0.040351-0.0503 0.013823-0.0181 0.020633-0.0242 0.029984-0.0401 0.00915-0.0536-0.032931-0.0945-0.020023-0.14133 0.013823-0.053 0.090357-0.0871 0.14101-0.11102 0.017787-8e-3 0.035777-0.0248 0.050718-0.03 0.035167-0.0126 0.077754-8e-3 0.11068-0.0203 0.05519-0.02 0.074197-0.0807 0.10103-0.13101 0.012908-0.0236 0.027747-0.0436 0.029984-0.0607 0.00305-0.0151-0.00305-0.0326 0-0.0503 0.00305-0.0174 0.00508-0.031 0.010367-0.0503a0.5131 0.5131 0 0 0 0.010164-0.10103c0-0.0233-0.010164-0.0291-0.010164-0.0503-0.00407-0.0761 0.022259-0.0794 0.050311-0.12101 0.014229-0.0206 0.020328-0.0558 0.03039-0.0706 0.047466-0.0703 0.12683-0.10488 0.12101-0.21169-0.00203-0.0355-0.014534-0.10972-0.040351-0.12103-0.014839-6e-3 -0.049092-2e-3 -0.070639-0.0102-0.069419-0.0258-0.1194-0.1052-0.19168-0.111-0.015144-6.4e-4 -0.023275 6.5e-4 -0.040351 0-0.028052-6.4e-4 -0.059052-0.0268-0.090662-0.0303-0.020023-2e-3 -0.058747 6e-3 -0.070639 0-0.018092-8e-3 -0.015449-0.0403-0.029984-0.0503-0.011993-8e-3 -0.03222-0.0135-0.050616-0.0203a0.24042 0.24042 0 0 0-0.080701-0.02c-0.010367-6.5e-4 -0.038724 2e-3 -0.050311 0-0.018092-3e-3 -0.033541-0.0197-0.050311-0.0303-0.021344-0.0129-0.03161-0.022-0.040351-0.0403 0.019311-0.0632-0.04777-0.0739-0.060678-0.11069-0.0061-0.0171 0.0061-0.0452 0-0.0607-0.00711-0.0217-0.026121-0.0322-0.050311-0.0503-0.041977-0.0329-0.080701-0.0629-0.14135-0.0706-0.026833-3e-3 -0.058138 2e-3 -0.090357 0a0.15715 0.15715 0 0 1-0.10103-0.0504c-0.0248-0.0291-0.029069-0.0571-0.050616-0.0706-0.020328-0.0129-0.056511-0.0168-0.070334-0.0304-0.0061-6e-3 -0.00407-0.0168-0.010367-0.03-0.010367-0.0213-0.032931-0.0249-0.020023-0.0506-0.02358-0.0116-0.015144 0.0148-0.040351 0.0104-0.022564-0.0322-0.039029-0.0503-0.090662-0.0406-0.02358 5e-3 -0.043298 0.04-0.070639 0.0406-0.022564 6.5e-4 -0.040656-0.0365-0.070639-0.0406-0.022564-3e-3 -0.054885 0.0239-0.070334 0.0203-0.025511-4e-3 -0.027748-0.0352-0.050616-0.0503-0.01677-0.0113-0.051023-0.041-0.060374-0.0403-0.029374 6.5e-4 -0.050311 0.062-0.090967 0.0403-0.019718-0.0252 0.033846-0.0271 0.010367-0.0506-0.017787-0.0174-0.026426 9.6e-4 -0.040351 0.0104-0.016465 0.011-0.032321 0.0239-0.050718 0.03-0.040351 0.0154-0.069013 0.0139-0.10072 0.0304-0.029069 0.0154-0.033541 0.0406-0.050311 0.0706-0.013518 0.0245-0.040046 0.0594-0.060679 0.0607-0.024495 2e-3 -0.04838-0.031-0.070334-0.0407-0.067793-0.0291-0.10585 0.0197-0.16135 0.0203-0.051633 6.4e-4 -0.1236-0.0823-0.12102-0.13102 0.00203-0.03 0.016466-0.0742 0.020023-0.11102 0.00305-0.0291 0.029679-0.0536 0.030288-0.0807 6.505e-4 -0.0355-0.057426-0.0665-0.080701-0.0706-0.05519-0.0102-0.12909 0.0249-0.19169 0-0.011587-0.02 0.023275-0.031 0.030288-0.0503 0.00407-0.0113-0.00407-0.0181 0-0.0303 0.00711-0.0187 0.031305-0.0304 0.040351-0.0503 0.0061-0.0151 0.00305-0.042 0.010164-0.0607 0.00813-0.0209 0.028357-0.0349 0.03039-0.0503 0.00203-0.02-0.014534-0.0475-0.03039-0.0604a0.31432 0.31432 0 0 0-0.11101 0.02c-0.063219 0.0291-0.046754 0.11133-0.11068 0.13134-0.021954 7e-3 -0.056206 0.0162-0.080701 0.02a2.8754 2.8754 0 0 1 0.19141-0.60513c0.022564 4e-3 0.041266 0.0184 0.060678 0.0203 0.053869 4e-3 0.056105-0.0371 0.10072-0.0607 0.045839 6e-3 0.069419-4e-3 0.11101 0 0.028052 3e-3 0.068403 0.0387 0.090662 0.0403 0.018702 6.5e-4 0.022564-0.0233 0.040351-0.0203s0.047466 0.0397 0.050616 0.0607c0.00305 0.0264-0.017787 0.0516-0.010367 0.0807 0.027747 0.0281 0.081616 0.0442 0.12101 0.0607 0.025816-0.0212 0.00407-0.0703 0-0.10103-6.403e-4 -0.0135 0.00203-0.0281 0-0.0403-0.00305-0.0209-0.010164-0.0423-0.010164-0.0607 0-0.0839 0.064541-0.11812 0.12102-0.15104 0.02419-0.0142 0.049397-0.04 0.070639-0.0506 0.029679-0.0145 0.045839-0.0162 0.070334-0.03 0.044823-0.0252 0.086495-0.0519 0.12101-0.0807 0.016161-0.0381-0.00203-0.0836 0-0.12101 0.016161-0.0102 0.02358 2e-3 0.040351 0 0.027138-6e-3 0.035472-0.0452 0.050616-0.0607 0.00915-9e-3 0.039741-0.0113 0.050311-0.02 0.027138-0.0212 0.027138-0.0513 0.050311-0.0607 0.00813-3e-3 0.027443-6e-3 0.040351-0.0102 0.017787-5e-3 0.042587-0.0203 0.070639-0.0304 0.018092-6e-3 0.063626-3e-3 0.070639-0.0102 0.00915-9e-3 -0.00203-0.0471 0-0.0607 0.013823-0.0662 0.11199-0.0684 0.17136-0.0904 0.040961-0.0162 0.085174-0.0494 0.13101-0.0407-0.00915 0.0316-0.04777 0.0226-0.040351 0.0607 0.010164 0.0533 0.07196-0.0129 0.090967-0.0203 0.035472-0.0151 0.10423-0.0233 0.15103-0.0403 0.041265-0.0145 0.1094-0.0433 0.070639-0.0907-0.032321-2e-3 -0.042282 0.0288-0.070639 0.0403-0.019311 3e-3 -0.023885-9e-3 -0.040351-0.0102-0.015856-6.6e-4 -0.024495 0.0129-0.040351 0.0102-0.015856-3e-3 -0.03781-0.0316-0.040351-0.0503-0.0061-0.0494 0.050616-0.0645 0.070639-0.10103-0.013518-0.0445-0.073282-3e-3 -0.11102-0.02 0.00407-0.0264 0.019312-0.0552 0.050616-0.0607a0.19944 0.19944 0 0 1 0.10072 0.0203c0.00915 7e-3 -0.00305 0.0278 0.010164 0.0404 0.015449 0.0135 0.040656 3e-3 0.060678 0 0.00711-0.0335-0.046144-0.0187-0.040351-0.0404 0.039741-0.0258 0.11263-0.0139 0.16135-0.0203 0.028052-4e-3 0.055495-0.0268 0.080701-0.0403 0.023275-0.0135 0.045839-0.0323 0.070334-0.0102 0.00711 0.0242-0.01677 0.0381-0.029984 0.0503-0.045229 0.0401-0.085885 0.0849-0.12102 0.13134 0.021649 0.0209 0.054174 6e-3 0.090662 0.0102 0.014229 2e-3 0.035472 8e-3 0.050311 0.0104 0.017787 3e-3 0.036488-3e-3 0.050616 0 0.024495 6e-3 0.025816 0.0403 0.050311 0.0403 0.039741 0 0.042892-0.0335 0.020023-0.0607 0.00711-0.0274 0.020328-0.051 0.010367-0.0703-0.018397-0.0365-0.087105 6e-3 -0.090967-0.0403-0.00203-0.0294 0.029984-0.0384 0.040351-0.0607-0.00407-0.0562 0.046144-0.0597 0.040351-0.11069-0.00305-0.0212-0.025816-0.0206-0.040351-0.0403-0.00711-0.0107-0.011282-0.0329-0.020023-0.0403-0.030695-0.0258-0.087105-0.0217-0.090967-0.0711-0.00203-0.0291 0.00407-0.0487 0-0.0807-0.00407-0.0297-0.034557-0.11488-0.060374-0.12069-0.032931-7e-3 -0.051633 0.0522-0.090662 0.0703a0.15909 0.15909 0 0 1-0.080701 0.0104c-0.014229-3e-3 -0.038724-0.0135-0.040351-0.0404-0.00203-0.0154 0.00305-0.0209 0.010164-0.0303 0.00203-2e-3 -0.00203-8e-3 0-0.0102a2.927 2.927 0 0 1 0.80677-0.11102zm-1.2002 0.26236c-0.028357 0.0917-0.11133 0.14393-0.2217 0.14102-0.027138 0.0258-0.015856 0.0752-0.03039 0.11101a0.089067 0.089067 0 0 1-0.080701 0.0503c-0.021649-2e-3 -0.060678-0.03-0.060678-0.0503 0-0.0168 0.016161-0.0358 0.020328-0.0506a2.8798 2.8798 0 0 1 0.37305-0.20168zm2.4709 0.10072a0.088422 0.088422 0 0 0-0.030288 0.0102c-0.022564 0.0135-0.02358 0.0338-0.040351 0.0403-0.02419 9e-3 -0.057121 9e-3 -0.060678 0.0304-0.00305 0.0181 0.020938 0.0239 0.020328 0.0403-0.00915 0.0217-0.025816 0.0239-0.030288 0.0503 0.029984 0.0487 0.10424 6.5e-4 0.14135-0.0102 0.016161-5e-3 0.031305 3e-3 0.040046-0.0102 0.010164-0.0162 0.00203-0.0484 0.010367-0.0706 0.00813-0.0245 0.033236-0.0187 0.029984-0.0403-0.00203-0.0217-0.044213-0.0439-0.080701-0.0403zm-3.1971 0.37305c0.021649 0.0258 0.039741 0.0639 0 0.0807-0.0061 3e-3 -0.076433 0.0129-0.090662 0.0104-0.00407-6.4e-4 -0.0061-7e-3 -0.010164-0.0104 0.030695-0.03 0.068708-0.0519 0.10072-0.0807zm0.080701 0.10103c0.014229 6.5e-4 0.023885 0.0291 0.040351 0.03 0.016161 2e-3 0.040961-0.0129 0.050718-0.0102 0.024495 6e-3 0.033541 0.0522 0.010164 0.0703-0.019311 2e-3 -0.025816-0.0233-0.040046-0.0203-0.040046 7e-3 -0.051023 0.0832-0.080701 0.0807-0.028357-3e-3 -0.049092-0.0601-0.020328-0.0807 6.404e-4 -0.0174-0.011282-0.0226-0.010164-0.0404 0.00915-0.011 0.026731-0.0319 0.050311-0.03zm-0.13101 0.02c0.00813 0 0.00711-3e-3 0.010164 0-0.00407 0.0313-0.016161 0.0358-0.040351 0.0506a0.16522 0.16522 0 0 0-0.080701 0.11068c-0.00407 0.0162-0.050616 0.0645-0.070334 0.0607-0.046449-0.0102 0.019311-0.0975 0.029984-0.11101 0.011993-0.0148 0.026833-0.0239 0.040351-0.0403 0.013518-0.0162 0.017482-0.051 0.03039-0.0607 0.014229-0.0102 0.056105-0.011 0.080701-0.0102zm3.9735 0.0807c0.04614-3e-3 0.06942 0.0527 0.09036 0.0807 0.01779 0.0229 0.07226 0.0549 0.10103 0.0706 0.01647 9e-3 0.03232 0.022 0.05072 0.0304 0.01901 8e-3 0.04777 0.0193 0.07033 0.0403 0.02256 0.0206 0.03974 0.0516 0.04035 0.0703 6.5e-4 0.019-0.01291 0.0329-0.01016 0.0506 0.02033 3e-3 0.031-0.0174 0.04035-0.0404 0.07613 0.10844 0.14071 0.22429 0.20169 0.34272a0.038079 0.038079 0 0 0-0.02033 0.0304c-0.0061 0.0329 0.01931 0.0749-0.02998 0.0807-0.0313 4e-3 -0.0681-0.031-0.11102-0.0403-0.01738-4e-3 -0.04645 4e-3 -0.06068 0-0.03222-0.0113-0.02256-0.0513-0.05031-0.0706a0.2259 0.2259 0 0 0-0.0807-0.03c-0.01586-2e-3 -0.02388 2e-3 -0.04035 0-0.02002-3e-3 -0.05417 0-0.07033-0.0104-0.01616-0.0102-0.05651-0.0268-0.06068-0.0403-0.0061-0.0217 0.0494-0.0522 0.05031-0.0703 1e-3 -0.0142-0.01708-0.0193-0.02002-0.0407-2e-3 -0.0129 3e-3 -0.0319 0-0.04-0.0041-0.0154-0.02643-0.0297-0.05062-0.0303-0.02094 0-0.04198 0.0102-0.06037 0.0102-0.02582 6.4e-4 -0.07877-0.0129-0.11101-0.0102-0.01931 2e-3 -0.03222 9e-3 -0.05031 0.0102-0.05102 4e-3 -0.08101-3e-3 -0.12102 0-0.02907 2e-3 -0.08385 0.0181-0.11101 0.0303-0.01352 6e-3 -0.02256 0.0213-0.04035 0.03-0.0081 4e-3 -0.01931 5e-3 -0.029983 0.0104-0.016466 7e-3 -0.044823 0.0258-0.060678 0.03-0.022564 6e-3 -0.049092-2e-3 -0.090662 0-0.029984 2e-3 -0.07999-4e-3 -0.080701-0.04-6.403e-4 -0.0549 0.099708-0.031 0.15104-0.0407 0.019311-4e-3 0.027138-0.0268 0.050616-0.04 0.010977-6e-3 0.019311-0.0132 0.029984-0.0203 0.017787-0.0123 0.047771-0.0365 0.050617-0.0503 2e-3 -0.0129-0.01189-0.031-0.01037-0.0403 2e-3 -0.0123 0.02449-0.0245 0.04066-0.0403 0.02449-0.0249 0.04005-0.0549 0.07033-0.0706 0.02063-0.0113 0.06129-0.0138 0.07064-0.0303 2e-3 -0.0187-6.5e-4 -0.0233 0-0.0403 0.01291-0.0116 0.0091-0.0178 0.02033-0.02 0.03161-7e-3 0.06363 0.0119 0.10072 0.0102 0.01616-6.4e-4 0.03354 1e-3 0.05031-0.0102 0.01423-0.0102 0.02643-0.0233 0.04035-0.0303 0.01545-8e-3 0.03161-0.0291 0.05062-0.0304zm-3.7015 0.0304c0.00813-1e-3 0.020938 9.7e-4 0.030695 0 0.013213-6.5e-4 0.025816 0 0.040351 0 0.014534 0 0.034252-6e-3 0.040351 0-0.010164 0.0387-0.10072 0.0242-0.13134 0.0102 9.655e-4 -7e-3 0.012603-9e-3 0.020328-0.0102zm-0.11068 0.0706c0.010164 0 0.019718-4e-3 0.03039 0-0.027138 0.0226-0.064236 0.0355-0.11102 0.0503-0.022564 7e-3 -0.056511 0.0145-0.060678-0.0102-0.00407-0.0307 0.020633-0.0274 0.040351-0.0303 0.025816-3e-3 0.071046-0.0102 0.10103-0.0102zm3.8221 0c-0.01931 6e-3 -0.02907 0.0452 0 0.0503 0.01352-8e-3 0.01352-0.0258 0.01016-0.0503-0.0081-8e-3 -0.0041-2e-3 -0.01016 0zm-0.01037 0.0807c-0.0091 3e-3 -0.02002-6.5e-4 -0.02998 0.0102 6.51e-4 0.0329 0.0061 0.0516 0 0.0807 0.0187 0.0365 0.06129 0.0145 0.07034-0.0102 0.01138-0.0613-0.01199-0.0884-0.04005-0.0807zm0.25236 0.16136a0.086809 0.086809 0 0 0-0.06068 0.02c0.02195 0.0355 0.06231 0.042 0.11101 0.0506 0.01748-0.0129 0.01199-0.0484 0.02033-0.071-0.02124 0-0.03486 2e-3 -0.06068 0h-0.01016zm-5.123 1.2401c0.020633 0.0264 0.042892 0.0571 0.070334 0.0711 0.014839 7e-3 0.031915 6e-3 0.050616 0.0102 0.015144 3e-3 0.025816 0.0159 0.040351 0.0203 0.031 0.0107 0.076128 9e-3 0.10072 0.0203 0.037708 0.0162 0.058442 0.0819 0.090967 0.10072 0.00203 0.0187-0.0061 0.0365 0 0.0503 0.015144 0.0206 0.045839 0.0267 0.070334 0.0403 0.029984 0.0165 0.042587 0.0577 0.070639 0.0706 0.010164 4e-3 0.025206-4e-3 0.040351 0 0.038725 0.0116 0.047161 0.0703 0.080701 0.0607 0.021649-6e-3 0.026731-0.0397 0.030288-0.0607 0.014534-0.0162 0.027443-0.0403 0.050311-0.0403 0.036488-6.4e-4 0.047161 0.0452 0.060678 0.0807 0.00711 0.02 0.024902 0.0393 0.029984 0.0607a0.52924 0.52924 0 0 1 0 0.16135c-0.00915 0.0268-0.04838 0.041-0.070334 0.0703-0.010672 0.0142-0.022259 0.031-0.030288 0.0403-0.01423 0.0178-0.029679 0.0245-0.040351 0.0403-0.0061 9e-3 -0.00508 0.0281-0.010367 0.0403-0.01738 0.0378-0.044823 0.0659-0.029984 0.11101 0.0061 0.0181 0.029984 0.0387 0.029984 0.0607 0 0.0258-0.056105 0.0322-0.060373 0.0604-0.00305 0.0206 0.023885 0.0632 0.03039 0.0907 0.00407 0.0206 0.038115 0.0371 0.050311 0.0507 0.020633 0.0226 0.041977 0.0513 0.060679 0.0807 0.036793 0.0568 0.054174 0.12585 0.090357 0.18137 0.019311 0.0291 0.058137 0.05 0.071046 0.0807 0.0061 0.0151-0.0061 0.0464 0 0.0607 0.020938 0.0475 0.12359 0.0975 0.17103 0.12069 0.022564 0.0114 0.040351 0.0187 0.060678 0.0303 0.031305 0.0178 0.095236 0.0533 0.11102 0.0807 0.014229 0.0248 0.023275 0.0816 0.030288 0.12102 0.00915 0.0516-0.00203 0.0955 0 0.15135 0.00203 0.0303 0.010164 0.05 0.010164 0.0807 0 0.0106 6.505e-4 0.0297 0 0.0403-6.404e-4 0.0365 0.00305 0.0742 0 0.11101a0.42017 0.42017 0 0 0 0 0.0604c0.00203 0.0184 0.019006 0.0245 0.020328 0.0403 0.00102 0.0171-0.022259 0.0371-0.020328 0.0507 0.00407 0.0368 0.043298 0.0668 0.050311 0.10073 0.0061 0.0271 0.013518 0.0887 0.010367 0.12101-0.00305 0.0171-0.00813 0.042-0.010367 0.0607-0.00203 0.0145 0.00203 0.0268 0 0.04-0.80386-0.51634-1.3411-1.4134-1.3411-2.4404 0-0.13166 0.013213-0.25622 0.030288-0.38337zm1.1091 0.2927c0.028357-0.0129 0.022869 0.0368 0 0.0403-0.021649 3e-3 -0.020938-0.0304 0-0.0403z" color="#000000" fill="#fff" stroke-width=".3227"/>
 <circle cx="-330.35" cy="-328.38" r="0" fill="#5e4aa6" stroke-width=".26458"/>
 <circle cx="-39.434" cy="6.44" r="0" fill="#5e4aa6" fill-rule="evenodd" stroke-width=".26458"/>
 <g transform="matrix(.35278 0 0 -.35278 71.72 253.14)">
  <g clip-path="url(#clipPath11292)">
   <g transform="translate(9.1685,1040.9)">
    <path d="m0 0 25.314 21.067-26.077 18.651c5.846 7.671 15.079 12.622 25.468 12.622 17.673 0 32-14.327 32-32s-14.327-32-32-32c-9.948 0-18.836 4.539-24.705 11.66m27.349 31.812c2.835 0 5.132 2.297 5.132 5.132 0 2.834-2.297 5.132-5.132 5.132-2.834 0-5.132-2.298-5.132-5.132 0-2.835 2.298-5.132 5.132-5.132" fill="#fff" fill-rule="evenodd"/>
   </g>
  </g>
 </g>
 <g transform="matrix(.35278 0 0 -.35278 71.72 253.14)">
  <g clip-path="url(#clipPath11456)">
   <g transform="translate(194.25,1130.3)">
    <path d="m0 0c20.173-11.579 43.841 2 51.309 14.862 7.467 12.861 5.032 31.138-10.468 37.638s-45.487 6.611-54.5-9-6.515-31.922 13.659-43.5" fill="#fff" fill-rule="evenodd"/>
   </g>
  </g>
 </g>
 <g transform="matrix(.35278 0 0 -.35278 71.72 253.14)">
  <g clip-path="url(#clipPath11724)">
   <g transform="translate(473.86,1057.5)">
    <path d="m0 0c1.657 0 3 1.501 3 3.353s-1.343 3.353-3 3.353c-1.656 0-3-1.501-3-3.353s1.344-3.353 3-3.353" fill="#fff" fill-rule="evenodd"/>
   </g>
  </g>
 </g>
 <g transform="matrix(.35278 0 0 -.35278 71.72 253.14)">
  <g clip-path="url(#clipPath11774)">
   <g transform="translate(493,1069.8)">
    <path d="m0 0c1.657 0 3 1.501 3 3.353s-1.343 3.353-3 3.353-3-1.501-3-3.353 1.343-3.353 3-3.353" fill="#fff" fill-rule="evenodd"/>
   </g>
  </g>
 </g>
 <g transform="matrix(.35278 0 0 -.35278 71.72 253.14)">
  <g clip-path="url(#clipPath11824)">
   <g transform="translate(510,1048.8)">
    <path d="m0 0c1.657 0 3 1.501 3 3.353s-1.343 3.353-3 3.353-3-1.501-3-3.353 1.343-3.353 3-3.353" fill="#fff" fill-rule="evenodd"/>
   </g>
  </g>
 </g>
 <g transform="matrix(.35278 0 0 -.35278 71.72 253.14)">
  <g clip-path="url(#clipPath11938)">
   <g transform="translate(806.5,1072.2)">
    <path d="m0 0c-3.667-14-9.5-21.833-17.5-23.5" fill="none" stroke="#fff" stroke-linecap="round" stroke-miterlimit="10"/>
   </g>
  </g>
 </g>
 <g transform="matrix(.35278 0 0 -.35278 71.72 253.14)">
  <g clip-path="url(#clipPath11970)">
   <g transform="translate(802,1066.2)">
    <path d="m0 0c-4.971 0-9 4.029-9 9s4.029 9 9 9 9-4.029 9-9-4.029-9-9-9m0 6c1.657 0 3 1.343 3 3s-1.343 3-3 3-3-1.343-3-3 1.343-3 3-3" fill="#fff" fill-rule="evenodd"/>
   </g>
  </g>
 </g>
 <g transform="matrix(.35278 0 0 -.35278 71.72 253.14)">
  <g clip-path="url(#clipPath12144)">
   <g transform="translate(122,495.24)">
    <path d="m0 0h3c0.553 0 1-0.447 1-1v-2c0-0.553-0.447-1-1-1h-3c-0.553 0-1 0.447-1 1v2c0 0.553 0.447 1 1 1" fill="#fff" fill-rule="evenodd"/>
   </g>
  </g>
 </g>
 <g transform="matrix(.35278 0 0 -.35278 71.72 253.14)">
  <g clip-path="url(#clipPath12174)">
   <g transform="translate(204,495.24)">
    <path d="m0 0h3c0.553 0 1-0.447 1-1v-2c0-0.553-0.447-1-1-1h-3c-0.553 0-1 0.447-1 1v2c0 0.553 0.447 1 1 1" fill="#fff" fill-rule="evenodd"/>
   </g>
  </g>
 </g>
 <g transform="matrix(.35278 0 0 -.35278 71.72 253.14)">
  <g clip-path="url(#clipPath12576)">
   <g transform="translate(805,482.24)">
    <path d="m0 0c4.418 0 8 3.582 8 8s-3.582 8-8 8-8-3.582-8-8 3.582-8 8-8" fill="#fff" fill-rule="evenodd"/>
   </g>
  </g>
 </g>
 <g transform="matrix(.35278 0 0 -.35278 71.72 253.14)">
  <g clip-path="url(#clipPath12760)">
   <g transform="translate(658,1075.7)">
    <path d="m0 0c0-4.694 3.806-8.5 8.5-8.5s8.5 3.806 8.5 8.5-3.806 8.5-8.5 8.5-8.5-3.806-8.5-8.5" fill="#fff"/>
   </g>
  </g>
 </g>
 <g transform="matrix(.35278 0 0 -.35278 71.72 253.14)">
  <g clip-path="url(#clipPath12862)">
   <path d="m465.44 1082.2h85.864v-75.319h-85.864zm64.45-25.106c-0.483 0.765-1.453 0.947-2.178 0.431l-15.504-11.01c-0.359-0.255-0.847-0.153-1.071 0.238l-18.271 31.869c-0.438 0.771-1.139 0.776-1.549-0.016l-1.807-3.514-21.07-47.452c13.336-18.44 48.336-26.94 73.836-3.44 0.841 0 6.477 6.246 6 7z" fill="#fff" fill-rule="evenodd"/>
  </g>
 </g>
 <g transform="matrix(.35278 0 0 -.35278 71.72 253.14)">
  <g clip-path="url(#clipPath13494)">
   <g transform="translate(-23,837.24)">
    <path d="m0 0c18.778 0 34 15.222 34 34s-15.222 34-34 34-34-15.222-34-34 15.222-34 34-34z" fill="none" stroke="#fff" stroke-miterlimit="10" stroke-width="8"/>
   </g>
  </g>
 </g>
 <g transform="matrix(.35278 0 0 -.35278 71.72 253.14)">
  <g clip-path="url(#clipPath13934)">
   <path d="m644 721.24h82v-82h-82zm41-81c22.092 0 40 17.908 40 40s-17.908 40-40 40-40-17.908-40-40 17.908-40 40-40" fill="#fff" fill-rule="evenodd"/>
  </g>
 </g>
 <g transform="matrix(.35278 0 0 -.35278 71.72 253.14)">
  <g clip-path="url(#clipPath14580)">
   <g transform="translate(613.88,476.03)">
    <path d="m0 0c0.187-0.771 0.148-1.502-0.116-2.193-0.266-0.692-0.678-1.303-1.239-1.833-0.561-0.531-1.247-0.949-2.057-1.255-0.81-0.305-1.683-0.457-2.617-0.457-5.889-0.033-11.156-0.049-15.798-0.049h-15.891c-1.122 0-2.111 0.209-2.968 0.627s-1.543 0.932-2.056 1.543c-0.515 0.611-0.858 1.279-1.029 2.002s-0.148 1.375 0.071 1.953c0.186 0.451 0.373 0.917 0.56 1.398 0.157 0.418 0.343 0.893 0.561 1.424 0.219 0.53 0.452 1.069 0.701 1.615l1.776 4.438h5.329l-2.01-6.077h30.099l-2.009 6.077h5.094c0.655-1.64 1.246-3.119 1.777-4.438 0.218-0.578 0.435-1.14 0.654-1.687 0.218-0.547 0.412-1.037 0.584-1.472 0.171-0.433 0.312-0.804 0.421-1.109 0.108-0.306 0.163-0.474 0.163-0.507m-22.922 9.236c-0.601 0.698-1.289 1.571-2.064 2.618-0.776 1.046-1.575 2.125-2.398 3.235-0.822 1.11-1.637 2.204-2.443 3.283-0.808 1.079-1.527 2.015-2.16 2.808-0.728 0.856-1.013 1.562-0.855 2.117s0.696 0.832 1.614 0.832c0.506-0.031 1.187-0.024 2.041 0.024 0.855 0.048 1.567 0.072 2.136 0.072 0.633 0 1.029 0.19 1.187 0.57 0.158 0.381 0.237 0.889 0.237 1.523 0 0.698-8e-3 1.467-0.024 2.308s-0.024 1.705-0.024 2.593-8e-3 1.76-0.023 2.617c-0.016 0.856-0.024 1.65-0.024 2.379 0 0.318 0.024 0.65 0.071 1 0.047 0.348 0.158 0.666 0.333 0.951 0.173 0.285 0.426 0.523 0.758 0.714 0.332 0.19 0.784 0.285 1.353 0.285 0.665 0 1.274 9e-3 1.827 0.024 0.555 0.016 1.195 0.024 1.923 0.024 1.044 0 1.748-0.246 2.112-0.737 0.364-0.492 0.562-1.277 0.593-2.356v-1.855c0-0.73 8e-3 -1.507 0.023-2.331 0.017-0.826 0.025-1.651 0.025-2.475v-2.236c0-0.92 0.095-1.659 0.284-2.213 0.191-0.555 0.617-0.817 1.282-0.785 0.475 0 1.052-0.016 1.732-0.047 0.68-0.032 1.274-0.049 1.78-0.049 0.855 0 1.4-0.23 1.638-0.69 0.237-0.46 0.071-1.054-0.498-1.784-0.602-0.76-1.298-1.68-2.089-2.759-0.791-1.08-1.606-2.197-2.445-3.355-0.838-1.158-1.661-2.284-2.467-3.379-0.807-1.094-1.528-2.037-2.16-2.83-0.57-0.73-1.116-1.103-1.637-1.119-0.523-0.016-1.069 0.326-1.638 1.023" fill="#fff"/>
   </g>
  </g>
 </g>
 <g transform="matrix(.35278 0 0 -.35278 71.72 253.14)">
  <g clip-path="url(#clipPath14846)">
   <g transform="translate(588.67,331.24)">
    <path d="m0 0h-49.301c-2.41 0-4.367-1.941-4.367-4.299v-49.402c0-2.393 1.957-4.299 4.367-4.299h49.301c2.41 0 4.332 1.941 4.332 4.299v49.367c0 2.393-1.957 4.334-4.332 4.334m-33.403-53.008h-8.839v6.795h8.839zm-8.91 24.58h8.84v-6.795h-8.84zm8.945-15.566h-8.84v6.795h8.84zm12.998-9.014h-8.84v6.795h8.84zm-8.91 24.58h8.84v-6.795h-8.84zm8.944-15.566h-8.839v6.795h8.839zm13.277-9.014h-8.84v6.795h8.84zm-8.909 24.58h8.84v-6.795h-8.84zm8.945-15.566h-8.84v6.795h8.84zm5.276 24.441c0-2.392-1.957-4.299-4.368-4.299h-37.77c-2.411-0.035-4.367 1.907-4.367 4.299v10.054c0 2.392 1.956 4.333 4.332 4.333h37.805c2.411 0 4.368-1.941 4.368-4.333z" fill="#fff"/>
   </g>
  </g>
 </g>
 <g transform="matrix(.35278 0 0 -.35278 71.72 253.14)">
  <g clip-path="url(#clipPath14938)">
   <g transform="translate(609.3,312.46)">
    <path d="m0 0h-0.72c-0.206 0-0.377 0-0.514-0.212-0.103-0.142-0.103-0.283-0.103-0.46v-0.566c0-0.178 0-0.319 0.103-0.461 0.137-0.212 0.308-0.212 0.514-0.212h0.72c0.205 0 0.376 0 0.514 0.212 0.102 0.142 0.102 0.283 0.102 0.461v0.566c0 0.213 0 0.318-0.102 0.46-0.138 0.212-0.275 0.212-0.514 0.212m-5.003 4.779h-2.947c-0.548 0-0.993-0.46-0.993-1.026v-2.407h0.993v2.407h2.947v-2.407h0.993v2.407c0 0.566-0.445 1.026-0.993 1.026m0-6.973h-2.947v2.407h-0.993v-2.407c0-0.567 0.411-1.027 0.993-1.027h2.947c0.582 0 0.993 0.46 0.993 1.027v2.407h-0.993zm-14.357 0h-2.947v2.584h-0.994v-2.584c0-0.567 0.411-1.027 0.994-1.027h2.947c0.583 0 0.994 0.46 0.994 1.027v2.584h-0.994zm0 6.973h-2.947c-0.548 0-0.994-0.46-0.994-1.026v-2.231h0.994v2.231h2.947v-2.231h0.994v2.231c0 0.566-0.446 1.026-0.994 1.026m7.195 0h-2.946c-0.549 0-0.994-0.46-0.994-1.026v-2.231h0.994v2.231h2.946v-2.231h0.994v2.231c0 0.566-0.445 1.026-0.994 1.026m0-6.973h-2.946v2.584h-0.994v-2.584c0-0.567 0.445-1.027 0.994-1.027h2.946c0.583 0 0.994 0.46 0.994 1.027v2.584h-0.994zm18.675 6.973h-2.947c-0.548 0-0.994-0.46-0.994-1.026v-2.584h0.994v2.584h2.947v-2.584h0.994v2.584c0 0.566-0.445 1.026-0.994 1.026m0-6.973h-2.947v2.23h-0.994v-2.23c0-0.567 0.446-1.027 0.994-1.027h2.947c0.583 0 0.994 0.46 0.994 1.027v2.23h-0.994zm7.195 0h-2.946v2.053h-0.994v-2.053c0-0.567 0.411-1.027 0.994-1.027h2.946c0.583 0 0.994 0.46 0.994 1.027v2.053h-0.994zm0 6.973h-2.946c-0.548 0-0.994-0.46-0.994-1.026v-2.761h0.994v2.761h2.946v-2.761h0.994v2.761c0 0.566-0.479 1.026-0.994 1.026" fill="#fff"/>
   </g>
  </g>
 </g>
 <g transform="matrix(.35278 0 0 -.35278 71.72 253.14)">
  <g clip-path="url(#clipPath15102)">
   <g transform="translate(766.75,130.24)">
    <path d="m0 0h-15.75v6.693c0 1.239-1.013 2.307-2.307 2.307h-13.386c-1.239 0-2.307-1.013-2.307-2.307v-6.693h-15.75c-1.237 0-2.25-1.013-2.25-2.25v-11.25l27-4.5 27 4.5v11.25c0 1.237-1.013 2.25-2.25 2.25m-29.25 4.5h9v-4.5h-9zm9-16.875c0-0.619-0.506-1.125-1.125-1.125h-6.75c-0.619 0-1.125 0.506-1.125 1.125v2.25c0 0.619 0.506 1.125 1.125 1.125h6.75c0.619 0 1.125-0.506 1.125-1.125zm-4.5-7.875 27 4.5v-27c0-1.237-1.013-2.25-2.25-2.25h-49.5c-1.237 0-2.25 1.013-2.25 2.25v27z" fill="#fff"/>
   </g>
  </g>
 </g>
 <g transform="matrix(.35278 0 0 -.35278 71.72 253.14)">
  <g clip-path="url(#clipPath15274)">
   <g transform="translate(392,82.24)">
    <path d="M 0,0 -4.35,3.941 C -19.8,17.953 -30,27.2 -30,38.516 -30,47.762 -22.755,55 -13.5,55 -8.28,55 -3.27,52.572 0,48.75 3.27,52.572 8.28,55 13.5,55 22.755,55 30,47.762 30,38.516 30,27.2 19.8,17.953 4.35,3.941 Z" fill="#fff"/>
   </g>
  </g>
 </g>
 <g transform="matrix(.35278 0 0 -.35278 71.72 253.14)">
  <g clip-path="url(#clipPath15438)">
   <g transform="translate(542.77,113.24)">
    <path d="m0 0c0 2.621 0.885 4.8 2.689 6.604s3.983 2.689 6.604 2.689c2.622 0 4.801-0.885 6.604-2.689 1.805-1.804 2.69-3.983 2.69-6.604s-0.885-4.834-2.69-6.639c-1.803-1.803-3.982-2.689-6.604-2.689-2.621 0-4.809 0.877-6.604 2.689-1.813 1.83-2.689 4.051-2.689 6.639m-13.141-6.06c0.545-1.94 1.363-3.846 2.35-5.617l-6.128-7.523 6.944-6.945 7.524 6.127c1.769-0.986 3.71-1.803 5.65-2.382l1.022-9.6h10.008l1.022 9.6c1.94 0.579 3.778 1.396 5.651 2.382l7.49-6.127 7.012 6.945-6.162 7.523c0.953 1.771 1.805 3.677 2.383 5.617l9.601 1.056v10.008l-9.601 1.021c-0.578 1.941-1.43 3.745-2.383 5.618l6.162 7.523-7.012 7.013-7.49-6.161c-1.907 0.953-3.711 1.803-5.651 2.382l-1.022 9.6h-10.008l-1.022-9.6c-2.008-0.579-3.88-1.429-5.65-2.382l-7.524 6.161-6.944-7.013 6.128-7.523c-0.953-1.873-1.771-3.677-2.35-5.618l-9.633-1.021v-10.008z" fill="#fff"/>
   </g>
  </g>
 </g>
 <g transform="matrix(.35278 0 0 -.35278 71.72 253.14)">
  <g clip-path="url(#clipPath16058)">
   <path d="m473 698.24h13v-13h-13zm6.5-12c3.037 0 5.5 2.463 5.5 5.5 0 3.038-2.463 5.5-5.5 5.5s-5.5-2.462-5.5-5.5c0-3.037 2.463-5.5 5.5-5.5" fill="#fff" fill-rule="evenodd"/>
  </g>
 </g>
 <g transform="matrix(.35278 0 0 -.35278 71.72 253.14)">
  <g clip-path="url(#clipPath16086)">
   <path d="m473 676.24h13v-13h-13zm6.5-12c3.037 0 5.5 2.463 5.5 5.5 0 3.038-2.463 5.5-5.5 5.5s-5.5-2.462-5.5-5.5c0-3.037 2.463-5.5 5.5-5.5" fill="#fff" fill-rule="evenodd"/>
  </g>
 </g>
 <g transform="matrix(.35278 0 0 -.35278 71.72 253.14)">
  <g clip-path="url(#clipPath16114)">
   <path d="m467 687.24h13v-13h-13zm6.5-12c3.037 0 5.5 2.463 5.5 5.5 0 3.038-2.463 5.5-5.5 5.5s-5.5-2.462-5.5-5.5c0-3.037 2.463-5.5 5.5-5.5" fill="#fff" fill-rule="evenodd"/>
  </g>
 </g>
 <g transform="matrix(.35278 0 0 -.35278 71.72 253.14)">
  <g clip-path="url(#clipPath16142)">
   <path d="m486 698.24h13v-13h-13zm6.5-12c3.037 0 5.5 2.463 5.5 5.5 0 3.038-2.463 5.5-5.5 5.5s-5.5-2.462-5.5-5.5c0-3.037 2.463-5.5 5.5-5.5" fill="#fff" fill-rule="evenodd"/>
  </g>
 </g>
 <g transform="matrix(.35278 0 0 -.35278 71.72 253.14)">
  <g clip-path="url(#clipPath16170)">
   <path d="m486 676.24h13v-13h-13zm6.5-12c3.037 0 5.5 2.463 5.5 5.5 0 3.038-2.463 5.5-5.5 5.5s-5.5-2.462-5.5-5.5c0-3.037 2.463-5.5 5.5-5.5" fill="#fff" fill-rule="evenodd"/>
  </g>
 </g>
 <g transform="matrix(.35278 0 0 -.35278 71.72 253.14)">
  <g clip-path="url(#clipPath16198)">
   <path d="m480 687.24h13v-13h-13zm6.5-12c3.037 0 5.5 2.463 5.5 5.5 0 3.038-2.463 5.5-5.5 5.5s-5.5-2.462-5.5-5.5c0-3.037 2.463-5.5 5.5-5.5" fill="#fff" fill-rule="evenodd"/>
  </g>
 </g>
 <g transform="matrix(.35278 0 0 -.35278 71.72 253.14)">
  <g clip-path="url(#clipPath16226)">
   <path d="m493 687.24h13v-13h-13zm6.5-12c3.037 0 5.5 2.463 5.5 5.5 0 3.038-2.463 5.5-5.5 5.5s-5.5-2.462-5.5-5.5c0-3.037 2.463-5.5 5.5-5.5" fill="#fff" fill-rule="evenodd"/>
  </g>
 </g>
 <g transform="matrix(.35278 0 0 -.35278 71.72 253.14)">
  <g clip-path="url(#clipPath16326)">
   <path d="m161 327.24h73v-28h-73zm14-5h45c4.971 0 9-4.029 9-9 0-4.97-4.029-9-9-9h-45c-4.971 0-9 4.03-9 9 0 4.971 4.029 9 9 9" fill="#fff" fill-rule="evenodd"/>
  </g>
 </g>
 <g transform="matrix(.35278 0 0 -.35278 71.72 253.14)">
  <g clip-path="url(#clipPath16354)">
   <path d="m162 302.24h73v-28h-73zm14-5h45c4.971 0 9-4.029 9-9 0-4.97-4.029-9-9-9h-45c-4.971 0-9 4.03-9 9 0 4.971 4.029 9 9 9" fill="#fff" fill-rule="evenodd"/>
  </g>
 </g>
 <g transform="matrix(.35278 0 0 -.35278 71.72 253.14)">
  <g clip-path="url(#clipPath16474)">
   <g transform="translate(104.49,129.57)">
    <path d="m0 0c-4.298-0.338-8.165-0.637-11.604-0.898-1.458-0.113-2.906-0.225-4.344-0.336-1.44-0.114-2.747-0.207-3.924-0.282-1.178-0.074-2.168-0.149-2.972-0.224-0.803-0.074-1.28-0.113-1.428-0.113-0.188-0.037-0.403-0.065-0.645-0.084-0.244-0.018-0.459-0.065-0.645-0.139l-0.673-0.225-2.467 1.121c0.187 0.263 0.412 0.506 0.674 0.731 0.185 0.186 0.42 0.364 0.7 0.533 0.28 0.168 0.569 0.27 0.868 0.309 0.225 0.037 0.822 0.093 1.795 0.168 0.971 0.074 2.167 0.168 3.588 0.28 0 0.486 0.047 1.15 0.14 1.992 0.092 0.841 0.317 1.674 0.672 2.497 0.356 0.822 0.869 1.553 1.541 2.188 0.673 0.636 1.589 1.009 2.747 1.123 1.346 0.111 2.439-0.094 3.281-0.618 0.84-0.523 1.494-1.169 1.961-1.935 0.467-0.768 0.795-1.553 0.981-2.358 0.187-0.804 0.299-1.43 0.337-1.878 1.606 0.111 2.942 0.205 4.008 0.279 1.064 0.076 1.653 0.131 1.765 0.169 0.412 0.038 0.87-0.038 1.373-0.225 0.505-0.186 0.907-0.43 1.206-0.729 0.075-0.075 0.177-0.188 0.308-0.336 0.131-0.151 0.252-0.3 0.365-0.449 0.149-0.151 0.28-0.337 0.392-0.561m-15.528 6.676c-0.709-0.074-1.28-0.326-1.709-0.757-0.43-0.431-0.758-0.944-0.982-1.543-0.223-0.599-0.374-1.206-0.448-1.823-0.075-0.617-0.112-1.114-0.112-1.488 1.159 0.076 2.344 0.169 3.559 0.281s2.402 0.206 3.56 0.281c-0.037 0.336-0.121 0.804-0.252 1.402-0.131 0.599-0.346 1.178-0.645 1.74-0.299 0.561-0.691 1.028-1.176 1.403-0.487 0.373-1.084 0.542-1.795 0.504m21.919-41.24c0.186-1.047 0.159-1.917-0.084-2.61-0.244-0.691-0.925-1.168-2.046-1.43-0.374-0.113-1.187-0.299-2.439-0.562-1.252-0.262-2.747-0.579-4.485-0.953-1.737-0.374-3.597-0.777-5.577-1.207-1.982-0.43-3.878-0.832-5.691-1.205-1.812-0.375-3.437-0.711-4.877-1.011-1.438-0.3-2.457-0.505-3.054-0.617-1.383-0.3-2.402-0.206-3.055 0.28-0.654 0.486-0.982 1.217-0.982 2.189v34.452c0 0.934 0.197 1.691 0.589 2.271 0.393 0.58 0.962 0.889 1.709 0.926 0.299 0 0.664 0.02 1.094 0.057s0.85 0.074 1.261 0.112c0.485 0.037 0.991 0.075 1.514 0.112l0.504-8.023c-0.037-0.038-0.112-0.057-0.224-0.057-0.074 0-0.187-0.01-0.336-0.027-0.15-0.02-0.318-0.029-0.505-0.029-0.784-0.075-1.159-0.542-1.121-1.403 0.038-0.336 0.075-0.805 0.112-1.402 0.037-0.599 0.066-1.225 0.084-1.88 0.019-0.655 0.047-1.29 0.084-1.907s0.074-1.114 0.113-1.488c0.037-0.711 0.149-1.112 0.336-1.206 0.186-0.093 0.598-0.14 1.233-0.14h0.785c0.225 0 0.439 0.01 0.645 0.027 0.205 0.02 0.439 0.038 0.701 0.057 0.261 0.018 0.597 0.047 1.008 0.084 0.785 0.075 1.29 0.243 1.513 0.506 0.225 0.261 0.319 0.654 0.281 1.177 0 0.262-0.028 0.721-0.084 1.375-0.056 0.655-0.113 1.337-0.168 2.048-0.056 0.71-0.103 1.384-0.14 2.02-0.037 0.635-0.074 1.085-0.112 1.346-0.076 0.45-0.168 0.768-0.281 0.954-0.112 0.187-0.318 0.262-0.617 0.224-0.148 0-0.299-9e-3 -0.447-0.027-0.151-0.019-0.3-0.028-0.449-0.028h-0.449l-0.505 7.967c2.542 0.225 4.877 0.412 7.008 0.561 0.897 0.076 1.803 0.15 2.719 0.224 0.916 0.076 1.766 0.141 2.551 0.198 0.785 0.055 1.476 0.111 2.074 0.168 0.598 0.056 1.046 0.103 1.346 0.14 1.083 0.074 1.942-0.113 2.578-0.561 0.635-0.449 1.027-1.122 1.178-2.021 0.037-0.299 0.168-1.196 0.391-2.693 0.224-1.496 0.505-3.291 0.841-5.386s0.691-4.349 1.065-6.761c0.374-2.413 0.729-4.667 1.066-6.761 0.336-2.095 0.625-3.891 0.869-5.387 0.242-1.496 0.4-2.395 0.476-2.693m-35.261-4.881c0-0.525 0.028-0.983 0.084-1.375 0.057-0.393 0.122-0.701 0.197-0.926 0.074-0.299 0.168-0.524 0.279-0.674-0.933 0.486-1.831 0.973-2.69 1.459-0.747 0.412-1.495 0.832-2.242 1.263-0.747 0.43-1.383 0.795-1.906 1.094-0.972 0.561-1.635 1.235-1.99 2.02s-0.439 1.608-0.253 2.469c0.076 0.224 0.244 1.047 0.505 2.469 0.262 1.421 0.588 3.142 0.981 5.162 0.392 2.019 0.803 4.189 1.233 6.508 0.43 2.32 0.831 4.49 1.205 6.509 0.374 2.02 0.701 3.76 0.982 5.218 0.28 1.459 0.439 2.319 0.476 2.581 0.15 0.823 0.42 1.459 0.813 1.908 0.392 0.449 0.849 0.561 1.373 0.336 0.299-0.149 0.543-0.317 0.728-0.504 0.114-0.113 0.188-0.207 0.225-0.281z" fill="#fff"/>
   </g>
  </g>
 </g>
 <g transform="matrix(.35278 0 0 -.35278 176.4 239.68)">
  <g clip-path="url(#clipPath22683)">
   <g transform="translate(448,326)">
    <path d="m0 0c3.866 0 7 3.134 7 7s-3.134 7-7 7-7-3.134-7-7 3.134-7 7-7" fill="#fff" fill-rule="evenodd"/>
   </g>
  </g>
 </g>
 <g transform="matrix(.35278 0 0 -.35278 176.4 239.68)">
  <g clip-path="url(#clipPath22719)">
   <g transform="translate(474,326)">
    <path d="m0 0c3.866 0 7 3.134 7 7s-3.134 7-7 7-7-3.134-7-7 3.134-7 7-7" fill="#fff" fill-rule="evenodd"/>
   </g>
  </g>
 </g>
 <g transform="matrix(.35278 0 0 -.35278 176.4 239.68)">
  <g clip-path="url(#clipPath22755)">
   <g transform="translate(497,326)">
    <path d="m0 0c3.866 0 7 3.134 7 7s-3.134 7-7 7-7-3.134-7-7 3.134-7 7-7" fill="#fff" fill-rule="evenodd"/>
   </g>
  </g>
 </g>
 <g transform="matrix(.35278 0 0 -.35278 176.4 239.68)">
  <g clip-path="url(#clipPath23007)">
   <path d="m593 1073h36v-18h-36zm18-11c6.075 0 11 0.895 11 2s-4.925 2-11 2-11-0.895-11-2 4.925-2 11-2" fill="#fff" fill-rule="evenodd"/>
  </g>
 </g>
 <g transform="matrix(.35278 0 0 -.35278 176.4 239.68)">
  <g clip-path="url(#clipPath23025)">
   <g transform="translate(583.42,1063)">
    <path d="m0 0s21.582 23.182 21.582 35.147c0 12.048-9.684 21.853-21.582 21.853-11.816 0-21.418-9.805-21.418-21.853 0-8.06 9.766-21.188 16.002-28.832zm0 42.542c3.938 0 7.14-3.323 7.14-7.395 0-3.822-3.202-7.146-7.14-7.146-3.856 0-7.222 3.324-7.222 7.146 0 4.072 3.366 7.395 7.222 7.395" fill="#fff"/>
   </g>
  </g>
 </g>
 <g transform="matrix(.35278 0 0 -.35278 176.4 239.68)">
  <g clip-path="url(#clipPath23289)">
   <g transform="translate(562,535)">
    <path d="m0 0h35c2.762 0 5-2.238 5-5s-2.238-5-5-5h-35c-2.762 0-5 2.238-5 5s2.238 5 5 5" fill="#fff" fill-rule="evenodd"/>
   </g>
  </g>
 </g>
 <g transform="matrix(.35278 0 0 -.35278 176.4 239.68)">
  <g clip-path="url(#clipPath23381)">
   <g transform="translate(562,518)">
    <path d="m0 0h35c2.762 0 5-2.238 5-5s-2.238-5-5-5h-35c-2.762 0-5 2.238-5 5s2.238 5 5 5" fill="#fff" fill-rule="evenodd"/>
   </g>
  </g>
 </g>
 <g transform="matrix(.35278 0 0 -.35278 176.4 239.68)">
  <g clip-path="url(#clipPath23699)">
   <g transform="translate(536.43,133.83)">
    <path d="m0 0c-10.01-12.916-22.288-9.047-24.23-8.072-4.847 1.293-6.464 10.015-0.326 12.918 10.018 3.226 19.06-0.325 25.524-3.553-0.644-0.967-0.968-1.293-0.968-1.293m10.667 3.553c4.521 8.072 6.139 15.826 6.139 15.826h-15.189v5.812h17.767v2.26h-17.767v8.723h-8.074v-8.723h-16.156v-2.584h16.156v-5.812h-13.57v-2.585h27.783c0-0.325 0-0.325-0.324-0.968 0-2.909-1.936-6.779-3.554-10.014-20.677 8.079-26.491 3.235-28.108 2.584-13.564-9.689-0.968-21.963 1.293-21.638 14.538-3.227 23.905 2.91 30.369 10.657 0.324-0.325 0.967-0.325 1.292-0.325 4.528-2.578 25.848-12.592 25.848-12.592v12.274c-3.878 0.325-15.506 4.195-23.905 7.105" fill="#fff"/>
   </g>
  </g>
 </g>
 <g transform="matrix(.35278 0 0 -.35278 176.4 239.68)">
  <g clip-path="url(#clipPath23863)">
   <g transform="translate(720.03,1091.5)">
    <path d="m0 0c-0.149 0.354-0.224 0.837-0.224 1.451 0 0.372 0.103 0.828 0.306 1.368 0.205 0.539 0.428 0.958 0.671 1.256-0.019 0.409 0.051 0.902 0.209 1.478 0.159 0.576 0.368 0.976 0.629 1.2 0 2.586 0.86 5.269 2.581 8.05 1.722 2.782 3.744 4.73 6.07 5.846 2.585 1.228 5.6 1.842 9.041 1.842 2.475 0 4.949-0.511 7.423-1.534 0.912-0.391 1.749-0.837 2.512-1.34 0.762-0.502 1.423-1.022 1.981-1.562 0.559-0.54 1.07-1.172 1.534-1.897 0.465-0.725 0.856-1.413 1.172-2.064 0.318-0.651 0.619-1.437 0.908-2.358 0.287-0.921 0.524-1.753 0.71-2.497s0.391-1.655 0.614-2.734l0.028-0.14c1.023-1.543 1.535-2.939 1.535-4.186 0-0.26-0.084-0.632-0.252-1.115-0.168-0.484-0.252-0.837-0.252-1.061 0-0.019 0.015-0.052 0.043-0.099s0.061-0.093 0.098-0.139c0.038-0.046 0.057-0.077 0.057-0.098 1.432-2.121 2.553-4.116 3.363-5.985 0.809-1.869 1.214-3.808 1.214-5.817 0-0.8-0.182-1.73-0.544-2.791-0.363-1.06-0.879-1.59-1.549-1.59-0.167 0-0.349 0.069-0.544 0.209-0.194 0.14-0.371 0.303-0.529 0.489-0.159 0.186-0.335 0.428-0.53 0.725s-0.344 0.543-0.447 0.739-0.228 0.438-0.377 0.725c-0.147 0.288-0.231 0.451-0.251 0.489-0.019 0.019-0.047 0.028-0.085 0.028l-0.138-0.111c-1.099-2.864-2.327-4.938-3.684-6.222 0.372-0.372 0.944-0.73 1.716-1.075s1.414-0.73 1.925-1.158c0.511-0.426 0.841-1.031 0.991-1.814-0.037-0.074-0.074-0.223-0.112-0.447-0.036-0.224-0.101-0.391-0.195-0.501-1.19-1.804-4-2.706-8.427-2.706-0.986 0-2.013 0.084-3.084 0.251-1.069 0.168-1.981 0.354-2.734 0.558s-1.726 0.483-2.916 0.837c-0.279 0.093-0.493 0.158-0.643 0.196-0.259 0.075-0.687 0.115-1.282 0.125-0.595 9e-3 -0.967 0.023-1.116 0.042-0.763-0.838-1.949-1.442-3.559-1.814-1.609-0.372-3.176-0.558-4.702-0.558-0.65 0-1.293 0.014-1.925 0.042s-1.498 0.113-2.595 0.252c-1.098 0.139-2.038 0.33-2.82 0.572-0.781 0.241-1.473 0.613-2.078 1.115-0.604 0.502-0.906 1.098-0.906 1.786 0 0.744 0.093 1.298 0.279 1.661 0.187 0.364 0.569 0.815 1.144 1.353 0.205 0.038 0.581 0.159 1.131 0.363 0.549 0.204 1.009 0.316 1.381 0.334 0.074 0 0.204 0.019 0.39 0.057 0.038 0.037 0.057 0.074 0.057 0.111l-0.057 0.084c-0.892 0.204-1.897 1.185-3.014 2.944-1.117 1.758-1.796 3.214-2.038 4.367l-0.139 0.084c-0.074 0-0.186-0.185-0.334-0.557-0.335-0.763-0.842-1.455-1.521-2.079-0.679-0.622-1.4-0.971-2.163-1.046h-0.028c-0.073 0-0.129 0.041-0.167 0.125-0.037 0.083-0.084 0.134-0.139 0.153-0.428 1.004-0.642 1.934-0.642 2.79 0 5.116 2.343 9.45 7.032 13.002z" fill="#fff"/>
   </g>
  </g>
 </g>
 <g transform="matrix(.35278 0 0 -.35278 176.4 239.68)">
  <g clip-path="url(#clipPath24559)">
   <g transform="translate(655,300)">
    <path d="m0 0c16.568 0 30 13.432 30 30s-13.432 30-30 30-30-13.432-30-30 13.432-30 30-30z" fill="none" stroke="#fff" stroke-miterlimit="10" stroke-width="8"/>
   </g>
  </g>
 </g>
 <g transform="matrix(.35278 0 0 -.35278 176.4 239.68)">
  <g clip-path="url(#clipPath24595)">
   <g transform="translate(66.849,1083.1)">
    <path d="m0 0c0 5.302-3.661 9.749-8.591 10.948-0.209 8.314-7.006 14.991-15.366 14.991-4.897 0-9.254-2.293-12.07-5.861-1.579 2.041-4.05 3.358-6.828 3.358-4.769 0-8.633-3.868-8.633-8.639 0-0.416 0.031-0.825 0.089-1.224-0.726 0.13-1.47 0.203-2.232 0.203-6.913 0-12.515-5.607-12.515-12.524 0-6.916 5.602-12.523 12.515-12.523h42.394c6.21 0.013 11.241 5.053 11.241 11.269z" fill="#fff"/>
   </g>
  </g>
 </g>
 <g transform="matrix(.35278 0 0 -.35278 176.4 239.68)">
  <g clip-path="url(#clipPath24969)">
   <g transform="translate(65.5,681)">
    <path d="m0 0c9.113 0 16.5 7.387 16.5 16.5s-7.387 16.5-16.5 16.5-16.5-7.387-16.5-16.5 7.387-16.5 16.5-16.5z" fill="none" stroke="#fff" stroke-miterlimit="10" stroke-width="4"/>
   </g>
  </g>
 </g>
 <g transform="matrix(.35278 0 0 -.35278 176.4 239.68)">
  <g clip-path="url(#clipPath25061)">
   <g transform="translate(77.5,711)">
    <path d="m0 0c7.456 0 13.5 6.044 13.5 13.5s-6.044 13.5-13.5 13.5-13.5-6.044-13.5-13.5 6.044-13.5 13.5-13.5z" fill="none" stroke="#fff" stroke-miterlimit="10" stroke-width="4"/>
   </g>
  </g>
 </g>
 <g transform="matrix(.35278 0 0 -.35278 176.4 239.68)">
  <g clip-path="url(#clipPath25255)">
   <g transform="translate(455.91,931.53)">
    <path d="m0 0c-0.742-1.039-4.75-2.821-8.165-3.563-4.305-0.891-6.531-1.633-8.758-2.82-2.969-1.782-4.601-4.009-4.305-6.087 0.149-0.445 3.711-5.64 7.868-11.578 4.304-5.938 7.868-10.985 8.016-11.134 0.149-0.297-0.445-0.297-2.524-0.148-6.531 0.445-12.469-2.969-15.142-8.314-0.742-1.632-0.89-2.523-0.89-4.453 0-4.453 2.376-8.016 6.829-10.094 1.781-0.742 2.375-0.891 6.086-0.891 4.007 0 4.156 0 6.829 1.336 7.125 3.414 10.093 10.095 7.125 16.181-0.594 1.336-4.305 7.719-8.313 14.251l-7.274 12.024h1.187c4.75 0.297 8.017 1.781 10.244 4.305 1.929 2.227 2.523 4.453 2.374 8.016-0.148 3.266-0.445 4.008-1.187 2.969" fill="#fff"/>
   </g>
  </g>
 </g>
 <g transform="matrix(.35278 0 0 -.35278 176.4 239.68)">
  <g clip-path="url(#clipPath25347)">
   <g transform="translate(784,902.31)">
    <path d="m0 0c0-1.565-0.904-2.931-2.251-3.674l-27.781-18.472c-0.012-8e-3 -0.026-0.014-0.037-0.02l-0.017-0.011c-0.684-0.376-1.48-0.592-2.331-0.592-2.53 0-4.583 1.913-4.583 4.269v37c0 2.356 2.053 4.27 4.583 4.27 0.851 0 1.647-0.217 2.331-0.596l0.017-8e-3c0.011-9e-3 0.022-0.014 0.037-0.02l27.781-18.471c1.347-0.743 2.251-2.11 2.251-3.675" fill="#fff"/>
   </g>
  </g>
 </g>
 <g transform="matrix(.35278 0 0 -.35278 176.4 239.68)">
  <g clip-path="url(#clipPath25731)">
   <g transform="translate(223.75,708.35)">
    <path d="m0 0c-15.123 0-27.418 12.329-27.418 27.486 0 1.382 1.111 2.505 2.487 2.505 1.379 0 2.499-1.123 2.499-2.505 0-12.4 10.06-22.487 22.432-22.487 12.375 0 22.443 10.087 22.443 22.487 0 1.382 1.112 2.505 2.488 2.505 1.378 0 2.499-1.123 2.499-2.505 0-15.157-12.304-27.486-27.43-27.486" fill="#fff" fill-rule="evenodd"/>
   </g>
  </g>
 </g>
 <g transform="matrix(.35278 0 0 -.35278 176.4 239.68)">
  <g clip-path="url(#clipPath25833)">
   <g transform="translate(390.75,139.35)">
    <path d="m0 0c-15.123 0-27.418 12.329-27.418 27.485 0 1.383 1.111 2.506 2.487 2.506 1.379 0 2.499-1.123 2.499-2.506 0-12.398 10.06-22.486 22.432-22.486 12.375 0 22.443 10.088 22.443 22.486 0 1.383 1.112 2.506 2.488 2.506 1.378 0 2.499-1.123 2.499-2.506 0-15.156-12.304-27.485-27.43-27.485" fill="#fff" fill-rule="evenodd"/>
   </g>
  </g>
 </g>
 <g transform="matrix(.35278 0 0 -.35278 176.4 239.68)">
  <g clip-path="url(#clipPath25963)">
   <g transform="translate(423.93,686.39)">
    <path d="m0 0c0.245-0.286 0.605-0.456 0.986-0.456 0.382 0 0.743 0.17 0.988 0.456l17.516 20.497c0.333 0.388 0.408 0.933 0.191 1.388-0.211 0.463-0.674 0.756-1.184 0.756h-9.93c-2.118 4.172-3.109 8.382-2.973 12.63 0.135 4.248 1.954 12.361 5.455 24.34-10.956-6.59-17.656-18.44-17.656-31.225v-5.745h-9.93c-0.51 0-0.966-0.293-1.184-0.756-0.211-0.462-0.135-1 0.191-1.388z" fill="#fff"/>
   </g>
  </g>
 </g>
 <g transform="matrix(.35278 0 0 -.35278 41.946 243.43)">
  <g clip-path="url(#clipPath23007-0)">
   <g transform="translate(448,326)">
    <path d="m0 0c3.866 0 7 3.134 7 7s-3.134 7-7 7-7-3.134-7-7 3.134-7 7-7" fill="#fff" fill-rule="evenodd"/>
   </g>
  </g>
 </g>
 <g transform="matrix(.35278 0 0 -.35278 41.946 243.43)">
  <g clip-path="url(#clipPath23043)">
   <g transform="translate(474,326)">
    <path d="m0 0c3.866 0 7 3.134 7 7s-3.134 7-7 7-7-3.134-7-7 3.134-7 7-7" fill="#fff" fill-rule="evenodd"/>
   </g>
  </g>
 </g>
 <g transform="matrix(.35278 0 0 -.35278 41.946 243.43)">
  <g clip-path="url(#clipPath23079)">
   <g transform="translate(497,326)">
    <path d="m0 0c3.866 0 7 3.134 7 7s-3.134 7-7 7-7-3.134-7-7 3.134-7 7-7" fill="#fff" fill-rule="evenodd"/>
   </g>
  </g>
 </g>
 <g transform="matrix(.35278 0 0 -.35278 41.946 243.43)">
  <g clip-path="url(#clipPath23331)">
   <path d="m593 1073h36v-18h-36zm18-11c6.075 0 11 0.895 11 2s-4.925 2-11 2-11-0.895-11-2 4.925-2 11-2" fill="#fff" fill-rule="evenodd"/>
  </g>
 </g>
 <g transform="matrix(.35278 0 0 -.35278 41.946 243.43)">
  <g clip-path="url(#clipPath23349)">
   <g transform="translate(583.42,1063)">
    <path d="m0 0s21.582 23.182 21.582 35.147c0 12.048-9.684 21.853-21.582 21.853-11.816 0-21.418-9.805-21.418-21.853 0-8.06 9.766-21.188 16.002-28.832zm0 42.542c3.938 0 7.14-3.323 7.14-7.395 0-3.822-3.202-7.146-7.14-7.146-3.856 0-7.222 3.324-7.222 7.146 0 4.072 3.366 7.395 7.222 7.395" fill="#fff"/>
   </g>
  </g>
 </g>
 <g transform="matrix(.35278 0 0 -.35278 41.946 243.43)">
  <g clip-path="url(#clipPath23613)">
   <g transform="translate(562,535)">
    <path d="m0 0h35c2.762 0 5-2.238 5-5s-2.238-5-5-5h-35c-2.762 0-5 2.238-5 5s2.238 5 5 5" fill="#fff" fill-rule="evenodd"/>
   </g>
  </g>
 </g>
 <g transform="matrix(.35278 0 0 -.35278 41.946 243.43)">
  <g clip-path="url(#clipPath23705)">
   <g transform="translate(562,518)">
    <path d="m0 0h35c2.762 0 5-2.238 5-5s-2.238-5-5-5h-35c-2.762 0-5 2.238-5 5s2.238 5 5 5" fill="#fff" fill-rule="evenodd"/>
   </g>
  </g>
 </g>
 <g transform="matrix(.35278 0 0 -.35278 41.946 243.43)">
  <g clip-path="url(#clipPath24023)">
   <g transform="translate(536.43,133.83)">
    <path d="m0 0c-10.01-12.916-22.288-9.047-24.23-8.072-4.847 1.293-6.464 10.015-0.326 12.918 10.018 3.226 19.06-0.325 25.524-3.553-0.644-0.967-0.968-1.293-0.968-1.293m10.667 3.553c4.521 8.072 6.139 15.826 6.139 15.826h-15.189v5.812h17.767v2.26h-17.767v8.723h-8.074v-8.723h-16.156v-2.584h16.156v-5.812h-13.57v-2.585h27.783c0-0.325 0-0.325-0.324-0.968 0-2.909-1.936-6.779-3.554-10.014-20.677 8.079-26.491 3.235-28.108 2.584-13.564-9.689-0.968-21.963 1.293-21.638 14.538-3.227 23.905 2.91 30.369 10.657 0.324-0.325 0.967-0.325 1.292-0.325 4.528-2.578 25.848-12.592 25.848-12.592v12.274c-3.878 0.325-15.506 4.195-23.905 7.105" fill="#fff"/>
   </g>
  </g>
 </g>
 <g transform="matrix(.35278 0 0 -.35278 41.946 243.43)">
  <g clip-path="url(#clipPath24187)">
   <g transform="translate(720.03,1091.5)">
    <path d="m0 0c-0.149 0.354-0.224 0.837-0.224 1.451 0 0.372 0.103 0.828 0.306 1.368 0.205 0.539 0.428 0.958 0.671 1.256-0.019 0.409 0.051 0.902 0.209 1.478 0.159 0.576 0.368 0.976 0.629 1.2 0 2.586 0.86 5.269 2.581 8.05 1.722 2.782 3.744 4.73 6.07 5.846 2.585 1.228 5.6 1.842 9.041 1.842 2.475 0 4.949-0.511 7.423-1.534 0.912-0.391 1.749-0.837 2.512-1.34 0.762-0.502 1.423-1.022 1.981-1.562 0.559-0.54 1.07-1.172 1.534-1.897 0.465-0.725 0.856-1.413 1.172-2.064 0.318-0.651 0.619-1.437 0.908-2.358 0.287-0.921 0.524-1.753 0.71-2.497s0.391-1.655 0.614-2.734l0.028-0.14c1.023-1.543 1.535-2.939 1.535-4.186 0-0.26-0.084-0.632-0.252-1.115-0.168-0.484-0.252-0.837-0.252-1.061 0-0.019 0.015-0.052 0.043-0.099s0.061-0.093 0.098-0.139c0.038-0.046 0.057-0.077 0.057-0.098 1.432-2.121 2.553-4.116 3.363-5.985 0.809-1.869 1.214-3.808 1.214-5.817 0-0.8-0.182-1.73-0.544-2.791-0.363-1.06-0.879-1.59-1.549-1.59-0.167 0-0.349 0.069-0.544 0.209-0.194 0.14-0.371 0.303-0.529 0.489-0.159 0.186-0.335 0.428-0.53 0.725s-0.344 0.543-0.447 0.739-0.228 0.438-0.377 0.725c-0.147 0.288-0.231 0.451-0.251 0.489-0.019 0.019-0.047 0.028-0.085 0.028l-0.138-0.111c-1.099-2.864-2.327-4.938-3.684-6.222 0.372-0.372 0.944-0.73 1.716-1.075s1.414-0.73 1.925-1.158c0.511-0.426 0.841-1.031 0.991-1.814-0.037-0.074-0.074-0.223-0.112-0.447-0.036-0.224-0.101-0.391-0.195-0.501-1.19-1.804-4-2.706-8.427-2.706-0.986 0-2.013 0.084-3.084 0.251-1.069 0.168-1.981 0.354-2.734 0.558s-1.726 0.483-2.916 0.837c-0.279 0.093-0.493 0.158-0.643 0.196-0.259 0.075-0.687 0.115-1.282 0.125-0.595 9e-3 -0.967 0.023-1.116 0.042-0.763-0.838-1.949-1.442-3.559-1.814-1.609-0.372-3.176-0.558-4.702-0.558-0.65 0-1.293 0.014-1.925 0.042s-1.498 0.113-2.595 0.252c-1.098 0.139-2.038 0.33-2.82 0.572-0.781 0.241-1.473 0.613-2.078 1.115-0.604 0.502-0.906 1.098-0.906 1.786 0 0.744 0.093 1.298 0.279 1.661 0.187 0.364 0.569 0.815 1.144 1.353 0.205 0.038 0.581 0.159 1.131 0.363 0.549 0.204 1.009 0.316 1.381 0.334 0.074 0 0.204 0.019 0.39 0.057 0.038 0.037 0.057 0.074 0.057 0.111l-0.057 0.084c-0.892 0.204-1.897 1.185-3.014 2.944-1.117 1.758-1.796 3.214-2.038 4.367l-0.139 0.084c-0.074 0-0.186-0.185-0.334-0.557-0.335-0.763-0.842-1.455-1.521-2.079-0.679-0.622-1.4-0.971-2.163-1.046h-0.028c-0.073 0-0.129 0.041-0.167 0.125-0.037 0.083-0.084 0.134-0.139 0.153-0.428 1.004-0.642 1.934-0.642 2.79 0 5.116 2.343 9.45 7.032 13.002z" fill="#fff"/>
   </g>
  </g>
 </g>
 <g transform="matrix(.35278 0 0 -.35278 41.946 243.43)">
  <g clip-path="url(#clipPath24883)">
   <g transform="translate(655,300)">
    <path d="m0 0c16.568 0 30 13.432 30 30s-13.432 30-30 30-30-13.432-30-30 13.432-30 30-30z" fill="none" stroke="#fff" stroke-miterlimit="10" stroke-width="8"/>
   </g>
  </g>
 </g>
 <g transform="matrix(.35278 0 0 -.35278 41.946 243.43)">
  <g clip-path="url(#clipPath24919)">
   <g transform="translate(66.849,1083.1)">
    <path d="m0 0c0 5.302-3.661 9.749-8.591 10.948-0.209 8.314-7.006 14.991-15.366 14.991-4.897 0-9.254-2.293-12.07-5.861-1.579 2.041-4.05 3.358-6.828 3.358-4.769 0-8.633-3.868-8.633-8.639 0-0.416 0.031-0.825 0.089-1.224-0.726 0.13-1.47 0.203-2.232 0.203-6.913 0-12.515-5.607-12.515-12.524 0-6.916 5.602-12.523 12.515-12.523h42.394c6.21 0.013 11.241 5.053 11.241 11.269z" fill="#fff"/>
   </g>
  </g>
 </g>
 <g transform="matrix(.35278 0 0 -.35278 41.946 243.43)">
  <g clip-path="url(#clipPath25293)">
   <g transform="translate(65.5,681)">
    <path d="m0 0c9.113 0 16.5 7.387 16.5 16.5s-7.387 16.5-16.5 16.5-16.5-7.387-16.5-16.5 7.387-16.5 16.5-16.5z" fill="none" stroke="#fff" stroke-miterlimit="10" stroke-width="4"/>
   </g>
  </g>
 </g>
 <g transform="matrix(.35278 0 0 -.35278 41.946 243.43)">
  <g clip-path="url(#clipPath25385)">
   <g transform="translate(77.5,711)">
    <path d="m0 0c7.456 0 13.5 6.044 13.5 13.5s-6.044 13.5-13.5 13.5-13.5-6.044-13.5-13.5 6.044-13.5 13.5-13.5z" fill="none" stroke="#fff" stroke-miterlimit="10" stroke-width="4"/>
   </g>
  </g>
 </g>
 <g transform="matrix(.35278 0 0 -.35278 41.946 243.43)">
  <g clip-path="url(#clipPath25579)">
   <g transform="translate(455.91,931.53)">
    <path d="m0 0c-0.742-1.039-4.75-2.821-8.165-3.563-4.305-0.891-6.531-1.633-8.758-2.82-2.969-1.782-4.601-4.009-4.305-6.087 0.149-0.445 3.711-5.64 7.868-11.578 4.304-5.938 7.868-10.985 8.016-11.134 0.149-0.297-0.445-0.297-2.524-0.148-6.531 0.445-12.469-2.969-15.142-8.314-0.742-1.632-0.89-2.523-0.89-4.453 0-4.453 2.376-8.016 6.829-10.094 1.781-0.742 2.375-0.891 6.086-0.891 4.007 0 4.156 0 6.829 1.336 7.125 3.414 10.093 10.095 7.125 16.181-0.594 1.336-4.305 7.719-8.313 14.251l-7.274 12.024h1.187c4.75 0.297 8.017 1.781 10.244 4.305 1.929 2.227 2.523 4.453 2.374 8.016-0.148 3.266-0.445 4.008-1.187 2.969" fill="#fff"/>
   </g>
  </g>
 </g>
 <g transform="matrix(.35278 0 0 -.35278 41.946 243.43)">
  <g clip-path="url(#clipPath25671)">
   <g transform="translate(784,902.31)">
    <path d="m0 0c0-1.565-0.904-2.931-2.251-3.674l-27.781-18.472c-0.012-8e-3 -0.026-0.014-0.037-0.02l-0.017-0.011c-0.684-0.376-1.48-0.592-2.331-0.592-2.53 0-4.583 1.913-4.583 4.269v37c0 2.356 2.053 4.27 4.583 4.27 0.851 0 1.647-0.217 2.331-0.596l0.017-8e-3c0.011-9e-3 0.022-0.014 0.037-0.02l27.781-18.471c1.347-0.743 2.251-2.11 2.251-3.675" fill="#fff"/>
   </g>
  </g>
 </g>
 <g transform="matrix(.35278 0 0 -.35278 41.946 243.43)">
  <g clip-path="url(#clipPath26055-0)">
   <g transform="translate(223.75,708.35)">
    <path d="m0 0c-15.123 0-27.418 12.329-27.418 27.486 0 1.382 1.111 2.505 2.487 2.505 1.379 0 2.499-1.123 2.499-2.505 0-12.4 10.06-22.487 22.432-22.487 12.375 0 22.443 10.087 22.443 22.487 0 1.382 1.112 2.505 2.488 2.505 1.378 0 2.499-1.123 2.499-2.505 0-15.157-12.304-27.486-27.43-27.486" fill="#fff" fill-rule="evenodd"/>
   </g>
  </g>
 </g>
 <g transform="matrix(.35278 0 0 -.35278 41.946 243.43)">
  <g clip-path="url(#clipPath26157)">
   <g transform="translate(390.75,139.35)">
    <path d="m0 0c-15.123 0-27.418 12.329-27.418 27.485 0 1.383 1.111 2.506 2.487 2.506 1.379 0 2.499-1.123 2.499-2.506 0-12.398 10.06-22.486 22.432-22.486 12.375 0 22.443 10.088 22.443 22.486 0 1.383 1.112 2.506 2.488 2.506 1.378 0 2.499-1.123 2.499-2.506 0-15.156-12.304-27.485-27.43-27.485" fill="#fff" fill-rule="evenodd"/>
   </g>
  </g>
 </g>
 <g transform="matrix(.35278 0 0 -.35278 41.946 243.43)">
  <g clip-path="url(#clipPath26287)">
   <g transform="translate(423.93,686.39)">
    <path d="m0 0c0.245-0.286 0.605-0.456 0.986-0.456 0.382 0 0.743 0.17 0.988 0.456l17.516 20.497c0.333 0.388 0.408 0.933 0.191 1.388-0.211 0.463-0.674 0.756-1.184 0.756h-9.93c-2.118 4.172-3.109 8.382-2.973 12.63 0.135 4.248 1.954 12.361 5.455 24.34-10.956-6.59-17.656-18.44-17.656-31.225v-5.745h-9.93c-0.51 0-0.966-0.293-1.184-0.756-0.211-0.462-0.135-1 0.191-1.388z" fill="#fff"/>
   </g>
  </g>
 </g>
 <circle cx="-309.35" cy="-325.73" r="0" fill="#5e4aa6" stroke-width=".26458"/>
 <circle cx="-18.439" cy="9.0898" r="0" fill="#5e4aa6" fill-rule="evenodd" stroke-width=".26458"/>
</svg>
