<?xml version="1.0" encoding="UTF-8"?>
<svg width="64" height="64" version="1.1" viewBox="0 0 16.933 16.933" xmlns="http://www.w3.org/2000/svg" xmlns:cc="http://creativecommons.org/ns#" xmlns:dc="http://purl.org/dc/elements/1.1/" xmlns:rdf="http://www.w3.org/1999/02/22-rdf-syntax-ns#" xmlns:xlink="http://www.w3.org/1999/xlink">
 <metadata>
  <rdf:RDF>
   <cc:Work rdf:about="">
    <dc:format>image/svg+xml</dc:format>
    <dc:type rdf:resource="http://purl.org/dc/dcmitype/StillImage"/>
    <dc:title/>
   </cc:Work>
  </rdf:RDF>
 </metadata>
 <defs>
  <linearGradient id="linearGradient13552" x1="10.798" x2="10.798" y1="282.88" y2="283.29" gradientTransform="matrix(1.0543 0 0 .55499 4.1087 128.14)" gradientUnits="userSpaceOnUse" xlink:href="#linearGradient991"/>
  <linearGradient id="linearGradient991">
   <stop stop-color="#969696" offset="0"/>
   <stop stop-color="#e6e6e6" stop-opacity=".90196" offset="1"/>
  </linearGradient>
  <linearGradient id="linearGradient13554-3" x1="8.8166" x2="8.8166" y1="293.7" y2="294.12" gradientTransform="matrix(.94579 0 0 .555 7.7176 133.01)" gradientUnits="userSpaceOnUse" xlink:href="#linearGradient991"/>
  <linearGradient id="linearGradient13556" x1="7.998" x2="7.998" y1="284.98" y2="285.41" gradientTransform="matrix(.94579 0 0 .555 7.9256 129.13)" gradientUnits="userSpaceOnUse" xlink:href="#linearGradient991"/>
  <linearGradient id="linearGradient13558" x1="8.7643" x2="8.7643" y1="287.18" y2="287.64" gradientTransform="matrix(.94579 0 0 .555 7.919 130.1)" gradientUnits="userSpaceOnUse" xlink:href="#linearGradient991"/>
  <linearGradient id="linearGradient13560" x1="8.3178" x2="8.3178" y1="289.36" y2="289.81" gradientTransform="matrix(.94579 0 0 .555 7.901 131.07)" gradientUnits="userSpaceOnUse" xlink:href="#linearGradient991"/>
  <linearGradient id="linearGradient13562" x1="8.2553" x2="8.2553" y1="291.55" y2="291.96" gradientTransform="matrix(.94579 0 0 .55502 8.0111 132.03)" gradientUnits="userSpaceOnUse" xlink:href="#linearGradient991"/>
  <clipPath id="clipPath25647-7">
   <path d="m-0.9996 1335h1029v-1334h-1029z"/>
  </clipPath>
  <linearGradient id="linearGradient677348" x1="-6.1738" x2="-6.1738" y1="-126.08" y2="-126.7" gradientTransform="matrix(.54035 0 0 .54035 11.592 73.26)" gradientUnits="userSpaceOnUse">
   <stop stop-color="#f05a8c" offset="0"/>
   <stop stop-color="#c85078" offset="1"/>
  </linearGradient>
  <linearGradient id="linearGradient677346" x1="19.27" x2="19.27" y1="280.2" y2="297.35" gradientTransform="matrix(.99997 0 0 .99997 -10.846 -280.07)" gradientUnits="userSpaceOnUse">
   <stop stop-color="#ff6ea0" offset="0"/>
   <stop stop-color="#dc5a8c" offset="1"/>
  </linearGradient>
  <linearGradient id="linearGradient677332" x1="16.721" x2="16.721" y1="279.38" y2="297.64" gradientTransform="matrix(.98127 0 0 .99997 -7.7464 -280.07)" gradientUnits="userSpaceOnUse">
   <stop stop-color="#ff6ea0" offset="0"/>
   <stop stop-color="#dc5a8c" offset="1"/>
  </linearGradient>
 </defs>
 <circle cx="8.4931" cy="8.7323" r="7.9375" opacity=".2" stroke-width=".14032"/>
 <ellipse cx="8.4931" cy="8.4723" rx="7.7988" ry="7.9476" fill="url(#linearGradient677332)" stroke-width="1.1902" style="paint-order:stroke markers fill"/>
 <g transform="matrix(.85831 0 0 .85831 -5.1765 -241.39)">
  <circle cx="15.926" cy="290.69" r="7.9375" fill="#fafafa" style="paint-order:normal"/>
  <path d="m10.551 285.17c-0.04221 0.0443-0.07897 0.0835-0.13658 0.14895l11.024 9.8e-4c-0.05944-0.0607-0.08604-0.0922-0.14076-0.15z" fill="url(#linearGradient13552)" opacity=".6" style="paint-order:normal"/>
  <path d="m10.431 296.06c0.04857 0.052 0.08052 0.0907 0.1349 0.15h10.72c0.05003-0.0561 0.07465-0.0855 0.13441-0.15z" fill="url(#linearGradient13554-3)" opacity=".6" style="paint-order:normal"/>
  <path d="m9.1386 287.33c-0.022302 0.0517-0.037132 0.0892-0.065978 0.15h13.708c-0.02381-0.0504-0.04631-0.10145-0.06843-0.15z" fill="url(#linearGradient13556)" opacity=".6" style="paint-order:normal"/>
  <path d="m8.5204 289.52c-0.00964 0.0489-0.015643 0.0999-0.024922 0.15h14.862c-0.0088-0.0501-0.01516-0.10114-0.0259-0.15z" fill="url(#linearGradient13558)" opacity=".6" style="paint-order:normal"/>
  <path d="m8.4942 291.7c0.00899 0.0501 0.01744 0.10011 0.027371 0.15h14.811c0.0093-0.0539 0.01711-0.0968 0.02541-0.15z" fill="url(#linearGradient13560)" opacity=".6" style="paint-order:normal"/>
  <path d="m9.0766 293.88c0.021867 0.0535 0.040442 0.0932 0.064512 0.15h13.57c0.02313-0.0512 0.03674-0.0804 0.06941-0.15z" fill="url(#linearGradient13562)" opacity=".6" style="paint-order:normal"/>
 </g>
 <path d="m8.4931 3.3024c-0.32458 7.93e-4 -0.42373 0.31783-0.58797 0.60998l-0.34222 0.60817-6.1696 5.29e-4a7.9376 8.2266 0 0 0-0.83717 3.6563 7.9376 8.2266 0 0 0 7.9376 8.2266 7.9376 8.2266 0 0 0 7.9376-8.2266 7.9376 8.2266 0 0 0-1.5556-4.875h-6.3815z" fill="url(#linearGradient677346)" stroke-width="1.1312" style="paint-order:stroke markers fill"/>
 <path d="m1.3013 4.8324c-0.0461 0.091-0.0916 0.18276-0.13426 0.27537h14.652c-0.0408-0.0926-0.0896-0.18438-0.13374-0.27537z" fill="url(#linearGradient677348)" stroke-width=".14297"/>
 <g transform="matrix(.69049 0 0 .69049 -78.382 -149.07)">
  <g transform="matrix(.11126 0 0 -.11126 68.204 331.35)" fill="#fff">
   <g fill="#fff">
    <g fill="#fff">
     <g fill="#fff">
      <g clip-path="url(#clipPath25647-7)" fill="#fff">
       <path d="m527.94 931.53c-0.742-1.04-4.751-2.822-8.164-3.563-4.305-0.891-6.532-1.634-8.758-2.821-2.97-1.781-4.603-4.009-4.306-6.087 0.149-0.445 3.712-5.64 7.868-11.578 4.305-5.938 7.7928-10.872 7.9398-11.02 0.29231-0.61958-1.5594-0.10676-2.3622-0.25238l-0.19733-9e-3c-8.6452-0.80697-15.652-5.7948-15.92-12.766 0-4.454 3.3052-8.707 6.829-10.095 10.651-3.9587 23.89 7.0973 20.041 16.626-0.594 1.337-4.305 7.719-8.315 14.251l-7.272 12.025h1.187c4.75 0.296 8.016 1.781 10.243 4.304 1.93 2.227 2.523 4.453 2.375 8.016-0.107 2.365-0.293 3.407-0.669 3.407-0.143 0-0.314-0.151-0.519-0.437" fill="#fff"/>
      </g>
     </g>
    </g>
   </g>
  </g>
 </g>
 <circle cx="-330.35" cy="-328.38" r="0" fill="#5e4aa6" stroke-width=".26458"/>
</svg>
