<?xml version="1.0" encoding="UTF-8"?>
<!-- Created with Inkscape (http://www.inkscape.org/) -->
<svg width="64" height="64" version="1.1" viewBox="0 0 16.933 16.933" xmlns="http://www.w3.org/2000/svg" xmlns:cc="http://creativecommons.org/ns#" xmlns:dc="http://purl.org/dc/elements/1.1/" xmlns:rdf="http://www.w3.org/1999/02/22-rdf-syntax-ns#" xmlns:xlink="http://www.w3.org/1999/xlink">
 <defs>
  <linearGradient id="linearGradient13468" x1="10.798" x2="10.798" y1="282.88" y2="283.29" gradientTransform="matrix(1.0543 0 0 .55499 4.1087 128.14)" gradientUnits="userSpaceOnUse" xlink:href="#linearGradient991"/>
  <linearGradient id="linearGradient991">
   <stop stop-color="#969696" offset="0"/>
   <stop stop-color="#e6e6e6" stop-opacity=".90196" offset="1"/>
  </linearGradient>
  <linearGradient id="linearGradient13470" x1="8.8166" x2="8.8166" y1="293.7" y2="294.12" gradientTransform="matrix(.94579 0 0 .555 7.7176 133.01)" gradientUnits="userSpaceOnUse" xlink:href="#linearGradient991"/>
  <linearGradient id="linearGradient13472" x1="7.998" x2="7.998" y1="284.98" y2="285.41" gradientTransform="matrix(.94579 0 0 .555 7.9256 129.13)" gradientUnits="userSpaceOnUse" xlink:href="#linearGradient991"/>
  <linearGradient id="linearGradient13474" x1="8.7643" x2="8.7643" y1="287.18" y2="287.64" gradientTransform="matrix(.94579 0 0 .555 7.919 130.1)" gradientUnits="userSpaceOnUse" xlink:href="#linearGradient991"/>
  <linearGradient id="linearGradient13476" x1="8.3178" x2="8.3178" y1="289.36" y2="289.81" gradientTransform="matrix(.94579 0 0 .555 7.901 131.07)" gradientUnits="userSpaceOnUse" xlink:href="#linearGradient991"/>
  <linearGradient id="linearGradient13478" x1="8.2553" x2="8.2553" y1="291.55" y2="291.96" gradientTransform="matrix(.94579 0 0 .55502 8.0111 132.03)" gradientUnits="userSpaceOnUse" xlink:href="#linearGradient991"/>
  <linearGradient id="linearGradient677348" x1="-6.1738" x2="-6.1738" y1="-126.08" y2="-126.7" gradientTransform="matrix(.54036 0 0 .54036 11.594 73.26)" gradientUnits="userSpaceOnUse">
   <stop stop-color="#e14b4b" offset="0"/>
   <stop stop-color="#a03232" offset="1"/>
  </linearGradient>
  <linearGradient id="linearGradient677346" x1="19.27" x2="19.27" y1="279.77" y2="297.35" gradientTransform="matrix(.99999 0 0 .99999 -10.846 -280.08)" gradientUnits="userSpaceOnUse">
   <stop stop-color="#f05050" offset="0"/>
   <stop stop-color="#c84641" offset="1"/>
  </linearGradient>
  <linearGradient id="linearGradient677332" x1="16.721" x2="16.721" y1="279.38" y2="297.64" gradientTransform="matrix(.98129 0 0 .99999 -7.7462 -280.08)" gradientUnits="userSpaceOnUse">
   <stop stop-color="#f05050" offset="0"/>
   <stop stop-color="#c84641" offset="1"/>
  </linearGradient>
 </defs>
 <metadata>
  <rdf:RDF>
   <cc:Work rdf:about="">
    <dc:format>image/svg+xml</dc:format>
    <dc:type rdf:resource="http://purl.org/dc/dcmitype/StillImage"/>
    <dc:title/>
   </cc:Work>
  </rdf:RDF>
 </metadata>
 <circle cx="8.4937" cy="8.73" r="7.9376" opacity=".2" stroke-width=".14032"/>
 <ellipse cx="8.4937" cy="8.47" rx="7.7989" ry="7.9477" fill="url(#linearGradient677332)" stroke-width="1.1902" style="paint-order:stroke markers fill"/>
 <g transform="matrix(.85833 0 0 .85833 -5.1762 -241.39)">
  <circle cx="15.926" cy="290.69" r="7.9375" fill="#fafafa" style="paint-order:normal"/>
  <path d="m10.551 285.17c-0.04221 0.0443-0.07897 0.0835-0.13658 0.14895l11.024 9.8e-4c-0.05944-0.0607-0.08604-0.0922-0.14076-0.15z" fill="url(#linearGradient13468)" opacity=".6" style="paint-order:normal"/>
  <path d="m10.431 296.06c0.04857 0.052 0.08052 0.0907 0.1349 0.15h10.72c0.05003-0.0561 0.07465-0.0855 0.13441-0.15z" fill="url(#linearGradient13470)" opacity=".6" style="paint-order:normal"/>
  <path d="m9.1386 287.33c-0.022302 0.0517-0.037132 0.0892-0.065978 0.15h13.708c-0.02381-0.0504-0.04631-0.10145-0.06843-0.15z" fill="url(#linearGradient13472)" opacity=".6" style="paint-order:normal"/>
  <path d="m8.5204 289.52c-0.00964 0.0489-0.015643 0.0999-0.024922 0.15h14.862c-0.0088-0.0501-0.01516-0.10114-0.0259-0.15z" fill="url(#linearGradient13474)" opacity=".6" style="paint-order:normal"/>
  <path d="m8.4942 291.7c0.00899 0.0501 0.01744 0.10011 0.027371 0.15h14.811c0.0093-0.0539 0.01711-0.0968 0.02541-0.15z" fill="url(#linearGradient13476)" opacity=".6" style="paint-order:normal"/>
  <path d="m9.0766 293.88c0.021867 0.0535 0.040442 0.0932 0.064512 0.15h13.57c0.02313-0.0512 0.03674-0.0804 0.06941-0.15z" fill="url(#linearGradient13478)" opacity=".6" style="paint-order:normal"/>
 </g>
 <path d="m8.4937 3.3c-0.32459 7.937e-4 -0.42374 0.31784-0.58798 0.60999l-0.34223 0.60819-6.1697 5.292e-4a7.9377 8.2267 0 0 0-0.83719 3.6564 7.9377 8.2267 0 0 0 7.9377 8.2267 7.9377 8.2267 0 0 0 7.9377-8.2267 7.9377 8.2267 0 0 0-1.5556-4.875h-6.3816z" fill="url(#linearGradient677346)" stroke-width="1.1312" style="paint-order:stroke markers fill"/>
 <path d="m1.3037 4.83c-0.0461 0.091-0.0916 0.18277-0.13426 0.27538h14.652c-0.0408-0.0926-0.0896-0.18439-0.13374-0.27538z" fill="url(#linearGradient677348)" stroke-width=".14297"/>
 <circle cx="-330.35" cy="-328.38" r="0" fill="#5e4aa6" stroke-width=".26458"/>
 <circle cx="-39.434" cy="6.44" r="0" fill="#5e4aa6" fill-rule="evenodd" stroke-width=".26458"/>
 <g transform="matrix(.83329 0 0 .83329 -76.568 -182.05)" stroke-width=".28785">
  <path d="m102.08 227.66c-0.072 0-0.13741 0.0459-0.1605 0.11761l-0.67146 2.0763-2.1558-0.012c-0.0604-5e-3 -0.1172 0.0166-0.15461 0.0693-0.0547 0.0774-0.0409 0.18387 0.0368 0.2385l1.767 1.2781-0.67882 2.0557c-0.0172 0.0519-0.011 0.11145 0.0236 0.16051 0.0547 0.0777 0.16371 0.0928 0.23854 0.0381l1.7553-1.281 6e-3 -3e-3 1.739 1.2781c0.0432 0.0374 0.10585 0.051 0.16345 0.0309 0.0892-0.0288 0.13924-0.1257 0.11044-0.21483l-0.67735-2.0733 1.7508-1.2575c0.0489-0.0288 0.0824-0.084 0.0824-0.14715 0-0.0948-0.0743-0.16934-0.16933-0.16934l-2.1823 3e-3 -0.65526-2.0527c-0.0145-0.0576-0.0558-0.10651-0.11338-0.12646-0.0174-5e-3 -0.0312-9e-3 -0.0486-9e-3z" fill="#fafafa"/>
 </g>
 <circle cx="-306.28" cy="-337.2" r="0" fill="#5e4aa6" stroke-width=".26459"/>
</svg>
