<svg width="64" height="64" version="1.1" viewBox="0 0 16.933 16.933" xmlns="http://www.w3.org/2000/svg" xmlns:xlink="http://www.w3.org/1999/xlink">
 <defs>
  <linearGradient id="g" x1="16.721" x2="16.721" y1="279.38" y2="297.64" gradientTransform="matrix(.9987 0 0 .99871 -8.0604 -279.7)" gradientUnits="userSpaceOnUse">
   <stop stop-color="#ffb932" offset="0"/>
   <stop stop-color="#e68c32" offset="1"/>
  </linearGradient>
 </defs>
 <circle cx="8.4935" cy="8.73" r="7.9375" opacity=".2" stroke-width=".14032"/>
 <circle cx="-330.35" cy="-328.38" r="0" fill="#5e4aa6" stroke-width=".26458"/>
 <circle cx="8.4665" cy="8.4665" r="7.9373" fill="url(#g)" stroke-width="1.2" style="paint-order:stroke markers fill"/>
 <path d="m12.436 12.171c0-1.2998-2.2056-1.9629-3.0854-2.1986 0 0 0.036457-0.72877 0.12149-0.99604 0.085036-0.26726 0.097155-0.57093 0.13361-0.65595 0.036464-0.085 0.46592-0.47375 0.49025-0.83813-0.0059-0.2175-0.04885-0.26894-0.15616-0.26894v-1.1295c0-0.60979-0.88904-1.1423-1.4725-1.1423-0.58358 0-1.4725 0.5325-1.4725 1.1423v1.1295c-0.10741 0-0.15038 0.0515-0.15616 0.26894 0.024335 0.36436 0.4537 0.7531 0.49025 0.83813 0.036367 0.085 0.048491 0.38864 0.13353 0.65595 0.085037 0.26723 0.12149 0.99604 0.12149 0.99604-0.87978 0.23576-3.0854 0.89887-3.0854 2.1986z" opacity=".15" stroke-width=".26458"/>
 <path d="m12.436 11.906c0-1.2998-2.2056-1.9629-3.0854-2.1986 0 0 0.036457-0.72877 0.12149-0.99604 0.085036-0.26726 0.097155-0.57093 0.13361-0.65595 0.036464-0.085 0.46592-0.47375 0.49025-0.83813-0.0059-0.2175-0.04885-0.26894-0.15616-0.26894v-1.1295c0-0.60979-0.88904-1.1423-1.4725-1.1423-0.58358 0-1.4725 0.5325-1.4725 1.1423v1.1295c-0.10741 0-0.15038 0.0515-0.15616 0.26894 0.024335 0.36436 0.4537 0.7531 0.49025 0.83813 0.036367 0.085 0.048491 0.38864 0.13353 0.65595 0.085037 0.26723 0.12149 0.99604 0.12149 0.99604-0.87978 0.23576-3.0854 0.89887-3.0854 2.1986z" fill="#f9f9f9" stroke-width=".26458"/>
</svg>
