<svg width="64" height="64" version="1.1" viewBox="0 0 16.933 16.933" xmlns="http://www.w3.org/2000/svg" xmlns:xlink="http://www.w3.org/1999/xlink">
 <defs>
  <linearGradient id="g" x1="16.721" x2="16.721" y1="279.38" y2="297.64" gradientTransform="matrix(.9987 0 0 .99871 -8.0604 -279.7)" gradientUnits="userSpaceOnUse">
   <stop stop-color="#b3b3b3" offset="0"/>
   <stop stop-color="#d9d9d9" offset="1"/>
  </linearGradient>
  <filter id="a" x="-.021" y="-.028" width="1.042" height="1.056" color-interpolation-filters="sRGB">
   <feGaussianBlur stdDeviation="1.12"/>
  </filter>
  <clipPath id="c">
   <path d="m8.4799-0.6195c-2.0357 0.00256-6.2799 0.83527-5.3267 4.3928 0 0 0.021703 0.72452 0.81544 0.72452h8.7311c1.0583 0 1.1048-0.72452 1.1048-0.72452 1.0712-3.9976-3.2897-4.3897-5.3246-4.3928z" fill="#666" stroke-width="1.0318" style="paint-order:stroke markers fill"/>
  </clipPath>
  <linearGradient id="b" x1="16.721" x2="16.721" y1="279.38" y2="297.64" gradientTransform="matrix(.99871 0 0 .99871 -8.0604 -279.71)" gradientUnits="userSpaceOnUse" xlink:href="#g"/>
 </defs>
 <circle cx="8.4665" cy="8.749" r="7.9373" opacity=".35" stroke-width="1.2" style="paint-order:stroke markers fill"/>
 <circle cx="-330.35" cy="-328.38" r="0" fill="#5e4aa6" stroke-width=".26458"/>
 <circle cx="8.4665" cy="8.4665" r="7.9373" fill="url(#g)" stroke-width="1.2" style="paint-order:stroke markers fill"/>
 <path d="m7.9903 7.3506c0.09485 0.01724 0.19836 0.10341 0.2501 0.17239l0.8364 1.4486-0.43107 0.25867h1.4313l0.71564-1.2416-0.43982 0.24993-0.43964-0.77602c-0.04311-0.0776-0.12935-0.11201-0.2242-0.11201zm-0.4935 0.08731c-0.21987 0.0075-0.43333 0.08938-0.52387 0.2489l-0.65526 1.1469 1.2587 0.7328 0.80192-1.3968-0.31905-0.5345c-0.1164-0.13796-0.34259-0.20481-0.56246-0.19726zm3.4079 1.7752-1.2675 0.72422 0.80192 1.3709h0.68116c0.27592-0.05173 0.68982-0.50013 0.44839-0.96574zm-5.6131 0.30173 0.45697 0.26725-0.29315 0.49144c-0.25867 0.48286 0.17239 1.0154 0.43107 1.0434h0.67259l0.45697-0.79334 0.45697 0.2501-0.7328-1.2589zm4.1129 1.4743-0.73297 1.2589 0.73297 1.2503v-0.52592h0.89678c0.10347 0 0.17238-0.06036 0.20687-0.12934l0.8105-1.4313c-0.04311 0.02587-0.06895 0.06887-0.23277 0.08611h-1.6814zm-3.7249 0.43981c0.03449 0.04311 0.02583 0.03455 0.7846 1.3796 0.05174 0.0776 0.12077 0.17244 0.21562 0.16382h1.6124v-1.4745h-2.397c-0.12934 0-0.17466-0.03447-0.21562-0.06896z" enable-background="new" opacity=".15"/>
 <path d="m8.4801 1.3095c-2.0357 0.0028-3.9735 0.87393-5.3268 2.3947 0 0 0.021704 0.79374 0.81544 0.79374h8.7311c1.0583 0 1.1048-0.79374 1.1048-0.79374-1.3528-1.5202-3.2898-2.3913-5.3247-2.3947z" fill="#5a5a5a" stroke-width="1.08" style="paint-order:stroke markers fill"/>
 <path d="m8.4799 1.5875c-2.0357 0.00256-3.9734 0.79773-5.3267 2.1858 0 0 0.021703 0.72452 0.81544 0.72452h8.731c1.0583 0 1.1048-0.72452 1.1048-0.72452-1.3528-1.3876-3.2897-2.1827-5.3246-2.1858z" fill="#666" stroke-width="1.0318" style="paint-order:stroke markers fill"/>
 <g transform="translate(-4.566e-5 -2.2e-8)" clip-path="url(#c)">
  <g transform="matrix(.067728 -.0023602 -.0023602 -.067728 -28.761 13.955)">
   <path d="m616 89.232c0-19.252-2.0717-21.324-22.282-21.229h-83.436c-20.21-0.09436-22.282 1.9772-22.282 21.229v53.538c0 19.252 2.0714 21.229 22.282 21.229h83.436c20.211 0 22.282-1.9772 22.282-21.229z" color="#000000" filter="url(#a)" opacity=".2" stroke="#000" stroke-width="2"/>
   <path d="m616 89.232c0-19.252-2.0717-21.324-22.282-21.229h-83.436c-20.21-0.09436-22.282 1.9772-22.282 21.229v53.538c0 19.252 2.0714 21.229 22.282 21.229h83.436c20.211 0 22.282-1.9772 22.282-21.229z" color="#000000" fill="#e6e6e6"/>
  </g>
  <g transform="matrix(.067726 .0024269 .0024269 -.067726 -29.034 11.584)">
   <path d="m616 85.232c0-19.252-2.0717-21.324-22.282-21.229h-83.436c-20.21-0.09436-22.282 1.9772-22.282 21.229v53.538c0 19.252 2.0714 21.229 22.282 21.229h83.436c20.211 0 22.282-1.9772 22.282-21.229z" color="#000000" filter="url(#a)" opacity=".2" stroke="#000" stroke-width="2"/>
   <path d="m616 85.232c0-19.252-2.0717-21.324-22.282-21.229h-83.436c-20.21-0.09436-22.282 1.9772-22.282 21.229v53.538c0 19.252 2.0714 21.229 22.282 21.229h83.436c20.211 0 22.282-1.9772 22.282-21.229z" color="#000000" fill="#ececec"/>
  </g>
  <g transform="matrix(.06777 0 0 -.06777 -29.057 13.47)">
   <path d="m616 81.232c0-19.252-2.0717-21.324-22.282-21.229h-83.436c-20.21-0.09436-22.282 1.9772-22.282 21.229v53.538c0 19.252 2.0714 21.229 22.282 21.229h83.436c20.211 0 22.282-1.9772 22.282-21.229z" color="#000000" filter="url(#a)" opacity=".2" stroke="#000" stroke-width="2"/>
   <path d="m616 81.232c0-19.252-2.0717-21.324-22.282-21.229h-83.436c-20.21-0.09436-22.282 1.9772-22.282 21.229v53.538c0 19.252 2.0714 21.229 22.282 21.229h83.436c20.211 0 22.282-1.9772 22.282-21.229z" color="#000000" fill="#f7f7f7"/>
  </g>
  <g transform="matrix(.067535 -.0056355 -.0056355 -.067535 -28.748 17.099)">
   <path d="m616 77.232c0-19.252-2.0717-21.324-22.282-21.229h-83.436c-20.21-0.09436-22.282 1.9772-22.282 21.229v53.538c0 19.252 2.0714 21.229 22.282 21.229h83.436c20.211 0 22.282-1.9772 22.282-21.229z" color="#000000" filter="url(#a)" opacity=".2" stroke="#000" stroke-width="2"/>
   <path d="m616 77.232c0-19.252-2.0717-21.324-22.282-21.229h-83.436c-20.21-0.09436-22.282 1.9772-22.282 21.229v53.538c0 19.252 2.0714 21.229 22.282 21.229h83.436c20.211 0 22.282-1.9772 22.282-21.229z" color="#000000" fill="#fff"/>
  </g>
 </g>
 <rect x="3.1556" y="1.2054" width="10.107" height="3.2924" fill="none"/>
 <path d="m3.1062 2.6236a7.9374 7.9374 0 0 0-2.5771 5.843 7.9374 7.9374 0 0 0 7.9374 7.9374 7.9374 7.9374 0 0 0 7.9374-7.9374 7.9374 7.9374 0 0 0-2.5435-5.8099c-0.26992 0.43201-0.34252 0.82263-0.05581 1.1167 0 0-0.04652 0.7245-1.1048 0.7245h-8.7311c-0.79374 0-0.81544-0.7245-0.81544-0.7245 0.27757-0.28469 0.21104-0.68878-0.047026-1.1498z" fill="url(#b)" stroke-width="1.2" style="paint-order:stroke markers fill"/>
 <path d="m7.9903 7.0779c0.09485 0.01724 0.19836 0.10341 0.2501 0.17239l0.8364 1.4486-0.43107 0.25867h1.4313l0.71564-1.2416-0.43982 0.24993-0.43964-0.77602c-0.04311-0.0776-0.12935-0.11201-0.2242-0.11201zm-0.4935 0.08731c-0.21987 0.0075-0.43333 0.08938-0.52387 0.2489l-0.65526 1.1469 1.2587 0.7328 0.80192-1.3968-0.31905-0.5345c-0.1164-0.13796-0.34259-0.20481-0.56246-0.19726zm3.4079 1.7752-1.2675 0.72422 0.80192 1.3709h0.68116c0.27592-0.05173 0.68982-0.50013 0.44839-0.96574zm-5.6131 0.30173 0.45697 0.26725-0.29315 0.49144c-0.25867 0.48286 0.17239 1.0154 0.43107 1.0434h0.67259l0.45697-0.79334 0.45697 0.2501-0.7328-1.2589zm4.1129 1.4743-0.73297 1.2589 0.73297 1.2503v-0.52592h0.89678c0.10347 0 0.17238-0.06036 0.20687-0.12934l0.8105-1.4313c-0.04311 0.02587-0.06895 0.06887-0.23277 0.08611h-1.6814zm-3.7249 0.43981c0.03449 0.04311 0.02583 0.03455 0.7846 1.3796 0.05174 0.0776 0.12077 0.17244 0.21562 0.16382h1.6124v-1.4745h-2.397c-0.12934 0-0.17466-0.03447-0.21562-0.06896z" enable-background="new" fill="#28851e"/>
 <path transform="scale(.26458)" d="m52.021 14.848c-0.29701 0.80304-1.2017 2.1523-4.0215 2.1523h-33c-2.08 0-2.747-1.304-2.9668-2.1113-0.037815 0.041783-0.077656 0.081-0.11523 0.12305 0 0 0.082021 2.9883 3.082 2.9883h33c4 0 4.1758-2.9883 4.1758-2.9883-0.050185-0.056158-0.10369-0.10838-0.1543-0.16406z" fill="#fff" opacity=".25" stroke-width="4.0733" style="paint-order:stroke markers fill"/>
</svg>
