<svg width="64" height="64" version="1.1" viewBox="0 0 16.933 16.933" xmlns="http://www.w3.org/2000/svg" xmlns:xlink="http://www.w3.org/1999/xlink">
 <defs>
  <linearGradient id="g" x1="16.721" x2="16.721" y1="279.38" y2="297.64" gradientTransform="matrix(.9987 0 0 .99871 -8.0604 -279.7)" gradientUnits="userSpaceOnUse">
   <stop stop-color="#b3b3b3" offset="0"/>
   <stop stop-color="#d9d9d9" offset="1"/>
  </linearGradient>
 </defs>
 <circle cx="8.4665" cy="8.749" r="7.9373" opacity=".35" stroke-width="1.2" style="paint-order:stroke markers fill"/>
 <circle cx="-330.35" cy="-328.38" r="0" fill="#5e4aa6" stroke-width=".26458"/>
 <circle cx="8.4665" cy="8.4665" r="7.9373" fill="url(#g)" stroke-width="1.2" style="paint-order:stroke markers fill"/>
 <g>
  <path d="m7.9903 7.3506c0.09485 0.01724 0.19836 0.10341 0.2501 0.17239l0.8364 1.4486-0.43107 0.25867h1.4313l0.71564-1.2416-0.43982 0.24993-0.43964-0.77602c-0.04311-0.0776-0.12935-0.11201-0.2242-0.11201zm-0.4935 0.08731c-0.21987 0.0075-0.43333 0.08938-0.52387 0.2489l-0.65526 1.1469 1.2587 0.7328 0.80192-1.3968-0.31905-0.5345c-0.1164-0.13796-0.34259-0.20481-0.56246-0.19726zm3.4079 1.7752-1.2675 0.72422 0.80192 1.3709h0.68116c0.27592-0.05173 0.68982-0.50013 0.44839-0.96574zm-5.6131 0.30173 0.45697 0.26725-0.29315 0.49144c-0.25867 0.48286 0.17239 1.0154 0.43107 1.0434h0.67259l0.45697-0.79334 0.45697 0.2501-0.7328-1.2589zm4.1129 1.4743-0.73297 1.2589 0.73297 1.2503v-0.52592h0.89678c0.10347 0 0.17238-0.06036 0.20687-0.12934l0.8105-1.4313c-0.04311 0.02587-0.06895 0.06887-0.23277 0.08611h-1.6814zm-3.7249 0.43981c0.03449 0.04311 0.02583 0.03455 0.7846 1.3796 0.05174 0.0776 0.12077 0.17244 0.21562 0.16382h1.6124v-1.4745h-2.397c-0.12934 0-0.17466-0.03447-0.21562-0.06896z" enable-background="new" opacity=".15"/>
  <path d="m7.9903 7.0779c0.09485 0.01724 0.19836 0.10341 0.2501 0.17239l0.8364 1.4486-0.43107 0.25867h1.4313l0.71564-1.2416-0.43982 0.24993-0.43964-0.77602c-0.04311-0.0776-0.12935-0.11201-0.2242-0.11201zm-0.4935 0.08731c-0.21987 0.0075-0.43333 0.08938-0.52387 0.2489l-0.65526 1.1469 1.2587 0.7328 0.80192-1.3968-0.31905-0.5345c-0.1164-0.13796-0.34259-0.20481-0.56246-0.19726zm3.4079 1.7752-1.2675 0.72422 0.80192 1.3709h0.68116c0.27592-0.05173 0.68982-0.50013 0.44839-0.96574zm-5.6131 0.30173 0.45697 0.26725-0.29315 0.49144c-0.25867 0.48286 0.17239 1.0154 0.43107 1.0434h0.67259l0.45697-0.79334 0.45697 0.2501-0.7328-1.2589zm4.1129 1.4743-0.73297 1.2589 0.73297 1.2503v-0.52592h0.89678c0.10347 0 0.17238-0.06036 0.20687-0.12934l0.8105-1.4313c-0.04311 0.02587-0.06895 0.06887-0.23277 0.08611h-1.6814zm-3.7249 0.43981c0.03449 0.04311 0.02583 0.03455 0.7846 1.3796 0.05174 0.0776 0.12077 0.17244 0.21562 0.16382h1.6124v-1.4745h-2.397c-0.12934 0-0.17466-0.03447-0.21562-0.06896z" enable-background="new" fill="#28851e"/>
  <path d="m8.4799 1.5875c-2.0357 0.00279-3.9734 0.87025-5.3267 2.3845 0 0 0.021703 0.79039 0.81544 0.79039h4.5102 4.2208c1.0583 0 1.1048-0.79039 1.1048-0.79039-1.3528-1.5138-3.2897-2.3812-5.3246-2.3845z" fill="#fff" opacity=".25" stroke-width="1.0777" style="paint-order:stroke markers fill"/>
  <path transform="scale(.26458)" d="m32.051 4.9492c-7.694 0.01058-15.018 3.3031-20.133 9.0508 0 0 0.08203 3 3.082 3h17.047 15.953c4 0 4.1758-3 4.1758-3-5.113-5.7456-12.434-9.038-20.125-9.0508z" fill="#5a5a5a" stroke-width="4.0818" style="paint-order:stroke markers fill"/>
  <path d="m8.4799 1.5875c-2.0357 0.00256-3.9734 0.79773-5.3267 2.1858 0 0 0.021703 0.72452 0.81544 0.72452h4.5102 4.2208c1.0583 0 1.1048-0.72452 1.1048-0.72452-1.3528-1.3876-3.2897-2.1827-5.3246-2.1858z" fill="#666" stroke-width="1.0318" style="paint-order:stroke markers fill"/>
 </g>
</svg>
