<?xml version="1.0" encoding="UTF-8"?>
<svg width="64" height="64" version="1.1" viewBox="0 0 16.933 16.933" xmlns="http://www.w3.org/2000/svg" xmlns:cc="http://creativecommons.org/ns#" xmlns:dc="http://purl.org/dc/elements/1.1/" xmlns:rdf="http://www.w3.org/1999/02/22-rdf-syntax-ns#" xmlns:xlink="http://www.w3.org/1999/xlink">
 <metadata>
  <rdf:RDF>
   <cc:Work rdf:about="">
    <dc:format>image/svg+xml</dc:format>
    <dc:type rdf:resource="http://purl.org/dc/dcmitype/StillImage"/>
    <dc:title/>
   </cc:Work>
  </rdf:RDF>
 </metadata>
 <defs>
  <linearGradient id="linearGradient13564" x1="10.798" x2="10.798" y1="282.88" y2="283.29" gradientTransform="matrix(1.0543 0 0 .55499 4.1087 128.14)" gradientUnits="userSpaceOnUse" xlink:href="#linearGradient991"/>
  <linearGradient id="linearGradient991">
   <stop stop-color="#969696" offset="0"/>
   <stop stop-color="#e6e6e6" stop-opacity=".90196" offset="1"/>
  </linearGradient>
  <linearGradient id="linearGradient13566" x1="8.8166" x2="8.8166" y1="293.7" y2="294.12" gradientTransform="matrix(.94579 0 0 .555 7.7176 133.01)" gradientUnits="userSpaceOnUse" xlink:href="#linearGradient991"/>
  <linearGradient id="linearGradient13568-3" x1="7.998" x2="7.998" y1="284.98" y2="285.41" gradientTransform="matrix(.94579 0 0 .555 7.9256 129.13)" gradientUnits="userSpaceOnUse" xlink:href="#linearGradient991"/>
  <linearGradient id="linearGradient13570" x1="8.7643" x2="8.7643" y1="287.18" y2="287.64" gradientTransform="matrix(.94579 0 0 .555 7.919 130.1)" gradientUnits="userSpaceOnUse" xlink:href="#linearGradient991"/>
  <linearGradient id="linearGradient13572" x1="8.3178" x2="8.3178" y1="289.36" y2="289.81" gradientTransform="matrix(.94579 0 0 .555 7.901 131.07)" gradientUnits="userSpaceOnUse" xlink:href="#linearGradient991"/>
  <linearGradient id="linearGradient13574" x1="8.2553" x2="8.2553" y1="291.55" y2="291.96" gradientTransform="matrix(.94579 0 0 .55502 8.0111 132.03)" gradientUnits="userSpaceOnUse" xlink:href="#linearGradient991"/>
  <clipPath id="clipPath26031-8">
   <path d="m-0.99971 1335h1029v-1334h-1029z"/>
  </clipPath>
  <linearGradient id="linearGradient677348" x1="-6.1738" x2="-6.1738" y1="-126.08" y2="-126.7" gradientTransform="matrix(.54035 0 0 .54035 11.592 73.26)" gradientUnits="userSpaceOnUse">
   <stop stop-color="#3c3c3c" offset="0"/>
   <stop stop-color="#141414" offset="1"/>
  </linearGradient>
  <linearGradient id="linearGradient677346" x1="19.27" x2="19.27" y1="280.2" y2="297.35" gradientTransform="matrix(.99997 0 0 .99997 -10.847 -280.07)" gradientUnits="userSpaceOnUse">
   <stop stop-color="#464646" offset="0"/>
   <stop stop-color="#212121" offset="1"/>
  </linearGradient>
  <linearGradient id="linearGradient677332" x1="16.721" x2="16.721" y1="279.38" y2="297.64" gradientTransform="matrix(.98127 0 0 .99997 -7.7456 -280.07)" gradientUnits="userSpaceOnUse">
   <stop stop-color="#464646" offset="0"/>
   <stop stop-color="#212121" offset="1"/>
  </linearGradient>
 </defs>
 <circle cx="8.4939" cy="8.7323" r="7.9375" opacity=".2" stroke-width=".14032"/>
 <ellipse cx="8.4939" cy="8.4723" rx="7.7988" ry="7.9476" fill="url(#linearGradient677332)" stroke-width="1.1902" style="paint-order:stroke markers fill"/>
 <g transform="matrix(.85831 0 0 .85831 -5.1757 -241.4)">
  <circle cx="15.926" cy="290.69" r="7.9375" fill="#fafafa" style="paint-order:normal"/>
  <path d="m10.551 285.17c-0.04221 0.0443-0.07897 0.0835-0.13658 0.14895l11.024 9.8e-4c-0.05944-0.0607-0.08604-0.0922-0.14076-0.15z" fill="url(#linearGradient13564)" opacity=".6" style="paint-order:normal"/>
  <path d="m10.431 296.06c0.04857 0.052 0.08052 0.0907 0.1349 0.15h10.72c0.05003-0.0561 0.07465-0.0855 0.13441-0.15z" fill="url(#linearGradient13566)" opacity=".6" style="paint-order:normal"/>
  <path d="m9.1386 287.33c-0.022302 0.0517-0.037132 0.0892-0.065978 0.15h13.708c-0.02381-0.0504-0.04631-0.10145-0.06843-0.15z" fill="url(#linearGradient13568-3)" opacity=".6" style="paint-order:normal"/>
  <path d="m8.5204 289.52c-0.00964 0.0489-0.015643 0.0999-0.024922 0.15h14.862c-0.0088-0.0501-0.01516-0.10114-0.0259-0.15z" fill="url(#linearGradient13570)" opacity=".6" style="paint-order:normal"/>
  <path d="m8.4942 291.7c0.00899 0.0501 0.01744 0.10011 0.027371 0.15h14.811c0.0093-0.0539 0.01711-0.0968 0.02541-0.15z" fill="url(#linearGradient13572)" opacity=".6" style="paint-order:normal"/>
  <path d="m9.0766 293.88c0.021867 0.0535 0.040442 0.0932 0.064512 0.15h13.57c0.02313-0.0512 0.03674-0.0804 0.06941-0.15z" fill="url(#linearGradient13574)" opacity=".6" style="paint-order:normal"/>
 </g>
 <path d="m8.4929 3.3025c-0.32458 7.94e-4 -0.42373 0.31783-0.58797 0.60998l-0.34222 0.60817-6.1696 5.29e-4a7.9376 8.2266 0 0 0-0.83717 3.6563 7.9376 8.2266 0 0 0 7.9376 8.2266 7.9376 8.2266 0 0 0 7.9376-8.2266 7.9376 8.2266 0 0 0-1.5556-4.875h-6.3815z" fill="url(#linearGradient677346)" stroke-width="1.1312" style="paint-order:stroke markers fill"/>
 <path d="m1.3021 4.8324c-0.0461 0.091-0.0916 0.18276-0.13426 0.27537h14.652c-0.0408-0.0926-0.0896-0.18438-0.13374-0.27537z" fill="url(#linearGradient677348)" stroke-width=".14297"/>
 <g transform="matrix(.8235 0 0 .8235 -101.84 -179.34)">
  <g transform="matrix(.096904 0 0 -.096904 83.957 299.14)" fill="#a0641e" opacity=".5">
   <g fill="#a0641e"></g>
  </g>
  <g transform="matrix(.096904 0 0 -.096904 83.957 298.87)" fill="#fff">
   <g fill="#fff">
    <g fill="#fff">
     <g fill="#fff">
      <g clip-path="url(#clipPath26031-8)" fill="#fff">
       <path d="m508.6 714.78v-5.746h-9.928c-0.51 0-0.966-0.293-1.184-0.755-0.211-0.463-0.137-1.001 0.191-1.389l17.53-20.497c0.245-0.286 0.605-0.456 0.986-0.456s0.742 0.17 0.988 0.456l17.516 20.497c0.333 0.388 0.408 0.932 0.19 1.389-0.21 0.462-0.674 0.755-1.184 0.755h-9.929c-5.7619 12.045-3.7849 29.758 2.481 36.97-10.955-6.59-17.657-18.439-17.657-31.224" fill="#fff"/>
      </g>
     </g>
    </g>
   </g>
  </g>
  <rect x="131.73" y="232.93" width="4.498" height=".26459" fill="#fff" style="paint-order:normal"/>
 </g>
 <circle cx="-330.36" cy="-328.39" r="0" fill="#5e4aa6" stroke-width=".26459"/>
</svg>
