<?xml version="1.0" encoding="UTF-8" standalone="no"?>
<svg
   xmlns:dc="http://purl.org/dc/elements/1.1/"
   xmlns:cc="http://creativecommons.org/ns#"
   xmlns:rdf="http://www.w3.org/1999/02/22-rdf-syntax-ns#"
   xmlns:svg="http://www.w3.org/2000/svg"
   xmlns="http://www.w3.org/2000/svg"
   xmlns:sodipodi="http://sodipodi.sourceforge.net/DTD/sodipodi-0.dtd"
   xmlns:inkscape="http://www.inkscape.org/namespaces/inkscape"
   width="32"
   height="32"
   version="1.1"
   id="svg6"
   sodipodi:docname="system-lock-screen.svg"
   inkscape:version="0.92.4 5da689c313, 2019-01-14">
  <metadata
     id="metadata12">
    <rdf:RDF>
      <cc:Work
         rdf:about="">
        <dc:format>image/svg+xml</dc:format>
        <dc:type
           rdf:resource="http://purl.org/dc/dcmitype/StillImage" />
        <dc:title></dc:title>
      </cc:Work>
    </rdf:RDF>
  </metadata>
  <defs
     id="defs10" />
  <sodipodi:namedview
     pagecolor="#c8c8c8"
     bordercolor="#666666"
     borderopacity="1"
     objecttolerance="10"
     gridtolerance="10"
     guidetolerance="10"
     inkscape:pageopacity="0"
     inkscape:pageshadow="2"
     inkscape:window-width="1920"
     inkscape:window-height="1019"
     id="namedview8"
     showgrid="false"
     inkscape:zoom="7.375"
     inkscape:cx="16"
     inkscape:cy="16"
     inkscape:window-x="0"
     inkscape:window-y="36"
     inkscape:window-maximized="1"
     inkscape:current-layer="svg6" />
  <g
     transform="translate(-162.5,81.999992)"
     id="system-lock-screen">
    <rect
       style="opacity:0;fill:#000000;fill-opacity:1;fill-rule:evenodd;stroke:none;stroke-width:2;stroke-linecap:round;stroke-linejoin:round;stroke-miterlimit:4;stroke-dasharray:none;stroke-opacity:1;paint-order:fill markers stroke"
       id="rect1209"
       width="32"
       height="32"
       x="162.5"
       y="-81.999992"
       rx="0"
       ry="0" />
    <path
       style="fill:#ffffff;fill-opacity:1;stroke-width:0.02365883"
       inkscape:connector-curvature="0"
       d="m 184.49999,-69.499995 h -1 v -2.00001 c 0,-2.75999 -2.24001,-4.99999 -5,-4.99999 -2.75999,0 -4.99999,2.24 -4.99999,4.99999 v 2.00001 h -1 c -1.10501,0 -2.00001,0.895 -2.00001,2.00001 V -57.5 c 0,1.10501 0.895,2.00001 2.00001,2.00001 h 11.99999 c 1.105,0 2.00001,-0.895 2.00001,-2.00001 v -9.999985 c 0,-1.10501 -0.89501,-2.00001 -2.00001,-2.00001 z m -6,8.999985 c -1.105,0 -2,-0.895 -2,-2 0,-1.10501 0.895,-2.00001 2,-2.00001 1.10501,0 2.00001,0.895 2.00001,2.00001 -2e-5,1.10502 -0.895,2 -2.00001,2 z m 3.1,-8.999985 h -6.2 v -2.00001 c 0,-1.70999 1.39001,-3.09999 3.1,-3.09999 1.71,0 3.1,1.39 3.1,3.09999 z"
       p-id="42306"
       id="path1086" />
  </g>
</svg>
