<?xml version="1.0" encoding="UTF-8" standalone="no"?>
<svg
   xmlns:dc="http://purl.org/dc/elements/1.1/"
   xmlns:cc="http://creativecommons.org/ns#"
   xmlns:rdf="http://www.w3.org/1999/02/22-rdf-syntax-ns#"
   xmlns:svg="http://www.w3.org/2000/svg"
   xmlns="http://www.w3.org/2000/svg"
   xmlns:sodipodi="http://sodipodi.sourceforge.net/DTD/sodipodi-0.dtd"
   xmlns:inkscape="http://www.inkscape.org/namespaces/inkscape"
   width="32"
   height="32"
   version="1.1"
   id="svg6"
   sodipodi:docname="system-log-out.svg"
   inkscape:version="0.92.4 5da689c313, 2019-01-14">
  <metadata
     id="metadata12">
    <rdf:RDF>
      <cc:Work
         rdf:about="">
        <dc:format>image/svg+xml</dc:format>
        <dc:type
           rdf:resource="http://purl.org/dc/dcmitype/StillImage" />
        <dc:title></dc:title>
      </cc:Work>
    </rdf:RDF>
  </metadata>
  <defs
     id="defs10" />
  <sodipodi:namedview
     pagecolor="#c8c8c8"
     bordercolor="#666666"
     borderopacity="1"
     objecttolerance="10"
     gridtolerance="10"
     guidetolerance="10"
     inkscape:pageopacity="0"
     inkscape:pageshadow="2"
     inkscape:window-width="1920"
     inkscape:window-height="1019"
     id="namedview8"
     showgrid="false"
     inkscape:zoom="7.375"
     inkscape:cx="16"
     inkscape:cy="16"
     inkscape:window-x="0"
     inkscape:window-y="36"
     inkscape:window-maximized="1"
     inkscape:current-layer="svg6" />
  <g
     transform="translate(-122,81.999992)"
     id="system-log-out">
    <rect
       x="122"
       y="-81.999992"
       width="32"
       height="32"
       rx="0"
       ry="0"
       style="opacity:0;stroke-width:2;paint-order:fill markers stroke"
       id="rect8" />
    <path
       style="color:#000000;overflow:visible;opacity:0.5;fill:none"
       inkscape:connector-curvature="0"
       d="m 138,-80.499992 c -8,0 -14.5,6.5 -14.5,14.5 0,8 6.5,14.5 14.5,14.5 8,0 14.5,-6.5 14.5,-14.5 0,-8 -6.5,-14.5 -14.5,-14.5 z"
       overflow="visible"
       id="path14-3" />
    <path
       style="fill:#ffffff;fill-opacity:1;stroke-width:0.01706899"
       inkscape:connector-curvature="0"
       d="m 139.23302,-64.997586 c 0.55695,-0.533805 0.5588,-1.46386 -0.002,-2.000545 -2.28563,-2.190379 -4.56405,-4.387712 -6.84493,-6.582591 -0.21964,-0.211387 -0.48004,-0.346353 -0.78775,-0.394126 -0.0614,-0.0095 -0.1233,-0.01673 -0.18498,-0.02514 -0.0179,0 -0.0358,0 -0.0537,0 -0.0702,0.0097 -0.14116,0.0158 -0.21041,0.02946 -0.57946,0.114166 -0.9543,0.445624 -1.11303,0.992462 -0.0557,0.192207 -0.0488,0.416119 -0.0197,0.597739 0.0305,0.189933 0.12381,0.365291 0.25197,0.517425 0.0599,0.07122 0.12269,0.140946 0.19001,0.205799 1.9324,1.86054 3.86569,3.720548 5.79913,5.580161 0.0251,0.0242 0.0562,0.04281 0.0903,0.06833 -0.0369,0.03726 -0.0604,0.06194 -0.0849,0.08539 -1.87193,1.801087 -3.74244,3.603614 -5.61746,5.401648 -0.27545,0.264086 -0.58367,0.521734 -0.629,0.908666 -0.0215,0.182634 -0.0324,0.370213 0,0.551332 0.016,0.08979 0.0567,0.174513 0.0956,0.25714 0.41166,0.875937 1.55773,1.075562 2.27384,0.388192 2.28378,-2.192243 4.56051,-4.391002 6.84623,-6.581315 z m -7.87258,-9.002375 -0.21042,0.02946 c 0.0694,-0.01367 0.14028,-0.0198 0.21042,-0.02946 z m 8.23135,0.01633 c -0.66127,0.04787 -1.22569,0.620045 -1.24687,1.257456 -0.0139,0.418226 0.1415,0.764318 0.44709,1.058084 1.93828,1.862647 3.87473,3.727127 5.81248,5.590207 0.0267,0.02567 0.0641,0.041 0.11477,0.07245 -0.0584,0.04467 -0.089,0.06373 -0.11424,0.08795 -1.18421,1.13849 -2.36798,2.277573 -3.55174,3.416563 -0.75759,0.728811 -1.51502,1.457869 -2.27279,2.186499 -0.33845,0.325462 -0.49296,0.71502 -0.41845,1.172899 0.084,0.517665 0.39051,0.879251 0.89988,1.054957 0.5125,0.176639 0.98657,0.08042 1.40069,-0.265346 0.0338,-0.02814 0.066,-0.05806 0.0977,-0.08853 2.26435,-2.178396 4.52369,-4.361589 6.79623,-6.531943 0.579,-0.553097 0.58217,-1.488972 0.021,-2.026678 -2.28579,-2.190146 -4.56411,-4.387538 -6.8449,-6.582505 -0.21972,-0.211405 -0.48049,-0.345832 -0.7881,-0.393538 -0.0615,-0.0095 -0.12339,-0.01667 -0.18508,-0.0248 -0.0179,0 -0.0358,0 -0.0537,8.6e-5 -0.0379,0.006 -0.0759,0.0134 -0.11398,0.0162 z m 0,0"
       p-id="30596"
       id="path926" />
  </g>
</svg>
